G04 #@! TF.GenerationSoftware,KiCad,Pcbnew,(5.1.4)-1*
G04 #@! TF.CreationDate,2020-04-24T18:52:46+02:00*
G04 #@! TF.ProjectId,electronic_load,656c6563-7472-46f6-9e69-635f6c6f6164,rev?*
G04 #@! TF.SameCoordinates,Original*
G04 #@! TF.FileFunction,Copper,L2,Bot*
G04 #@! TF.FilePolarity,Positive*
%FSLAX46Y46*%
G04 Gerber Fmt 4.6, Leading zero omitted, Abs format (unit mm)*
G04 Created by KiCad (PCBNEW (5.1.4)-1) date 2020-04-24 18:52:46*
%MOMM*%
%LPD*%
G04 APERTURE LIST*
%ADD10C,0.100000*%
%ADD11C,1.750000*%
%ADD12R,1.750000X1.750000*%
%ADD13C,1.600000*%
%ADD14R,1.600000X1.600000*%
%ADD15C,2.600000*%
%ADD16R,2.600000X2.600000*%
%ADD17R,1.250000X1.000000*%
%ADD18R,1.000000X1.250000*%
%ADD19C,6.400000*%
%ADD20C,4.400000*%
%ADD21R,1.700000X1.700000*%
%ADD22O,1.700000X1.700000*%
%ADD23R,0.700000X1.300000*%
%ADD24O,1.727200X1.727200*%
%ADD25R,1.727200X1.727200*%
%ADD26C,1.501140*%
%ADD27C,0.800000*%
%ADD28C,0.250000*%
%ADD29C,5.000000*%
%ADD30C,0.254000*%
G04 APERTURE END LIST*
D10*
G36*
X83566000Y-85648800D02*
G01*
X78384400Y-85648800D01*
X78384400Y-79197200D01*
X83566000Y-79197200D01*
X83566000Y-85648800D01*
G37*
X83566000Y-85648800D02*
X78384400Y-85648800D01*
X78384400Y-79197200D01*
X83566000Y-79197200D01*
X83566000Y-85648800D01*
G36*
X73152000Y-85953600D02*
G01*
X67360800Y-85953600D01*
X67360800Y-82042000D01*
X73152000Y-82042000D01*
X73152000Y-85953600D01*
G37*
X73152000Y-85953600D02*
X67360800Y-85953600D01*
X67360800Y-82042000D01*
X73152000Y-82042000D01*
X73152000Y-85953600D01*
D11*
X110998000Y-112348000D03*
X110998000Y-114848000D03*
D12*
X110998000Y-117348000D03*
D11*
X110998000Y-101172000D03*
X110998000Y-103672000D03*
D12*
X110998000Y-106172000D03*
D13*
X91163000Y-75311000D03*
D14*
X97663000Y-75311000D03*
D12*
X110998000Y-94996000D03*
D11*
X110998000Y-92496000D03*
X110998000Y-89996000D03*
D15*
X59799200Y-76149200D03*
X64799200Y-76149200D03*
D16*
X69799200Y-76149200D03*
D17*
X97663000Y-79168500D03*
X97663000Y-77168500D03*
X86360000Y-96044000D03*
X86360000Y-98044000D03*
X63500000Y-114792000D03*
X63500000Y-112792000D03*
X49784000Y-110044500D03*
X49784000Y-108044500D03*
X49784000Y-118634000D03*
X49784000Y-120634000D03*
D18*
X62468000Y-119888000D03*
X60468000Y-119888000D03*
D17*
X66548000Y-113808000D03*
X66548000Y-115808000D03*
X55372000Y-114792000D03*
X55372000Y-112792000D03*
D18*
X60468000Y-108712000D03*
X62468000Y-108712000D03*
X56325500Y-120142000D03*
X58325500Y-120142000D03*
D17*
X86360000Y-105680000D03*
X86360000Y-107680000D03*
D12*
X57912000Y-125730000D03*
D11*
X60412000Y-125730000D03*
X62912000Y-125730000D03*
X65412000Y-125730000D03*
D19*
X109855000Y-127000000D03*
X51435000Y-127000000D03*
X109855000Y-72644000D03*
X51435000Y-72644000D03*
D20*
X76120000Y-116668000D03*
X101830000Y-116668000D03*
X101830000Y-88868000D03*
X76120000Y-88868000D03*
D21*
X85165000Y-88468000D03*
D22*
X87705000Y-88468000D03*
X90245000Y-88468000D03*
X92785000Y-88468000D03*
D23*
X61468000Y-117856000D03*
X59568000Y-117856000D03*
X61468000Y-115824000D03*
X59568000Y-115824000D03*
D12*
X50546000Y-87162000D03*
D11*
X50546000Y-89662000D03*
D24*
X67564000Y-102616000D03*
X67564000Y-105156000D03*
X65024000Y-102616000D03*
X65024000Y-105156000D03*
X62484000Y-102616000D03*
D25*
X62484000Y-105156000D03*
D16*
X81153000Y-76136500D03*
D15*
X76073000Y-76136500D03*
D26*
X49784000Y-116740940D03*
X49784000Y-111859060D03*
D23*
X60320000Y-112776000D03*
X58420000Y-112776000D03*
D27*
X81407000Y-84836000D03*
X82804000Y-84836000D03*
X80010000Y-83312000D03*
X80010000Y-84836000D03*
X70993000Y-83121500D03*
X70993000Y-84772500D03*
X69659500Y-84772500D03*
X68262500Y-84772500D03*
X69659500Y-83121500D03*
X68262500Y-83121500D03*
X69913500Y-81661000D03*
X71564500Y-81661000D03*
X68262500Y-81661000D03*
X68262500Y-80200500D03*
X69913500Y-80200500D03*
X71564500Y-80200500D03*
X79248000Y-81788000D03*
X79248000Y-80264000D03*
X81089500Y-80264000D03*
X82804000Y-80264000D03*
X81089500Y-81788000D03*
X82804000Y-81788000D03*
X81407000Y-83312000D03*
X82804000Y-83312000D03*
X68580000Y-113792000D03*
X60960000Y-110236000D03*
X56896000Y-114808000D03*
X61849000Y-121793000D03*
X65024000Y-114300000D03*
X57912000Y-102362000D03*
X61595000Y-114173000D03*
X64770000Y-117602000D03*
X64516000Y-110744000D03*
X59436000Y-110744000D03*
X91503500Y-97091500D03*
X82359500Y-115506500D03*
X73660000Y-103632000D03*
X69723000Y-95948500D03*
X87630000Y-104648000D03*
X87630000Y-95504000D03*
X57658000Y-110998000D03*
X65024000Y-113284000D03*
X71632655Y-121259030D03*
X81534000Y-121285000D03*
X90113315Y-120618521D03*
X68834000Y-120410946D03*
X69659500Y-119697500D03*
X99123500Y-120713500D03*
X68580000Y-115316000D03*
X57912000Y-117856000D03*
X62484000Y-110236000D03*
X56896000Y-113284000D03*
X60452000Y-121412000D03*
X63500000Y-99016970D03*
X58991500Y-90805000D03*
X62928500Y-92964000D03*
X66294000Y-88773000D03*
X85090000Y-108712000D03*
X83566000Y-101346000D03*
X85090000Y-99314000D03*
X62738000Y-116840000D03*
X95186500Y-120618521D03*
X70739000Y-122618500D03*
X62484000Y-117856000D03*
X96329500Y-120618521D03*
X70542099Y-123598936D03*
X68326000Y-106934000D03*
X96774000Y-106934000D03*
X69064771Y-124192090D03*
X79878344Y-107065664D03*
X97028000Y-104140000D03*
X72136000Y-106172000D03*
X75184000Y-101346000D03*
X78994000Y-124714000D03*
X63071206Y-123151525D03*
X95631000Y-124587000D03*
X66686962Y-124169010D03*
X69786500Y-118618000D03*
X96774000Y-119126000D03*
X99060000Y-104140000D03*
X97536000Y-97028000D03*
X76263500Y-126428500D03*
X105156000Y-125730000D03*
X112776000Y-120650000D03*
X87376000Y-97028000D03*
X81788000Y-96266000D03*
X67564000Y-107696000D03*
X89408000Y-115316000D03*
X96737000Y-99314000D03*
X92964000Y-101092000D03*
X71120000Y-89916000D03*
D28*
X66548000Y-113870500D02*
X68501500Y-113870500D01*
X68501500Y-113870500D02*
X68580000Y-113792000D01*
X60530500Y-108712000D02*
X60530500Y-109806500D01*
X60530500Y-109806500D02*
X60960000Y-110236000D01*
X55372000Y-114729500D02*
X56817500Y-114729500D01*
X56817500Y-114729500D02*
X56896000Y-114808000D01*
X62405500Y-119888000D02*
X62405500Y-120982500D01*
X62405500Y-120982500D02*
X61976000Y-121412000D01*
X63929500Y-114300000D02*
X63500000Y-114729500D01*
X65024000Y-114300000D02*
X63929500Y-114300000D01*
D29*
X81127600Y-78648077D02*
X81127600Y-81229200D01*
X81102200Y-76784200D02*
X81102200Y-78622677D01*
X81102200Y-78622677D02*
X81127600Y-78648077D01*
D28*
X86360000Y-105680000D02*
X86598000Y-105680000D01*
X86598000Y-105680000D02*
X87630000Y-104648000D01*
X86360000Y-96044000D02*
X87090000Y-96044000D01*
X87090000Y-96044000D02*
X87630000Y-95504000D01*
X58420000Y-112776000D02*
X58420000Y-111760000D01*
X58420000Y-111760000D02*
X57658000Y-110998000D01*
X56388000Y-117348000D02*
X56388000Y-120142000D01*
X58420000Y-112776000D02*
X58420000Y-115316000D01*
X58420000Y-115316000D02*
X56388000Y-117348000D01*
X58263000Y-121081000D02*
X62912000Y-125730000D01*
X58263000Y-120142000D02*
X58263000Y-121081000D01*
X49784000Y-118696500D02*
X49784000Y-116740940D01*
X49784000Y-109982000D02*
X49784000Y-111859060D01*
X63500000Y-112854500D02*
X64594500Y-112854500D01*
X64594500Y-112854500D02*
X65024000Y-113284000D01*
D29*
X75902190Y-74630286D02*
X75902190Y-76784200D01*
X64452500Y-76149200D02*
X64452500Y-73995286D01*
X64454404Y-73975596D02*
X67500500Y-70929500D01*
X72221094Y-70949190D02*
X75902190Y-74630286D01*
X67645286Y-70949190D02*
X72221094Y-70949190D01*
D28*
X81534000Y-121285000D02*
X71658625Y-121285000D01*
X71658625Y-121285000D02*
X71632655Y-121259030D01*
X90113315Y-120618521D02*
X89547630Y-120618521D01*
X89388609Y-120459500D02*
X69448239Y-120459500D01*
X69399685Y-120410946D02*
X68834000Y-120410946D01*
X89547630Y-120618521D02*
X89388609Y-120459500D01*
X69448239Y-120459500D02*
X69399685Y-120410946D01*
X69659500Y-119697500D02*
X70225185Y-119697500D01*
X70225185Y-119697500D02*
X70421196Y-119893511D01*
X70421196Y-119893511D02*
X92011804Y-119893511D01*
X92011804Y-119893511D02*
X98303511Y-119893511D01*
X98303511Y-119893511D02*
X99123500Y-120713500D01*
X66977500Y-115316000D02*
X66548000Y-115745500D01*
X68580000Y-115316000D02*
X66977500Y-115316000D01*
X59568000Y-115824000D02*
X59568000Y-117856000D01*
X59568000Y-117856000D02*
X57912000Y-117856000D01*
X62484000Y-108790500D02*
X62405500Y-108712000D01*
X62484000Y-110236000D02*
X62484000Y-108790500D01*
X55801500Y-113284000D02*
X55372000Y-112854500D01*
X56896000Y-113284000D02*
X55801500Y-113284000D01*
X60452000Y-119966500D02*
X60530500Y-119888000D01*
X60452000Y-121412000D02*
X60452000Y-119966500D01*
X60320000Y-112776000D02*
X60320000Y-113676000D01*
X59568000Y-114428000D02*
X59568000Y-115824000D01*
X60320000Y-113676000D02*
X59568000Y-114428000D01*
X62484000Y-100032970D02*
X62484000Y-102616000D01*
X63500000Y-99016970D02*
X62484000Y-100032970D01*
X85165000Y-89568000D02*
X85165000Y-88468000D01*
X82277000Y-92456000D02*
X85165000Y-89568000D01*
X58991500Y-90805000D02*
X61150500Y-92964000D01*
X61150500Y-92964000D02*
X62928500Y-92964000D01*
X71558004Y-88773000D02*
X75241004Y-92456000D01*
X75241004Y-92456000D02*
X82277000Y-92456000D01*
X66294000Y-88773000D02*
X71558004Y-88773000D01*
X108538000Y-92456000D02*
X110998000Y-89996000D01*
X82277000Y-92456000D02*
X108538000Y-92456000D01*
X108585000Y-92503000D02*
X108538000Y-92456000D01*
X108585000Y-93345000D02*
X108585000Y-92503000D01*
X85165000Y-88468000D02*
X85165000Y-87368000D01*
X85165000Y-87368000D02*
X95364500Y-77168500D01*
X95364500Y-77168500D02*
X97663000Y-77168500D01*
X97663000Y-77168500D02*
X97663000Y-75311000D01*
X86360000Y-107680000D02*
X86122000Y-107680000D01*
X86122000Y-107680000D02*
X85090000Y-108712000D01*
X50546000Y-89662000D02*
X69840681Y-89662000D01*
X81299211Y-101120530D02*
X81699210Y-101520529D01*
X69840681Y-89662000D02*
X81299211Y-101120530D01*
X81699210Y-101520529D02*
X83391471Y-101520529D01*
X83391471Y-101520529D02*
X83566000Y-101346000D01*
X86360000Y-98044000D02*
X85090000Y-99314000D01*
X61976000Y-116332000D02*
X61468000Y-115824000D01*
X62230000Y-116332000D02*
X62738000Y-116840000D01*
X61976000Y-116332000D02*
X62230000Y-116332000D01*
X94786501Y-121018520D02*
X95186500Y-120618521D01*
X93186521Y-122618500D02*
X94786501Y-121018520D01*
X70739000Y-122618500D02*
X93186521Y-122618500D01*
X62484000Y-117856000D02*
X61468000Y-117856000D01*
X70542099Y-123598936D02*
X93349085Y-123598936D01*
X95929501Y-121018520D02*
X96329500Y-120618521D01*
X93349085Y-123598936D02*
X95929501Y-121018520D01*
X68326000Y-106934000D02*
X68891685Y-106934000D01*
X96374001Y-107333999D02*
X96774000Y-106934000D01*
X84709000Y-109601000D02*
X94107000Y-109601000D01*
X94107000Y-109601000D02*
X96374001Y-107333999D01*
X68326000Y-106934000D02*
X78300585Y-106934000D01*
X78300585Y-106934000D02*
X79348598Y-105885987D01*
X79348598Y-105885987D02*
X80993987Y-105885987D01*
X80993987Y-105885987D02*
X84709000Y-109601000D01*
X69064771Y-124192090D02*
X68108999Y-123236318D01*
X68108999Y-123236318D02*
X68108999Y-118835009D01*
X79478345Y-107465663D02*
X79878344Y-107065664D01*
X68108999Y-118835009D02*
X79478345Y-107465663D01*
D29*
X69799200Y-82449200D02*
X69799200Y-83515200D01*
X69850000Y-76556000D02*
X69850000Y-82856000D01*
D28*
X75583999Y-106153001D02*
X75565000Y-106172000D01*
X75583999Y-101745999D02*
X75583999Y-106153001D01*
X75184000Y-101346000D02*
X75583999Y-101745999D01*
X75565000Y-106172000D02*
X72136000Y-106172000D01*
X75565000Y-106172000D02*
X76301024Y-105435976D01*
X76301024Y-105435976D02*
X83083976Y-105435976D01*
X96628001Y-104539999D02*
X97028000Y-104140000D01*
X84153001Y-106505001D02*
X94662999Y-106505001D01*
X83083976Y-105435976D02*
X84153001Y-106505001D01*
X94662999Y-106505001D02*
X96628001Y-104539999D01*
X78994000Y-124714000D02*
X69615863Y-124714000D01*
X68716770Y-124917091D02*
X66951204Y-123151525D01*
X69412772Y-124917091D02*
X68716770Y-124917091D01*
X66951204Y-123151525D02*
X63636891Y-123151525D01*
X63636891Y-123151525D02*
X63071206Y-123151525D01*
X69615863Y-124714000D02*
X69412772Y-124917091D01*
X67956954Y-125439002D02*
X67086961Y-124569009D01*
X94778998Y-125439002D02*
X67956954Y-125439002D01*
X95631000Y-124587000D02*
X94778998Y-125439002D01*
X67086961Y-124569009D02*
X66686962Y-124169010D01*
X69786500Y-118618000D02*
X70612000Y-119443500D01*
X70612000Y-119443500D02*
X96456500Y-119443500D01*
X96456500Y-119443500D02*
X96774000Y-119126000D01*
X99060000Y-104140000D02*
X99060000Y-98552000D01*
X99060000Y-98552000D02*
X97536000Y-97028000D01*
X76263500Y-126428500D02*
X76829185Y-126428500D01*
X76829185Y-126428500D02*
X104457500Y-126428500D01*
X104457500Y-126428500D02*
X105156000Y-125730000D01*
X110998000Y-92496000D02*
X113030000Y-94528000D01*
X113030000Y-101640000D02*
X110998000Y-103672000D01*
X113030000Y-94528000D02*
X113030000Y-101640000D01*
X112235436Y-103672000D02*
X113030000Y-104466564D01*
X110998000Y-103672000D02*
X112235436Y-103672000D01*
X113030000Y-112816000D02*
X110998000Y-114848000D01*
X113030000Y-104466564D02*
X113030000Y-112816000D01*
X111872999Y-115722999D02*
X110998000Y-114848000D01*
X113175999Y-117025999D02*
X111872999Y-115722999D01*
X113175999Y-120250001D02*
X113175999Y-117025999D01*
X112776000Y-120650000D02*
X113175999Y-120250001D01*
X82550000Y-97028000D02*
X87376000Y-97028000D01*
X81788000Y-96266000D02*
X82550000Y-97028000D01*
X80173998Y-106335998D02*
X89154000Y-115316000D01*
X79534998Y-106335998D02*
X80173998Y-106335998D01*
X78174996Y-107696000D02*
X79534998Y-106335998D01*
X89154000Y-115316000D02*
X89408000Y-115316000D01*
X67564000Y-107696000D02*
X78174996Y-107696000D01*
X94742000Y-99314000D02*
X96737000Y-99314000D01*
X92964000Y-101092000D02*
X94742000Y-99314000D01*
X81824998Y-100620998D02*
X71519999Y-90315999D01*
X71519999Y-90315999D02*
X71120000Y-89916000D01*
X92492998Y-100620998D02*
X81824998Y-100620998D01*
X92964000Y-101092000D02*
X92492998Y-100620998D01*
D30*
G36*
X65750360Y-68310232D02*
G01*
X65392615Y-68603825D01*
X62245434Y-71751008D01*
X62224996Y-71767781D01*
X62208223Y-71788219D01*
X62128729Y-71867713D01*
X61835136Y-72225457D01*
X61544029Y-72770079D01*
X61364766Y-73361029D01*
X61304237Y-73975596D01*
X61317500Y-74110259D01*
X61317500Y-74938588D01*
X61302213Y-74915709D01*
X61032691Y-74646187D01*
X60715766Y-74434425D01*
X60363619Y-74288561D01*
X59989781Y-74214200D01*
X59608619Y-74214200D01*
X59234781Y-74288561D01*
X58882634Y-74434425D01*
X58565709Y-74646187D01*
X58296187Y-74915709D01*
X58084425Y-75232634D01*
X57938561Y-75584781D01*
X57864200Y-75958619D01*
X57864200Y-76339781D01*
X57938561Y-76713619D01*
X58084425Y-77065766D01*
X58296187Y-77382691D01*
X58565709Y-77652213D01*
X58882634Y-77863975D01*
X59234781Y-78009839D01*
X59608619Y-78084200D01*
X59989781Y-78084200D01*
X60363619Y-78009839D01*
X60715766Y-77863975D01*
X61032691Y-77652213D01*
X61302213Y-77382691D01*
X61473051Y-77127013D01*
X61542124Y-77354716D01*
X61833231Y-77899339D01*
X62224995Y-78376705D01*
X62702360Y-78768469D01*
X63246983Y-79059576D01*
X63837933Y-79238838D01*
X64452500Y-79299368D01*
X65067066Y-79238838D01*
X65658016Y-79059576D01*
X66202639Y-78768469D01*
X66680005Y-78376705D01*
X66715000Y-78334063D01*
X66715001Y-81816705D01*
X66709562Y-81834634D01*
X66708747Y-81842905D01*
X66690769Y-81899580D01*
X66690501Y-81901968D01*
X66689791Y-81904262D01*
X66683054Y-81968366D01*
X66675867Y-82032436D01*
X66675835Y-82037050D01*
X66675817Y-82037218D01*
X66675832Y-82037386D01*
X66675800Y-82042000D01*
X66675800Y-82177423D01*
X66664200Y-82295199D01*
X66664200Y-83669202D01*
X66675800Y-83786978D01*
X66675800Y-85953600D01*
X66682090Y-86017745D01*
X66687933Y-86081956D01*
X66688612Y-86084262D01*
X66688846Y-86086651D01*
X66707466Y-86148323D01*
X66725679Y-86210206D01*
X66726792Y-86212336D01*
X66727486Y-86214633D01*
X66757716Y-86271486D01*
X66787616Y-86328681D01*
X66789123Y-86330555D01*
X66790249Y-86332673D01*
X66830957Y-86382586D01*
X66871386Y-86432869D01*
X66873227Y-86434413D01*
X66874744Y-86436274D01*
X66924416Y-86477366D01*
X66973798Y-86518803D01*
X66975902Y-86519960D01*
X66977753Y-86521491D01*
X67034439Y-86552141D01*
X67090950Y-86583208D01*
X67093242Y-86583935D01*
X67095352Y-86585076D01*
X67156884Y-86604124D01*
X67218380Y-86623631D01*
X67220768Y-86623899D01*
X67223062Y-86624609D01*
X67287166Y-86631346D01*
X67351236Y-86638533D01*
X67355850Y-86638565D01*
X67356018Y-86638583D01*
X67356186Y-86638568D01*
X67360800Y-86638600D01*
X69527422Y-86638600D01*
X69799200Y-86665368D01*
X70070978Y-86638600D01*
X73152000Y-86638600D01*
X73216145Y-86632310D01*
X73280356Y-86626467D01*
X73282662Y-86625788D01*
X73285051Y-86625554D01*
X73346723Y-86606934D01*
X73408606Y-86588721D01*
X73410736Y-86587608D01*
X73413033Y-86586914D01*
X73469886Y-86556684D01*
X73527081Y-86526784D01*
X73528955Y-86525277D01*
X73531073Y-86524151D01*
X73580986Y-86483443D01*
X73631269Y-86443014D01*
X73632813Y-86441173D01*
X73634674Y-86439656D01*
X73675766Y-86389984D01*
X73717203Y-86340602D01*
X73718360Y-86338498D01*
X73719891Y-86336647D01*
X73750541Y-86279961D01*
X73781608Y-86223450D01*
X73782335Y-86221158D01*
X73783476Y-86219048D01*
X73802524Y-86157516D01*
X73822031Y-86096020D01*
X73822299Y-86093632D01*
X73823009Y-86091338D01*
X73829746Y-86027234D01*
X73836933Y-85963164D01*
X73836965Y-85958550D01*
X73836983Y-85958382D01*
X73836968Y-85958214D01*
X73837000Y-85953600D01*
X73837000Y-82042000D01*
X73830710Y-81977855D01*
X73824867Y-81913644D01*
X73824188Y-81911338D01*
X73823954Y-81908949D01*
X73805334Y-81847277D01*
X73787121Y-81785394D01*
X73786008Y-81783264D01*
X73785314Y-81780967D01*
X73755084Y-81724114D01*
X73725184Y-81666919D01*
X73723677Y-81665045D01*
X73722551Y-81662927D01*
X73681843Y-81613014D01*
X73641414Y-81562731D01*
X73639573Y-81561187D01*
X73638056Y-81559326D01*
X73588384Y-81518234D01*
X73539002Y-81476797D01*
X73536898Y-81475640D01*
X73535047Y-81474109D01*
X73478361Y-81443459D01*
X73421850Y-81412392D01*
X73419558Y-81411665D01*
X73417448Y-81410524D01*
X73355916Y-81391476D01*
X73294420Y-81371969D01*
X73292032Y-81371701D01*
X73289738Y-81370991D01*
X73225634Y-81364254D01*
X73161564Y-81357067D01*
X73156950Y-81357035D01*
X73156782Y-81357017D01*
X73156614Y-81357032D01*
X73152000Y-81357000D01*
X72985000Y-81357000D01*
X72985000Y-77967254D01*
X72991814Y-77989717D01*
X73282922Y-78534340D01*
X73674686Y-79011705D01*
X74152051Y-79403469D01*
X74696674Y-79694576D01*
X75287624Y-79873838D01*
X75902190Y-79934368D01*
X76516757Y-79873838D01*
X77107707Y-79694576D01*
X77652330Y-79403469D01*
X77699400Y-79364840D01*
X77699400Y-85648800D01*
X77705690Y-85712945D01*
X77711533Y-85777156D01*
X77712212Y-85779462D01*
X77712446Y-85781851D01*
X77731066Y-85843523D01*
X77749279Y-85905406D01*
X77750392Y-85907536D01*
X77751086Y-85909833D01*
X77781316Y-85966686D01*
X77811216Y-86023881D01*
X77812723Y-86025755D01*
X77813849Y-86027873D01*
X77854557Y-86077786D01*
X77894986Y-86128069D01*
X77896827Y-86129613D01*
X77898344Y-86131474D01*
X77948016Y-86172566D01*
X77997398Y-86214003D01*
X77999502Y-86215160D01*
X78001353Y-86216691D01*
X78058039Y-86247341D01*
X78114550Y-86278408D01*
X78116842Y-86279135D01*
X78118952Y-86280276D01*
X78180484Y-86299324D01*
X78241980Y-86318831D01*
X78244368Y-86319099D01*
X78246662Y-86319809D01*
X78310766Y-86326546D01*
X78374836Y-86333733D01*
X78379450Y-86333765D01*
X78379618Y-86333783D01*
X78379786Y-86333768D01*
X78384400Y-86333800D01*
X83566000Y-86333800D01*
X83630145Y-86327510D01*
X83694356Y-86321667D01*
X83696662Y-86320988D01*
X83699051Y-86320754D01*
X83760723Y-86302134D01*
X83822606Y-86283921D01*
X83824736Y-86282808D01*
X83827033Y-86282114D01*
X83883886Y-86251884D01*
X83941081Y-86221984D01*
X83942955Y-86220477D01*
X83945073Y-86219351D01*
X83994986Y-86178643D01*
X84045269Y-86138214D01*
X84046813Y-86136373D01*
X84048674Y-86134856D01*
X84089766Y-86085184D01*
X84131203Y-86035802D01*
X84132360Y-86033698D01*
X84133891Y-86031847D01*
X84164541Y-85975161D01*
X84195608Y-85918650D01*
X84196335Y-85916358D01*
X84197476Y-85914248D01*
X84216524Y-85852716D01*
X84236031Y-85791220D01*
X84236299Y-85788832D01*
X84237009Y-85786538D01*
X84243746Y-85722434D01*
X84250933Y-85658364D01*
X84250965Y-85653750D01*
X84250983Y-85653582D01*
X84250968Y-85653414D01*
X84251000Y-85648800D01*
X84251000Y-79197200D01*
X84244710Y-79133055D01*
X84238867Y-79068844D01*
X84238188Y-79066538D01*
X84237954Y-79064149D01*
X84219334Y-79002477D01*
X84201121Y-78940594D01*
X84200008Y-78938464D01*
X84199314Y-78936167D01*
X84169084Y-78879314D01*
X84139184Y-78822119D01*
X84137677Y-78820245D01*
X84136551Y-78818127D01*
X84095843Y-78768214D01*
X84055414Y-78717931D01*
X84053573Y-78716387D01*
X84052056Y-78714526D01*
X84002384Y-78673434D01*
X83953002Y-78631997D01*
X83950898Y-78630840D01*
X83949047Y-78629309D01*
X83892361Y-78598659D01*
X83835850Y-78567592D01*
X83833558Y-78566865D01*
X83831448Y-78565724D01*
X83769916Y-78546676D01*
X83708420Y-78527169D01*
X83706032Y-78526901D01*
X83703738Y-78526191D01*
X83639634Y-78519454D01*
X83575564Y-78512267D01*
X83570950Y-78512235D01*
X83570782Y-78512217D01*
X83570614Y-78512232D01*
X83566000Y-78512200D01*
X78533293Y-78512200D01*
X78812566Y-77989717D01*
X78980381Y-77436500D01*
X79214928Y-77436500D01*
X79227188Y-77560982D01*
X79263498Y-77680680D01*
X79322463Y-77790994D01*
X79401815Y-77887685D01*
X79498506Y-77967037D01*
X79608820Y-78026002D01*
X79728518Y-78062312D01*
X79853000Y-78074572D01*
X80867250Y-78071500D01*
X81026000Y-77912750D01*
X81026000Y-76263500D01*
X81280000Y-76263500D01*
X81280000Y-77912750D01*
X81438750Y-78071500D01*
X82453000Y-78074572D01*
X82577482Y-78062312D01*
X82697180Y-78026002D01*
X82807494Y-77967037D01*
X82904185Y-77887685D01*
X82983537Y-77790994D01*
X83042502Y-77680680D01*
X83078812Y-77560982D01*
X83091072Y-77436500D01*
X83088000Y-76422250D01*
X82929250Y-76263500D01*
X81280000Y-76263500D01*
X81026000Y-76263500D01*
X79376750Y-76263500D01*
X79218000Y-76422250D01*
X79214928Y-77436500D01*
X78980381Y-77436500D01*
X78991828Y-77398767D01*
X79037190Y-76938202D01*
X79037190Y-74836500D01*
X79214928Y-74836500D01*
X79218000Y-75850750D01*
X79376750Y-76009500D01*
X81026000Y-76009500D01*
X81026000Y-74360250D01*
X81280000Y-74360250D01*
X81280000Y-76009500D01*
X82929250Y-76009500D01*
X83088000Y-75850750D01*
X83090062Y-75169665D01*
X89728000Y-75169665D01*
X89728000Y-75452335D01*
X89783147Y-75729574D01*
X89891320Y-75990727D01*
X90048363Y-76225759D01*
X90248241Y-76425637D01*
X90483273Y-76582680D01*
X90744426Y-76690853D01*
X91021665Y-76746000D01*
X91304335Y-76746000D01*
X91581574Y-76690853D01*
X91842727Y-76582680D01*
X92077759Y-76425637D01*
X92277637Y-76225759D01*
X92434680Y-75990727D01*
X92542853Y-75729574D01*
X92598000Y-75452335D01*
X92598000Y-75169665D01*
X92542853Y-74892426D01*
X92434680Y-74631273D01*
X92277637Y-74396241D01*
X92077759Y-74196363D01*
X91842727Y-74039320D01*
X91581574Y-73931147D01*
X91304335Y-73876000D01*
X91021665Y-73876000D01*
X90744426Y-73931147D01*
X90483273Y-74039320D01*
X90248241Y-74196363D01*
X90048363Y-74396241D01*
X89891320Y-74631273D01*
X89783147Y-74892426D01*
X89728000Y-75169665D01*
X83090062Y-75169665D01*
X83091072Y-74836500D01*
X83078812Y-74712018D01*
X83042502Y-74592320D01*
X82983537Y-74482006D01*
X82904185Y-74385315D01*
X82807494Y-74305963D01*
X82697180Y-74246998D01*
X82577482Y-74210688D01*
X82453000Y-74198428D01*
X81438750Y-74201500D01*
X81280000Y-74360250D01*
X81026000Y-74360250D01*
X80867250Y-74201500D01*
X79853000Y-74198428D01*
X79728518Y-74210688D01*
X79608820Y-74246998D01*
X79498506Y-74305963D01*
X79401815Y-74385315D01*
X79322463Y-74482006D01*
X79263498Y-74592320D01*
X79227188Y-74712018D01*
X79214928Y-74836500D01*
X79037190Y-74836500D01*
X79037190Y-74784281D01*
X79052357Y-74630286D01*
X79037190Y-74476291D01*
X79037190Y-74476284D01*
X78991828Y-74015719D01*
X78812566Y-73424769D01*
X78521459Y-72880146D01*
X78307713Y-72619695D01*
X106001520Y-72619695D01*
X106070822Y-73371938D01*
X106285548Y-74096208D01*
X106637445Y-74764670D01*
X106664452Y-74805088D01*
X107154119Y-75165276D01*
X109675395Y-72644000D01*
X110034605Y-72644000D01*
X112555881Y-75165276D01*
X113045548Y-74805088D01*
X113405849Y-74141118D01*
X113629694Y-73419615D01*
X113708480Y-72668305D01*
X113639178Y-71916062D01*
X113424452Y-71191792D01*
X113072555Y-70523330D01*
X113045548Y-70482912D01*
X112555881Y-70122724D01*
X110034605Y-72644000D01*
X109675395Y-72644000D01*
X107154119Y-70122724D01*
X106664452Y-70482912D01*
X106304151Y-71146882D01*
X106080306Y-71868385D01*
X106001520Y-72619695D01*
X78307713Y-72619695D01*
X78129695Y-72402781D01*
X78010072Y-72304609D01*
X75648582Y-69943119D01*
X107333724Y-69943119D01*
X109855000Y-72464395D01*
X112376276Y-69943119D01*
X112016088Y-69453452D01*
X111352118Y-69093151D01*
X110630615Y-68869306D01*
X109879305Y-68790520D01*
X109127062Y-68859822D01*
X108402792Y-69074548D01*
X107734330Y-69426445D01*
X107693912Y-69453452D01*
X107333724Y-69943119D01*
X75648582Y-69943119D01*
X74546777Y-68841315D01*
X74448599Y-68721685D01*
X73971234Y-68329921D01*
X73773070Y-68224000D01*
X109825608Y-68224000D01*
X110637249Y-68296437D01*
X111394774Y-68503672D01*
X112103625Y-68841777D01*
X112741404Y-69300067D01*
X113287946Y-69864055D01*
X113725977Y-70515913D01*
X114041651Y-71235038D01*
X114226206Y-72003768D01*
X114275001Y-72668221D01*
X114275000Y-126970608D01*
X114202563Y-127782249D01*
X113995328Y-128539774D01*
X113657221Y-129248627D01*
X113198928Y-129886410D01*
X112634945Y-130432946D01*
X111983085Y-130870978D01*
X111263963Y-131186651D01*
X110495232Y-131371206D01*
X109830792Y-131420000D01*
X51464392Y-131420000D01*
X50652751Y-131347563D01*
X49895226Y-131140328D01*
X49186373Y-130802221D01*
X48548590Y-130343928D01*
X48002054Y-129779945D01*
X47948926Y-129700881D01*
X48913724Y-129700881D01*
X49273912Y-130190548D01*
X49937882Y-130550849D01*
X50659385Y-130774694D01*
X51410695Y-130853480D01*
X52162938Y-130784178D01*
X52887208Y-130569452D01*
X53555670Y-130217555D01*
X53596088Y-130190548D01*
X53956276Y-129700881D01*
X107333724Y-129700881D01*
X107693912Y-130190548D01*
X108357882Y-130550849D01*
X109079385Y-130774694D01*
X109830695Y-130853480D01*
X110582938Y-130784178D01*
X111307208Y-130569452D01*
X111975670Y-130217555D01*
X112016088Y-130190548D01*
X112376276Y-129700881D01*
X109855000Y-127179605D01*
X107333724Y-129700881D01*
X53956276Y-129700881D01*
X51435000Y-127179605D01*
X48913724Y-129700881D01*
X47948926Y-129700881D01*
X47564022Y-129128085D01*
X47248349Y-128408963D01*
X47063794Y-127640232D01*
X47015000Y-126975792D01*
X47015000Y-126975695D01*
X47581520Y-126975695D01*
X47650822Y-127727938D01*
X47865548Y-128452208D01*
X48217445Y-129120670D01*
X48244452Y-129161088D01*
X48734119Y-129521276D01*
X51255395Y-127000000D01*
X51614605Y-127000000D01*
X54135881Y-129521276D01*
X54625548Y-129161088D01*
X54985849Y-128497118D01*
X55209694Y-127775615D01*
X55288480Y-127024305D01*
X55219178Y-126272062D01*
X55004452Y-125547792D01*
X54652555Y-124879330D01*
X54625548Y-124838912D01*
X54135881Y-124478724D01*
X51614605Y-127000000D01*
X51255395Y-127000000D01*
X48734119Y-124478724D01*
X48244452Y-124838912D01*
X47884151Y-125502882D01*
X47660306Y-126224385D01*
X47581520Y-126975695D01*
X47015000Y-126975695D01*
X47015000Y-124299119D01*
X48913724Y-124299119D01*
X51435000Y-126820395D01*
X53956276Y-124299119D01*
X53596088Y-123809452D01*
X52932118Y-123449151D01*
X52210615Y-123225306D01*
X51459305Y-123146520D01*
X50707062Y-123215822D01*
X49982792Y-123430548D01*
X49314330Y-123782445D01*
X49273912Y-123809452D01*
X48913724Y-124299119D01*
X47015000Y-124299119D01*
X47015000Y-121134000D01*
X48520928Y-121134000D01*
X48533188Y-121258482D01*
X48569498Y-121378180D01*
X48628463Y-121488494D01*
X48707815Y-121585185D01*
X48804506Y-121664537D01*
X48914820Y-121723502D01*
X49034518Y-121759812D01*
X49159000Y-121772072D01*
X49498250Y-121769000D01*
X49657000Y-121610250D01*
X49657000Y-120761000D01*
X49911000Y-120761000D01*
X49911000Y-121610250D01*
X50069750Y-121769000D01*
X50409000Y-121772072D01*
X50533482Y-121759812D01*
X50653180Y-121723502D01*
X50763494Y-121664537D01*
X50860185Y-121585185D01*
X50939537Y-121488494D01*
X50998502Y-121378180D01*
X51034812Y-121258482D01*
X51047072Y-121134000D01*
X51044000Y-120919750D01*
X50885250Y-120761000D01*
X49911000Y-120761000D01*
X49657000Y-120761000D01*
X48682750Y-120761000D01*
X48524000Y-120919750D01*
X48520928Y-121134000D01*
X47015000Y-121134000D01*
X47015000Y-116604473D01*
X48398430Y-116604473D01*
X48398430Y-116877407D01*
X48451677Y-117145096D01*
X48556124Y-117397253D01*
X48707758Y-117624189D01*
X48739984Y-117656415D01*
X48707815Y-117682815D01*
X48628463Y-117779506D01*
X48569498Y-117889820D01*
X48533188Y-118009518D01*
X48520928Y-118134000D01*
X48520928Y-119134000D01*
X48533188Y-119258482D01*
X48569498Y-119378180D01*
X48628463Y-119488494D01*
X48707815Y-119585185D01*
X48767296Y-119634000D01*
X48707815Y-119682815D01*
X48628463Y-119779506D01*
X48569498Y-119889820D01*
X48533188Y-120009518D01*
X48520928Y-120134000D01*
X48524000Y-120348250D01*
X48682750Y-120507000D01*
X49657000Y-120507000D01*
X49657000Y-120487000D01*
X49911000Y-120487000D01*
X49911000Y-120507000D01*
X50885250Y-120507000D01*
X51044000Y-120348250D01*
X51047072Y-120134000D01*
X51034812Y-120009518D01*
X50998502Y-119889820D01*
X50939537Y-119779506D01*
X50860185Y-119682815D01*
X50800704Y-119634000D01*
X50860185Y-119585185D01*
X50939537Y-119488494D01*
X50998502Y-119378180D01*
X51034812Y-119258482D01*
X51047072Y-119134000D01*
X51047072Y-118134000D01*
X51034812Y-118009518D01*
X50998502Y-117889820D01*
X50939537Y-117779506D01*
X50860185Y-117682815D01*
X50828016Y-117656415D01*
X50860242Y-117624189D01*
X51011876Y-117397253D01*
X51116323Y-117145096D01*
X51169570Y-116877407D01*
X51169570Y-116604473D01*
X51116323Y-116336784D01*
X51011876Y-116084627D01*
X50860242Y-115857691D01*
X50667249Y-115664698D01*
X50440313Y-115513064D01*
X50188156Y-115408617D01*
X49920467Y-115355370D01*
X49647533Y-115355370D01*
X49379844Y-115408617D01*
X49127687Y-115513064D01*
X48900751Y-115664698D01*
X48707758Y-115857691D01*
X48556124Y-116084627D01*
X48451677Y-116336784D01*
X48398430Y-116604473D01*
X47015000Y-116604473D01*
X47015000Y-115292000D01*
X54108928Y-115292000D01*
X54121188Y-115416482D01*
X54157498Y-115536180D01*
X54216463Y-115646494D01*
X54295815Y-115743185D01*
X54392506Y-115822537D01*
X54502820Y-115881502D01*
X54622518Y-115917812D01*
X54747000Y-115930072D01*
X55086250Y-115927000D01*
X55245000Y-115768250D01*
X55245000Y-114919000D01*
X55499000Y-114919000D01*
X55499000Y-115768250D01*
X55657750Y-115927000D01*
X55997000Y-115930072D01*
X56121482Y-115917812D01*
X56241180Y-115881502D01*
X56351494Y-115822537D01*
X56448185Y-115743185D01*
X56527537Y-115646494D01*
X56586502Y-115536180D01*
X56622812Y-115416482D01*
X56635072Y-115292000D01*
X56632000Y-115077750D01*
X56473250Y-114919000D01*
X55499000Y-114919000D01*
X55245000Y-114919000D01*
X54270750Y-114919000D01*
X54112000Y-115077750D01*
X54108928Y-115292000D01*
X47015000Y-115292000D01*
X47015000Y-111722593D01*
X48398430Y-111722593D01*
X48398430Y-111995527D01*
X48451677Y-112263216D01*
X48556124Y-112515373D01*
X48707758Y-112742309D01*
X48900751Y-112935302D01*
X49127687Y-113086936D01*
X49379844Y-113191383D01*
X49647533Y-113244630D01*
X49920467Y-113244630D01*
X50188156Y-113191383D01*
X50440313Y-113086936D01*
X50667249Y-112935302D01*
X50860242Y-112742309D01*
X51011876Y-112515373D01*
X51104400Y-112292000D01*
X54108928Y-112292000D01*
X54108928Y-113292000D01*
X54121188Y-113416482D01*
X54157498Y-113536180D01*
X54216463Y-113646494D01*
X54295815Y-113743185D01*
X54355296Y-113792000D01*
X54295815Y-113840815D01*
X54216463Y-113937506D01*
X54157498Y-114047820D01*
X54121188Y-114167518D01*
X54108928Y-114292000D01*
X54112000Y-114506250D01*
X54270750Y-114665000D01*
X55245000Y-114665000D01*
X55245000Y-114645000D01*
X55499000Y-114645000D01*
X55499000Y-114665000D01*
X56473250Y-114665000D01*
X56632000Y-114506250D01*
X56635072Y-114292000D01*
X56634607Y-114287283D01*
X56794061Y-114319000D01*
X56997939Y-114319000D01*
X57197898Y-114279226D01*
X57386256Y-114201205D01*
X57555774Y-114087937D01*
X57660000Y-113983711D01*
X57660001Y-115001197D01*
X55877003Y-116784196D01*
X55847999Y-116807999D01*
X55812294Y-116851506D01*
X55753026Y-116923724D01*
X55684427Y-117052063D01*
X55682454Y-117055754D01*
X55638997Y-117199015D01*
X55628000Y-117310668D01*
X55628000Y-117310678D01*
X55624324Y-117348000D01*
X55628000Y-117385323D01*
X55628001Y-118913338D01*
X55581320Y-118927498D01*
X55471006Y-118986463D01*
X55374315Y-119065815D01*
X55294963Y-119162506D01*
X55235998Y-119272820D01*
X55199688Y-119392518D01*
X55187428Y-119517000D01*
X55187428Y-120767000D01*
X55199688Y-120891482D01*
X55235998Y-121011180D01*
X55294963Y-121121494D01*
X55374315Y-121218185D01*
X55471006Y-121297537D01*
X55581320Y-121356502D01*
X55701018Y-121392812D01*
X55825500Y-121405072D01*
X56825500Y-121405072D01*
X56949982Y-121392812D01*
X57069680Y-121356502D01*
X57179994Y-121297537D01*
X57276685Y-121218185D01*
X57325500Y-121158704D01*
X57374315Y-121218185D01*
X57471006Y-121297537D01*
X57546774Y-121338036D01*
X57557454Y-121373246D01*
X57628026Y-121505276D01*
X57695012Y-121586898D01*
X57723000Y-121621001D01*
X57751998Y-121644799D01*
X60327198Y-124220000D01*
X60263278Y-124220000D01*
X59971549Y-124278029D01*
X59696747Y-124391856D01*
X59449431Y-124557107D01*
X59380974Y-124625564D01*
X59376502Y-124610820D01*
X59317537Y-124500506D01*
X59238185Y-124403815D01*
X59141494Y-124324463D01*
X59031180Y-124265498D01*
X58911482Y-124229188D01*
X58787000Y-124216928D01*
X57037000Y-124216928D01*
X56912518Y-124229188D01*
X56792820Y-124265498D01*
X56682506Y-124324463D01*
X56585815Y-124403815D01*
X56506463Y-124500506D01*
X56447498Y-124610820D01*
X56411188Y-124730518D01*
X56398928Y-124855000D01*
X56398928Y-126605000D01*
X56411188Y-126729482D01*
X56447498Y-126849180D01*
X56506463Y-126959494D01*
X56585815Y-127056185D01*
X56682506Y-127135537D01*
X56792820Y-127194502D01*
X56912518Y-127230812D01*
X57037000Y-127243072D01*
X58787000Y-127243072D01*
X58911482Y-127230812D01*
X59031180Y-127194502D01*
X59141494Y-127135537D01*
X59238185Y-127056185D01*
X59317537Y-126959494D01*
X59376502Y-126849180D01*
X59380974Y-126834436D01*
X59449431Y-126902893D01*
X59696747Y-127068144D01*
X59971549Y-127181971D01*
X60263278Y-127240000D01*
X60560722Y-127240000D01*
X60852451Y-127181971D01*
X61127253Y-127068144D01*
X61374569Y-126902893D01*
X61584893Y-126692569D01*
X61662000Y-126577170D01*
X61739107Y-126692569D01*
X61949431Y-126902893D01*
X62196747Y-127068144D01*
X62471549Y-127181971D01*
X62763278Y-127240000D01*
X63060722Y-127240000D01*
X63352451Y-127181971D01*
X63627253Y-127068144D01*
X63874569Y-126902893D01*
X64001222Y-126776240D01*
X64545365Y-126776240D01*
X64626025Y-127027868D01*
X64894329Y-127156267D01*
X65182526Y-127229855D01*
X65479543Y-127245804D01*
X65773963Y-127203501D01*
X66054474Y-127104572D01*
X66197975Y-127027868D01*
X66278635Y-126776240D01*
X65412000Y-125909605D01*
X64545365Y-126776240D01*
X64001222Y-126776240D01*
X64084893Y-126692569D01*
X64187232Y-126539407D01*
X64365760Y-126596635D01*
X65232395Y-125730000D01*
X64365760Y-124863365D01*
X64187232Y-124920593D01*
X64084893Y-124767431D01*
X63874569Y-124557107D01*
X63627253Y-124391856D01*
X63352451Y-124278029D01*
X63060722Y-124220000D01*
X62763278Y-124220000D01*
X62524332Y-124267530D01*
X60678938Y-122422136D01*
X60753898Y-122407226D01*
X60942256Y-122329205D01*
X61111774Y-122215937D01*
X61255937Y-122071774D01*
X61369205Y-121902256D01*
X61447226Y-121713898D01*
X61487000Y-121513939D01*
X61487000Y-121310061D01*
X61447226Y-121110102D01*
X61395005Y-120984029D01*
X61419185Y-120964185D01*
X61468000Y-120904704D01*
X61516815Y-120964185D01*
X61613506Y-121043537D01*
X61723820Y-121102502D01*
X61843518Y-121138812D01*
X61968000Y-121151072D01*
X62182250Y-121148000D01*
X62341000Y-120989250D01*
X62341000Y-120015000D01*
X62595000Y-120015000D01*
X62595000Y-120989250D01*
X62753750Y-121148000D01*
X62968000Y-121151072D01*
X63092482Y-121138812D01*
X63212180Y-121102502D01*
X63322494Y-121043537D01*
X63419185Y-120964185D01*
X63498537Y-120867494D01*
X63557502Y-120757180D01*
X63593812Y-120637482D01*
X63606072Y-120513000D01*
X63603000Y-120173750D01*
X63444250Y-120015000D01*
X62595000Y-120015000D01*
X62341000Y-120015000D01*
X62321000Y-120015000D01*
X62321000Y-119761000D01*
X62341000Y-119761000D01*
X62341000Y-119741000D01*
X62595000Y-119741000D01*
X62595000Y-119761000D01*
X63444250Y-119761000D01*
X63603000Y-119602250D01*
X63606072Y-119263000D01*
X63593812Y-119138518D01*
X63557502Y-119018820D01*
X63498537Y-118908506D01*
X63419185Y-118811815D01*
X63322494Y-118732463D01*
X63212180Y-118673498D01*
X63149290Y-118654421D01*
X63287937Y-118515774D01*
X63401205Y-118346256D01*
X63479226Y-118157898D01*
X63519000Y-117957939D01*
X63519000Y-117754061D01*
X63480617Y-117561094D01*
X63541937Y-117499774D01*
X63655205Y-117330256D01*
X63733226Y-117141898D01*
X63773000Y-116941939D01*
X63773000Y-116738061D01*
X63733226Y-116538102D01*
X63655205Y-116349744D01*
X63541937Y-116180226D01*
X63397774Y-116036063D01*
X63228256Y-115922795D01*
X63221326Y-115919924D01*
X63373000Y-115768250D01*
X63373000Y-114919000D01*
X63627000Y-114919000D01*
X63627000Y-115768250D01*
X63785750Y-115927000D01*
X64125000Y-115930072D01*
X64249482Y-115917812D01*
X64369180Y-115881502D01*
X64479494Y-115822537D01*
X64576185Y-115743185D01*
X64655537Y-115646494D01*
X64714502Y-115536180D01*
X64750812Y-115416482D01*
X64763072Y-115292000D01*
X64760000Y-115077750D01*
X64601250Y-114919000D01*
X63627000Y-114919000D01*
X63373000Y-114919000D01*
X63353000Y-114919000D01*
X63353000Y-114665000D01*
X63373000Y-114665000D01*
X63373000Y-114645000D01*
X63627000Y-114645000D01*
X63627000Y-114665000D01*
X64601250Y-114665000D01*
X64760000Y-114506250D01*
X64763072Y-114292000D01*
X64762607Y-114287283D01*
X64922061Y-114319000D01*
X65125939Y-114319000D01*
X65285225Y-114287316D01*
X65284928Y-114308000D01*
X65297188Y-114432482D01*
X65333498Y-114552180D01*
X65392463Y-114662494D01*
X65471815Y-114759185D01*
X65531296Y-114808000D01*
X65471815Y-114856815D01*
X65392463Y-114953506D01*
X65333498Y-115063820D01*
X65297188Y-115183518D01*
X65284928Y-115308000D01*
X65284928Y-116308000D01*
X65297188Y-116432482D01*
X65333498Y-116552180D01*
X65392463Y-116662494D01*
X65471815Y-116759185D01*
X65568506Y-116838537D01*
X65678820Y-116897502D01*
X65798518Y-116933812D01*
X65923000Y-116946072D01*
X67173000Y-116946072D01*
X67297482Y-116933812D01*
X67417180Y-116897502D01*
X67527494Y-116838537D01*
X67624185Y-116759185D01*
X67703537Y-116662494D01*
X67762502Y-116552180D01*
X67798812Y-116432482D01*
X67811072Y-116308000D01*
X67811072Y-116076000D01*
X67876289Y-116076000D01*
X67920226Y-116119937D01*
X68089744Y-116233205D01*
X68278102Y-116311226D01*
X68478061Y-116351000D01*
X68681939Y-116351000D01*
X68881898Y-116311226D01*
X69070256Y-116233205D01*
X69239774Y-116119937D01*
X69383937Y-115975774D01*
X69497205Y-115806256D01*
X69575226Y-115617898D01*
X69615000Y-115417939D01*
X69615000Y-115214061D01*
X69575226Y-115014102D01*
X69497205Y-114825744D01*
X69383937Y-114656226D01*
X69239774Y-114512063D01*
X69070256Y-114398795D01*
X68881898Y-114320774D01*
X68681939Y-114281000D01*
X68478061Y-114281000D01*
X68278102Y-114320774D01*
X68089744Y-114398795D01*
X67920226Y-114512063D01*
X67876289Y-114556000D01*
X67760460Y-114556000D01*
X67762502Y-114552180D01*
X67798812Y-114432482D01*
X67811072Y-114308000D01*
X67808000Y-114093750D01*
X67649250Y-113935000D01*
X66675000Y-113935000D01*
X66675000Y-113955000D01*
X66421000Y-113955000D01*
X66421000Y-113935000D01*
X66401000Y-113935000D01*
X66401000Y-113681000D01*
X66421000Y-113681000D01*
X66421000Y-112831750D01*
X66675000Y-112831750D01*
X66675000Y-113681000D01*
X67649250Y-113681000D01*
X67808000Y-113522250D01*
X67811072Y-113308000D01*
X67798812Y-113183518D01*
X67762502Y-113063820D01*
X67703537Y-112953506D01*
X67624185Y-112856815D01*
X67527494Y-112777463D01*
X67417180Y-112718498D01*
X67297482Y-112682188D01*
X67173000Y-112669928D01*
X66833750Y-112673000D01*
X66675000Y-112831750D01*
X66421000Y-112831750D01*
X66262250Y-112673000D01*
X65923000Y-112669928D01*
X65862458Y-112675891D01*
X65827937Y-112624226D01*
X65683774Y-112480063D01*
X65514256Y-112366795D01*
X65325898Y-112288774D01*
X65125939Y-112249000D01*
X65054690Y-112249000D01*
X65018776Y-112219526D01*
X64886747Y-112148954D01*
X64743486Y-112105497D01*
X64731644Y-112104331D01*
X64714502Y-112047820D01*
X64655537Y-111937506D01*
X64576185Y-111840815D01*
X64479494Y-111761463D01*
X64369180Y-111702498D01*
X64249482Y-111666188D01*
X64125000Y-111653928D01*
X62875000Y-111653928D01*
X62750518Y-111666188D01*
X62630820Y-111702498D01*
X62520506Y-111761463D01*
X62423815Y-111840815D01*
X62344463Y-111937506D01*
X62285498Y-112047820D01*
X62249188Y-112167518D01*
X62236928Y-112292000D01*
X62236928Y-113292000D01*
X62249188Y-113416482D01*
X62285498Y-113536180D01*
X62344463Y-113646494D01*
X62423815Y-113743185D01*
X62483296Y-113792000D01*
X62423815Y-113840815D01*
X62344463Y-113937506D01*
X62285498Y-114047820D01*
X62249188Y-114167518D01*
X62236928Y-114292000D01*
X62240000Y-114506250D01*
X62398748Y-114664998D01*
X62240000Y-114664998D01*
X62240000Y-114698864D01*
X62172494Y-114643463D01*
X62062180Y-114584498D01*
X61942482Y-114548188D01*
X61818000Y-114535928D01*
X61118000Y-114535928D01*
X60993518Y-114548188D01*
X60873820Y-114584498D01*
X60763506Y-114643463D01*
X60666815Y-114722815D01*
X60587463Y-114819506D01*
X60528498Y-114929820D01*
X60518000Y-114964427D01*
X60507502Y-114929820D01*
X60448537Y-114819506D01*
X60369185Y-114722815D01*
X60357542Y-114713260D01*
X60831002Y-114239799D01*
X60860001Y-114216001D01*
X60954974Y-114100276D01*
X61025546Y-113968247D01*
X61030624Y-113951506D01*
X61121185Y-113877185D01*
X61200537Y-113780494D01*
X61259502Y-113670180D01*
X61295812Y-113550482D01*
X61308072Y-113426000D01*
X61308072Y-112126000D01*
X61295812Y-112001518D01*
X61259502Y-111881820D01*
X61200537Y-111771506D01*
X61121185Y-111674815D01*
X61024494Y-111595463D01*
X60914180Y-111536498D01*
X60794482Y-111500188D01*
X60670000Y-111487928D01*
X59970000Y-111487928D01*
X59845518Y-111500188D01*
X59725820Y-111536498D01*
X59615506Y-111595463D01*
X59518815Y-111674815D01*
X59439463Y-111771506D01*
X59380498Y-111881820D01*
X59370000Y-111916427D01*
X59359502Y-111881820D01*
X59300537Y-111771506D01*
X59221185Y-111674815D01*
X59171251Y-111633835D01*
X59169003Y-111611014D01*
X59125546Y-111467753D01*
X59054974Y-111335724D01*
X58960001Y-111219999D01*
X58931002Y-111196201D01*
X58693000Y-110958198D01*
X58693000Y-110896061D01*
X58653226Y-110696102D01*
X58575205Y-110507744D01*
X58461937Y-110338226D01*
X58317774Y-110194063D01*
X58148256Y-110080795D01*
X57959898Y-110002774D01*
X57759939Y-109963000D01*
X57556061Y-109963000D01*
X57356102Y-110002774D01*
X57167744Y-110080795D01*
X56998226Y-110194063D01*
X56854063Y-110338226D01*
X56740795Y-110507744D01*
X56662774Y-110696102D01*
X56623000Y-110896061D01*
X56623000Y-111099939D01*
X56662774Y-111299898D01*
X56740795Y-111488256D01*
X56854063Y-111657774D01*
X56998226Y-111801937D01*
X57167744Y-111915205D01*
X57356102Y-111993226D01*
X57443296Y-112010570D01*
X57431928Y-112126000D01*
X57431928Y-112397312D01*
X57386256Y-112366795D01*
X57197898Y-112288774D01*
X56997939Y-112249000D01*
X56794061Y-112249000D01*
X56633973Y-112280843D01*
X56622812Y-112167518D01*
X56586502Y-112047820D01*
X56527537Y-111937506D01*
X56448185Y-111840815D01*
X56351494Y-111761463D01*
X56241180Y-111702498D01*
X56121482Y-111666188D01*
X55997000Y-111653928D01*
X54747000Y-111653928D01*
X54622518Y-111666188D01*
X54502820Y-111702498D01*
X54392506Y-111761463D01*
X54295815Y-111840815D01*
X54216463Y-111937506D01*
X54157498Y-112047820D01*
X54121188Y-112167518D01*
X54108928Y-112292000D01*
X51104400Y-112292000D01*
X51116323Y-112263216D01*
X51169570Y-111995527D01*
X51169570Y-111722593D01*
X51116323Y-111454904D01*
X51011876Y-111202747D01*
X50867536Y-110986728D01*
X50939537Y-110898994D01*
X50998502Y-110788680D01*
X51034812Y-110668982D01*
X51047072Y-110544500D01*
X51047072Y-109544500D01*
X51034812Y-109420018D01*
X51009629Y-109337000D01*
X59329928Y-109337000D01*
X59342188Y-109461482D01*
X59378498Y-109581180D01*
X59437463Y-109691494D01*
X59516815Y-109788185D01*
X59613506Y-109867537D01*
X59723820Y-109926502D01*
X59843518Y-109962812D01*
X59968000Y-109975072D01*
X60182250Y-109972000D01*
X60341000Y-109813250D01*
X60341000Y-108839000D01*
X59491750Y-108839000D01*
X59333000Y-108997750D01*
X59329928Y-109337000D01*
X51009629Y-109337000D01*
X50998502Y-109300320D01*
X50939537Y-109190006D01*
X50860185Y-109093315D01*
X50800704Y-109044500D01*
X50860185Y-108995685D01*
X50939537Y-108898994D01*
X50998502Y-108788680D01*
X51034812Y-108668982D01*
X51047072Y-108544500D01*
X51044000Y-108330250D01*
X50885250Y-108171500D01*
X49911000Y-108171500D01*
X49911000Y-108191500D01*
X49657000Y-108191500D01*
X49657000Y-108171500D01*
X48682750Y-108171500D01*
X48524000Y-108330250D01*
X48520928Y-108544500D01*
X48533188Y-108668982D01*
X48569498Y-108788680D01*
X48628463Y-108898994D01*
X48707815Y-108995685D01*
X48767296Y-109044500D01*
X48707815Y-109093315D01*
X48628463Y-109190006D01*
X48569498Y-109300320D01*
X48533188Y-109420018D01*
X48520928Y-109544500D01*
X48520928Y-110544500D01*
X48533188Y-110668982D01*
X48569498Y-110788680D01*
X48628463Y-110898994D01*
X48700464Y-110986728D01*
X48556124Y-111202747D01*
X48451677Y-111454904D01*
X48398430Y-111722593D01*
X47015000Y-111722593D01*
X47015000Y-108087000D01*
X59329928Y-108087000D01*
X59333000Y-108426250D01*
X59491750Y-108585000D01*
X60341000Y-108585000D01*
X60341000Y-107610750D01*
X60595000Y-107610750D01*
X60595000Y-108585000D01*
X60615000Y-108585000D01*
X60615000Y-108839000D01*
X60595000Y-108839000D01*
X60595000Y-109813250D01*
X60753750Y-109972000D01*
X60968000Y-109975072D01*
X61092482Y-109962812D01*
X61212180Y-109926502D01*
X61322494Y-109867537D01*
X61419185Y-109788185D01*
X61468000Y-109728704D01*
X61516815Y-109788185D01*
X61540995Y-109808029D01*
X61488774Y-109934102D01*
X61449000Y-110134061D01*
X61449000Y-110337939D01*
X61488774Y-110537898D01*
X61566795Y-110726256D01*
X61680063Y-110895774D01*
X61824226Y-111039937D01*
X61993744Y-111153205D01*
X62182102Y-111231226D01*
X62382061Y-111271000D01*
X62585939Y-111271000D01*
X62785898Y-111231226D01*
X62974256Y-111153205D01*
X63143774Y-111039937D01*
X63287937Y-110895774D01*
X63401205Y-110726256D01*
X63479226Y-110537898D01*
X63519000Y-110337939D01*
X63519000Y-110134061D01*
X63479226Y-109934102D01*
X63418886Y-109788430D01*
X63419185Y-109788185D01*
X63498537Y-109691494D01*
X63557502Y-109581180D01*
X63593812Y-109461482D01*
X63606072Y-109337000D01*
X63606072Y-108087000D01*
X63593812Y-107962518D01*
X63557502Y-107842820D01*
X63498537Y-107732506D01*
X63419185Y-107635815D01*
X63322494Y-107556463D01*
X63212180Y-107497498D01*
X63092482Y-107461188D01*
X62968000Y-107448928D01*
X61968000Y-107448928D01*
X61843518Y-107461188D01*
X61723820Y-107497498D01*
X61613506Y-107556463D01*
X61516815Y-107635815D01*
X61468000Y-107695296D01*
X61419185Y-107635815D01*
X61322494Y-107556463D01*
X61212180Y-107497498D01*
X61092482Y-107461188D01*
X60968000Y-107448928D01*
X60753750Y-107452000D01*
X60595000Y-107610750D01*
X60341000Y-107610750D01*
X60182250Y-107452000D01*
X59968000Y-107448928D01*
X59843518Y-107461188D01*
X59723820Y-107497498D01*
X59613506Y-107556463D01*
X59516815Y-107635815D01*
X59437463Y-107732506D01*
X59378498Y-107842820D01*
X59342188Y-107962518D01*
X59329928Y-108087000D01*
X47015000Y-108087000D01*
X47015000Y-107544500D01*
X48520928Y-107544500D01*
X48524000Y-107758750D01*
X48682750Y-107917500D01*
X49657000Y-107917500D01*
X49657000Y-107068250D01*
X49911000Y-107068250D01*
X49911000Y-107917500D01*
X50885250Y-107917500D01*
X51044000Y-107758750D01*
X51047072Y-107544500D01*
X51034812Y-107420018D01*
X50998502Y-107300320D01*
X50939537Y-107190006D01*
X50860185Y-107093315D01*
X50763494Y-107013963D01*
X50653180Y-106954998D01*
X50533482Y-106918688D01*
X50409000Y-106906428D01*
X50069750Y-106909500D01*
X49911000Y-107068250D01*
X49657000Y-107068250D01*
X49498250Y-106909500D01*
X49159000Y-106906428D01*
X49034518Y-106918688D01*
X48914820Y-106954998D01*
X48804506Y-107013963D01*
X48707815Y-107093315D01*
X48628463Y-107190006D01*
X48569498Y-107300320D01*
X48533188Y-107420018D01*
X48520928Y-107544500D01*
X47015000Y-107544500D01*
X47015000Y-102616000D01*
X60978149Y-102616000D01*
X61007084Y-102909777D01*
X61092775Y-103192264D01*
X61231931Y-103452606D01*
X61419203Y-103680797D01*
X61427265Y-103687414D01*
X61376220Y-103702898D01*
X61265906Y-103761863D01*
X61169215Y-103841215D01*
X61089863Y-103937906D01*
X61030898Y-104048220D01*
X60994588Y-104167918D01*
X60982328Y-104292400D01*
X60982328Y-106019600D01*
X60994588Y-106144082D01*
X61030898Y-106263780D01*
X61089863Y-106374094D01*
X61169215Y-106470785D01*
X61265906Y-106550137D01*
X61376220Y-106609102D01*
X61495918Y-106645412D01*
X61620400Y-106657672D01*
X63347600Y-106657672D01*
X63472082Y-106645412D01*
X63591780Y-106609102D01*
X63702094Y-106550137D01*
X63798785Y-106470785D01*
X63878137Y-106374094D01*
X63937102Y-106263780D01*
X63952586Y-106212735D01*
X63959203Y-106220797D01*
X64187394Y-106408069D01*
X64447736Y-106547225D01*
X64730223Y-106632916D01*
X64950381Y-106654600D01*
X65097619Y-106654600D01*
X65317777Y-106632916D01*
X65600264Y-106547225D01*
X65860606Y-106408069D01*
X66088797Y-106220797D01*
X66276069Y-105992606D01*
X66294000Y-105959060D01*
X66311931Y-105992606D01*
X66499203Y-106220797D01*
X66727394Y-106408069D01*
X66987736Y-106547225D01*
X67270223Y-106632916D01*
X67329452Y-106638750D01*
X67319381Y-106689381D01*
X67262102Y-106700774D01*
X67073744Y-106778795D01*
X66904226Y-106892063D01*
X66760063Y-107036226D01*
X66646795Y-107205744D01*
X66568774Y-107394102D01*
X66529000Y-107594061D01*
X66529000Y-107797939D01*
X66568774Y-107997898D01*
X66646795Y-108186256D01*
X66760063Y-108355774D01*
X66904226Y-108499937D01*
X67073744Y-108613205D01*
X67262102Y-108691226D01*
X67462061Y-108731000D01*
X67665939Y-108731000D01*
X67865898Y-108691226D01*
X68054256Y-108613205D01*
X68223774Y-108499937D01*
X68267711Y-108456000D01*
X77413206Y-108456000D01*
X67597997Y-118271210D01*
X67568999Y-118295008D01*
X67545201Y-118324006D01*
X67545200Y-118324007D01*
X67474025Y-118410733D01*
X67403453Y-118542763D01*
X67381238Y-118616000D01*
X67360763Y-118683500D01*
X67359997Y-118686024D01*
X67345323Y-118835009D01*
X67349000Y-118872341D01*
X67348999Y-122502396D01*
X67243451Y-122445979D01*
X67100190Y-122402522D01*
X66988537Y-122391525D01*
X66988526Y-122391525D01*
X66951204Y-122387849D01*
X66913882Y-122391525D01*
X63774917Y-122391525D01*
X63730980Y-122347588D01*
X63561462Y-122234320D01*
X63373104Y-122156299D01*
X63173145Y-122116525D01*
X62969267Y-122116525D01*
X62769308Y-122156299D01*
X62580950Y-122234320D01*
X62411432Y-122347588D01*
X62267269Y-122491751D01*
X62154001Y-122661269D01*
X62075980Y-122849627D01*
X62036206Y-123049586D01*
X62036206Y-123253464D01*
X62075980Y-123453423D01*
X62154001Y-123641781D01*
X62267269Y-123811299D01*
X62411432Y-123955462D01*
X62580950Y-124068730D01*
X62769308Y-124146751D01*
X62969267Y-124186525D01*
X63173145Y-124186525D01*
X63373104Y-124146751D01*
X63561462Y-124068730D01*
X63730980Y-123955462D01*
X63774917Y-123911525D01*
X65682902Y-123911525D01*
X65651962Y-124067071D01*
X65651962Y-124232823D01*
X65641474Y-124230145D01*
X65344457Y-124214196D01*
X65050037Y-124256499D01*
X64769526Y-124355428D01*
X64626025Y-124432132D01*
X64545365Y-124683760D01*
X65412000Y-125550395D01*
X65426143Y-125536253D01*
X65605748Y-125715858D01*
X65591605Y-125730000D01*
X66458240Y-126596635D01*
X66709868Y-126515975D01*
X66838267Y-126247671D01*
X66911855Y-125959474D01*
X66927804Y-125662457D01*
X66897970Y-125454820D01*
X67393155Y-125950005D01*
X67416953Y-125979003D01*
X67445951Y-126002801D01*
X67532677Y-126073976D01*
X67631133Y-126126602D01*
X67664707Y-126144548D01*
X67807968Y-126188005D01*
X67919621Y-126199002D01*
X67919631Y-126199002D01*
X67956954Y-126202678D01*
X67994277Y-126199002D01*
X75253873Y-126199002D01*
X75228500Y-126326561D01*
X75228500Y-126530439D01*
X75268274Y-126730398D01*
X75346295Y-126918756D01*
X75459563Y-127088274D01*
X75603726Y-127232437D01*
X75773244Y-127345705D01*
X75961602Y-127423726D01*
X76161561Y-127463500D01*
X76365439Y-127463500D01*
X76565398Y-127423726D01*
X76753756Y-127345705D01*
X76923274Y-127232437D01*
X76967211Y-127188500D01*
X104420178Y-127188500D01*
X104457500Y-127192176D01*
X104494822Y-127188500D01*
X104494833Y-127188500D01*
X104606486Y-127177503D01*
X104749747Y-127134046D01*
X104881776Y-127063474D01*
X104997501Y-126968501D01*
X105021303Y-126939498D01*
X105195801Y-126765000D01*
X105257939Y-126765000D01*
X105457898Y-126725226D01*
X105646256Y-126647205D01*
X105815774Y-126533937D01*
X105959937Y-126389774D01*
X106073205Y-126220256D01*
X106106599Y-126139635D01*
X106080306Y-126224385D01*
X106001520Y-126975695D01*
X106070822Y-127727938D01*
X106285548Y-128452208D01*
X106637445Y-129120670D01*
X106664452Y-129161088D01*
X107154119Y-129521276D01*
X109675395Y-127000000D01*
X110034605Y-127000000D01*
X112555881Y-129521276D01*
X113045548Y-129161088D01*
X113405849Y-128497118D01*
X113629694Y-127775615D01*
X113708480Y-127024305D01*
X113639178Y-126272062D01*
X113424452Y-125547792D01*
X113072555Y-124879330D01*
X113045548Y-124838912D01*
X112555881Y-124478724D01*
X110034605Y-127000000D01*
X109675395Y-127000000D01*
X107154119Y-124478724D01*
X106664452Y-124838912D01*
X106304151Y-125502882D01*
X106171238Y-125931292D01*
X106191000Y-125831939D01*
X106191000Y-125628061D01*
X106151226Y-125428102D01*
X106073205Y-125239744D01*
X105959937Y-125070226D01*
X105815774Y-124926063D01*
X105646256Y-124812795D01*
X105457898Y-124734774D01*
X105257939Y-124695000D01*
X105054061Y-124695000D01*
X104854102Y-124734774D01*
X104665744Y-124812795D01*
X104496226Y-124926063D01*
X104352063Y-125070226D01*
X104238795Y-125239744D01*
X104160774Y-125428102D01*
X104121000Y-125628061D01*
X104121000Y-125668500D01*
X95624301Y-125668500D01*
X95670801Y-125622000D01*
X95732939Y-125622000D01*
X95932898Y-125582226D01*
X96121256Y-125504205D01*
X96290774Y-125390937D01*
X96434937Y-125246774D01*
X96548205Y-125077256D01*
X96626226Y-124888898D01*
X96666000Y-124688939D01*
X96666000Y-124485061D01*
X96629015Y-124299119D01*
X107333724Y-124299119D01*
X109855000Y-126820395D01*
X112376276Y-124299119D01*
X112016088Y-123809452D01*
X111352118Y-123449151D01*
X110630615Y-123225306D01*
X109879305Y-123146520D01*
X109127062Y-123215822D01*
X108402792Y-123430548D01*
X107734330Y-123782445D01*
X107693912Y-123809452D01*
X107333724Y-124299119D01*
X96629015Y-124299119D01*
X96626226Y-124285102D01*
X96548205Y-124096744D01*
X96434937Y-123927226D01*
X96290774Y-123783063D01*
X96121256Y-123669795D01*
X95932898Y-123591774D01*
X95732939Y-123552000D01*
X95529061Y-123552000D01*
X95329102Y-123591774D01*
X95140744Y-123669795D01*
X94971226Y-123783063D01*
X94827063Y-123927226D01*
X94713795Y-124096744D01*
X94635774Y-124285102D01*
X94596000Y-124485061D01*
X94596000Y-124547199D01*
X94464197Y-124679002D01*
X80029000Y-124679002D01*
X80029000Y-124612061D01*
X79989226Y-124412102D01*
X79967204Y-124358936D01*
X93311763Y-124358936D01*
X93349085Y-124362612D01*
X93386407Y-124358936D01*
X93386418Y-124358936D01*
X93498071Y-124347939D01*
X93641332Y-124304482D01*
X93773361Y-124233910D01*
X93889086Y-124138937D01*
X93912889Y-124109933D01*
X96369302Y-121653521D01*
X96431439Y-121653521D01*
X96631398Y-121613747D01*
X96819756Y-121535726D01*
X96989274Y-121422458D01*
X97133437Y-121278295D01*
X97246705Y-121108777D01*
X97324726Y-120920419D01*
X97364500Y-120720460D01*
X97364500Y-120653511D01*
X97988710Y-120653511D01*
X98088500Y-120753301D01*
X98088500Y-120815439D01*
X98128274Y-121015398D01*
X98206295Y-121203756D01*
X98319563Y-121373274D01*
X98463726Y-121517437D01*
X98633244Y-121630705D01*
X98821602Y-121708726D01*
X99021561Y-121748500D01*
X99225439Y-121748500D01*
X99425398Y-121708726D01*
X99613756Y-121630705D01*
X99783274Y-121517437D01*
X99927437Y-121373274D01*
X100040705Y-121203756D01*
X100118726Y-121015398D01*
X100158500Y-120815439D01*
X100158500Y-120611561D01*
X100118726Y-120411602D01*
X100040705Y-120223244D01*
X99927437Y-120053726D01*
X99783274Y-119909563D01*
X99613756Y-119796295D01*
X99425398Y-119718274D01*
X99225439Y-119678500D01*
X99163301Y-119678500D01*
X98867314Y-119382513D01*
X98843512Y-119353510D01*
X98727787Y-119258537D01*
X98595758Y-119187965D01*
X98452497Y-119144508D01*
X98340844Y-119133511D01*
X98340833Y-119133511D01*
X98303511Y-119129835D01*
X98266189Y-119133511D01*
X97809000Y-119133511D01*
X97809000Y-119024061D01*
X97769226Y-118824102D01*
X97700331Y-118657775D01*
X100019830Y-118657775D01*
X100259976Y-119045018D01*
X100753877Y-119305641D01*
X101289133Y-119464901D01*
X101845174Y-119516678D01*
X102400632Y-119458981D01*
X102934161Y-119294028D01*
X103400024Y-119045018D01*
X103640170Y-118657775D01*
X101830000Y-116847605D01*
X100019830Y-118657775D01*
X97700331Y-118657775D01*
X97691205Y-118635744D01*
X97577937Y-118466226D01*
X97433774Y-118322063D01*
X97264256Y-118208795D01*
X97075898Y-118130774D01*
X96875939Y-118091000D01*
X96672061Y-118091000D01*
X96472102Y-118130774D01*
X96283744Y-118208795D01*
X96114226Y-118322063D01*
X95970063Y-118466226D01*
X95856795Y-118635744D01*
X95837014Y-118683500D01*
X77914217Y-118683500D01*
X77930170Y-118657775D01*
X76120000Y-116847605D01*
X74309830Y-118657775D01*
X74325783Y-118683500D01*
X70926802Y-118683500D01*
X70821500Y-118578198D01*
X70821500Y-118516061D01*
X70781726Y-118316102D01*
X70703705Y-118127744D01*
X70590437Y-117958226D01*
X70446274Y-117814063D01*
X70301488Y-117717321D01*
X71335635Y-116683174D01*
X73271322Y-116683174D01*
X73329019Y-117238632D01*
X73493972Y-117772161D01*
X73742982Y-118238024D01*
X74130225Y-118478170D01*
X75940395Y-116668000D01*
X76299605Y-116668000D01*
X78109775Y-118478170D01*
X78497018Y-118238024D01*
X78757641Y-117744123D01*
X78916901Y-117208867D01*
X78965852Y-116683174D01*
X98981322Y-116683174D01*
X99039019Y-117238632D01*
X99203972Y-117772161D01*
X99452982Y-118238024D01*
X99840225Y-118478170D01*
X101650395Y-116668000D01*
X102009605Y-116668000D01*
X103819775Y-118478170D01*
X104207018Y-118238024D01*
X104214945Y-118223000D01*
X109484928Y-118223000D01*
X109497188Y-118347482D01*
X109533498Y-118467180D01*
X109592463Y-118577494D01*
X109671815Y-118674185D01*
X109768506Y-118753537D01*
X109878820Y-118812502D01*
X109998518Y-118848812D01*
X110123000Y-118861072D01*
X110712250Y-118858000D01*
X110871000Y-118699250D01*
X110871000Y-117475000D01*
X109646750Y-117475000D01*
X109488000Y-117633750D01*
X109484928Y-118223000D01*
X104214945Y-118223000D01*
X104467641Y-117744123D01*
X104626901Y-117208867D01*
X104678678Y-116652826D01*
X104620981Y-116097368D01*
X104456028Y-115563839D01*
X104207018Y-115097976D01*
X103819775Y-114857830D01*
X102009605Y-116668000D01*
X101650395Y-116668000D01*
X99840225Y-114857830D01*
X99452982Y-115097976D01*
X99192359Y-115591877D01*
X99033099Y-116127133D01*
X98981322Y-116683174D01*
X78965852Y-116683174D01*
X78968678Y-116652826D01*
X78910981Y-116097368D01*
X78746028Y-115563839D01*
X78497018Y-115097976D01*
X78109775Y-114857830D01*
X76299605Y-116668000D01*
X75940395Y-116668000D01*
X74130225Y-114857830D01*
X73742982Y-115097976D01*
X73482359Y-115591877D01*
X73323099Y-116127133D01*
X73271322Y-116683174D01*
X71335635Y-116683174D01*
X73340584Y-114678225D01*
X74309830Y-114678225D01*
X76120000Y-116488395D01*
X77930170Y-114678225D01*
X77690024Y-114290982D01*
X77196123Y-114030359D01*
X76660867Y-113871099D01*
X76104826Y-113819322D01*
X75549368Y-113877019D01*
X75015839Y-114041972D01*
X74549976Y-114290982D01*
X74309830Y-114678225D01*
X73340584Y-114678225D01*
X79918146Y-108100664D01*
X79980283Y-108100664D01*
X80180242Y-108060890D01*
X80368600Y-107982869D01*
X80538118Y-107869601D01*
X80585459Y-107822260D01*
X88435174Y-115671976D01*
X88490795Y-115806256D01*
X88604063Y-115975774D01*
X88748226Y-116119937D01*
X88917744Y-116233205D01*
X89106102Y-116311226D01*
X89306061Y-116351000D01*
X89509939Y-116351000D01*
X89709898Y-116311226D01*
X89898256Y-116233205D01*
X90067774Y-116119937D01*
X90211937Y-115975774D01*
X90325205Y-115806256D01*
X90403226Y-115617898D01*
X90443000Y-115417939D01*
X90443000Y-115214061D01*
X90403226Y-115014102D01*
X90325205Y-114825744D01*
X90226637Y-114678225D01*
X100019830Y-114678225D01*
X101830000Y-116488395D01*
X103640170Y-114678225D01*
X103400024Y-114290982D01*
X102906123Y-114030359D01*
X102370867Y-113871099D01*
X101814826Y-113819322D01*
X101259368Y-113877019D01*
X100725839Y-114041972D01*
X100259976Y-114290982D01*
X100019830Y-114678225D01*
X90226637Y-114678225D01*
X90211937Y-114656226D01*
X90067774Y-114512063D01*
X89898256Y-114398795D01*
X89709898Y-114320774D01*
X89509939Y-114281000D01*
X89306061Y-114281000D01*
X89212427Y-114299625D01*
X85273802Y-110361000D01*
X94069678Y-110361000D01*
X94107000Y-110364676D01*
X94144322Y-110361000D01*
X94144333Y-110361000D01*
X94255986Y-110350003D01*
X94399247Y-110306546D01*
X94531276Y-110235974D01*
X94647001Y-110141001D01*
X94670804Y-110111997D01*
X96813802Y-107969000D01*
X96875939Y-107969000D01*
X97075898Y-107929226D01*
X97264256Y-107851205D01*
X97433774Y-107737937D01*
X97577937Y-107593774D01*
X97691205Y-107424256D01*
X97769226Y-107235898D01*
X97806799Y-107047000D01*
X109484928Y-107047000D01*
X109497188Y-107171482D01*
X109533498Y-107291180D01*
X109592463Y-107401494D01*
X109671815Y-107498185D01*
X109768506Y-107577537D01*
X109878820Y-107636502D01*
X109998518Y-107672812D01*
X110123000Y-107685072D01*
X110712250Y-107682000D01*
X110871000Y-107523250D01*
X110871000Y-106299000D01*
X109646750Y-106299000D01*
X109488000Y-106457750D01*
X109484928Y-107047000D01*
X97806799Y-107047000D01*
X97809000Y-107035939D01*
X97809000Y-106832061D01*
X97769226Y-106632102D01*
X97691205Y-106443744D01*
X97577937Y-106274226D01*
X97433774Y-106130063D01*
X97264256Y-106016795D01*
X97075898Y-105938774D01*
X96875939Y-105899000D01*
X96672061Y-105899000D01*
X96472102Y-105938774D01*
X96283744Y-106016795D01*
X96114226Y-106130063D01*
X95970063Y-106274226D01*
X95856795Y-106443744D01*
X95778774Y-106632102D01*
X95739000Y-106832061D01*
X95739000Y-106894198D01*
X93792199Y-108841000D01*
X86119617Y-108841000D01*
X86124178Y-108818072D01*
X86985000Y-108818072D01*
X87109482Y-108805812D01*
X87229180Y-108769502D01*
X87339494Y-108710537D01*
X87436185Y-108631185D01*
X87515537Y-108534494D01*
X87574502Y-108424180D01*
X87610812Y-108304482D01*
X87623072Y-108180000D01*
X87623072Y-107265001D01*
X94625677Y-107265001D01*
X94662999Y-107268677D01*
X94700321Y-107265001D01*
X94700332Y-107265001D01*
X94811985Y-107254004D01*
X94955246Y-107210547D01*
X95087275Y-107139975D01*
X95203000Y-107045002D01*
X95226803Y-107015999D01*
X97067803Y-105175000D01*
X97129939Y-105175000D01*
X97329898Y-105135226D01*
X97518256Y-105057205D01*
X97687774Y-104943937D01*
X97831937Y-104799774D01*
X97945205Y-104630256D01*
X98023226Y-104441898D01*
X98044000Y-104337459D01*
X98064774Y-104441898D01*
X98142795Y-104630256D01*
X98256063Y-104799774D01*
X98400226Y-104943937D01*
X98569744Y-105057205D01*
X98758102Y-105135226D01*
X98958061Y-105175000D01*
X99161939Y-105175000D01*
X99361898Y-105135226D01*
X99550256Y-105057205D01*
X99719774Y-104943937D01*
X99863937Y-104799774D01*
X99977205Y-104630256D01*
X100055226Y-104441898D01*
X100095000Y-104241939D01*
X100095000Y-104038061D01*
X100055226Y-103838102D01*
X99977205Y-103649744D01*
X99863937Y-103480226D01*
X99820000Y-103436289D01*
X99820000Y-98589322D01*
X99823676Y-98551999D01*
X99820000Y-98514676D01*
X99820000Y-98514667D01*
X99809003Y-98403014D01*
X99765546Y-98259753D01*
X99694974Y-98127724D01*
X99672029Y-98099765D01*
X99623799Y-98040996D01*
X99623795Y-98040992D01*
X99600001Y-98011999D01*
X99571008Y-97988205D01*
X98571000Y-96988198D01*
X98571000Y-96926061D01*
X98531226Y-96726102D01*
X98453205Y-96537744D01*
X98339937Y-96368226D01*
X98195774Y-96224063D01*
X98026256Y-96110795D01*
X97837898Y-96032774D01*
X97637939Y-95993000D01*
X97434061Y-95993000D01*
X97234102Y-96032774D01*
X97045744Y-96110795D01*
X96876226Y-96224063D01*
X96732063Y-96368226D01*
X96618795Y-96537744D01*
X96540774Y-96726102D01*
X96501000Y-96926061D01*
X96501000Y-97129939D01*
X96540774Y-97329898D01*
X96618795Y-97518256D01*
X96732063Y-97687774D01*
X96876226Y-97831937D01*
X97045744Y-97945205D01*
X97234102Y-98023226D01*
X97434061Y-98063000D01*
X97496198Y-98063000D01*
X98300001Y-98866804D01*
X98300000Y-103436289D01*
X98256063Y-103480226D01*
X98142795Y-103649744D01*
X98064774Y-103838102D01*
X98044000Y-103942541D01*
X98023226Y-103838102D01*
X97945205Y-103649744D01*
X97831937Y-103480226D01*
X97687774Y-103336063D01*
X97518256Y-103222795D01*
X97329898Y-103144774D01*
X97129939Y-103105000D01*
X96926061Y-103105000D01*
X96726102Y-103144774D01*
X96537744Y-103222795D01*
X96368226Y-103336063D01*
X96224063Y-103480226D01*
X96110795Y-103649744D01*
X96032774Y-103838102D01*
X95993000Y-104038061D01*
X95993000Y-104100197D01*
X94348198Y-105745001D01*
X84467803Y-105745001D01*
X83902802Y-105180000D01*
X85096928Y-105180000D01*
X85100000Y-105394250D01*
X85258750Y-105553000D01*
X86233000Y-105553000D01*
X86233000Y-104703750D01*
X86487000Y-104703750D01*
X86487000Y-105553000D01*
X87461250Y-105553000D01*
X87620000Y-105394250D01*
X87623072Y-105180000D01*
X87610812Y-105055518D01*
X87574502Y-104935820D01*
X87515537Y-104825506D01*
X87436185Y-104728815D01*
X87339494Y-104649463D01*
X87229180Y-104590498D01*
X87109482Y-104554188D01*
X86985000Y-104541928D01*
X86645750Y-104545000D01*
X86487000Y-104703750D01*
X86233000Y-104703750D01*
X86074250Y-104545000D01*
X85735000Y-104541928D01*
X85610518Y-104554188D01*
X85490820Y-104590498D01*
X85380506Y-104649463D01*
X85283815Y-104728815D01*
X85204463Y-104825506D01*
X85145498Y-104935820D01*
X85109188Y-105055518D01*
X85096928Y-105180000D01*
X83902802Y-105180000D01*
X83647780Y-104924978D01*
X83623977Y-104895975D01*
X83508252Y-104801002D01*
X83376223Y-104730430D01*
X83232962Y-104686973D01*
X83121309Y-104675976D01*
X83121298Y-104675976D01*
X83083976Y-104672300D01*
X83046654Y-104675976D01*
X76343999Y-104675976D01*
X76343999Y-101783321D01*
X76347675Y-101745998D01*
X76343999Y-101708676D01*
X76343999Y-101708666D01*
X76333002Y-101597013D01*
X76289545Y-101453752D01*
X76219000Y-101321774D01*
X76219000Y-101244061D01*
X76179226Y-101044102D01*
X76101205Y-100855744D01*
X75987937Y-100686226D01*
X75843774Y-100542063D01*
X75674256Y-100428795D01*
X75485898Y-100350774D01*
X75285939Y-100311000D01*
X75082061Y-100311000D01*
X74882102Y-100350774D01*
X74693744Y-100428795D01*
X74524226Y-100542063D01*
X74380063Y-100686226D01*
X74266795Y-100855744D01*
X74188774Y-101044102D01*
X74149000Y-101244061D01*
X74149000Y-101447939D01*
X74188774Y-101647898D01*
X74266795Y-101836256D01*
X74380063Y-102005774D01*
X74524226Y-102149937D01*
X74693744Y-102263205D01*
X74823999Y-102317159D01*
X74824000Y-105412000D01*
X72839711Y-105412000D01*
X72795774Y-105368063D01*
X72626256Y-105254795D01*
X72437898Y-105176774D01*
X72237939Y-105137000D01*
X72034061Y-105137000D01*
X71834102Y-105176774D01*
X71645744Y-105254795D01*
X71476226Y-105368063D01*
X71332063Y-105512226D01*
X71218795Y-105681744D01*
X71140774Y-105870102D01*
X71101000Y-106070061D01*
X71101000Y-106174000D01*
X69029711Y-106174000D01*
X68985774Y-106130063D01*
X68816256Y-106016795D01*
X68801301Y-106010600D01*
X68816069Y-105992606D01*
X68955225Y-105732264D01*
X69040916Y-105449777D01*
X69069851Y-105156000D01*
X69040916Y-104862223D01*
X68955225Y-104579736D01*
X68816069Y-104319394D01*
X68628797Y-104091203D01*
X68400606Y-103903931D01*
X68360567Y-103882530D01*
X68574293Y-103722854D01*
X68770817Y-103504488D01*
X68920964Y-103251978D01*
X69018963Y-102975027D01*
X68898464Y-102743000D01*
X67691000Y-102743000D01*
X67691000Y-102763000D01*
X67437000Y-102763000D01*
X67437000Y-102743000D01*
X67417000Y-102743000D01*
X67417000Y-102489000D01*
X67437000Y-102489000D01*
X67437000Y-101282183D01*
X67691000Y-101282183D01*
X67691000Y-102489000D01*
X68898464Y-102489000D01*
X69018963Y-102256973D01*
X68920964Y-101980022D01*
X68770817Y-101727512D01*
X68574293Y-101509146D01*
X68338944Y-101333316D01*
X68073814Y-101206778D01*
X67923026Y-101161042D01*
X67691000Y-101282183D01*
X67437000Y-101282183D01*
X67204974Y-101161042D01*
X67054186Y-101206778D01*
X66789056Y-101333316D01*
X66553707Y-101509146D01*
X66357183Y-101727512D01*
X66299863Y-101823910D01*
X66276069Y-101779394D01*
X66088797Y-101551203D01*
X65860606Y-101363931D01*
X65600264Y-101224775D01*
X65317777Y-101139084D01*
X65097619Y-101117400D01*
X64950381Y-101117400D01*
X64730223Y-101139084D01*
X64447736Y-101224775D01*
X64187394Y-101363931D01*
X63959203Y-101551203D01*
X63771931Y-101779394D01*
X63754000Y-101812940D01*
X63736069Y-101779394D01*
X63548797Y-101551203D01*
X63320606Y-101363931D01*
X63244000Y-101322984D01*
X63244000Y-100347771D01*
X63539802Y-100051970D01*
X63601939Y-100051970D01*
X63801898Y-100012196D01*
X63990256Y-99934175D01*
X64159774Y-99820907D01*
X64303937Y-99676744D01*
X64417205Y-99507226D01*
X64495226Y-99318868D01*
X64535000Y-99118909D01*
X64535000Y-98915031D01*
X64495226Y-98715072D01*
X64417205Y-98526714D01*
X64303937Y-98357196D01*
X64159774Y-98213033D01*
X63990256Y-98099765D01*
X63801898Y-98021744D01*
X63601939Y-97981970D01*
X63398061Y-97981970D01*
X63198102Y-98021744D01*
X63009744Y-98099765D01*
X62840226Y-98213033D01*
X62696063Y-98357196D01*
X62582795Y-98526714D01*
X62504774Y-98715072D01*
X62465000Y-98915031D01*
X62465000Y-98977168D01*
X61973002Y-99469166D01*
X61943999Y-99492969D01*
X61888871Y-99560144D01*
X61849026Y-99608694D01*
X61778455Y-99740723D01*
X61778454Y-99740724D01*
X61734997Y-99883985D01*
X61724000Y-99995638D01*
X61724000Y-99995648D01*
X61720324Y-100032970D01*
X61724000Y-100070293D01*
X61724000Y-101322984D01*
X61647394Y-101363931D01*
X61419203Y-101551203D01*
X61231931Y-101779394D01*
X61092775Y-102039736D01*
X61007084Y-102322223D01*
X60978149Y-102616000D01*
X47015000Y-102616000D01*
X47015000Y-88037000D01*
X49032928Y-88037000D01*
X49045188Y-88161482D01*
X49081498Y-88281180D01*
X49140463Y-88391494D01*
X49219815Y-88488185D01*
X49316506Y-88567537D01*
X49426820Y-88626502D01*
X49441564Y-88630974D01*
X49373107Y-88699431D01*
X49207856Y-88946747D01*
X49094029Y-89221549D01*
X49036000Y-89513278D01*
X49036000Y-89810722D01*
X49094029Y-90102451D01*
X49207856Y-90377253D01*
X49373107Y-90624569D01*
X49583431Y-90834893D01*
X49830747Y-91000144D01*
X50105549Y-91113971D01*
X50397278Y-91172000D01*
X50694722Y-91172000D01*
X50986451Y-91113971D01*
X51261253Y-91000144D01*
X51508569Y-90834893D01*
X51718893Y-90624569D01*
X51854245Y-90422000D01*
X58029868Y-90422000D01*
X57996274Y-90503102D01*
X57956500Y-90703061D01*
X57956500Y-90906939D01*
X57996274Y-91106898D01*
X58074295Y-91295256D01*
X58187563Y-91464774D01*
X58331726Y-91608937D01*
X58501244Y-91722205D01*
X58689602Y-91800226D01*
X58889561Y-91840000D01*
X58951699Y-91840000D01*
X60586701Y-93475003D01*
X60610499Y-93504001D01*
X60639497Y-93527799D01*
X60726223Y-93598974D01*
X60857031Y-93668893D01*
X60858253Y-93669546D01*
X61001514Y-93713003D01*
X61113167Y-93724000D01*
X61113176Y-93724000D01*
X61150499Y-93727676D01*
X61187822Y-93724000D01*
X62224789Y-93724000D01*
X62268726Y-93767937D01*
X62438244Y-93881205D01*
X62626602Y-93959226D01*
X62826561Y-93999000D01*
X63030439Y-93999000D01*
X63230398Y-93959226D01*
X63418756Y-93881205D01*
X63588274Y-93767937D01*
X63732437Y-93623774D01*
X63845705Y-93454256D01*
X63923726Y-93265898D01*
X63963500Y-93065939D01*
X63963500Y-92862061D01*
X63923726Y-92662102D01*
X63845705Y-92473744D01*
X63732437Y-92304226D01*
X63588274Y-92160063D01*
X63418756Y-92046795D01*
X63230398Y-91968774D01*
X63030439Y-91929000D01*
X62826561Y-91929000D01*
X62626602Y-91968774D01*
X62438244Y-92046795D01*
X62268726Y-92160063D01*
X62224789Y-92204000D01*
X61465302Y-92204000D01*
X60026500Y-90765199D01*
X60026500Y-90703061D01*
X59986726Y-90503102D01*
X59953132Y-90422000D01*
X69525880Y-90422000D01*
X80788208Y-101684329D01*
X80788214Y-101684334D01*
X81135406Y-102031526D01*
X81159209Y-102060530D01*
X81274934Y-102155503D01*
X81406963Y-102226075D01*
X81550224Y-102269532D01*
X81661877Y-102280529D01*
X81661887Y-102280529D01*
X81699209Y-102284205D01*
X81736532Y-102280529D01*
X83117568Y-102280529D01*
X83264102Y-102341226D01*
X83464061Y-102381000D01*
X83667939Y-102381000D01*
X83867898Y-102341226D01*
X84056256Y-102263205D01*
X84225774Y-102149937D01*
X84369937Y-102005774D01*
X84483205Y-101836256D01*
X84561226Y-101647898D01*
X84601000Y-101447939D01*
X84601000Y-101380998D01*
X91966208Y-101380998D01*
X91968774Y-101393898D01*
X92046795Y-101582256D01*
X92160063Y-101751774D01*
X92304226Y-101895937D01*
X92473744Y-102009205D01*
X92662102Y-102087226D01*
X92862061Y-102127000D01*
X93065939Y-102127000D01*
X93265898Y-102087226D01*
X93454256Y-102009205D01*
X93623774Y-101895937D01*
X93767937Y-101751774D01*
X93881205Y-101582256D01*
X93959226Y-101393898D01*
X93999000Y-101193939D01*
X93999000Y-101131801D01*
X95056802Y-100074000D01*
X96033289Y-100074000D01*
X96077226Y-100117937D01*
X96246744Y-100231205D01*
X96435102Y-100309226D01*
X96635061Y-100349000D01*
X96838939Y-100349000D01*
X97038898Y-100309226D01*
X97227256Y-100231205D01*
X97396774Y-100117937D01*
X97540937Y-99973774D01*
X97654205Y-99804256D01*
X97732226Y-99615898D01*
X97772000Y-99415939D01*
X97772000Y-99212061D01*
X97732226Y-99012102D01*
X97654205Y-98823744D01*
X97540937Y-98654226D01*
X97396774Y-98510063D01*
X97227256Y-98396795D01*
X97038898Y-98318774D01*
X96838939Y-98279000D01*
X96635061Y-98279000D01*
X96435102Y-98318774D01*
X96246744Y-98396795D01*
X96077226Y-98510063D01*
X96033289Y-98554000D01*
X94779325Y-98554000D01*
X94742000Y-98550324D01*
X94704675Y-98554000D01*
X94704667Y-98554000D01*
X94593014Y-98564997D01*
X94449753Y-98608454D01*
X94317724Y-98679026D01*
X94201999Y-98773999D01*
X94178201Y-98802997D01*
X92960061Y-100021138D01*
X92917274Y-99986024D01*
X92785245Y-99915452D01*
X92641984Y-99871995D01*
X92530331Y-99860998D01*
X92530320Y-99860998D01*
X92492998Y-99857322D01*
X92455676Y-99860998D01*
X85969291Y-99860998D01*
X86007205Y-99804256D01*
X86085226Y-99615898D01*
X86125000Y-99415939D01*
X86125000Y-99353801D01*
X86296730Y-99182072D01*
X86985000Y-99182072D01*
X87109482Y-99169812D01*
X87229180Y-99133502D01*
X87339494Y-99074537D01*
X87436185Y-98995185D01*
X87515537Y-98898494D01*
X87574502Y-98788180D01*
X87610812Y-98668482D01*
X87623072Y-98544000D01*
X87623072Y-98034131D01*
X87677898Y-98023226D01*
X87866256Y-97945205D01*
X88035774Y-97831937D01*
X88179937Y-97687774D01*
X88293205Y-97518256D01*
X88371226Y-97329898D01*
X88411000Y-97129939D01*
X88411000Y-96926061D01*
X88371226Y-96726102D01*
X88293205Y-96537744D01*
X88179937Y-96368226D01*
X88035774Y-96224063D01*
X87866256Y-96110795D01*
X87677898Y-96032774D01*
X87620000Y-96021257D01*
X87620000Y-95916998D01*
X87461252Y-95916998D01*
X87507250Y-95871000D01*
X109484928Y-95871000D01*
X109497188Y-95995482D01*
X109533498Y-96115180D01*
X109592463Y-96225494D01*
X109671815Y-96322185D01*
X109768506Y-96401537D01*
X109878820Y-96460502D01*
X109998518Y-96496812D01*
X110123000Y-96509072D01*
X110712250Y-96506000D01*
X110871000Y-96347250D01*
X110871000Y-95123000D01*
X109646750Y-95123000D01*
X109488000Y-95281750D01*
X109484928Y-95871000D01*
X87507250Y-95871000D01*
X87620000Y-95758250D01*
X87623072Y-95544000D01*
X87610812Y-95419518D01*
X87574502Y-95299820D01*
X87515537Y-95189506D01*
X87436185Y-95092815D01*
X87339494Y-95013463D01*
X87229180Y-94954498D01*
X87109482Y-94918188D01*
X86985000Y-94905928D01*
X86645750Y-94909000D01*
X86487000Y-95067750D01*
X86487000Y-95917000D01*
X86507000Y-95917000D01*
X86507000Y-96171000D01*
X86487000Y-96171000D01*
X86487000Y-96191000D01*
X86233000Y-96191000D01*
X86233000Y-96171000D01*
X85258750Y-96171000D01*
X85161750Y-96268000D01*
X82864802Y-96268000D01*
X82823000Y-96226198D01*
X82823000Y-96164061D01*
X82783226Y-95964102D01*
X82705205Y-95775744D01*
X82591937Y-95606226D01*
X82529711Y-95544000D01*
X85096928Y-95544000D01*
X85100000Y-95758250D01*
X85258750Y-95917000D01*
X86233000Y-95917000D01*
X86233000Y-95067750D01*
X86074250Y-94909000D01*
X85735000Y-94905928D01*
X85610518Y-94918188D01*
X85490820Y-94954498D01*
X85380506Y-95013463D01*
X85283815Y-95092815D01*
X85204463Y-95189506D01*
X85145498Y-95299820D01*
X85109188Y-95419518D01*
X85096928Y-95544000D01*
X82529711Y-95544000D01*
X82447774Y-95462063D01*
X82278256Y-95348795D01*
X82089898Y-95270774D01*
X81889939Y-95231000D01*
X81686061Y-95231000D01*
X81486102Y-95270774D01*
X81297744Y-95348795D01*
X81128226Y-95462063D01*
X80984063Y-95606226D01*
X80870795Y-95775744D01*
X80792774Y-95964102D01*
X80753000Y-96164061D01*
X80753000Y-96367939D01*
X80792774Y-96567898D01*
X80870795Y-96756256D01*
X80984063Y-96925774D01*
X81128226Y-97069937D01*
X81297744Y-97183205D01*
X81486102Y-97261226D01*
X81686061Y-97301000D01*
X81748198Y-97301000D01*
X81986201Y-97539002D01*
X82009999Y-97568001D01*
X82125724Y-97662974D01*
X82257753Y-97733546D01*
X82401014Y-97777003D01*
X82512667Y-97788000D01*
X82512675Y-97788000D01*
X82550000Y-97791676D01*
X82587325Y-97788000D01*
X85096928Y-97788000D01*
X85096928Y-98232271D01*
X85050199Y-98279000D01*
X84988061Y-98279000D01*
X84788102Y-98318774D01*
X84599744Y-98396795D01*
X84430226Y-98510063D01*
X84286063Y-98654226D01*
X84172795Y-98823744D01*
X84094774Y-99012102D01*
X84055000Y-99212061D01*
X84055000Y-99415939D01*
X84094774Y-99615898D01*
X84172795Y-99804256D01*
X84210709Y-99860998D01*
X82139800Y-99860998D01*
X75494801Y-93216000D01*
X82239678Y-93216000D01*
X82277000Y-93219676D01*
X82314322Y-93216000D01*
X107825000Y-93216000D01*
X107825000Y-93382332D01*
X107835997Y-93493985D01*
X107879454Y-93637246D01*
X107950026Y-93769275D01*
X108044999Y-93885001D01*
X108160724Y-93979974D01*
X108292753Y-94050546D01*
X108436014Y-94094003D01*
X108585000Y-94108677D01*
X108733985Y-94094003D01*
X108877246Y-94050546D01*
X109009275Y-93979974D01*
X109125001Y-93885001D01*
X109219974Y-93769276D01*
X109290546Y-93637247D01*
X109334003Y-93493986D01*
X109345000Y-93382333D01*
X109345000Y-92723801D01*
X109488000Y-92580801D01*
X109488000Y-92644722D01*
X109546029Y-92936451D01*
X109659856Y-93211253D01*
X109825107Y-93458569D01*
X109893564Y-93527026D01*
X109878820Y-93531498D01*
X109768506Y-93590463D01*
X109671815Y-93669815D01*
X109592463Y-93766506D01*
X109533498Y-93876820D01*
X109497188Y-93996518D01*
X109484928Y-94121000D01*
X109488000Y-94710250D01*
X109646750Y-94869000D01*
X110871000Y-94869000D01*
X110871000Y-94849000D01*
X111125000Y-94849000D01*
X111125000Y-94869000D01*
X111145000Y-94869000D01*
X111145000Y-95123000D01*
X111125000Y-95123000D01*
X111125000Y-96347250D01*
X111283750Y-96506000D01*
X111873000Y-96509072D01*
X111997482Y-96496812D01*
X112117180Y-96460502D01*
X112227494Y-96401537D01*
X112270000Y-96366653D01*
X112270001Y-100357757D01*
X112170893Y-100209431D01*
X111960569Y-99999107D01*
X111713253Y-99833856D01*
X111438451Y-99720029D01*
X111146722Y-99662000D01*
X110849278Y-99662000D01*
X110557549Y-99720029D01*
X110282747Y-99833856D01*
X110035431Y-99999107D01*
X109825107Y-100209431D01*
X109659856Y-100456747D01*
X109546029Y-100731549D01*
X109488000Y-101023278D01*
X109488000Y-101320722D01*
X109546029Y-101612451D01*
X109659856Y-101887253D01*
X109825107Y-102134569D01*
X110035431Y-102344893D01*
X110150830Y-102422000D01*
X110035431Y-102499107D01*
X109825107Y-102709431D01*
X109659856Y-102956747D01*
X109546029Y-103231549D01*
X109488000Y-103523278D01*
X109488000Y-103820722D01*
X109546029Y-104112451D01*
X109659856Y-104387253D01*
X109825107Y-104634569D01*
X109893564Y-104703026D01*
X109878820Y-104707498D01*
X109768506Y-104766463D01*
X109671815Y-104845815D01*
X109592463Y-104942506D01*
X109533498Y-105052820D01*
X109497188Y-105172518D01*
X109484928Y-105297000D01*
X109488000Y-105886250D01*
X109646750Y-106045000D01*
X110871000Y-106045000D01*
X110871000Y-106025000D01*
X111125000Y-106025000D01*
X111125000Y-106045000D01*
X111145000Y-106045000D01*
X111145000Y-106299000D01*
X111125000Y-106299000D01*
X111125000Y-107523250D01*
X111283750Y-107682000D01*
X111873000Y-107685072D01*
X111997482Y-107672812D01*
X112117180Y-107636502D01*
X112227494Y-107577537D01*
X112270000Y-107542653D01*
X112270001Y-111533757D01*
X112170893Y-111385431D01*
X111960569Y-111175107D01*
X111713253Y-111009856D01*
X111438451Y-110896029D01*
X111146722Y-110838000D01*
X110849278Y-110838000D01*
X110557549Y-110896029D01*
X110282747Y-111009856D01*
X110035431Y-111175107D01*
X109825107Y-111385431D01*
X109659856Y-111632747D01*
X109546029Y-111907549D01*
X109488000Y-112199278D01*
X109488000Y-112496722D01*
X109546029Y-112788451D01*
X109659856Y-113063253D01*
X109825107Y-113310569D01*
X110035431Y-113520893D01*
X110150830Y-113598000D01*
X110035431Y-113675107D01*
X109825107Y-113885431D01*
X109659856Y-114132747D01*
X109546029Y-114407549D01*
X109488000Y-114699278D01*
X109488000Y-114996722D01*
X109546029Y-115288451D01*
X109659856Y-115563253D01*
X109825107Y-115810569D01*
X109893564Y-115879026D01*
X109878820Y-115883498D01*
X109768506Y-115942463D01*
X109671815Y-116021815D01*
X109592463Y-116118506D01*
X109533498Y-116228820D01*
X109497188Y-116348518D01*
X109484928Y-116473000D01*
X109488000Y-117062250D01*
X109646750Y-117221000D01*
X110871000Y-117221000D01*
X110871000Y-117201000D01*
X111125000Y-117201000D01*
X111125000Y-117221000D01*
X111145000Y-117221000D01*
X111145000Y-117475000D01*
X111125000Y-117475000D01*
X111125000Y-118699250D01*
X111283750Y-118858000D01*
X111873000Y-118861072D01*
X111997482Y-118848812D01*
X112117180Y-118812502D01*
X112227494Y-118753537D01*
X112324185Y-118674185D01*
X112403537Y-118577494D01*
X112416000Y-118554179D01*
X112415999Y-119678841D01*
X112285744Y-119732795D01*
X112116226Y-119846063D01*
X111972063Y-119990226D01*
X111858795Y-120159744D01*
X111780774Y-120348102D01*
X111741000Y-120548061D01*
X111741000Y-120751939D01*
X111780774Y-120951898D01*
X111858795Y-121140256D01*
X111972063Y-121309774D01*
X112116226Y-121453937D01*
X112285744Y-121567205D01*
X112474102Y-121645226D01*
X112674061Y-121685000D01*
X112877939Y-121685000D01*
X113077898Y-121645226D01*
X113266256Y-121567205D01*
X113435774Y-121453937D01*
X113579937Y-121309774D01*
X113693205Y-121140256D01*
X113771226Y-120951898D01*
X113811000Y-120751939D01*
X113811000Y-120674226D01*
X113881545Y-120542248D01*
X113925002Y-120398987D01*
X113935999Y-120287334D01*
X113935999Y-120287324D01*
X113939675Y-120250002D01*
X113935999Y-120212679D01*
X113935999Y-117063321D01*
X113939675Y-117025998D01*
X113935999Y-116988675D01*
X113935999Y-116988666D01*
X113925002Y-116877013D01*
X113881545Y-116733752D01*
X113810973Y-116601723D01*
X113716000Y-116485998D01*
X113687002Y-116462200D01*
X112460470Y-115235669D01*
X112508000Y-114996722D01*
X112508000Y-114699278D01*
X112460470Y-114460331D01*
X113541003Y-113379799D01*
X113570001Y-113356001D01*
X113607286Y-113310569D01*
X113664974Y-113240277D01*
X113735546Y-113108247D01*
X113779003Y-112964986D01*
X113790000Y-112853333D01*
X113790000Y-112853323D01*
X113793676Y-112816000D01*
X113790000Y-112778677D01*
X113790000Y-104503886D01*
X113793676Y-104466563D01*
X113790000Y-104429240D01*
X113790000Y-104429231D01*
X113779003Y-104317578D01*
X113735546Y-104174317D01*
X113664974Y-104042288D01*
X113570001Y-103926563D01*
X113541004Y-103902766D01*
X112799239Y-103161002D01*
X112775437Y-103131999D01*
X112686111Y-103058691D01*
X113541003Y-102203799D01*
X113570001Y-102180001D01*
X113613498Y-102127000D01*
X113664974Y-102064277D01*
X113735546Y-101932247D01*
X113746849Y-101894984D01*
X113779003Y-101788986D01*
X113790000Y-101677333D01*
X113790000Y-101677323D01*
X113793676Y-101640000D01*
X113790000Y-101602677D01*
X113790000Y-94565323D01*
X113793676Y-94528000D01*
X113790000Y-94490677D01*
X113790000Y-94490667D01*
X113779003Y-94379014D01*
X113735546Y-94235753D01*
X113664974Y-94103723D01*
X113593799Y-94016997D01*
X113570001Y-93987999D01*
X113541004Y-93964202D01*
X112460470Y-92883669D01*
X112508000Y-92644722D01*
X112508000Y-92347278D01*
X112449971Y-92055549D01*
X112336144Y-91780747D01*
X112170893Y-91533431D01*
X111960569Y-91323107D01*
X111845170Y-91246000D01*
X111960569Y-91168893D01*
X112170893Y-90958569D01*
X112336144Y-90711253D01*
X112449971Y-90436451D01*
X112508000Y-90144722D01*
X112508000Y-89847278D01*
X112449971Y-89555549D01*
X112336144Y-89280747D01*
X112170893Y-89033431D01*
X111960569Y-88823107D01*
X111713253Y-88657856D01*
X111438451Y-88544029D01*
X111146722Y-88486000D01*
X110849278Y-88486000D01*
X110557549Y-88544029D01*
X110282747Y-88657856D01*
X110035431Y-88823107D01*
X109825107Y-89033431D01*
X109659856Y-89280747D01*
X109546029Y-89555549D01*
X109488000Y-89847278D01*
X109488000Y-90144722D01*
X109535530Y-90383669D01*
X108223199Y-91696000D01*
X102044244Y-91696000D01*
X102400632Y-91658981D01*
X102934161Y-91494028D01*
X103400024Y-91245018D01*
X103640170Y-90857775D01*
X101830000Y-89047605D01*
X100019830Y-90857775D01*
X100259976Y-91245018D01*
X100753877Y-91505641D01*
X101289133Y-91664901D01*
X101623110Y-91696000D01*
X84111801Y-91696000D01*
X85676004Y-90131798D01*
X85705001Y-90108001D01*
X85799974Y-89992276D01*
X85819326Y-89956072D01*
X86015000Y-89956072D01*
X86139482Y-89943812D01*
X86259180Y-89907502D01*
X86369494Y-89848537D01*
X86466185Y-89769185D01*
X86545537Y-89672494D01*
X86604502Y-89562180D01*
X86628966Y-89481534D01*
X86704731Y-89565588D01*
X86938080Y-89739641D01*
X87200901Y-89864825D01*
X87348110Y-89909476D01*
X87578000Y-89788155D01*
X87578000Y-88595000D01*
X87558000Y-88595000D01*
X87558000Y-88341000D01*
X87578000Y-88341000D01*
X87578000Y-87147845D01*
X87832000Y-87147845D01*
X87832000Y-88341000D01*
X87852000Y-88341000D01*
X87852000Y-88595000D01*
X87832000Y-88595000D01*
X87832000Y-89788155D01*
X88061890Y-89909476D01*
X88209099Y-89864825D01*
X88471920Y-89739641D01*
X88705269Y-89565588D01*
X88900178Y-89349355D01*
X88969799Y-89232477D01*
X89004294Y-89297014D01*
X89189866Y-89523134D01*
X89415986Y-89708706D01*
X89673966Y-89846599D01*
X89953889Y-89931513D01*
X90172050Y-89953000D01*
X90317950Y-89953000D01*
X90536111Y-89931513D01*
X90816034Y-89846599D01*
X91074014Y-89708706D01*
X91300134Y-89523134D01*
X91485706Y-89297014D01*
X91515000Y-89242209D01*
X91544294Y-89297014D01*
X91729866Y-89523134D01*
X91955986Y-89708706D01*
X92213966Y-89846599D01*
X92493889Y-89931513D01*
X92712050Y-89953000D01*
X92857950Y-89953000D01*
X93076111Y-89931513D01*
X93356034Y-89846599D01*
X93614014Y-89708706D01*
X93840134Y-89523134D01*
X94025706Y-89297014D01*
X94163599Y-89039034D01*
X94210878Y-88883174D01*
X98981322Y-88883174D01*
X99039019Y-89438632D01*
X99203972Y-89972161D01*
X99452982Y-90438024D01*
X99840225Y-90678170D01*
X101650395Y-88868000D01*
X102009605Y-88868000D01*
X103819775Y-90678170D01*
X104207018Y-90438024D01*
X104467641Y-89944123D01*
X104626901Y-89408867D01*
X104678678Y-88852826D01*
X104620981Y-88297368D01*
X104456028Y-87763839D01*
X104207018Y-87297976D01*
X103819775Y-87057830D01*
X102009605Y-88868000D01*
X101650395Y-88868000D01*
X99840225Y-87057830D01*
X99452982Y-87297976D01*
X99192359Y-87791877D01*
X99033099Y-88327133D01*
X98981322Y-88883174D01*
X94210878Y-88883174D01*
X94248513Y-88759111D01*
X94277185Y-88468000D01*
X94248513Y-88176889D01*
X94163599Y-87896966D01*
X94025706Y-87638986D01*
X93840134Y-87412866D01*
X93614014Y-87227294D01*
X93356034Y-87089401D01*
X93076111Y-87004487D01*
X92857950Y-86983000D01*
X92712050Y-86983000D01*
X92493889Y-87004487D01*
X92213966Y-87089401D01*
X91955986Y-87227294D01*
X91729866Y-87412866D01*
X91544294Y-87638986D01*
X91515000Y-87693791D01*
X91485706Y-87638986D01*
X91300134Y-87412866D01*
X91074014Y-87227294D01*
X90816034Y-87089401D01*
X90536111Y-87004487D01*
X90317950Y-86983000D01*
X90172050Y-86983000D01*
X89953889Y-87004487D01*
X89673966Y-87089401D01*
X89415986Y-87227294D01*
X89189866Y-87412866D01*
X89004294Y-87638986D01*
X88969799Y-87703523D01*
X88900178Y-87586645D01*
X88705269Y-87370412D01*
X88471920Y-87196359D01*
X88209099Y-87071175D01*
X88061890Y-87026524D01*
X87832000Y-87147845D01*
X87578000Y-87147845D01*
X87348110Y-87026524D01*
X87200901Y-87071175D01*
X86938080Y-87196359D01*
X86704731Y-87370412D01*
X86628966Y-87454466D01*
X86604502Y-87373820D01*
X86545537Y-87263506D01*
X86466185Y-87166815D01*
X86452345Y-87155456D01*
X86729576Y-86878225D01*
X100019830Y-86878225D01*
X101830000Y-88688395D01*
X103640170Y-86878225D01*
X103400024Y-86490982D01*
X102906123Y-86230359D01*
X102370867Y-86071099D01*
X101814826Y-86019322D01*
X101259368Y-86077019D01*
X100725839Y-86241972D01*
X100259976Y-86490982D01*
X100019830Y-86878225D01*
X86729576Y-86878225D01*
X93939301Y-79668500D01*
X96399928Y-79668500D01*
X96412188Y-79792982D01*
X96448498Y-79912680D01*
X96507463Y-80022994D01*
X96586815Y-80119685D01*
X96683506Y-80199037D01*
X96793820Y-80258002D01*
X96913518Y-80294312D01*
X97038000Y-80306572D01*
X97377250Y-80303500D01*
X97536000Y-80144750D01*
X97536000Y-79295500D01*
X97790000Y-79295500D01*
X97790000Y-80144750D01*
X97948750Y-80303500D01*
X98288000Y-80306572D01*
X98412482Y-80294312D01*
X98532180Y-80258002D01*
X98642494Y-80199037D01*
X98739185Y-80119685D01*
X98818537Y-80022994D01*
X98877502Y-79912680D01*
X98913812Y-79792982D01*
X98926072Y-79668500D01*
X98923000Y-79454250D01*
X98764250Y-79295500D01*
X97790000Y-79295500D01*
X97536000Y-79295500D01*
X96561750Y-79295500D01*
X96403000Y-79454250D01*
X96399928Y-79668500D01*
X93939301Y-79668500D01*
X95679302Y-77928500D01*
X96456954Y-77928500D01*
X96507463Y-78022994D01*
X96586815Y-78119685D01*
X96646296Y-78168500D01*
X96586815Y-78217315D01*
X96507463Y-78314006D01*
X96448498Y-78424320D01*
X96412188Y-78544018D01*
X96399928Y-78668500D01*
X96403000Y-78882750D01*
X96561750Y-79041500D01*
X97536000Y-79041500D01*
X97536000Y-79021500D01*
X97790000Y-79021500D01*
X97790000Y-79041500D01*
X98764250Y-79041500D01*
X98923000Y-78882750D01*
X98926072Y-78668500D01*
X98913812Y-78544018D01*
X98877502Y-78424320D01*
X98818537Y-78314006D01*
X98739185Y-78217315D01*
X98679704Y-78168500D01*
X98739185Y-78119685D01*
X98818537Y-78022994D01*
X98877502Y-77912680D01*
X98913812Y-77792982D01*
X98926072Y-77668500D01*
X98926072Y-76668500D01*
X98915449Y-76560644D01*
X98993537Y-76465494D01*
X99052502Y-76355180D01*
X99088812Y-76235482D01*
X99101072Y-76111000D01*
X99101072Y-75344881D01*
X107333724Y-75344881D01*
X107693912Y-75834548D01*
X108357882Y-76194849D01*
X109079385Y-76418694D01*
X109830695Y-76497480D01*
X110582938Y-76428178D01*
X111307208Y-76213452D01*
X111975670Y-75861555D01*
X112016088Y-75834548D01*
X112376276Y-75344881D01*
X109855000Y-72823605D01*
X107333724Y-75344881D01*
X99101072Y-75344881D01*
X99101072Y-74511000D01*
X99088812Y-74386518D01*
X99052502Y-74266820D01*
X98993537Y-74156506D01*
X98914185Y-74059815D01*
X98817494Y-73980463D01*
X98707180Y-73921498D01*
X98587482Y-73885188D01*
X98463000Y-73872928D01*
X96863000Y-73872928D01*
X96738518Y-73885188D01*
X96618820Y-73921498D01*
X96508506Y-73980463D01*
X96411815Y-74059815D01*
X96332463Y-74156506D01*
X96273498Y-74266820D01*
X96237188Y-74386518D01*
X96224928Y-74511000D01*
X96224928Y-76111000D01*
X96237188Y-76235482D01*
X96273498Y-76355180D01*
X96301999Y-76408500D01*
X95401822Y-76408500D01*
X95364499Y-76404824D01*
X95327176Y-76408500D01*
X95327167Y-76408500D01*
X95215514Y-76419497D01*
X95072253Y-76462954D01*
X94940224Y-76533526D01*
X94824499Y-76628499D01*
X94800701Y-76657497D01*
X84653998Y-86804201D01*
X84625000Y-86827999D01*
X84601202Y-86856997D01*
X84601201Y-86856998D01*
X84530026Y-86943724D01*
X84510674Y-86979928D01*
X84315000Y-86979928D01*
X84190518Y-86992188D01*
X84070820Y-87028498D01*
X83960506Y-87087463D01*
X83863815Y-87166815D01*
X83784463Y-87263506D01*
X83725498Y-87373820D01*
X83689188Y-87493518D01*
X83676928Y-87618000D01*
X83676928Y-89318000D01*
X83689188Y-89442482D01*
X83725498Y-89562180D01*
X83784463Y-89672494D01*
X83863815Y-89769185D01*
X83877655Y-89780543D01*
X81962199Y-91696000D01*
X76334244Y-91696000D01*
X76690632Y-91658981D01*
X77224161Y-91494028D01*
X77690024Y-91245018D01*
X77930170Y-90857775D01*
X76120000Y-89047605D01*
X76105858Y-89061748D01*
X75926253Y-88882143D01*
X75940395Y-88868000D01*
X76299605Y-88868000D01*
X78109775Y-90678170D01*
X78497018Y-90438024D01*
X78757641Y-89944123D01*
X78916901Y-89408867D01*
X78968678Y-88852826D01*
X78910981Y-88297368D01*
X78746028Y-87763839D01*
X78497018Y-87297976D01*
X78109775Y-87057830D01*
X76299605Y-88868000D01*
X75940395Y-88868000D01*
X74130225Y-87057830D01*
X73742982Y-87297976D01*
X73482359Y-87791877D01*
X73323099Y-88327133D01*
X73271322Y-88883174D01*
X73329019Y-89438632D01*
X73342706Y-89482900D01*
X72121808Y-88262003D01*
X72098005Y-88232999D01*
X71982280Y-88138026D01*
X71850251Y-88067454D01*
X71706990Y-88023997D01*
X71595337Y-88013000D01*
X71595326Y-88013000D01*
X71558004Y-88009324D01*
X71520682Y-88013000D01*
X66997711Y-88013000D01*
X66953774Y-87969063D01*
X66784256Y-87855795D01*
X66595898Y-87777774D01*
X66395939Y-87738000D01*
X66192061Y-87738000D01*
X65992102Y-87777774D01*
X65803744Y-87855795D01*
X65634226Y-87969063D01*
X65490063Y-88113226D01*
X65376795Y-88282744D01*
X65298774Y-88471102D01*
X65259000Y-88671061D01*
X65259000Y-88874939D01*
X65264383Y-88902000D01*
X51854245Y-88902000D01*
X51718893Y-88699431D01*
X51650436Y-88630974D01*
X51665180Y-88626502D01*
X51775494Y-88567537D01*
X51872185Y-88488185D01*
X51951537Y-88391494D01*
X52010502Y-88281180D01*
X52046812Y-88161482D01*
X52059072Y-88037000D01*
X52056000Y-87447750D01*
X51897250Y-87289000D01*
X50673000Y-87289000D01*
X50673000Y-87309000D01*
X50419000Y-87309000D01*
X50419000Y-87289000D01*
X49194750Y-87289000D01*
X49036000Y-87447750D01*
X49032928Y-88037000D01*
X47015000Y-88037000D01*
X47015000Y-86287000D01*
X49032928Y-86287000D01*
X49036000Y-86876250D01*
X49194750Y-87035000D01*
X50419000Y-87035000D01*
X50419000Y-85810750D01*
X50673000Y-85810750D01*
X50673000Y-87035000D01*
X51897250Y-87035000D01*
X52054025Y-86878225D01*
X74309830Y-86878225D01*
X76120000Y-88688395D01*
X77930170Y-86878225D01*
X77690024Y-86490982D01*
X77196123Y-86230359D01*
X76660867Y-86071099D01*
X76104826Y-86019322D01*
X75549368Y-86077019D01*
X75015839Y-86241972D01*
X74549976Y-86490982D01*
X74309830Y-86878225D01*
X52054025Y-86878225D01*
X52056000Y-86876250D01*
X52059072Y-86287000D01*
X52046812Y-86162518D01*
X52010502Y-86042820D01*
X51951537Y-85932506D01*
X51872185Y-85835815D01*
X51775494Y-85756463D01*
X51665180Y-85697498D01*
X51545482Y-85661188D01*
X51421000Y-85648928D01*
X50831750Y-85652000D01*
X50673000Y-85810750D01*
X50419000Y-85810750D01*
X50260250Y-85652000D01*
X49671000Y-85648928D01*
X49546518Y-85661188D01*
X49426820Y-85697498D01*
X49316506Y-85756463D01*
X49219815Y-85835815D01*
X49140463Y-85932506D01*
X49081498Y-86042820D01*
X49045188Y-86162518D01*
X49032928Y-86287000D01*
X47015000Y-86287000D01*
X47015000Y-75344881D01*
X48913724Y-75344881D01*
X49273912Y-75834548D01*
X49937882Y-76194849D01*
X50659385Y-76418694D01*
X51410695Y-76497480D01*
X52162938Y-76428178D01*
X52887208Y-76213452D01*
X53555670Y-75861555D01*
X53596088Y-75834548D01*
X53956276Y-75344881D01*
X51435000Y-72823605D01*
X48913724Y-75344881D01*
X47015000Y-75344881D01*
X47015000Y-72673392D01*
X47019792Y-72619695D01*
X47581520Y-72619695D01*
X47650822Y-73371938D01*
X47865548Y-74096208D01*
X48217445Y-74764670D01*
X48244452Y-74805088D01*
X48734119Y-75165276D01*
X51255395Y-72644000D01*
X51614605Y-72644000D01*
X54135881Y-75165276D01*
X54625548Y-74805088D01*
X54985849Y-74141118D01*
X55209694Y-73419615D01*
X55288480Y-72668305D01*
X55219178Y-71916062D01*
X55004452Y-71191792D01*
X54652555Y-70523330D01*
X54625548Y-70482912D01*
X54135881Y-70122724D01*
X51614605Y-72644000D01*
X51255395Y-72644000D01*
X48734119Y-70122724D01*
X48244452Y-70482912D01*
X47884151Y-71146882D01*
X47660306Y-71868385D01*
X47581520Y-72619695D01*
X47019792Y-72619695D01*
X47087437Y-71861751D01*
X47294672Y-71104226D01*
X47632777Y-70395375D01*
X47957755Y-69943119D01*
X48913724Y-69943119D01*
X51435000Y-72464395D01*
X53956276Y-69943119D01*
X53596088Y-69453452D01*
X52932118Y-69093151D01*
X52210615Y-68869306D01*
X51459305Y-68790520D01*
X50707062Y-68859822D01*
X49982792Y-69074548D01*
X49314330Y-69426445D01*
X49273912Y-69453452D01*
X48913724Y-69943119D01*
X47957755Y-69943119D01*
X48091067Y-69757596D01*
X48655055Y-69211054D01*
X49306913Y-68773023D01*
X50026038Y-68457349D01*
X50794768Y-68272794D01*
X51459207Y-68224000D01*
X65911688Y-68224000D01*
X65750360Y-68310232D01*
X65750360Y-68310232D01*
G37*
X65750360Y-68310232D02*
X65392615Y-68603825D01*
X62245434Y-71751008D01*
X62224996Y-71767781D01*
X62208223Y-71788219D01*
X62128729Y-71867713D01*
X61835136Y-72225457D01*
X61544029Y-72770079D01*
X61364766Y-73361029D01*
X61304237Y-73975596D01*
X61317500Y-74110259D01*
X61317500Y-74938588D01*
X61302213Y-74915709D01*
X61032691Y-74646187D01*
X60715766Y-74434425D01*
X60363619Y-74288561D01*
X59989781Y-74214200D01*
X59608619Y-74214200D01*
X59234781Y-74288561D01*
X58882634Y-74434425D01*
X58565709Y-74646187D01*
X58296187Y-74915709D01*
X58084425Y-75232634D01*
X57938561Y-75584781D01*
X57864200Y-75958619D01*
X57864200Y-76339781D01*
X57938561Y-76713619D01*
X58084425Y-77065766D01*
X58296187Y-77382691D01*
X58565709Y-77652213D01*
X58882634Y-77863975D01*
X59234781Y-78009839D01*
X59608619Y-78084200D01*
X59989781Y-78084200D01*
X60363619Y-78009839D01*
X60715766Y-77863975D01*
X61032691Y-77652213D01*
X61302213Y-77382691D01*
X61473051Y-77127013D01*
X61542124Y-77354716D01*
X61833231Y-77899339D01*
X62224995Y-78376705D01*
X62702360Y-78768469D01*
X63246983Y-79059576D01*
X63837933Y-79238838D01*
X64452500Y-79299368D01*
X65067066Y-79238838D01*
X65658016Y-79059576D01*
X66202639Y-78768469D01*
X66680005Y-78376705D01*
X66715000Y-78334063D01*
X66715001Y-81816705D01*
X66709562Y-81834634D01*
X66708747Y-81842905D01*
X66690769Y-81899580D01*
X66690501Y-81901968D01*
X66689791Y-81904262D01*
X66683054Y-81968366D01*
X66675867Y-82032436D01*
X66675835Y-82037050D01*
X66675817Y-82037218D01*
X66675832Y-82037386D01*
X66675800Y-82042000D01*
X66675800Y-82177423D01*
X66664200Y-82295199D01*
X66664200Y-83669202D01*
X66675800Y-83786978D01*
X66675800Y-85953600D01*
X66682090Y-86017745D01*
X66687933Y-86081956D01*
X66688612Y-86084262D01*
X66688846Y-86086651D01*
X66707466Y-86148323D01*
X66725679Y-86210206D01*
X66726792Y-86212336D01*
X66727486Y-86214633D01*
X66757716Y-86271486D01*
X66787616Y-86328681D01*
X66789123Y-86330555D01*
X66790249Y-86332673D01*
X66830957Y-86382586D01*
X66871386Y-86432869D01*
X66873227Y-86434413D01*
X66874744Y-86436274D01*
X66924416Y-86477366D01*
X66973798Y-86518803D01*
X66975902Y-86519960D01*
X66977753Y-86521491D01*
X67034439Y-86552141D01*
X67090950Y-86583208D01*
X67093242Y-86583935D01*
X67095352Y-86585076D01*
X67156884Y-86604124D01*
X67218380Y-86623631D01*
X67220768Y-86623899D01*
X67223062Y-86624609D01*
X67287166Y-86631346D01*
X67351236Y-86638533D01*
X67355850Y-86638565D01*
X67356018Y-86638583D01*
X67356186Y-86638568D01*
X67360800Y-86638600D01*
X69527422Y-86638600D01*
X69799200Y-86665368D01*
X70070978Y-86638600D01*
X73152000Y-86638600D01*
X73216145Y-86632310D01*
X73280356Y-86626467D01*
X73282662Y-86625788D01*
X73285051Y-86625554D01*
X73346723Y-86606934D01*
X73408606Y-86588721D01*
X73410736Y-86587608D01*
X73413033Y-86586914D01*
X73469886Y-86556684D01*
X73527081Y-86526784D01*
X73528955Y-86525277D01*
X73531073Y-86524151D01*
X73580986Y-86483443D01*
X73631269Y-86443014D01*
X73632813Y-86441173D01*
X73634674Y-86439656D01*
X73675766Y-86389984D01*
X73717203Y-86340602D01*
X73718360Y-86338498D01*
X73719891Y-86336647D01*
X73750541Y-86279961D01*
X73781608Y-86223450D01*
X73782335Y-86221158D01*
X73783476Y-86219048D01*
X73802524Y-86157516D01*
X73822031Y-86096020D01*
X73822299Y-86093632D01*
X73823009Y-86091338D01*
X73829746Y-86027234D01*
X73836933Y-85963164D01*
X73836965Y-85958550D01*
X73836983Y-85958382D01*
X73836968Y-85958214D01*
X73837000Y-85953600D01*
X73837000Y-82042000D01*
X73830710Y-81977855D01*
X73824867Y-81913644D01*
X73824188Y-81911338D01*
X73823954Y-81908949D01*
X73805334Y-81847277D01*
X73787121Y-81785394D01*
X73786008Y-81783264D01*
X73785314Y-81780967D01*
X73755084Y-81724114D01*
X73725184Y-81666919D01*
X73723677Y-81665045D01*
X73722551Y-81662927D01*
X73681843Y-81613014D01*
X73641414Y-81562731D01*
X73639573Y-81561187D01*
X73638056Y-81559326D01*
X73588384Y-81518234D01*
X73539002Y-81476797D01*
X73536898Y-81475640D01*
X73535047Y-81474109D01*
X73478361Y-81443459D01*
X73421850Y-81412392D01*
X73419558Y-81411665D01*
X73417448Y-81410524D01*
X73355916Y-81391476D01*
X73294420Y-81371969D01*
X73292032Y-81371701D01*
X73289738Y-81370991D01*
X73225634Y-81364254D01*
X73161564Y-81357067D01*
X73156950Y-81357035D01*
X73156782Y-81357017D01*
X73156614Y-81357032D01*
X73152000Y-81357000D01*
X72985000Y-81357000D01*
X72985000Y-77967254D01*
X72991814Y-77989717D01*
X73282922Y-78534340D01*
X73674686Y-79011705D01*
X74152051Y-79403469D01*
X74696674Y-79694576D01*
X75287624Y-79873838D01*
X75902190Y-79934368D01*
X76516757Y-79873838D01*
X77107707Y-79694576D01*
X77652330Y-79403469D01*
X77699400Y-79364840D01*
X77699400Y-85648800D01*
X77705690Y-85712945D01*
X77711533Y-85777156D01*
X77712212Y-85779462D01*
X77712446Y-85781851D01*
X77731066Y-85843523D01*
X77749279Y-85905406D01*
X77750392Y-85907536D01*
X77751086Y-85909833D01*
X77781316Y-85966686D01*
X77811216Y-86023881D01*
X77812723Y-86025755D01*
X77813849Y-86027873D01*
X77854557Y-86077786D01*
X77894986Y-86128069D01*
X77896827Y-86129613D01*
X77898344Y-86131474D01*
X77948016Y-86172566D01*
X77997398Y-86214003D01*
X77999502Y-86215160D01*
X78001353Y-86216691D01*
X78058039Y-86247341D01*
X78114550Y-86278408D01*
X78116842Y-86279135D01*
X78118952Y-86280276D01*
X78180484Y-86299324D01*
X78241980Y-86318831D01*
X78244368Y-86319099D01*
X78246662Y-86319809D01*
X78310766Y-86326546D01*
X78374836Y-86333733D01*
X78379450Y-86333765D01*
X78379618Y-86333783D01*
X78379786Y-86333768D01*
X78384400Y-86333800D01*
X83566000Y-86333800D01*
X83630145Y-86327510D01*
X83694356Y-86321667D01*
X83696662Y-86320988D01*
X83699051Y-86320754D01*
X83760723Y-86302134D01*
X83822606Y-86283921D01*
X83824736Y-86282808D01*
X83827033Y-86282114D01*
X83883886Y-86251884D01*
X83941081Y-86221984D01*
X83942955Y-86220477D01*
X83945073Y-86219351D01*
X83994986Y-86178643D01*
X84045269Y-86138214D01*
X84046813Y-86136373D01*
X84048674Y-86134856D01*
X84089766Y-86085184D01*
X84131203Y-86035802D01*
X84132360Y-86033698D01*
X84133891Y-86031847D01*
X84164541Y-85975161D01*
X84195608Y-85918650D01*
X84196335Y-85916358D01*
X84197476Y-85914248D01*
X84216524Y-85852716D01*
X84236031Y-85791220D01*
X84236299Y-85788832D01*
X84237009Y-85786538D01*
X84243746Y-85722434D01*
X84250933Y-85658364D01*
X84250965Y-85653750D01*
X84250983Y-85653582D01*
X84250968Y-85653414D01*
X84251000Y-85648800D01*
X84251000Y-79197200D01*
X84244710Y-79133055D01*
X84238867Y-79068844D01*
X84238188Y-79066538D01*
X84237954Y-79064149D01*
X84219334Y-79002477D01*
X84201121Y-78940594D01*
X84200008Y-78938464D01*
X84199314Y-78936167D01*
X84169084Y-78879314D01*
X84139184Y-78822119D01*
X84137677Y-78820245D01*
X84136551Y-78818127D01*
X84095843Y-78768214D01*
X84055414Y-78717931D01*
X84053573Y-78716387D01*
X84052056Y-78714526D01*
X84002384Y-78673434D01*
X83953002Y-78631997D01*
X83950898Y-78630840D01*
X83949047Y-78629309D01*
X83892361Y-78598659D01*
X83835850Y-78567592D01*
X83833558Y-78566865D01*
X83831448Y-78565724D01*
X83769916Y-78546676D01*
X83708420Y-78527169D01*
X83706032Y-78526901D01*
X83703738Y-78526191D01*
X83639634Y-78519454D01*
X83575564Y-78512267D01*
X83570950Y-78512235D01*
X83570782Y-78512217D01*
X83570614Y-78512232D01*
X83566000Y-78512200D01*
X78533293Y-78512200D01*
X78812566Y-77989717D01*
X78980381Y-77436500D01*
X79214928Y-77436500D01*
X79227188Y-77560982D01*
X79263498Y-77680680D01*
X79322463Y-77790994D01*
X79401815Y-77887685D01*
X79498506Y-77967037D01*
X79608820Y-78026002D01*
X79728518Y-78062312D01*
X79853000Y-78074572D01*
X80867250Y-78071500D01*
X81026000Y-77912750D01*
X81026000Y-76263500D01*
X81280000Y-76263500D01*
X81280000Y-77912750D01*
X81438750Y-78071500D01*
X82453000Y-78074572D01*
X82577482Y-78062312D01*
X82697180Y-78026002D01*
X82807494Y-77967037D01*
X82904185Y-77887685D01*
X82983537Y-77790994D01*
X83042502Y-77680680D01*
X83078812Y-77560982D01*
X83091072Y-77436500D01*
X83088000Y-76422250D01*
X82929250Y-76263500D01*
X81280000Y-76263500D01*
X81026000Y-76263500D01*
X79376750Y-76263500D01*
X79218000Y-76422250D01*
X79214928Y-77436500D01*
X78980381Y-77436500D01*
X78991828Y-77398767D01*
X79037190Y-76938202D01*
X79037190Y-74836500D01*
X79214928Y-74836500D01*
X79218000Y-75850750D01*
X79376750Y-76009500D01*
X81026000Y-76009500D01*
X81026000Y-74360250D01*
X81280000Y-74360250D01*
X81280000Y-76009500D01*
X82929250Y-76009500D01*
X83088000Y-75850750D01*
X83090062Y-75169665D01*
X89728000Y-75169665D01*
X89728000Y-75452335D01*
X89783147Y-75729574D01*
X89891320Y-75990727D01*
X90048363Y-76225759D01*
X90248241Y-76425637D01*
X90483273Y-76582680D01*
X90744426Y-76690853D01*
X91021665Y-76746000D01*
X91304335Y-76746000D01*
X91581574Y-76690853D01*
X91842727Y-76582680D01*
X92077759Y-76425637D01*
X92277637Y-76225759D01*
X92434680Y-75990727D01*
X92542853Y-75729574D01*
X92598000Y-75452335D01*
X92598000Y-75169665D01*
X92542853Y-74892426D01*
X92434680Y-74631273D01*
X92277637Y-74396241D01*
X92077759Y-74196363D01*
X91842727Y-74039320D01*
X91581574Y-73931147D01*
X91304335Y-73876000D01*
X91021665Y-73876000D01*
X90744426Y-73931147D01*
X90483273Y-74039320D01*
X90248241Y-74196363D01*
X90048363Y-74396241D01*
X89891320Y-74631273D01*
X89783147Y-74892426D01*
X89728000Y-75169665D01*
X83090062Y-75169665D01*
X83091072Y-74836500D01*
X83078812Y-74712018D01*
X83042502Y-74592320D01*
X82983537Y-74482006D01*
X82904185Y-74385315D01*
X82807494Y-74305963D01*
X82697180Y-74246998D01*
X82577482Y-74210688D01*
X82453000Y-74198428D01*
X81438750Y-74201500D01*
X81280000Y-74360250D01*
X81026000Y-74360250D01*
X80867250Y-74201500D01*
X79853000Y-74198428D01*
X79728518Y-74210688D01*
X79608820Y-74246998D01*
X79498506Y-74305963D01*
X79401815Y-74385315D01*
X79322463Y-74482006D01*
X79263498Y-74592320D01*
X79227188Y-74712018D01*
X79214928Y-74836500D01*
X79037190Y-74836500D01*
X79037190Y-74784281D01*
X79052357Y-74630286D01*
X79037190Y-74476291D01*
X79037190Y-74476284D01*
X78991828Y-74015719D01*
X78812566Y-73424769D01*
X78521459Y-72880146D01*
X78307713Y-72619695D01*
X106001520Y-72619695D01*
X106070822Y-73371938D01*
X106285548Y-74096208D01*
X106637445Y-74764670D01*
X106664452Y-74805088D01*
X107154119Y-75165276D01*
X109675395Y-72644000D01*
X110034605Y-72644000D01*
X112555881Y-75165276D01*
X113045548Y-74805088D01*
X113405849Y-74141118D01*
X113629694Y-73419615D01*
X113708480Y-72668305D01*
X113639178Y-71916062D01*
X113424452Y-71191792D01*
X113072555Y-70523330D01*
X113045548Y-70482912D01*
X112555881Y-70122724D01*
X110034605Y-72644000D01*
X109675395Y-72644000D01*
X107154119Y-70122724D01*
X106664452Y-70482912D01*
X106304151Y-71146882D01*
X106080306Y-71868385D01*
X106001520Y-72619695D01*
X78307713Y-72619695D01*
X78129695Y-72402781D01*
X78010072Y-72304609D01*
X75648582Y-69943119D01*
X107333724Y-69943119D01*
X109855000Y-72464395D01*
X112376276Y-69943119D01*
X112016088Y-69453452D01*
X111352118Y-69093151D01*
X110630615Y-68869306D01*
X109879305Y-68790520D01*
X109127062Y-68859822D01*
X108402792Y-69074548D01*
X107734330Y-69426445D01*
X107693912Y-69453452D01*
X107333724Y-69943119D01*
X75648582Y-69943119D01*
X74546777Y-68841315D01*
X74448599Y-68721685D01*
X73971234Y-68329921D01*
X73773070Y-68224000D01*
X109825608Y-68224000D01*
X110637249Y-68296437D01*
X111394774Y-68503672D01*
X112103625Y-68841777D01*
X112741404Y-69300067D01*
X113287946Y-69864055D01*
X113725977Y-70515913D01*
X114041651Y-71235038D01*
X114226206Y-72003768D01*
X114275001Y-72668221D01*
X114275000Y-126970608D01*
X114202563Y-127782249D01*
X113995328Y-128539774D01*
X113657221Y-129248627D01*
X113198928Y-129886410D01*
X112634945Y-130432946D01*
X111983085Y-130870978D01*
X111263963Y-131186651D01*
X110495232Y-131371206D01*
X109830792Y-131420000D01*
X51464392Y-131420000D01*
X50652751Y-131347563D01*
X49895226Y-131140328D01*
X49186373Y-130802221D01*
X48548590Y-130343928D01*
X48002054Y-129779945D01*
X47948926Y-129700881D01*
X48913724Y-129700881D01*
X49273912Y-130190548D01*
X49937882Y-130550849D01*
X50659385Y-130774694D01*
X51410695Y-130853480D01*
X52162938Y-130784178D01*
X52887208Y-130569452D01*
X53555670Y-130217555D01*
X53596088Y-130190548D01*
X53956276Y-129700881D01*
X107333724Y-129700881D01*
X107693912Y-130190548D01*
X108357882Y-130550849D01*
X109079385Y-130774694D01*
X109830695Y-130853480D01*
X110582938Y-130784178D01*
X111307208Y-130569452D01*
X111975670Y-130217555D01*
X112016088Y-130190548D01*
X112376276Y-129700881D01*
X109855000Y-127179605D01*
X107333724Y-129700881D01*
X53956276Y-129700881D01*
X51435000Y-127179605D01*
X48913724Y-129700881D01*
X47948926Y-129700881D01*
X47564022Y-129128085D01*
X47248349Y-128408963D01*
X47063794Y-127640232D01*
X47015000Y-126975792D01*
X47015000Y-126975695D01*
X47581520Y-126975695D01*
X47650822Y-127727938D01*
X47865548Y-128452208D01*
X48217445Y-129120670D01*
X48244452Y-129161088D01*
X48734119Y-129521276D01*
X51255395Y-127000000D01*
X51614605Y-127000000D01*
X54135881Y-129521276D01*
X54625548Y-129161088D01*
X54985849Y-128497118D01*
X55209694Y-127775615D01*
X55288480Y-127024305D01*
X55219178Y-126272062D01*
X55004452Y-125547792D01*
X54652555Y-124879330D01*
X54625548Y-124838912D01*
X54135881Y-124478724D01*
X51614605Y-127000000D01*
X51255395Y-127000000D01*
X48734119Y-124478724D01*
X48244452Y-124838912D01*
X47884151Y-125502882D01*
X47660306Y-126224385D01*
X47581520Y-126975695D01*
X47015000Y-126975695D01*
X47015000Y-124299119D01*
X48913724Y-124299119D01*
X51435000Y-126820395D01*
X53956276Y-124299119D01*
X53596088Y-123809452D01*
X52932118Y-123449151D01*
X52210615Y-123225306D01*
X51459305Y-123146520D01*
X50707062Y-123215822D01*
X49982792Y-123430548D01*
X49314330Y-123782445D01*
X49273912Y-123809452D01*
X48913724Y-124299119D01*
X47015000Y-124299119D01*
X47015000Y-121134000D01*
X48520928Y-121134000D01*
X48533188Y-121258482D01*
X48569498Y-121378180D01*
X48628463Y-121488494D01*
X48707815Y-121585185D01*
X48804506Y-121664537D01*
X48914820Y-121723502D01*
X49034518Y-121759812D01*
X49159000Y-121772072D01*
X49498250Y-121769000D01*
X49657000Y-121610250D01*
X49657000Y-120761000D01*
X49911000Y-120761000D01*
X49911000Y-121610250D01*
X50069750Y-121769000D01*
X50409000Y-121772072D01*
X50533482Y-121759812D01*
X50653180Y-121723502D01*
X50763494Y-121664537D01*
X50860185Y-121585185D01*
X50939537Y-121488494D01*
X50998502Y-121378180D01*
X51034812Y-121258482D01*
X51047072Y-121134000D01*
X51044000Y-120919750D01*
X50885250Y-120761000D01*
X49911000Y-120761000D01*
X49657000Y-120761000D01*
X48682750Y-120761000D01*
X48524000Y-120919750D01*
X48520928Y-121134000D01*
X47015000Y-121134000D01*
X47015000Y-116604473D01*
X48398430Y-116604473D01*
X48398430Y-116877407D01*
X48451677Y-117145096D01*
X48556124Y-117397253D01*
X48707758Y-117624189D01*
X48739984Y-117656415D01*
X48707815Y-117682815D01*
X48628463Y-117779506D01*
X48569498Y-117889820D01*
X48533188Y-118009518D01*
X48520928Y-118134000D01*
X48520928Y-119134000D01*
X48533188Y-119258482D01*
X48569498Y-119378180D01*
X48628463Y-119488494D01*
X48707815Y-119585185D01*
X48767296Y-119634000D01*
X48707815Y-119682815D01*
X48628463Y-119779506D01*
X48569498Y-119889820D01*
X48533188Y-120009518D01*
X48520928Y-120134000D01*
X48524000Y-120348250D01*
X48682750Y-120507000D01*
X49657000Y-120507000D01*
X49657000Y-120487000D01*
X49911000Y-120487000D01*
X49911000Y-120507000D01*
X50885250Y-120507000D01*
X51044000Y-120348250D01*
X51047072Y-120134000D01*
X51034812Y-120009518D01*
X50998502Y-119889820D01*
X50939537Y-119779506D01*
X50860185Y-119682815D01*
X50800704Y-119634000D01*
X50860185Y-119585185D01*
X50939537Y-119488494D01*
X50998502Y-119378180D01*
X51034812Y-119258482D01*
X51047072Y-119134000D01*
X51047072Y-118134000D01*
X51034812Y-118009518D01*
X50998502Y-117889820D01*
X50939537Y-117779506D01*
X50860185Y-117682815D01*
X50828016Y-117656415D01*
X50860242Y-117624189D01*
X51011876Y-117397253D01*
X51116323Y-117145096D01*
X51169570Y-116877407D01*
X51169570Y-116604473D01*
X51116323Y-116336784D01*
X51011876Y-116084627D01*
X50860242Y-115857691D01*
X50667249Y-115664698D01*
X50440313Y-115513064D01*
X50188156Y-115408617D01*
X49920467Y-115355370D01*
X49647533Y-115355370D01*
X49379844Y-115408617D01*
X49127687Y-115513064D01*
X48900751Y-115664698D01*
X48707758Y-115857691D01*
X48556124Y-116084627D01*
X48451677Y-116336784D01*
X48398430Y-116604473D01*
X47015000Y-116604473D01*
X47015000Y-115292000D01*
X54108928Y-115292000D01*
X54121188Y-115416482D01*
X54157498Y-115536180D01*
X54216463Y-115646494D01*
X54295815Y-115743185D01*
X54392506Y-115822537D01*
X54502820Y-115881502D01*
X54622518Y-115917812D01*
X54747000Y-115930072D01*
X55086250Y-115927000D01*
X55245000Y-115768250D01*
X55245000Y-114919000D01*
X55499000Y-114919000D01*
X55499000Y-115768250D01*
X55657750Y-115927000D01*
X55997000Y-115930072D01*
X56121482Y-115917812D01*
X56241180Y-115881502D01*
X56351494Y-115822537D01*
X56448185Y-115743185D01*
X56527537Y-115646494D01*
X56586502Y-115536180D01*
X56622812Y-115416482D01*
X56635072Y-115292000D01*
X56632000Y-115077750D01*
X56473250Y-114919000D01*
X55499000Y-114919000D01*
X55245000Y-114919000D01*
X54270750Y-114919000D01*
X54112000Y-115077750D01*
X54108928Y-115292000D01*
X47015000Y-115292000D01*
X47015000Y-111722593D01*
X48398430Y-111722593D01*
X48398430Y-111995527D01*
X48451677Y-112263216D01*
X48556124Y-112515373D01*
X48707758Y-112742309D01*
X48900751Y-112935302D01*
X49127687Y-113086936D01*
X49379844Y-113191383D01*
X49647533Y-113244630D01*
X49920467Y-113244630D01*
X50188156Y-113191383D01*
X50440313Y-113086936D01*
X50667249Y-112935302D01*
X50860242Y-112742309D01*
X51011876Y-112515373D01*
X51104400Y-112292000D01*
X54108928Y-112292000D01*
X54108928Y-113292000D01*
X54121188Y-113416482D01*
X54157498Y-113536180D01*
X54216463Y-113646494D01*
X54295815Y-113743185D01*
X54355296Y-113792000D01*
X54295815Y-113840815D01*
X54216463Y-113937506D01*
X54157498Y-114047820D01*
X54121188Y-114167518D01*
X54108928Y-114292000D01*
X54112000Y-114506250D01*
X54270750Y-114665000D01*
X55245000Y-114665000D01*
X55245000Y-114645000D01*
X55499000Y-114645000D01*
X55499000Y-114665000D01*
X56473250Y-114665000D01*
X56632000Y-114506250D01*
X56635072Y-114292000D01*
X56634607Y-114287283D01*
X56794061Y-114319000D01*
X56997939Y-114319000D01*
X57197898Y-114279226D01*
X57386256Y-114201205D01*
X57555774Y-114087937D01*
X57660000Y-113983711D01*
X57660001Y-115001197D01*
X55877003Y-116784196D01*
X55847999Y-116807999D01*
X55812294Y-116851506D01*
X55753026Y-116923724D01*
X55684427Y-117052063D01*
X55682454Y-117055754D01*
X55638997Y-117199015D01*
X55628000Y-117310668D01*
X55628000Y-117310678D01*
X55624324Y-117348000D01*
X55628000Y-117385323D01*
X55628001Y-118913338D01*
X55581320Y-118927498D01*
X55471006Y-118986463D01*
X55374315Y-119065815D01*
X55294963Y-119162506D01*
X55235998Y-119272820D01*
X55199688Y-119392518D01*
X55187428Y-119517000D01*
X55187428Y-120767000D01*
X55199688Y-120891482D01*
X55235998Y-121011180D01*
X55294963Y-121121494D01*
X55374315Y-121218185D01*
X55471006Y-121297537D01*
X55581320Y-121356502D01*
X55701018Y-121392812D01*
X55825500Y-121405072D01*
X56825500Y-121405072D01*
X56949982Y-121392812D01*
X57069680Y-121356502D01*
X57179994Y-121297537D01*
X57276685Y-121218185D01*
X57325500Y-121158704D01*
X57374315Y-121218185D01*
X57471006Y-121297537D01*
X57546774Y-121338036D01*
X57557454Y-121373246D01*
X57628026Y-121505276D01*
X57695012Y-121586898D01*
X57723000Y-121621001D01*
X57751998Y-121644799D01*
X60327198Y-124220000D01*
X60263278Y-124220000D01*
X59971549Y-124278029D01*
X59696747Y-124391856D01*
X59449431Y-124557107D01*
X59380974Y-124625564D01*
X59376502Y-124610820D01*
X59317537Y-124500506D01*
X59238185Y-124403815D01*
X59141494Y-124324463D01*
X59031180Y-124265498D01*
X58911482Y-124229188D01*
X58787000Y-124216928D01*
X57037000Y-124216928D01*
X56912518Y-124229188D01*
X56792820Y-124265498D01*
X56682506Y-124324463D01*
X56585815Y-124403815D01*
X56506463Y-124500506D01*
X56447498Y-124610820D01*
X56411188Y-124730518D01*
X56398928Y-124855000D01*
X56398928Y-126605000D01*
X56411188Y-126729482D01*
X56447498Y-126849180D01*
X56506463Y-126959494D01*
X56585815Y-127056185D01*
X56682506Y-127135537D01*
X56792820Y-127194502D01*
X56912518Y-127230812D01*
X57037000Y-127243072D01*
X58787000Y-127243072D01*
X58911482Y-127230812D01*
X59031180Y-127194502D01*
X59141494Y-127135537D01*
X59238185Y-127056185D01*
X59317537Y-126959494D01*
X59376502Y-126849180D01*
X59380974Y-126834436D01*
X59449431Y-126902893D01*
X59696747Y-127068144D01*
X59971549Y-127181971D01*
X60263278Y-127240000D01*
X60560722Y-127240000D01*
X60852451Y-127181971D01*
X61127253Y-127068144D01*
X61374569Y-126902893D01*
X61584893Y-126692569D01*
X61662000Y-126577170D01*
X61739107Y-126692569D01*
X61949431Y-126902893D01*
X62196747Y-127068144D01*
X62471549Y-127181971D01*
X62763278Y-127240000D01*
X63060722Y-127240000D01*
X63352451Y-127181971D01*
X63627253Y-127068144D01*
X63874569Y-126902893D01*
X64001222Y-126776240D01*
X64545365Y-126776240D01*
X64626025Y-127027868D01*
X64894329Y-127156267D01*
X65182526Y-127229855D01*
X65479543Y-127245804D01*
X65773963Y-127203501D01*
X66054474Y-127104572D01*
X66197975Y-127027868D01*
X66278635Y-126776240D01*
X65412000Y-125909605D01*
X64545365Y-126776240D01*
X64001222Y-126776240D01*
X64084893Y-126692569D01*
X64187232Y-126539407D01*
X64365760Y-126596635D01*
X65232395Y-125730000D01*
X64365760Y-124863365D01*
X64187232Y-124920593D01*
X64084893Y-124767431D01*
X63874569Y-124557107D01*
X63627253Y-124391856D01*
X63352451Y-124278029D01*
X63060722Y-124220000D01*
X62763278Y-124220000D01*
X62524332Y-124267530D01*
X60678938Y-122422136D01*
X60753898Y-122407226D01*
X60942256Y-122329205D01*
X61111774Y-122215937D01*
X61255937Y-122071774D01*
X61369205Y-121902256D01*
X61447226Y-121713898D01*
X61487000Y-121513939D01*
X61487000Y-121310061D01*
X61447226Y-121110102D01*
X61395005Y-120984029D01*
X61419185Y-120964185D01*
X61468000Y-120904704D01*
X61516815Y-120964185D01*
X61613506Y-121043537D01*
X61723820Y-121102502D01*
X61843518Y-121138812D01*
X61968000Y-121151072D01*
X62182250Y-121148000D01*
X62341000Y-120989250D01*
X62341000Y-120015000D01*
X62595000Y-120015000D01*
X62595000Y-120989250D01*
X62753750Y-121148000D01*
X62968000Y-121151072D01*
X63092482Y-121138812D01*
X63212180Y-121102502D01*
X63322494Y-121043537D01*
X63419185Y-120964185D01*
X63498537Y-120867494D01*
X63557502Y-120757180D01*
X63593812Y-120637482D01*
X63606072Y-120513000D01*
X63603000Y-120173750D01*
X63444250Y-120015000D01*
X62595000Y-120015000D01*
X62341000Y-120015000D01*
X62321000Y-120015000D01*
X62321000Y-119761000D01*
X62341000Y-119761000D01*
X62341000Y-119741000D01*
X62595000Y-119741000D01*
X62595000Y-119761000D01*
X63444250Y-119761000D01*
X63603000Y-119602250D01*
X63606072Y-119263000D01*
X63593812Y-119138518D01*
X63557502Y-119018820D01*
X63498537Y-118908506D01*
X63419185Y-118811815D01*
X63322494Y-118732463D01*
X63212180Y-118673498D01*
X63149290Y-118654421D01*
X63287937Y-118515774D01*
X63401205Y-118346256D01*
X63479226Y-118157898D01*
X63519000Y-117957939D01*
X63519000Y-117754061D01*
X63480617Y-117561094D01*
X63541937Y-117499774D01*
X63655205Y-117330256D01*
X63733226Y-117141898D01*
X63773000Y-116941939D01*
X63773000Y-116738061D01*
X63733226Y-116538102D01*
X63655205Y-116349744D01*
X63541937Y-116180226D01*
X63397774Y-116036063D01*
X63228256Y-115922795D01*
X63221326Y-115919924D01*
X63373000Y-115768250D01*
X63373000Y-114919000D01*
X63627000Y-114919000D01*
X63627000Y-115768250D01*
X63785750Y-115927000D01*
X64125000Y-115930072D01*
X64249482Y-115917812D01*
X64369180Y-115881502D01*
X64479494Y-115822537D01*
X64576185Y-115743185D01*
X64655537Y-115646494D01*
X64714502Y-115536180D01*
X64750812Y-115416482D01*
X64763072Y-115292000D01*
X64760000Y-115077750D01*
X64601250Y-114919000D01*
X63627000Y-114919000D01*
X63373000Y-114919000D01*
X63353000Y-114919000D01*
X63353000Y-114665000D01*
X63373000Y-114665000D01*
X63373000Y-114645000D01*
X63627000Y-114645000D01*
X63627000Y-114665000D01*
X64601250Y-114665000D01*
X64760000Y-114506250D01*
X64763072Y-114292000D01*
X64762607Y-114287283D01*
X64922061Y-114319000D01*
X65125939Y-114319000D01*
X65285225Y-114287316D01*
X65284928Y-114308000D01*
X65297188Y-114432482D01*
X65333498Y-114552180D01*
X65392463Y-114662494D01*
X65471815Y-114759185D01*
X65531296Y-114808000D01*
X65471815Y-114856815D01*
X65392463Y-114953506D01*
X65333498Y-115063820D01*
X65297188Y-115183518D01*
X65284928Y-115308000D01*
X65284928Y-116308000D01*
X65297188Y-116432482D01*
X65333498Y-116552180D01*
X65392463Y-116662494D01*
X65471815Y-116759185D01*
X65568506Y-116838537D01*
X65678820Y-116897502D01*
X65798518Y-116933812D01*
X65923000Y-116946072D01*
X67173000Y-116946072D01*
X67297482Y-116933812D01*
X67417180Y-116897502D01*
X67527494Y-116838537D01*
X67624185Y-116759185D01*
X67703537Y-116662494D01*
X67762502Y-116552180D01*
X67798812Y-116432482D01*
X67811072Y-116308000D01*
X67811072Y-116076000D01*
X67876289Y-116076000D01*
X67920226Y-116119937D01*
X68089744Y-116233205D01*
X68278102Y-116311226D01*
X68478061Y-116351000D01*
X68681939Y-116351000D01*
X68881898Y-116311226D01*
X69070256Y-116233205D01*
X69239774Y-116119937D01*
X69383937Y-115975774D01*
X69497205Y-115806256D01*
X69575226Y-115617898D01*
X69615000Y-115417939D01*
X69615000Y-115214061D01*
X69575226Y-115014102D01*
X69497205Y-114825744D01*
X69383937Y-114656226D01*
X69239774Y-114512063D01*
X69070256Y-114398795D01*
X68881898Y-114320774D01*
X68681939Y-114281000D01*
X68478061Y-114281000D01*
X68278102Y-114320774D01*
X68089744Y-114398795D01*
X67920226Y-114512063D01*
X67876289Y-114556000D01*
X67760460Y-114556000D01*
X67762502Y-114552180D01*
X67798812Y-114432482D01*
X67811072Y-114308000D01*
X67808000Y-114093750D01*
X67649250Y-113935000D01*
X66675000Y-113935000D01*
X66675000Y-113955000D01*
X66421000Y-113955000D01*
X66421000Y-113935000D01*
X66401000Y-113935000D01*
X66401000Y-113681000D01*
X66421000Y-113681000D01*
X66421000Y-112831750D01*
X66675000Y-112831750D01*
X66675000Y-113681000D01*
X67649250Y-113681000D01*
X67808000Y-113522250D01*
X67811072Y-113308000D01*
X67798812Y-113183518D01*
X67762502Y-113063820D01*
X67703537Y-112953506D01*
X67624185Y-112856815D01*
X67527494Y-112777463D01*
X67417180Y-112718498D01*
X67297482Y-112682188D01*
X67173000Y-112669928D01*
X66833750Y-112673000D01*
X66675000Y-112831750D01*
X66421000Y-112831750D01*
X66262250Y-112673000D01*
X65923000Y-112669928D01*
X65862458Y-112675891D01*
X65827937Y-112624226D01*
X65683774Y-112480063D01*
X65514256Y-112366795D01*
X65325898Y-112288774D01*
X65125939Y-112249000D01*
X65054690Y-112249000D01*
X65018776Y-112219526D01*
X64886747Y-112148954D01*
X64743486Y-112105497D01*
X64731644Y-112104331D01*
X64714502Y-112047820D01*
X64655537Y-111937506D01*
X64576185Y-111840815D01*
X64479494Y-111761463D01*
X64369180Y-111702498D01*
X64249482Y-111666188D01*
X64125000Y-111653928D01*
X62875000Y-111653928D01*
X62750518Y-111666188D01*
X62630820Y-111702498D01*
X62520506Y-111761463D01*
X62423815Y-111840815D01*
X62344463Y-111937506D01*
X62285498Y-112047820D01*
X62249188Y-112167518D01*
X62236928Y-112292000D01*
X62236928Y-113292000D01*
X62249188Y-113416482D01*
X62285498Y-113536180D01*
X62344463Y-113646494D01*
X62423815Y-113743185D01*
X62483296Y-113792000D01*
X62423815Y-113840815D01*
X62344463Y-113937506D01*
X62285498Y-114047820D01*
X62249188Y-114167518D01*
X62236928Y-114292000D01*
X62240000Y-114506250D01*
X62398748Y-114664998D01*
X62240000Y-114664998D01*
X62240000Y-114698864D01*
X62172494Y-114643463D01*
X62062180Y-114584498D01*
X61942482Y-114548188D01*
X61818000Y-114535928D01*
X61118000Y-114535928D01*
X60993518Y-114548188D01*
X60873820Y-114584498D01*
X60763506Y-114643463D01*
X60666815Y-114722815D01*
X60587463Y-114819506D01*
X60528498Y-114929820D01*
X60518000Y-114964427D01*
X60507502Y-114929820D01*
X60448537Y-114819506D01*
X60369185Y-114722815D01*
X60357542Y-114713260D01*
X60831002Y-114239799D01*
X60860001Y-114216001D01*
X60954974Y-114100276D01*
X61025546Y-113968247D01*
X61030624Y-113951506D01*
X61121185Y-113877185D01*
X61200537Y-113780494D01*
X61259502Y-113670180D01*
X61295812Y-113550482D01*
X61308072Y-113426000D01*
X61308072Y-112126000D01*
X61295812Y-112001518D01*
X61259502Y-111881820D01*
X61200537Y-111771506D01*
X61121185Y-111674815D01*
X61024494Y-111595463D01*
X60914180Y-111536498D01*
X60794482Y-111500188D01*
X60670000Y-111487928D01*
X59970000Y-111487928D01*
X59845518Y-111500188D01*
X59725820Y-111536498D01*
X59615506Y-111595463D01*
X59518815Y-111674815D01*
X59439463Y-111771506D01*
X59380498Y-111881820D01*
X59370000Y-111916427D01*
X59359502Y-111881820D01*
X59300537Y-111771506D01*
X59221185Y-111674815D01*
X59171251Y-111633835D01*
X59169003Y-111611014D01*
X59125546Y-111467753D01*
X59054974Y-111335724D01*
X58960001Y-111219999D01*
X58931002Y-111196201D01*
X58693000Y-110958198D01*
X58693000Y-110896061D01*
X58653226Y-110696102D01*
X58575205Y-110507744D01*
X58461937Y-110338226D01*
X58317774Y-110194063D01*
X58148256Y-110080795D01*
X57959898Y-110002774D01*
X57759939Y-109963000D01*
X57556061Y-109963000D01*
X57356102Y-110002774D01*
X57167744Y-110080795D01*
X56998226Y-110194063D01*
X56854063Y-110338226D01*
X56740795Y-110507744D01*
X56662774Y-110696102D01*
X56623000Y-110896061D01*
X56623000Y-111099939D01*
X56662774Y-111299898D01*
X56740795Y-111488256D01*
X56854063Y-111657774D01*
X56998226Y-111801937D01*
X57167744Y-111915205D01*
X57356102Y-111993226D01*
X57443296Y-112010570D01*
X57431928Y-112126000D01*
X57431928Y-112397312D01*
X57386256Y-112366795D01*
X57197898Y-112288774D01*
X56997939Y-112249000D01*
X56794061Y-112249000D01*
X56633973Y-112280843D01*
X56622812Y-112167518D01*
X56586502Y-112047820D01*
X56527537Y-111937506D01*
X56448185Y-111840815D01*
X56351494Y-111761463D01*
X56241180Y-111702498D01*
X56121482Y-111666188D01*
X55997000Y-111653928D01*
X54747000Y-111653928D01*
X54622518Y-111666188D01*
X54502820Y-111702498D01*
X54392506Y-111761463D01*
X54295815Y-111840815D01*
X54216463Y-111937506D01*
X54157498Y-112047820D01*
X54121188Y-112167518D01*
X54108928Y-112292000D01*
X51104400Y-112292000D01*
X51116323Y-112263216D01*
X51169570Y-111995527D01*
X51169570Y-111722593D01*
X51116323Y-111454904D01*
X51011876Y-111202747D01*
X50867536Y-110986728D01*
X50939537Y-110898994D01*
X50998502Y-110788680D01*
X51034812Y-110668982D01*
X51047072Y-110544500D01*
X51047072Y-109544500D01*
X51034812Y-109420018D01*
X51009629Y-109337000D01*
X59329928Y-109337000D01*
X59342188Y-109461482D01*
X59378498Y-109581180D01*
X59437463Y-109691494D01*
X59516815Y-109788185D01*
X59613506Y-109867537D01*
X59723820Y-109926502D01*
X59843518Y-109962812D01*
X59968000Y-109975072D01*
X60182250Y-109972000D01*
X60341000Y-109813250D01*
X60341000Y-108839000D01*
X59491750Y-108839000D01*
X59333000Y-108997750D01*
X59329928Y-109337000D01*
X51009629Y-109337000D01*
X50998502Y-109300320D01*
X50939537Y-109190006D01*
X50860185Y-109093315D01*
X50800704Y-109044500D01*
X50860185Y-108995685D01*
X50939537Y-108898994D01*
X50998502Y-108788680D01*
X51034812Y-108668982D01*
X51047072Y-108544500D01*
X51044000Y-108330250D01*
X50885250Y-108171500D01*
X49911000Y-108171500D01*
X49911000Y-108191500D01*
X49657000Y-108191500D01*
X49657000Y-108171500D01*
X48682750Y-108171500D01*
X48524000Y-108330250D01*
X48520928Y-108544500D01*
X48533188Y-108668982D01*
X48569498Y-108788680D01*
X48628463Y-108898994D01*
X48707815Y-108995685D01*
X48767296Y-109044500D01*
X48707815Y-109093315D01*
X48628463Y-109190006D01*
X48569498Y-109300320D01*
X48533188Y-109420018D01*
X48520928Y-109544500D01*
X48520928Y-110544500D01*
X48533188Y-110668982D01*
X48569498Y-110788680D01*
X48628463Y-110898994D01*
X48700464Y-110986728D01*
X48556124Y-111202747D01*
X48451677Y-111454904D01*
X48398430Y-111722593D01*
X47015000Y-111722593D01*
X47015000Y-108087000D01*
X59329928Y-108087000D01*
X59333000Y-108426250D01*
X59491750Y-108585000D01*
X60341000Y-108585000D01*
X60341000Y-107610750D01*
X60595000Y-107610750D01*
X60595000Y-108585000D01*
X60615000Y-108585000D01*
X60615000Y-108839000D01*
X60595000Y-108839000D01*
X60595000Y-109813250D01*
X60753750Y-109972000D01*
X60968000Y-109975072D01*
X61092482Y-109962812D01*
X61212180Y-109926502D01*
X61322494Y-109867537D01*
X61419185Y-109788185D01*
X61468000Y-109728704D01*
X61516815Y-109788185D01*
X61540995Y-109808029D01*
X61488774Y-109934102D01*
X61449000Y-110134061D01*
X61449000Y-110337939D01*
X61488774Y-110537898D01*
X61566795Y-110726256D01*
X61680063Y-110895774D01*
X61824226Y-111039937D01*
X61993744Y-111153205D01*
X62182102Y-111231226D01*
X62382061Y-111271000D01*
X62585939Y-111271000D01*
X62785898Y-111231226D01*
X62974256Y-111153205D01*
X63143774Y-111039937D01*
X63287937Y-110895774D01*
X63401205Y-110726256D01*
X63479226Y-110537898D01*
X63519000Y-110337939D01*
X63519000Y-110134061D01*
X63479226Y-109934102D01*
X63418886Y-109788430D01*
X63419185Y-109788185D01*
X63498537Y-109691494D01*
X63557502Y-109581180D01*
X63593812Y-109461482D01*
X63606072Y-109337000D01*
X63606072Y-108087000D01*
X63593812Y-107962518D01*
X63557502Y-107842820D01*
X63498537Y-107732506D01*
X63419185Y-107635815D01*
X63322494Y-107556463D01*
X63212180Y-107497498D01*
X63092482Y-107461188D01*
X62968000Y-107448928D01*
X61968000Y-107448928D01*
X61843518Y-107461188D01*
X61723820Y-107497498D01*
X61613506Y-107556463D01*
X61516815Y-107635815D01*
X61468000Y-107695296D01*
X61419185Y-107635815D01*
X61322494Y-107556463D01*
X61212180Y-107497498D01*
X61092482Y-107461188D01*
X60968000Y-107448928D01*
X60753750Y-107452000D01*
X60595000Y-107610750D01*
X60341000Y-107610750D01*
X60182250Y-107452000D01*
X59968000Y-107448928D01*
X59843518Y-107461188D01*
X59723820Y-107497498D01*
X59613506Y-107556463D01*
X59516815Y-107635815D01*
X59437463Y-107732506D01*
X59378498Y-107842820D01*
X59342188Y-107962518D01*
X59329928Y-108087000D01*
X47015000Y-108087000D01*
X47015000Y-107544500D01*
X48520928Y-107544500D01*
X48524000Y-107758750D01*
X48682750Y-107917500D01*
X49657000Y-107917500D01*
X49657000Y-107068250D01*
X49911000Y-107068250D01*
X49911000Y-107917500D01*
X50885250Y-107917500D01*
X51044000Y-107758750D01*
X51047072Y-107544500D01*
X51034812Y-107420018D01*
X50998502Y-107300320D01*
X50939537Y-107190006D01*
X50860185Y-107093315D01*
X50763494Y-107013963D01*
X50653180Y-106954998D01*
X50533482Y-106918688D01*
X50409000Y-106906428D01*
X50069750Y-106909500D01*
X49911000Y-107068250D01*
X49657000Y-107068250D01*
X49498250Y-106909500D01*
X49159000Y-106906428D01*
X49034518Y-106918688D01*
X48914820Y-106954998D01*
X48804506Y-107013963D01*
X48707815Y-107093315D01*
X48628463Y-107190006D01*
X48569498Y-107300320D01*
X48533188Y-107420018D01*
X48520928Y-107544500D01*
X47015000Y-107544500D01*
X47015000Y-102616000D01*
X60978149Y-102616000D01*
X61007084Y-102909777D01*
X61092775Y-103192264D01*
X61231931Y-103452606D01*
X61419203Y-103680797D01*
X61427265Y-103687414D01*
X61376220Y-103702898D01*
X61265906Y-103761863D01*
X61169215Y-103841215D01*
X61089863Y-103937906D01*
X61030898Y-104048220D01*
X60994588Y-104167918D01*
X60982328Y-104292400D01*
X60982328Y-106019600D01*
X60994588Y-106144082D01*
X61030898Y-106263780D01*
X61089863Y-106374094D01*
X61169215Y-106470785D01*
X61265906Y-106550137D01*
X61376220Y-106609102D01*
X61495918Y-106645412D01*
X61620400Y-106657672D01*
X63347600Y-106657672D01*
X63472082Y-106645412D01*
X63591780Y-106609102D01*
X63702094Y-106550137D01*
X63798785Y-106470785D01*
X63878137Y-106374094D01*
X63937102Y-106263780D01*
X63952586Y-106212735D01*
X63959203Y-106220797D01*
X64187394Y-106408069D01*
X64447736Y-106547225D01*
X64730223Y-106632916D01*
X64950381Y-106654600D01*
X65097619Y-106654600D01*
X65317777Y-106632916D01*
X65600264Y-106547225D01*
X65860606Y-106408069D01*
X66088797Y-106220797D01*
X66276069Y-105992606D01*
X66294000Y-105959060D01*
X66311931Y-105992606D01*
X66499203Y-106220797D01*
X66727394Y-106408069D01*
X66987736Y-106547225D01*
X67270223Y-106632916D01*
X67329452Y-106638750D01*
X67319381Y-106689381D01*
X67262102Y-106700774D01*
X67073744Y-106778795D01*
X66904226Y-106892063D01*
X66760063Y-107036226D01*
X66646795Y-107205744D01*
X66568774Y-107394102D01*
X66529000Y-107594061D01*
X66529000Y-107797939D01*
X66568774Y-107997898D01*
X66646795Y-108186256D01*
X66760063Y-108355774D01*
X66904226Y-108499937D01*
X67073744Y-108613205D01*
X67262102Y-108691226D01*
X67462061Y-108731000D01*
X67665939Y-108731000D01*
X67865898Y-108691226D01*
X68054256Y-108613205D01*
X68223774Y-108499937D01*
X68267711Y-108456000D01*
X77413206Y-108456000D01*
X67597997Y-118271210D01*
X67568999Y-118295008D01*
X67545201Y-118324006D01*
X67545200Y-118324007D01*
X67474025Y-118410733D01*
X67403453Y-118542763D01*
X67381238Y-118616000D01*
X67360763Y-118683500D01*
X67359997Y-118686024D01*
X67345323Y-118835009D01*
X67349000Y-118872341D01*
X67348999Y-122502396D01*
X67243451Y-122445979D01*
X67100190Y-122402522D01*
X66988537Y-122391525D01*
X66988526Y-122391525D01*
X66951204Y-122387849D01*
X66913882Y-122391525D01*
X63774917Y-122391525D01*
X63730980Y-122347588D01*
X63561462Y-122234320D01*
X63373104Y-122156299D01*
X63173145Y-122116525D01*
X62969267Y-122116525D01*
X62769308Y-122156299D01*
X62580950Y-122234320D01*
X62411432Y-122347588D01*
X62267269Y-122491751D01*
X62154001Y-122661269D01*
X62075980Y-122849627D01*
X62036206Y-123049586D01*
X62036206Y-123253464D01*
X62075980Y-123453423D01*
X62154001Y-123641781D01*
X62267269Y-123811299D01*
X62411432Y-123955462D01*
X62580950Y-124068730D01*
X62769308Y-124146751D01*
X62969267Y-124186525D01*
X63173145Y-124186525D01*
X63373104Y-124146751D01*
X63561462Y-124068730D01*
X63730980Y-123955462D01*
X63774917Y-123911525D01*
X65682902Y-123911525D01*
X65651962Y-124067071D01*
X65651962Y-124232823D01*
X65641474Y-124230145D01*
X65344457Y-124214196D01*
X65050037Y-124256499D01*
X64769526Y-124355428D01*
X64626025Y-124432132D01*
X64545365Y-124683760D01*
X65412000Y-125550395D01*
X65426143Y-125536253D01*
X65605748Y-125715858D01*
X65591605Y-125730000D01*
X66458240Y-126596635D01*
X66709868Y-126515975D01*
X66838267Y-126247671D01*
X66911855Y-125959474D01*
X66927804Y-125662457D01*
X66897970Y-125454820D01*
X67393155Y-125950005D01*
X67416953Y-125979003D01*
X67445951Y-126002801D01*
X67532677Y-126073976D01*
X67631133Y-126126602D01*
X67664707Y-126144548D01*
X67807968Y-126188005D01*
X67919621Y-126199002D01*
X67919631Y-126199002D01*
X67956954Y-126202678D01*
X67994277Y-126199002D01*
X75253873Y-126199002D01*
X75228500Y-126326561D01*
X75228500Y-126530439D01*
X75268274Y-126730398D01*
X75346295Y-126918756D01*
X75459563Y-127088274D01*
X75603726Y-127232437D01*
X75773244Y-127345705D01*
X75961602Y-127423726D01*
X76161561Y-127463500D01*
X76365439Y-127463500D01*
X76565398Y-127423726D01*
X76753756Y-127345705D01*
X76923274Y-127232437D01*
X76967211Y-127188500D01*
X104420178Y-127188500D01*
X104457500Y-127192176D01*
X104494822Y-127188500D01*
X104494833Y-127188500D01*
X104606486Y-127177503D01*
X104749747Y-127134046D01*
X104881776Y-127063474D01*
X104997501Y-126968501D01*
X105021303Y-126939498D01*
X105195801Y-126765000D01*
X105257939Y-126765000D01*
X105457898Y-126725226D01*
X105646256Y-126647205D01*
X105815774Y-126533937D01*
X105959937Y-126389774D01*
X106073205Y-126220256D01*
X106106599Y-126139635D01*
X106080306Y-126224385D01*
X106001520Y-126975695D01*
X106070822Y-127727938D01*
X106285548Y-128452208D01*
X106637445Y-129120670D01*
X106664452Y-129161088D01*
X107154119Y-129521276D01*
X109675395Y-127000000D01*
X110034605Y-127000000D01*
X112555881Y-129521276D01*
X113045548Y-129161088D01*
X113405849Y-128497118D01*
X113629694Y-127775615D01*
X113708480Y-127024305D01*
X113639178Y-126272062D01*
X113424452Y-125547792D01*
X113072555Y-124879330D01*
X113045548Y-124838912D01*
X112555881Y-124478724D01*
X110034605Y-127000000D01*
X109675395Y-127000000D01*
X107154119Y-124478724D01*
X106664452Y-124838912D01*
X106304151Y-125502882D01*
X106171238Y-125931292D01*
X106191000Y-125831939D01*
X106191000Y-125628061D01*
X106151226Y-125428102D01*
X106073205Y-125239744D01*
X105959937Y-125070226D01*
X105815774Y-124926063D01*
X105646256Y-124812795D01*
X105457898Y-124734774D01*
X105257939Y-124695000D01*
X105054061Y-124695000D01*
X104854102Y-124734774D01*
X104665744Y-124812795D01*
X104496226Y-124926063D01*
X104352063Y-125070226D01*
X104238795Y-125239744D01*
X104160774Y-125428102D01*
X104121000Y-125628061D01*
X104121000Y-125668500D01*
X95624301Y-125668500D01*
X95670801Y-125622000D01*
X95732939Y-125622000D01*
X95932898Y-125582226D01*
X96121256Y-125504205D01*
X96290774Y-125390937D01*
X96434937Y-125246774D01*
X96548205Y-125077256D01*
X96626226Y-124888898D01*
X96666000Y-124688939D01*
X96666000Y-124485061D01*
X96629015Y-124299119D01*
X107333724Y-124299119D01*
X109855000Y-126820395D01*
X112376276Y-124299119D01*
X112016088Y-123809452D01*
X111352118Y-123449151D01*
X110630615Y-123225306D01*
X109879305Y-123146520D01*
X109127062Y-123215822D01*
X108402792Y-123430548D01*
X107734330Y-123782445D01*
X107693912Y-123809452D01*
X107333724Y-124299119D01*
X96629015Y-124299119D01*
X96626226Y-124285102D01*
X96548205Y-124096744D01*
X96434937Y-123927226D01*
X96290774Y-123783063D01*
X96121256Y-123669795D01*
X95932898Y-123591774D01*
X95732939Y-123552000D01*
X95529061Y-123552000D01*
X95329102Y-123591774D01*
X95140744Y-123669795D01*
X94971226Y-123783063D01*
X94827063Y-123927226D01*
X94713795Y-124096744D01*
X94635774Y-124285102D01*
X94596000Y-124485061D01*
X94596000Y-124547199D01*
X94464197Y-124679002D01*
X80029000Y-124679002D01*
X80029000Y-124612061D01*
X79989226Y-124412102D01*
X79967204Y-124358936D01*
X93311763Y-124358936D01*
X93349085Y-124362612D01*
X93386407Y-124358936D01*
X93386418Y-124358936D01*
X93498071Y-124347939D01*
X93641332Y-124304482D01*
X93773361Y-124233910D01*
X93889086Y-124138937D01*
X93912889Y-124109933D01*
X96369302Y-121653521D01*
X96431439Y-121653521D01*
X96631398Y-121613747D01*
X96819756Y-121535726D01*
X96989274Y-121422458D01*
X97133437Y-121278295D01*
X97246705Y-121108777D01*
X97324726Y-120920419D01*
X97364500Y-120720460D01*
X97364500Y-120653511D01*
X97988710Y-120653511D01*
X98088500Y-120753301D01*
X98088500Y-120815439D01*
X98128274Y-121015398D01*
X98206295Y-121203756D01*
X98319563Y-121373274D01*
X98463726Y-121517437D01*
X98633244Y-121630705D01*
X98821602Y-121708726D01*
X99021561Y-121748500D01*
X99225439Y-121748500D01*
X99425398Y-121708726D01*
X99613756Y-121630705D01*
X99783274Y-121517437D01*
X99927437Y-121373274D01*
X100040705Y-121203756D01*
X100118726Y-121015398D01*
X100158500Y-120815439D01*
X100158500Y-120611561D01*
X100118726Y-120411602D01*
X100040705Y-120223244D01*
X99927437Y-120053726D01*
X99783274Y-119909563D01*
X99613756Y-119796295D01*
X99425398Y-119718274D01*
X99225439Y-119678500D01*
X99163301Y-119678500D01*
X98867314Y-119382513D01*
X98843512Y-119353510D01*
X98727787Y-119258537D01*
X98595758Y-119187965D01*
X98452497Y-119144508D01*
X98340844Y-119133511D01*
X98340833Y-119133511D01*
X98303511Y-119129835D01*
X98266189Y-119133511D01*
X97809000Y-119133511D01*
X97809000Y-119024061D01*
X97769226Y-118824102D01*
X97700331Y-118657775D01*
X100019830Y-118657775D01*
X100259976Y-119045018D01*
X100753877Y-119305641D01*
X101289133Y-119464901D01*
X101845174Y-119516678D01*
X102400632Y-119458981D01*
X102934161Y-119294028D01*
X103400024Y-119045018D01*
X103640170Y-118657775D01*
X101830000Y-116847605D01*
X100019830Y-118657775D01*
X97700331Y-118657775D01*
X97691205Y-118635744D01*
X97577937Y-118466226D01*
X97433774Y-118322063D01*
X97264256Y-118208795D01*
X97075898Y-118130774D01*
X96875939Y-118091000D01*
X96672061Y-118091000D01*
X96472102Y-118130774D01*
X96283744Y-118208795D01*
X96114226Y-118322063D01*
X95970063Y-118466226D01*
X95856795Y-118635744D01*
X95837014Y-118683500D01*
X77914217Y-118683500D01*
X77930170Y-118657775D01*
X76120000Y-116847605D01*
X74309830Y-118657775D01*
X74325783Y-118683500D01*
X70926802Y-118683500D01*
X70821500Y-118578198D01*
X70821500Y-118516061D01*
X70781726Y-118316102D01*
X70703705Y-118127744D01*
X70590437Y-117958226D01*
X70446274Y-117814063D01*
X70301488Y-117717321D01*
X71335635Y-116683174D01*
X73271322Y-116683174D01*
X73329019Y-117238632D01*
X73493972Y-117772161D01*
X73742982Y-118238024D01*
X74130225Y-118478170D01*
X75940395Y-116668000D01*
X76299605Y-116668000D01*
X78109775Y-118478170D01*
X78497018Y-118238024D01*
X78757641Y-117744123D01*
X78916901Y-117208867D01*
X78965852Y-116683174D01*
X98981322Y-116683174D01*
X99039019Y-117238632D01*
X99203972Y-117772161D01*
X99452982Y-118238024D01*
X99840225Y-118478170D01*
X101650395Y-116668000D01*
X102009605Y-116668000D01*
X103819775Y-118478170D01*
X104207018Y-118238024D01*
X104214945Y-118223000D01*
X109484928Y-118223000D01*
X109497188Y-118347482D01*
X109533498Y-118467180D01*
X109592463Y-118577494D01*
X109671815Y-118674185D01*
X109768506Y-118753537D01*
X109878820Y-118812502D01*
X109998518Y-118848812D01*
X110123000Y-118861072D01*
X110712250Y-118858000D01*
X110871000Y-118699250D01*
X110871000Y-117475000D01*
X109646750Y-117475000D01*
X109488000Y-117633750D01*
X109484928Y-118223000D01*
X104214945Y-118223000D01*
X104467641Y-117744123D01*
X104626901Y-117208867D01*
X104678678Y-116652826D01*
X104620981Y-116097368D01*
X104456028Y-115563839D01*
X104207018Y-115097976D01*
X103819775Y-114857830D01*
X102009605Y-116668000D01*
X101650395Y-116668000D01*
X99840225Y-114857830D01*
X99452982Y-115097976D01*
X99192359Y-115591877D01*
X99033099Y-116127133D01*
X98981322Y-116683174D01*
X78965852Y-116683174D01*
X78968678Y-116652826D01*
X78910981Y-116097368D01*
X78746028Y-115563839D01*
X78497018Y-115097976D01*
X78109775Y-114857830D01*
X76299605Y-116668000D01*
X75940395Y-116668000D01*
X74130225Y-114857830D01*
X73742982Y-115097976D01*
X73482359Y-115591877D01*
X73323099Y-116127133D01*
X73271322Y-116683174D01*
X71335635Y-116683174D01*
X73340584Y-114678225D01*
X74309830Y-114678225D01*
X76120000Y-116488395D01*
X77930170Y-114678225D01*
X77690024Y-114290982D01*
X77196123Y-114030359D01*
X76660867Y-113871099D01*
X76104826Y-113819322D01*
X75549368Y-113877019D01*
X75015839Y-114041972D01*
X74549976Y-114290982D01*
X74309830Y-114678225D01*
X73340584Y-114678225D01*
X79918146Y-108100664D01*
X79980283Y-108100664D01*
X80180242Y-108060890D01*
X80368600Y-107982869D01*
X80538118Y-107869601D01*
X80585459Y-107822260D01*
X88435174Y-115671976D01*
X88490795Y-115806256D01*
X88604063Y-115975774D01*
X88748226Y-116119937D01*
X88917744Y-116233205D01*
X89106102Y-116311226D01*
X89306061Y-116351000D01*
X89509939Y-116351000D01*
X89709898Y-116311226D01*
X89898256Y-116233205D01*
X90067774Y-116119937D01*
X90211937Y-115975774D01*
X90325205Y-115806256D01*
X90403226Y-115617898D01*
X90443000Y-115417939D01*
X90443000Y-115214061D01*
X90403226Y-115014102D01*
X90325205Y-114825744D01*
X90226637Y-114678225D01*
X100019830Y-114678225D01*
X101830000Y-116488395D01*
X103640170Y-114678225D01*
X103400024Y-114290982D01*
X102906123Y-114030359D01*
X102370867Y-113871099D01*
X101814826Y-113819322D01*
X101259368Y-113877019D01*
X100725839Y-114041972D01*
X100259976Y-114290982D01*
X100019830Y-114678225D01*
X90226637Y-114678225D01*
X90211937Y-114656226D01*
X90067774Y-114512063D01*
X89898256Y-114398795D01*
X89709898Y-114320774D01*
X89509939Y-114281000D01*
X89306061Y-114281000D01*
X89212427Y-114299625D01*
X85273802Y-110361000D01*
X94069678Y-110361000D01*
X94107000Y-110364676D01*
X94144322Y-110361000D01*
X94144333Y-110361000D01*
X94255986Y-110350003D01*
X94399247Y-110306546D01*
X94531276Y-110235974D01*
X94647001Y-110141001D01*
X94670804Y-110111997D01*
X96813802Y-107969000D01*
X96875939Y-107969000D01*
X97075898Y-107929226D01*
X97264256Y-107851205D01*
X97433774Y-107737937D01*
X97577937Y-107593774D01*
X97691205Y-107424256D01*
X97769226Y-107235898D01*
X97806799Y-107047000D01*
X109484928Y-107047000D01*
X109497188Y-107171482D01*
X109533498Y-107291180D01*
X109592463Y-107401494D01*
X109671815Y-107498185D01*
X109768506Y-107577537D01*
X109878820Y-107636502D01*
X109998518Y-107672812D01*
X110123000Y-107685072D01*
X110712250Y-107682000D01*
X110871000Y-107523250D01*
X110871000Y-106299000D01*
X109646750Y-106299000D01*
X109488000Y-106457750D01*
X109484928Y-107047000D01*
X97806799Y-107047000D01*
X97809000Y-107035939D01*
X97809000Y-106832061D01*
X97769226Y-106632102D01*
X97691205Y-106443744D01*
X97577937Y-106274226D01*
X97433774Y-106130063D01*
X97264256Y-106016795D01*
X97075898Y-105938774D01*
X96875939Y-105899000D01*
X96672061Y-105899000D01*
X96472102Y-105938774D01*
X96283744Y-106016795D01*
X96114226Y-106130063D01*
X95970063Y-106274226D01*
X95856795Y-106443744D01*
X95778774Y-106632102D01*
X95739000Y-106832061D01*
X95739000Y-106894198D01*
X93792199Y-108841000D01*
X86119617Y-108841000D01*
X86124178Y-108818072D01*
X86985000Y-108818072D01*
X87109482Y-108805812D01*
X87229180Y-108769502D01*
X87339494Y-108710537D01*
X87436185Y-108631185D01*
X87515537Y-108534494D01*
X87574502Y-108424180D01*
X87610812Y-108304482D01*
X87623072Y-108180000D01*
X87623072Y-107265001D01*
X94625677Y-107265001D01*
X94662999Y-107268677D01*
X94700321Y-107265001D01*
X94700332Y-107265001D01*
X94811985Y-107254004D01*
X94955246Y-107210547D01*
X95087275Y-107139975D01*
X95203000Y-107045002D01*
X95226803Y-107015999D01*
X97067803Y-105175000D01*
X97129939Y-105175000D01*
X97329898Y-105135226D01*
X97518256Y-105057205D01*
X97687774Y-104943937D01*
X97831937Y-104799774D01*
X97945205Y-104630256D01*
X98023226Y-104441898D01*
X98044000Y-104337459D01*
X98064774Y-104441898D01*
X98142795Y-104630256D01*
X98256063Y-104799774D01*
X98400226Y-104943937D01*
X98569744Y-105057205D01*
X98758102Y-105135226D01*
X98958061Y-105175000D01*
X99161939Y-105175000D01*
X99361898Y-105135226D01*
X99550256Y-105057205D01*
X99719774Y-104943937D01*
X99863937Y-104799774D01*
X99977205Y-104630256D01*
X100055226Y-104441898D01*
X100095000Y-104241939D01*
X100095000Y-104038061D01*
X100055226Y-103838102D01*
X99977205Y-103649744D01*
X99863937Y-103480226D01*
X99820000Y-103436289D01*
X99820000Y-98589322D01*
X99823676Y-98551999D01*
X99820000Y-98514676D01*
X99820000Y-98514667D01*
X99809003Y-98403014D01*
X99765546Y-98259753D01*
X99694974Y-98127724D01*
X99672029Y-98099765D01*
X99623799Y-98040996D01*
X99623795Y-98040992D01*
X99600001Y-98011999D01*
X99571008Y-97988205D01*
X98571000Y-96988198D01*
X98571000Y-96926061D01*
X98531226Y-96726102D01*
X98453205Y-96537744D01*
X98339937Y-96368226D01*
X98195774Y-96224063D01*
X98026256Y-96110795D01*
X97837898Y-96032774D01*
X97637939Y-95993000D01*
X97434061Y-95993000D01*
X97234102Y-96032774D01*
X97045744Y-96110795D01*
X96876226Y-96224063D01*
X96732063Y-96368226D01*
X96618795Y-96537744D01*
X96540774Y-96726102D01*
X96501000Y-96926061D01*
X96501000Y-97129939D01*
X96540774Y-97329898D01*
X96618795Y-97518256D01*
X96732063Y-97687774D01*
X96876226Y-97831937D01*
X97045744Y-97945205D01*
X97234102Y-98023226D01*
X97434061Y-98063000D01*
X97496198Y-98063000D01*
X98300001Y-98866804D01*
X98300000Y-103436289D01*
X98256063Y-103480226D01*
X98142795Y-103649744D01*
X98064774Y-103838102D01*
X98044000Y-103942541D01*
X98023226Y-103838102D01*
X97945205Y-103649744D01*
X97831937Y-103480226D01*
X97687774Y-103336063D01*
X97518256Y-103222795D01*
X97329898Y-103144774D01*
X97129939Y-103105000D01*
X96926061Y-103105000D01*
X96726102Y-103144774D01*
X96537744Y-103222795D01*
X96368226Y-103336063D01*
X96224063Y-103480226D01*
X96110795Y-103649744D01*
X96032774Y-103838102D01*
X95993000Y-104038061D01*
X95993000Y-104100197D01*
X94348198Y-105745001D01*
X84467803Y-105745001D01*
X83902802Y-105180000D01*
X85096928Y-105180000D01*
X85100000Y-105394250D01*
X85258750Y-105553000D01*
X86233000Y-105553000D01*
X86233000Y-104703750D01*
X86487000Y-104703750D01*
X86487000Y-105553000D01*
X87461250Y-105553000D01*
X87620000Y-105394250D01*
X87623072Y-105180000D01*
X87610812Y-105055518D01*
X87574502Y-104935820D01*
X87515537Y-104825506D01*
X87436185Y-104728815D01*
X87339494Y-104649463D01*
X87229180Y-104590498D01*
X87109482Y-104554188D01*
X86985000Y-104541928D01*
X86645750Y-104545000D01*
X86487000Y-104703750D01*
X86233000Y-104703750D01*
X86074250Y-104545000D01*
X85735000Y-104541928D01*
X85610518Y-104554188D01*
X85490820Y-104590498D01*
X85380506Y-104649463D01*
X85283815Y-104728815D01*
X85204463Y-104825506D01*
X85145498Y-104935820D01*
X85109188Y-105055518D01*
X85096928Y-105180000D01*
X83902802Y-105180000D01*
X83647780Y-104924978D01*
X83623977Y-104895975D01*
X83508252Y-104801002D01*
X83376223Y-104730430D01*
X83232962Y-104686973D01*
X83121309Y-104675976D01*
X83121298Y-104675976D01*
X83083976Y-104672300D01*
X83046654Y-104675976D01*
X76343999Y-104675976D01*
X76343999Y-101783321D01*
X76347675Y-101745998D01*
X76343999Y-101708676D01*
X76343999Y-101708666D01*
X76333002Y-101597013D01*
X76289545Y-101453752D01*
X76219000Y-101321774D01*
X76219000Y-101244061D01*
X76179226Y-101044102D01*
X76101205Y-100855744D01*
X75987937Y-100686226D01*
X75843774Y-100542063D01*
X75674256Y-100428795D01*
X75485898Y-100350774D01*
X75285939Y-100311000D01*
X75082061Y-100311000D01*
X74882102Y-100350774D01*
X74693744Y-100428795D01*
X74524226Y-100542063D01*
X74380063Y-100686226D01*
X74266795Y-100855744D01*
X74188774Y-101044102D01*
X74149000Y-101244061D01*
X74149000Y-101447939D01*
X74188774Y-101647898D01*
X74266795Y-101836256D01*
X74380063Y-102005774D01*
X74524226Y-102149937D01*
X74693744Y-102263205D01*
X74823999Y-102317159D01*
X74824000Y-105412000D01*
X72839711Y-105412000D01*
X72795774Y-105368063D01*
X72626256Y-105254795D01*
X72437898Y-105176774D01*
X72237939Y-105137000D01*
X72034061Y-105137000D01*
X71834102Y-105176774D01*
X71645744Y-105254795D01*
X71476226Y-105368063D01*
X71332063Y-105512226D01*
X71218795Y-105681744D01*
X71140774Y-105870102D01*
X71101000Y-106070061D01*
X71101000Y-106174000D01*
X69029711Y-106174000D01*
X68985774Y-106130063D01*
X68816256Y-106016795D01*
X68801301Y-106010600D01*
X68816069Y-105992606D01*
X68955225Y-105732264D01*
X69040916Y-105449777D01*
X69069851Y-105156000D01*
X69040916Y-104862223D01*
X68955225Y-104579736D01*
X68816069Y-104319394D01*
X68628797Y-104091203D01*
X68400606Y-103903931D01*
X68360567Y-103882530D01*
X68574293Y-103722854D01*
X68770817Y-103504488D01*
X68920964Y-103251978D01*
X69018963Y-102975027D01*
X68898464Y-102743000D01*
X67691000Y-102743000D01*
X67691000Y-102763000D01*
X67437000Y-102763000D01*
X67437000Y-102743000D01*
X67417000Y-102743000D01*
X67417000Y-102489000D01*
X67437000Y-102489000D01*
X67437000Y-101282183D01*
X67691000Y-101282183D01*
X67691000Y-102489000D01*
X68898464Y-102489000D01*
X69018963Y-102256973D01*
X68920964Y-101980022D01*
X68770817Y-101727512D01*
X68574293Y-101509146D01*
X68338944Y-101333316D01*
X68073814Y-101206778D01*
X67923026Y-101161042D01*
X67691000Y-101282183D01*
X67437000Y-101282183D01*
X67204974Y-101161042D01*
X67054186Y-101206778D01*
X66789056Y-101333316D01*
X66553707Y-101509146D01*
X66357183Y-101727512D01*
X66299863Y-101823910D01*
X66276069Y-101779394D01*
X66088797Y-101551203D01*
X65860606Y-101363931D01*
X65600264Y-101224775D01*
X65317777Y-101139084D01*
X65097619Y-101117400D01*
X64950381Y-101117400D01*
X64730223Y-101139084D01*
X64447736Y-101224775D01*
X64187394Y-101363931D01*
X63959203Y-101551203D01*
X63771931Y-101779394D01*
X63754000Y-101812940D01*
X63736069Y-101779394D01*
X63548797Y-101551203D01*
X63320606Y-101363931D01*
X63244000Y-101322984D01*
X63244000Y-100347771D01*
X63539802Y-100051970D01*
X63601939Y-100051970D01*
X63801898Y-100012196D01*
X63990256Y-99934175D01*
X64159774Y-99820907D01*
X64303937Y-99676744D01*
X64417205Y-99507226D01*
X64495226Y-99318868D01*
X64535000Y-99118909D01*
X64535000Y-98915031D01*
X64495226Y-98715072D01*
X64417205Y-98526714D01*
X64303937Y-98357196D01*
X64159774Y-98213033D01*
X63990256Y-98099765D01*
X63801898Y-98021744D01*
X63601939Y-97981970D01*
X63398061Y-97981970D01*
X63198102Y-98021744D01*
X63009744Y-98099765D01*
X62840226Y-98213033D01*
X62696063Y-98357196D01*
X62582795Y-98526714D01*
X62504774Y-98715072D01*
X62465000Y-98915031D01*
X62465000Y-98977168D01*
X61973002Y-99469166D01*
X61943999Y-99492969D01*
X61888871Y-99560144D01*
X61849026Y-99608694D01*
X61778455Y-99740723D01*
X61778454Y-99740724D01*
X61734997Y-99883985D01*
X61724000Y-99995638D01*
X61724000Y-99995648D01*
X61720324Y-100032970D01*
X61724000Y-100070293D01*
X61724000Y-101322984D01*
X61647394Y-101363931D01*
X61419203Y-101551203D01*
X61231931Y-101779394D01*
X61092775Y-102039736D01*
X61007084Y-102322223D01*
X60978149Y-102616000D01*
X47015000Y-102616000D01*
X47015000Y-88037000D01*
X49032928Y-88037000D01*
X49045188Y-88161482D01*
X49081498Y-88281180D01*
X49140463Y-88391494D01*
X49219815Y-88488185D01*
X49316506Y-88567537D01*
X49426820Y-88626502D01*
X49441564Y-88630974D01*
X49373107Y-88699431D01*
X49207856Y-88946747D01*
X49094029Y-89221549D01*
X49036000Y-89513278D01*
X49036000Y-89810722D01*
X49094029Y-90102451D01*
X49207856Y-90377253D01*
X49373107Y-90624569D01*
X49583431Y-90834893D01*
X49830747Y-91000144D01*
X50105549Y-91113971D01*
X50397278Y-91172000D01*
X50694722Y-91172000D01*
X50986451Y-91113971D01*
X51261253Y-91000144D01*
X51508569Y-90834893D01*
X51718893Y-90624569D01*
X51854245Y-90422000D01*
X58029868Y-90422000D01*
X57996274Y-90503102D01*
X57956500Y-90703061D01*
X57956500Y-90906939D01*
X57996274Y-91106898D01*
X58074295Y-91295256D01*
X58187563Y-91464774D01*
X58331726Y-91608937D01*
X58501244Y-91722205D01*
X58689602Y-91800226D01*
X58889561Y-91840000D01*
X58951699Y-91840000D01*
X60586701Y-93475003D01*
X60610499Y-93504001D01*
X60639497Y-93527799D01*
X60726223Y-93598974D01*
X60857031Y-93668893D01*
X60858253Y-93669546D01*
X61001514Y-93713003D01*
X61113167Y-93724000D01*
X61113176Y-93724000D01*
X61150499Y-93727676D01*
X61187822Y-93724000D01*
X62224789Y-93724000D01*
X62268726Y-93767937D01*
X62438244Y-93881205D01*
X62626602Y-93959226D01*
X62826561Y-93999000D01*
X63030439Y-93999000D01*
X63230398Y-93959226D01*
X63418756Y-93881205D01*
X63588274Y-93767937D01*
X63732437Y-93623774D01*
X63845705Y-93454256D01*
X63923726Y-93265898D01*
X63963500Y-93065939D01*
X63963500Y-92862061D01*
X63923726Y-92662102D01*
X63845705Y-92473744D01*
X63732437Y-92304226D01*
X63588274Y-92160063D01*
X63418756Y-92046795D01*
X63230398Y-91968774D01*
X63030439Y-91929000D01*
X62826561Y-91929000D01*
X62626602Y-91968774D01*
X62438244Y-92046795D01*
X62268726Y-92160063D01*
X62224789Y-92204000D01*
X61465302Y-92204000D01*
X60026500Y-90765199D01*
X60026500Y-90703061D01*
X59986726Y-90503102D01*
X59953132Y-90422000D01*
X69525880Y-90422000D01*
X80788208Y-101684329D01*
X80788214Y-101684334D01*
X81135406Y-102031526D01*
X81159209Y-102060530D01*
X81274934Y-102155503D01*
X81406963Y-102226075D01*
X81550224Y-102269532D01*
X81661877Y-102280529D01*
X81661887Y-102280529D01*
X81699209Y-102284205D01*
X81736532Y-102280529D01*
X83117568Y-102280529D01*
X83264102Y-102341226D01*
X83464061Y-102381000D01*
X83667939Y-102381000D01*
X83867898Y-102341226D01*
X84056256Y-102263205D01*
X84225774Y-102149937D01*
X84369937Y-102005774D01*
X84483205Y-101836256D01*
X84561226Y-101647898D01*
X84601000Y-101447939D01*
X84601000Y-101380998D01*
X91966208Y-101380998D01*
X91968774Y-101393898D01*
X92046795Y-101582256D01*
X92160063Y-101751774D01*
X92304226Y-101895937D01*
X92473744Y-102009205D01*
X92662102Y-102087226D01*
X92862061Y-102127000D01*
X93065939Y-102127000D01*
X93265898Y-102087226D01*
X93454256Y-102009205D01*
X93623774Y-101895937D01*
X93767937Y-101751774D01*
X93881205Y-101582256D01*
X93959226Y-101393898D01*
X93999000Y-101193939D01*
X93999000Y-101131801D01*
X95056802Y-100074000D01*
X96033289Y-100074000D01*
X96077226Y-100117937D01*
X96246744Y-100231205D01*
X96435102Y-100309226D01*
X96635061Y-100349000D01*
X96838939Y-100349000D01*
X97038898Y-100309226D01*
X97227256Y-100231205D01*
X97396774Y-100117937D01*
X97540937Y-99973774D01*
X97654205Y-99804256D01*
X97732226Y-99615898D01*
X97772000Y-99415939D01*
X97772000Y-99212061D01*
X97732226Y-99012102D01*
X97654205Y-98823744D01*
X97540937Y-98654226D01*
X97396774Y-98510063D01*
X97227256Y-98396795D01*
X97038898Y-98318774D01*
X96838939Y-98279000D01*
X96635061Y-98279000D01*
X96435102Y-98318774D01*
X96246744Y-98396795D01*
X96077226Y-98510063D01*
X96033289Y-98554000D01*
X94779325Y-98554000D01*
X94742000Y-98550324D01*
X94704675Y-98554000D01*
X94704667Y-98554000D01*
X94593014Y-98564997D01*
X94449753Y-98608454D01*
X94317724Y-98679026D01*
X94201999Y-98773999D01*
X94178201Y-98802997D01*
X92960061Y-100021138D01*
X92917274Y-99986024D01*
X92785245Y-99915452D01*
X92641984Y-99871995D01*
X92530331Y-99860998D01*
X92530320Y-99860998D01*
X92492998Y-99857322D01*
X92455676Y-99860998D01*
X85969291Y-99860998D01*
X86007205Y-99804256D01*
X86085226Y-99615898D01*
X86125000Y-99415939D01*
X86125000Y-99353801D01*
X86296730Y-99182072D01*
X86985000Y-99182072D01*
X87109482Y-99169812D01*
X87229180Y-99133502D01*
X87339494Y-99074537D01*
X87436185Y-98995185D01*
X87515537Y-98898494D01*
X87574502Y-98788180D01*
X87610812Y-98668482D01*
X87623072Y-98544000D01*
X87623072Y-98034131D01*
X87677898Y-98023226D01*
X87866256Y-97945205D01*
X88035774Y-97831937D01*
X88179937Y-97687774D01*
X88293205Y-97518256D01*
X88371226Y-97329898D01*
X88411000Y-97129939D01*
X88411000Y-96926061D01*
X88371226Y-96726102D01*
X88293205Y-96537744D01*
X88179937Y-96368226D01*
X88035774Y-96224063D01*
X87866256Y-96110795D01*
X87677898Y-96032774D01*
X87620000Y-96021257D01*
X87620000Y-95916998D01*
X87461252Y-95916998D01*
X87507250Y-95871000D01*
X109484928Y-95871000D01*
X109497188Y-95995482D01*
X109533498Y-96115180D01*
X109592463Y-96225494D01*
X109671815Y-96322185D01*
X109768506Y-96401537D01*
X109878820Y-96460502D01*
X109998518Y-96496812D01*
X110123000Y-96509072D01*
X110712250Y-96506000D01*
X110871000Y-96347250D01*
X110871000Y-95123000D01*
X109646750Y-95123000D01*
X109488000Y-95281750D01*
X109484928Y-95871000D01*
X87507250Y-95871000D01*
X87620000Y-95758250D01*
X87623072Y-95544000D01*
X87610812Y-95419518D01*
X87574502Y-95299820D01*
X87515537Y-95189506D01*
X87436185Y-95092815D01*
X87339494Y-95013463D01*
X87229180Y-94954498D01*
X87109482Y-94918188D01*
X86985000Y-94905928D01*
X86645750Y-94909000D01*
X86487000Y-95067750D01*
X86487000Y-95917000D01*
X86507000Y-95917000D01*
X86507000Y-96171000D01*
X86487000Y-96171000D01*
X86487000Y-96191000D01*
X86233000Y-96191000D01*
X86233000Y-96171000D01*
X85258750Y-96171000D01*
X85161750Y-96268000D01*
X82864802Y-96268000D01*
X82823000Y-96226198D01*
X82823000Y-96164061D01*
X82783226Y-95964102D01*
X82705205Y-95775744D01*
X82591937Y-95606226D01*
X82529711Y-95544000D01*
X85096928Y-95544000D01*
X85100000Y-95758250D01*
X85258750Y-95917000D01*
X86233000Y-95917000D01*
X86233000Y-95067750D01*
X86074250Y-94909000D01*
X85735000Y-94905928D01*
X85610518Y-94918188D01*
X85490820Y-94954498D01*
X85380506Y-95013463D01*
X85283815Y-95092815D01*
X85204463Y-95189506D01*
X85145498Y-95299820D01*
X85109188Y-95419518D01*
X85096928Y-95544000D01*
X82529711Y-95544000D01*
X82447774Y-95462063D01*
X82278256Y-95348795D01*
X82089898Y-95270774D01*
X81889939Y-95231000D01*
X81686061Y-95231000D01*
X81486102Y-95270774D01*
X81297744Y-95348795D01*
X81128226Y-95462063D01*
X80984063Y-95606226D01*
X80870795Y-95775744D01*
X80792774Y-95964102D01*
X80753000Y-96164061D01*
X80753000Y-96367939D01*
X80792774Y-96567898D01*
X80870795Y-96756256D01*
X80984063Y-96925774D01*
X81128226Y-97069937D01*
X81297744Y-97183205D01*
X81486102Y-97261226D01*
X81686061Y-97301000D01*
X81748198Y-97301000D01*
X81986201Y-97539002D01*
X82009999Y-97568001D01*
X82125724Y-97662974D01*
X82257753Y-97733546D01*
X82401014Y-97777003D01*
X82512667Y-97788000D01*
X82512675Y-97788000D01*
X82550000Y-97791676D01*
X82587325Y-97788000D01*
X85096928Y-97788000D01*
X85096928Y-98232271D01*
X85050199Y-98279000D01*
X84988061Y-98279000D01*
X84788102Y-98318774D01*
X84599744Y-98396795D01*
X84430226Y-98510063D01*
X84286063Y-98654226D01*
X84172795Y-98823744D01*
X84094774Y-99012102D01*
X84055000Y-99212061D01*
X84055000Y-99415939D01*
X84094774Y-99615898D01*
X84172795Y-99804256D01*
X84210709Y-99860998D01*
X82139800Y-99860998D01*
X75494801Y-93216000D01*
X82239678Y-93216000D01*
X82277000Y-93219676D01*
X82314322Y-93216000D01*
X107825000Y-93216000D01*
X107825000Y-93382332D01*
X107835997Y-93493985D01*
X107879454Y-93637246D01*
X107950026Y-93769275D01*
X108044999Y-93885001D01*
X108160724Y-93979974D01*
X108292753Y-94050546D01*
X108436014Y-94094003D01*
X108585000Y-94108677D01*
X108733985Y-94094003D01*
X108877246Y-94050546D01*
X109009275Y-93979974D01*
X109125001Y-93885001D01*
X109219974Y-93769276D01*
X109290546Y-93637247D01*
X109334003Y-93493986D01*
X109345000Y-93382333D01*
X109345000Y-92723801D01*
X109488000Y-92580801D01*
X109488000Y-92644722D01*
X109546029Y-92936451D01*
X109659856Y-93211253D01*
X109825107Y-93458569D01*
X109893564Y-93527026D01*
X109878820Y-93531498D01*
X109768506Y-93590463D01*
X109671815Y-93669815D01*
X109592463Y-93766506D01*
X109533498Y-93876820D01*
X109497188Y-93996518D01*
X109484928Y-94121000D01*
X109488000Y-94710250D01*
X109646750Y-94869000D01*
X110871000Y-94869000D01*
X110871000Y-94849000D01*
X111125000Y-94849000D01*
X111125000Y-94869000D01*
X111145000Y-94869000D01*
X111145000Y-95123000D01*
X111125000Y-95123000D01*
X111125000Y-96347250D01*
X111283750Y-96506000D01*
X111873000Y-96509072D01*
X111997482Y-96496812D01*
X112117180Y-96460502D01*
X112227494Y-96401537D01*
X112270000Y-96366653D01*
X112270001Y-100357757D01*
X112170893Y-100209431D01*
X111960569Y-99999107D01*
X111713253Y-99833856D01*
X111438451Y-99720029D01*
X111146722Y-99662000D01*
X110849278Y-99662000D01*
X110557549Y-99720029D01*
X110282747Y-99833856D01*
X110035431Y-99999107D01*
X109825107Y-100209431D01*
X109659856Y-100456747D01*
X109546029Y-100731549D01*
X109488000Y-101023278D01*
X109488000Y-101320722D01*
X109546029Y-101612451D01*
X109659856Y-101887253D01*
X109825107Y-102134569D01*
X110035431Y-102344893D01*
X110150830Y-102422000D01*
X110035431Y-102499107D01*
X109825107Y-102709431D01*
X109659856Y-102956747D01*
X109546029Y-103231549D01*
X109488000Y-103523278D01*
X109488000Y-103820722D01*
X109546029Y-104112451D01*
X109659856Y-104387253D01*
X109825107Y-104634569D01*
X109893564Y-104703026D01*
X109878820Y-104707498D01*
X109768506Y-104766463D01*
X109671815Y-104845815D01*
X109592463Y-104942506D01*
X109533498Y-105052820D01*
X109497188Y-105172518D01*
X109484928Y-105297000D01*
X109488000Y-105886250D01*
X109646750Y-106045000D01*
X110871000Y-106045000D01*
X110871000Y-106025000D01*
X111125000Y-106025000D01*
X111125000Y-106045000D01*
X111145000Y-106045000D01*
X111145000Y-106299000D01*
X111125000Y-106299000D01*
X111125000Y-107523250D01*
X111283750Y-107682000D01*
X111873000Y-107685072D01*
X111997482Y-107672812D01*
X112117180Y-107636502D01*
X112227494Y-107577537D01*
X112270000Y-107542653D01*
X112270001Y-111533757D01*
X112170893Y-111385431D01*
X111960569Y-111175107D01*
X111713253Y-111009856D01*
X111438451Y-110896029D01*
X111146722Y-110838000D01*
X110849278Y-110838000D01*
X110557549Y-110896029D01*
X110282747Y-111009856D01*
X110035431Y-111175107D01*
X109825107Y-111385431D01*
X109659856Y-111632747D01*
X109546029Y-111907549D01*
X109488000Y-112199278D01*
X109488000Y-112496722D01*
X109546029Y-112788451D01*
X109659856Y-113063253D01*
X109825107Y-113310569D01*
X110035431Y-113520893D01*
X110150830Y-113598000D01*
X110035431Y-113675107D01*
X109825107Y-113885431D01*
X109659856Y-114132747D01*
X109546029Y-114407549D01*
X109488000Y-114699278D01*
X109488000Y-114996722D01*
X109546029Y-115288451D01*
X109659856Y-115563253D01*
X109825107Y-115810569D01*
X109893564Y-115879026D01*
X109878820Y-115883498D01*
X109768506Y-115942463D01*
X109671815Y-116021815D01*
X109592463Y-116118506D01*
X109533498Y-116228820D01*
X109497188Y-116348518D01*
X109484928Y-116473000D01*
X109488000Y-117062250D01*
X109646750Y-117221000D01*
X110871000Y-117221000D01*
X110871000Y-117201000D01*
X111125000Y-117201000D01*
X111125000Y-117221000D01*
X111145000Y-117221000D01*
X111145000Y-117475000D01*
X111125000Y-117475000D01*
X111125000Y-118699250D01*
X111283750Y-118858000D01*
X111873000Y-118861072D01*
X111997482Y-118848812D01*
X112117180Y-118812502D01*
X112227494Y-118753537D01*
X112324185Y-118674185D01*
X112403537Y-118577494D01*
X112416000Y-118554179D01*
X112415999Y-119678841D01*
X112285744Y-119732795D01*
X112116226Y-119846063D01*
X111972063Y-119990226D01*
X111858795Y-120159744D01*
X111780774Y-120348102D01*
X111741000Y-120548061D01*
X111741000Y-120751939D01*
X111780774Y-120951898D01*
X111858795Y-121140256D01*
X111972063Y-121309774D01*
X112116226Y-121453937D01*
X112285744Y-121567205D01*
X112474102Y-121645226D01*
X112674061Y-121685000D01*
X112877939Y-121685000D01*
X113077898Y-121645226D01*
X113266256Y-121567205D01*
X113435774Y-121453937D01*
X113579937Y-121309774D01*
X113693205Y-121140256D01*
X113771226Y-120951898D01*
X113811000Y-120751939D01*
X113811000Y-120674226D01*
X113881545Y-120542248D01*
X113925002Y-120398987D01*
X113935999Y-120287334D01*
X113935999Y-120287324D01*
X113939675Y-120250002D01*
X113935999Y-120212679D01*
X113935999Y-117063321D01*
X113939675Y-117025998D01*
X113935999Y-116988675D01*
X113935999Y-116988666D01*
X113925002Y-116877013D01*
X113881545Y-116733752D01*
X113810973Y-116601723D01*
X113716000Y-116485998D01*
X113687002Y-116462200D01*
X112460470Y-115235669D01*
X112508000Y-114996722D01*
X112508000Y-114699278D01*
X112460470Y-114460331D01*
X113541003Y-113379799D01*
X113570001Y-113356001D01*
X113607286Y-113310569D01*
X113664974Y-113240277D01*
X113735546Y-113108247D01*
X113779003Y-112964986D01*
X113790000Y-112853333D01*
X113790000Y-112853323D01*
X113793676Y-112816000D01*
X113790000Y-112778677D01*
X113790000Y-104503886D01*
X113793676Y-104466563D01*
X113790000Y-104429240D01*
X113790000Y-104429231D01*
X113779003Y-104317578D01*
X113735546Y-104174317D01*
X113664974Y-104042288D01*
X113570001Y-103926563D01*
X113541004Y-103902766D01*
X112799239Y-103161002D01*
X112775437Y-103131999D01*
X112686111Y-103058691D01*
X113541003Y-102203799D01*
X113570001Y-102180001D01*
X113613498Y-102127000D01*
X113664974Y-102064277D01*
X113735546Y-101932247D01*
X113746849Y-101894984D01*
X113779003Y-101788986D01*
X113790000Y-101677333D01*
X113790000Y-101677323D01*
X113793676Y-101640000D01*
X113790000Y-101602677D01*
X113790000Y-94565323D01*
X113793676Y-94528000D01*
X113790000Y-94490677D01*
X113790000Y-94490667D01*
X113779003Y-94379014D01*
X113735546Y-94235753D01*
X113664974Y-94103723D01*
X113593799Y-94016997D01*
X113570001Y-93987999D01*
X113541004Y-93964202D01*
X112460470Y-92883669D01*
X112508000Y-92644722D01*
X112508000Y-92347278D01*
X112449971Y-92055549D01*
X112336144Y-91780747D01*
X112170893Y-91533431D01*
X111960569Y-91323107D01*
X111845170Y-91246000D01*
X111960569Y-91168893D01*
X112170893Y-90958569D01*
X112336144Y-90711253D01*
X112449971Y-90436451D01*
X112508000Y-90144722D01*
X112508000Y-89847278D01*
X112449971Y-89555549D01*
X112336144Y-89280747D01*
X112170893Y-89033431D01*
X111960569Y-88823107D01*
X111713253Y-88657856D01*
X111438451Y-88544029D01*
X111146722Y-88486000D01*
X110849278Y-88486000D01*
X110557549Y-88544029D01*
X110282747Y-88657856D01*
X110035431Y-88823107D01*
X109825107Y-89033431D01*
X109659856Y-89280747D01*
X109546029Y-89555549D01*
X109488000Y-89847278D01*
X109488000Y-90144722D01*
X109535530Y-90383669D01*
X108223199Y-91696000D01*
X102044244Y-91696000D01*
X102400632Y-91658981D01*
X102934161Y-91494028D01*
X103400024Y-91245018D01*
X103640170Y-90857775D01*
X101830000Y-89047605D01*
X100019830Y-90857775D01*
X100259976Y-91245018D01*
X100753877Y-91505641D01*
X101289133Y-91664901D01*
X101623110Y-91696000D01*
X84111801Y-91696000D01*
X85676004Y-90131798D01*
X85705001Y-90108001D01*
X85799974Y-89992276D01*
X85819326Y-89956072D01*
X86015000Y-89956072D01*
X86139482Y-89943812D01*
X86259180Y-89907502D01*
X86369494Y-89848537D01*
X86466185Y-89769185D01*
X86545537Y-89672494D01*
X86604502Y-89562180D01*
X86628966Y-89481534D01*
X86704731Y-89565588D01*
X86938080Y-89739641D01*
X87200901Y-89864825D01*
X87348110Y-89909476D01*
X87578000Y-89788155D01*
X87578000Y-88595000D01*
X87558000Y-88595000D01*
X87558000Y-88341000D01*
X87578000Y-88341000D01*
X87578000Y-87147845D01*
X87832000Y-87147845D01*
X87832000Y-88341000D01*
X87852000Y-88341000D01*
X87852000Y-88595000D01*
X87832000Y-88595000D01*
X87832000Y-89788155D01*
X88061890Y-89909476D01*
X88209099Y-89864825D01*
X88471920Y-89739641D01*
X88705269Y-89565588D01*
X88900178Y-89349355D01*
X88969799Y-89232477D01*
X89004294Y-89297014D01*
X89189866Y-89523134D01*
X89415986Y-89708706D01*
X89673966Y-89846599D01*
X89953889Y-89931513D01*
X90172050Y-89953000D01*
X90317950Y-89953000D01*
X90536111Y-89931513D01*
X90816034Y-89846599D01*
X91074014Y-89708706D01*
X91300134Y-89523134D01*
X91485706Y-89297014D01*
X91515000Y-89242209D01*
X91544294Y-89297014D01*
X91729866Y-89523134D01*
X91955986Y-89708706D01*
X92213966Y-89846599D01*
X92493889Y-89931513D01*
X92712050Y-89953000D01*
X92857950Y-89953000D01*
X93076111Y-89931513D01*
X93356034Y-89846599D01*
X93614014Y-89708706D01*
X93840134Y-89523134D01*
X94025706Y-89297014D01*
X94163599Y-89039034D01*
X94210878Y-88883174D01*
X98981322Y-88883174D01*
X99039019Y-89438632D01*
X99203972Y-89972161D01*
X99452982Y-90438024D01*
X99840225Y-90678170D01*
X101650395Y-88868000D01*
X102009605Y-88868000D01*
X103819775Y-90678170D01*
X104207018Y-90438024D01*
X104467641Y-89944123D01*
X104626901Y-89408867D01*
X104678678Y-88852826D01*
X104620981Y-88297368D01*
X104456028Y-87763839D01*
X104207018Y-87297976D01*
X103819775Y-87057830D01*
X102009605Y-88868000D01*
X101650395Y-88868000D01*
X99840225Y-87057830D01*
X99452982Y-87297976D01*
X99192359Y-87791877D01*
X99033099Y-88327133D01*
X98981322Y-88883174D01*
X94210878Y-88883174D01*
X94248513Y-88759111D01*
X94277185Y-88468000D01*
X94248513Y-88176889D01*
X94163599Y-87896966D01*
X94025706Y-87638986D01*
X93840134Y-87412866D01*
X93614014Y-87227294D01*
X93356034Y-87089401D01*
X93076111Y-87004487D01*
X92857950Y-86983000D01*
X92712050Y-86983000D01*
X92493889Y-87004487D01*
X92213966Y-87089401D01*
X91955986Y-87227294D01*
X91729866Y-87412866D01*
X91544294Y-87638986D01*
X91515000Y-87693791D01*
X91485706Y-87638986D01*
X91300134Y-87412866D01*
X91074014Y-87227294D01*
X90816034Y-87089401D01*
X90536111Y-87004487D01*
X90317950Y-86983000D01*
X90172050Y-86983000D01*
X89953889Y-87004487D01*
X89673966Y-87089401D01*
X89415986Y-87227294D01*
X89189866Y-87412866D01*
X89004294Y-87638986D01*
X88969799Y-87703523D01*
X88900178Y-87586645D01*
X88705269Y-87370412D01*
X88471920Y-87196359D01*
X88209099Y-87071175D01*
X88061890Y-87026524D01*
X87832000Y-87147845D01*
X87578000Y-87147845D01*
X87348110Y-87026524D01*
X87200901Y-87071175D01*
X86938080Y-87196359D01*
X86704731Y-87370412D01*
X86628966Y-87454466D01*
X86604502Y-87373820D01*
X86545537Y-87263506D01*
X86466185Y-87166815D01*
X86452345Y-87155456D01*
X86729576Y-86878225D01*
X100019830Y-86878225D01*
X101830000Y-88688395D01*
X103640170Y-86878225D01*
X103400024Y-86490982D01*
X102906123Y-86230359D01*
X102370867Y-86071099D01*
X101814826Y-86019322D01*
X101259368Y-86077019D01*
X100725839Y-86241972D01*
X100259976Y-86490982D01*
X100019830Y-86878225D01*
X86729576Y-86878225D01*
X93939301Y-79668500D01*
X96399928Y-79668500D01*
X96412188Y-79792982D01*
X96448498Y-79912680D01*
X96507463Y-80022994D01*
X96586815Y-80119685D01*
X96683506Y-80199037D01*
X96793820Y-80258002D01*
X96913518Y-80294312D01*
X97038000Y-80306572D01*
X97377250Y-80303500D01*
X97536000Y-80144750D01*
X97536000Y-79295500D01*
X97790000Y-79295500D01*
X97790000Y-80144750D01*
X97948750Y-80303500D01*
X98288000Y-80306572D01*
X98412482Y-80294312D01*
X98532180Y-80258002D01*
X98642494Y-80199037D01*
X98739185Y-80119685D01*
X98818537Y-80022994D01*
X98877502Y-79912680D01*
X98913812Y-79792982D01*
X98926072Y-79668500D01*
X98923000Y-79454250D01*
X98764250Y-79295500D01*
X97790000Y-79295500D01*
X97536000Y-79295500D01*
X96561750Y-79295500D01*
X96403000Y-79454250D01*
X96399928Y-79668500D01*
X93939301Y-79668500D01*
X95679302Y-77928500D01*
X96456954Y-77928500D01*
X96507463Y-78022994D01*
X96586815Y-78119685D01*
X96646296Y-78168500D01*
X96586815Y-78217315D01*
X96507463Y-78314006D01*
X96448498Y-78424320D01*
X96412188Y-78544018D01*
X96399928Y-78668500D01*
X96403000Y-78882750D01*
X96561750Y-79041500D01*
X97536000Y-79041500D01*
X97536000Y-79021500D01*
X97790000Y-79021500D01*
X97790000Y-79041500D01*
X98764250Y-79041500D01*
X98923000Y-78882750D01*
X98926072Y-78668500D01*
X98913812Y-78544018D01*
X98877502Y-78424320D01*
X98818537Y-78314006D01*
X98739185Y-78217315D01*
X98679704Y-78168500D01*
X98739185Y-78119685D01*
X98818537Y-78022994D01*
X98877502Y-77912680D01*
X98913812Y-77792982D01*
X98926072Y-77668500D01*
X98926072Y-76668500D01*
X98915449Y-76560644D01*
X98993537Y-76465494D01*
X99052502Y-76355180D01*
X99088812Y-76235482D01*
X99101072Y-76111000D01*
X99101072Y-75344881D01*
X107333724Y-75344881D01*
X107693912Y-75834548D01*
X108357882Y-76194849D01*
X109079385Y-76418694D01*
X109830695Y-76497480D01*
X110582938Y-76428178D01*
X111307208Y-76213452D01*
X111975670Y-75861555D01*
X112016088Y-75834548D01*
X112376276Y-75344881D01*
X109855000Y-72823605D01*
X107333724Y-75344881D01*
X99101072Y-75344881D01*
X99101072Y-74511000D01*
X99088812Y-74386518D01*
X99052502Y-74266820D01*
X98993537Y-74156506D01*
X98914185Y-74059815D01*
X98817494Y-73980463D01*
X98707180Y-73921498D01*
X98587482Y-73885188D01*
X98463000Y-73872928D01*
X96863000Y-73872928D01*
X96738518Y-73885188D01*
X96618820Y-73921498D01*
X96508506Y-73980463D01*
X96411815Y-74059815D01*
X96332463Y-74156506D01*
X96273498Y-74266820D01*
X96237188Y-74386518D01*
X96224928Y-74511000D01*
X96224928Y-76111000D01*
X96237188Y-76235482D01*
X96273498Y-76355180D01*
X96301999Y-76408500D01*
X95401822Y-76408500D01*
X95364499Y-76404824D01*
X95327176Y-76408500D01*
X95327167Y-76408500D01*
X95215514Y-76419497D01*
X95072253Y-76462954D01*
X94940224Y-76533526D01*
X94824499Y-76628499D01*
X94800701Y-76657497D01*
X84653998Y-86804201D01*
X84625000Y-86827999D01*
X84601202Y-86856997D01*
X84601201Y-86856998D01*
X84530026Y-86943724D01*
X84510674Y-86979928D01*
X84315000Y-86979928D01*
X84190518Y-86992188D01*
X84070820Y-87028498D01*
X83960506Y-87087463D01*
X83863815Y-87166815D01*
X83784463Y-87263506D01*
X83725498Y-87373820D01*
X83689188Y-87493518D01*
X83676928Y-87618000D01*
X83676928Y-89318000D01*
X83689188Y-89442482D01*
X83725498Y-89562180D01*
X83784463Y-89672494D01*
X83863815Y-89769185D01*
X83877655Y-89780543D01*
X81962199Y-91696000D01*
X76334244Y-91696000D01*
X76690632Y-91658981D01*
X77224161Y-91494028D01*
X77690024Y-91245018D01*
X77930170Y-90857775D01*
X76120000Y-89047605D01*
X76105858Y-89061748D01*
X75926253Y-88882143D01*
X75940395Y-88868000D01*
X76299605Y-88868000D01*
X78109775Y-90678170D01*
X78497018Y-90438024D01*
X78757641Y-89944123D01*
X78916901Y-89408867D01*
X78968678Y-88852826D01*
X78910981Y-88297368D01*
X78746028Y-87763839D01*
X78497018Y-87297976D01*
X78109775Y-87057830D01*
X76299605Y-88868000D01*
X75940395Y-88868000D01*
X74130225Y-87057830D01*
X73742982Y-87297976D01*
X73482359Y-87791877D01*
X73323099Y-88327133D01*
X73271322Y-88883174D01*
X73329019Y-89438632D01*
X73342706Y-89482900D01*
X72121808Y-88262003D01*
X72098005Y-88232999D01*
X71982280Y-88138026D01*
X71850251Y-88067454D01*
X71706990Y-88023997D01*
X71595337Y-88013000D01*
X71595326Y-88013000D01*
X71558004Y-88009324D01*
X71520682Y-88013000D01*
X66997711Y-88013000D01*
X66953774Y-87969063D01*
X66784256Y-87855795D01*
X66595898Y-87777774D01*
X66395939Y-87738000D01*
X66192061Y-87738000D01*
X65992102Y-87777774D01*
X65803744Y-87855795D01*
X65634226Y-87969063D01*
X65490063Y-88113226D01*
X65376795Y-88282744D01*
X65298774Y-88471102D01*
X65259000Y-88671061D01*
X65259000Y-88874939D01*
X65264383Y-88902000D01*
X51854245Y-88902000D01*
X51718893Y-88699431D01*
X51650436Y-88630974D01*
X51665180Y-88626502D01*
X51775494Y-88567537D01*
X51872185Y-88488185D01*
X51951537Y-88391494D01*
X52010502Y-88281180D01*
X52046812Y-88161482D01*
X52059072Y-88037000D01*
X52056000Y-87447750D01*
X51897250Y-87289000D01*
X50673000Y-87289000D01*
X50673000Y-87309000D01*
X50419000Y-87309000D01*
X50419000Y-87289000D01*
X49194750Y-87289000D01*
X49036000Y-87447750D01*
X49032928Y-88037000D01*
X47015000Y-88037000D01*
X47015000Y-86287000D01*
X49032928Y-86287000D01*
X49036000Y-86876250D01*
X49194750Y-87035000D01*
X50419000Y-87035000D01*
X50419000Y-85810750D01*
X50673000Y-85810750D01*
X50673000Y-87035000D01*
X51897250Y-87035000D01*
X52054025Y-86878225D01*
X74309830Y-86878225D01*
X76120000Y-88688395D01*
X77930170Y-86878225D01*
X77690024Y-86490982D01*
X77196123Y-86230359D01*
X76660867Y-86071099D01*
X76104826Y-86019322D01*
X75549368Y-86077019D01*
X75015839Y-86241972D01*
X74549976Y-86490982D01*
X74309830Y-86878225D01*
X52054025Y-86878225D01*
X52056000Y-86876250D01*
X52059072Y-86287000D01*
X52046812Y-86162518D01*
X52010502Y-86042820D01*
X51951537Y-85932506D01*
X51872185Y-85835815D01*
X51775494Y-85756463D01*
X51665180Y-85697498D01*
X51545482Y-85661188D01*
X51421000Y-85648928D01*
X50831750Y-85652000D01*
X50673000Y-85810750D01*
X50419000Y-85810750D01*
X50260250Y-85652000D01*
X49671000Y-85648928D01*
X49546518Y-85661188D01*
X49426820Y-85697498D01*
X49316506Y-85756463D01*
X49219815Y-85835815D01*
X49140463Y-85932506D01*
X49081498Y-86042820D01*
X49045188Y-86162518D01*
X49032928Y-86287000D01*
X47015000Y-86287000D01*
X47015000Y-75344881D01*
X48913724Y-75344881D01*
X49273912Y-75834548D01*
X49937882Y-76194849D01*
X50659385Y-76418694D01*
X51410695Y-76497480D01*
X52162938Y-76428178D01*
X52887208Y-76213452D01*
X53555670Y-75861555D01*
X53596088Y-75834548D01*
X53956276Y-75344881D01*
X51435000Y-72823605D01*
X48913724Y-75344881D01*
X47015000Y-75344881D01*
X47015000Y-72673392D01*
X47019792Y-72619695D01*
X47581520Y-72619695D01*
X47650822Y-73371938D01*
X47865548Y-74096208D01*
X48217445Y-74764670D01*
X48244452Y-74805088D01*
X48734119Y-75165276D01*
X51255395Y-72644000D01*
X51614605Y-72644000D01*
X54135881Y-75165276D01*
X54625548Y-74805088D01*
X54985849Y-74141118D01*
X55209694Y-73419615D01*
X55288480Y-72668305D01*
X55219178Y-71916062D01*
X55004452Y-71191792D01*
X54652555Y-70523330D01*
X54625548Y-70482912D01*
X54135881Y-70122724D01*
X51614605Y-72644000D01*
X51255395Y-72644000D01*
X48734119Y-70122724D01*
X48244452Y-70482912D01*
X47884151Y-71146882D01*
X47660306Y-71868385D01*
X47581520Y-72619695D01*
X47019792Y-72619695D01*
X47087437Y-71861751D01*
X47294672Y-71104226D01*
X47632777Y-70395375D01*
X47957755Y-69943119D01*
X48913724Y-69943119D01*
X51435000Y-72464395D01*
X53956276Y-69943119D01*
X53596088Y-69453452D01*
X52932118Y-69093151D01*
X52210615Y-68869306D01*
X51459305Y-68790520D01*
X50707062Y-68859822D01*
X49982792Y-69074548D01*
X49314330Y-69426445D01*
X49273912Y-69453452D01*
X48913724Y-69943119D01*
X47957755Y-69943119D01*
X48091067Y-69757596D01*
X48655055Y-69211054D01*
X49306913Y-68773023D01*
X50026038Y-68457349D01*
X50794768Y-68272794D01*
X51459207Y-68224000D01*
X65911688Y-68224000D01*
X65750360Y-68310232D01*
M02*
