G04 #@! TF.GenerationSoftware,KiCad,Pcbnew,(5.1.4)-1*
G04 #@! TF.CreationDate,2020-04-24T18:52:46+02:00*
G04 #@! TF.ProjectId,electronic_load,656c6563-7472-46f6-9e69-635f6c6f6164,rev?*
G04 #@! TF.SameCoordinates,Original*
G04 #@! TF.FileFunction,Legend,Bot*
G04 #@! TF.FilePolarity,Positive*
%FSLAX46Y46*%
G04 Gerber Fmt 4.6, Leading zero omitted, Abs format (unit mm)*
G04 Created by KiCad (PCBNEW (5.1.4)-1) date 2020-04-24 18:52:46*
%MOMM*%
%LPD*%
G04 APERTURE LIST*
%ADD10C,0.300000*%
%ADD11C,0.150000*%
G04 APERTURE END LIST*
D10*
X63839500Y-69806428D02*
X63839500Y-71306428D01*
X64196642Y-71306428D01*
X64410928Y-71235000D01*
X64553785Y-71092142D01*
X64625214Y-70949285D01*
X64696642Y-70663571D01*
X64696642Y-70449285D01*
X64625214Y-70163571D01*
X64553785Y-70020714D01*
X64410928Y-69877857D01*
X64196642Y-69806428D01*
X63839500Y-69806428D01*
X65910928Y-69877857D02*
X65768071Y-69806428D01*
X65482357Y-69806428D01*
X65339500Y-69877857D01*
X65268071Y-70020714D01*
X65268071Y-70592142D01*
X65339500Y-70735000D01*
X65482357Y-70806428D01*
X65768071Y-70806428D01*
X65910928Y-70735000D01*
X65982357Y-70592142D01*
X65982357Y-70449285D01*
X65268071Y-70306428D01*
X66553785Y-69877857D02*
X66696642Y-69806428D01*
X66982357Y-69806428D01*
X67125214Y-69877857D01*
X67196642Y-70020714D01*
X67196642Y-70092142D01*
X67125214Y-70235000D01*
X66982357Y-70306428D01*
X66768071Y-70306428D01*
X66625214Y-70377857D01*
X66553785Y-70520714D01*
X66553785Y-70592142D01*
X66625214Y-70735000D01*
X66768071Y-70806428D01*
X66982357Y-70806428D01*
X67125214Y-70735000D01*
X67839500Y-69806428D02*
X67839500Y-70806428D01*
X67839500Y-71306428D02*
X67768071Y-71235000D01*
X67839500Y-71163571D01*
X67910928Y-71235000D01*
X67839500Y-71306428D01*
X67839500Y-71163571D01*
X69196642Y-70806428D02*
X69196642Y-69592142D01*
X69125214Y-69449285D01*
X69053785Y-69377857D01*
X68910928Y-69306428D01*
X68696642Y-69306428D01*
X68553785Y-69377857D01*
X69196642Y-69877857D02*
X69053785Y-69806428D01*
X68768071Y-69806428D01*
X68625214Y-69877857D01*
X68553785Y-69949285D01*
X68482357Y-70092142D01*
X68482357Y-70520714D01*
X68553785Y-70663571D01*
X68625214Y-70735000D01*
X68768071Y-70806428D01*
X69053785Y-70806428D01*
X69196642Y-70735000D01*
X69910928Y-70806428D02*
X69910928Y-69806428D01*
X69910928Y-70663571D02*
X69982357Y-70735000D01*
X70125214Y-70806428D01*
X70339500Y-70806428D01*
X70482357Y-70735000D01*
X70553785Y-70592142D01*
X70553785Y-69806428D01*
X72410928Y-69806428D02*
X72410928Y-71306428D01*
X72410928Y-70735000D02*
X72553785Y-70806428D01*
X72839500Y-70806428D01*
X72982357Y-70735000D01*
X73053785Y-70663571D01*
X73125214Y-70520714D01*
X73125214Y-70092142D01*
X73053785Y-69949285D01*
X72982357Y-69877857D01*
X72839500Y-69806428D01*
X72553785Y-69806428D01*
X72410928Y-69877857D01*
X73625214Y-70806428D02*
X73982357Y-69806428D01*
X74339500Y-70806428D02*
X73982357Y-69806428D01*
X73839500Y-69449285D01*
X73768071Y-69377857D01*
X73625214Y-69306428D01*
X76053785Y-69806428D02*
X76053785Y-71306428D01*
X76410928Y-71306428D01*
X76625214Y-71235000D01*
X76768071Y-71092142D01*
X76839500Y-70949285D01*
X76910928Y-70663571D01*
X76910928Y-70449285D01*
X76839500Y-70163571D01*
X76768071Y-70020714D01*
X76625214Y-69877857D01*
X76410928Y-69806428D01*
X76053785Y-69806428D01*
X78196642Y-69806428D02*
X78196642Y-70592142D01*
X78125214Y-70735000D01*
X77982357Y-70806428D01*
X77696642Y-70806428D01*
X77553785Y-70735000D01*
X78196642Y-69877857D02*
X78053785Y-69806428D01*
X77696642Y-69806428D01*
X77553785Y-69877857D01*
X77482357Y-70020714D01*
X77482357Y-70163571D01*
X77553785Y-70306428D01*
X77696642Y-70377857D01*
X78053785Y-70377857D01*
X78196642Y-70449285D01*
X78910928Y-70806428D02*
X78910928Y-69806428D01*
X78910928Y-70663571D02*
X78982357Y-70735000D01*
X79125214Y-70806428D01*
X79339500Y-70806428D01*
X79482357Y-70735000D01*
X79553785Y-70592142D01*
X79553785Y-69806428D01*
X80268071Y-69806428D02*
X80268071Y-70806428D01*
X80268071Y-71306428D02*
X80196642Y-71235000D01*
X80268071Y-71163571D01*
X80339500Y-71235000D01*
X80268071Y-71306428D01*
X80268071Y-71163571D01*
X81553785Y-69877857D02*
X81410928Y-69806428D01*
X81125214Y-69806428D01*
X80982357Y-69877857D01*
X80910928Y-70020714D01*
X80910928Y-70592142D01*
X80982357Y-70735000D01*
X81125214Y-70806428D01*
X81410928Y-70806428D01*
X81553785Y-70735000D01*
X81625214Y-70592142D01*
X81625214Y-70449285D01*
X80910928Y-70306428D01*
X82482357Y-69806428D02*
X82339500Y-69877857D01*
X82268071Y-70020714D01*
X82268071Y-71306428D01*
X84196642Y-69806428D02*
X84196642Y-71306428D01*
X85053785Y-69806428D02*
X84410928Y-70663571D01*
X85053785Y-71306428D02*
X84196642Y-70449285D01*
X86339500Y-69806428D02*
X86339500Y-70592142D01*
X86268071Y-70735000D01*
X86125214Y-70806428D01*
X85839500Y-70806428D01*
X85696642Y-70735000D01*
X86339500Y-69877857D02*
X86196642Y-69806428D01*
X85839500Y-69806428D01*
X85696642Y-69877857D01*
X85625214Y-70020714D01*
X85625214Y-70163571D01*
X85696642Y-70306428D01*
X85839500Y-70377857D01*
X86196642Y-70377857D01*
X86339500Y-70449285D01*
X87053785Y-69806428D02*
X87053785Y-70806428D01*
X87053785Y-70520714D02*
X87125214Y-70663571D01*
X87196642Y-70735000D01*
X87339500Y-70806428D01*
X87482357Y-70806428D01*
X88196642Y-69806428D02*
X88053785Y-69877857D01*
X87982357Y-70020714D01*
X87982357Y-71306428D01*
X88768071Y-69806428D02*
X88768071Y-70806428D01*
X88768071Y-71306428D02*
X88696642Y-71235000D01*
X88768071Y-71163571D01*
X88839500Y-71235000D01*
X88768071Y-71306428D01*
X88768071Y-71163571D01*
X89482357Y-70806428D02*
X89482357Y-69806428D01*
X89482357Y-70663571D02*
X89553785Y-70735000D01*
X89696642Y-70806428D01*
X89910928Y-70806428D01*
X90053785Y-70735000D01*
X90125214Y-70592142D01*
X90125214Y-69806428D01*
X91482357Y-70806428D02*
X91482357Y-69592142D01*
X91410928Y-69449285D01*
X91339500Y-69377857D01*
X91196642Y-69306428D01*
X90982357Y-69306428D01*
X90839500Y-69377857D01*
X91482357Y-69877857D02*
X91339500Y-69806428D01*
X91053785Y-69806428D01*
X90910928Y-69877857D01*
X90839500Y-69949285D01*
X90768071Y-70092142D01*
X90768071Y-70520714D01*
X90839500Y-70663571D01*
X90910928Y-70735000D01*
X91053785Y-70806428D01*
X91339500Y-70806428D01*
X91482357Y-70735000D01*
X93268071Y-71163571D02*
X93339500Y-71235000D01*
X93482357Y-71306428D01*
X93839500Y-71306428D01*
X93982357Y-71235000D01*
X94053785Y-71163571D01*
X94125214Y-71020714D01*
X94125214Y-70877857D01*
X94053785Y-70663571D01*
X93196642Y-69806428D01*
X94125214Y-69806428D01*
X95053785Y-71306428D02*
X95196642Y-71306428D01*
X95339500Y-71235000D01*
X95410928Y-71163571D01*
X95482357Y-71020714D01*
X95553785Y-70735000D01*
X95553785Y-70377857D01*
X95482357Y-70092142D01*
X95410928Y-69949285D01*
X95339500Y-69877857D01*
X95196642Y-69806428D01*
X95053785Y-69806428D01*
X94910928Y-69877857D01*
X94839500Y-69949285D01*
X94768071Y-70092142D01*
X94696642Y-70377857D01*
X94696642Y-70735000D01*
X94768071Y-71020714D01*
X94839500Y-71163571D01*
X94910928Y-71235000D01*
X95053785Y-71306428D01*
X96125214Y-71163571D02*
X96196642Y-71235000D01*
X96339500Y-71306428D01*
X96696642Y-71306428D01*
X96839500Y-71235000D01*
X96910928Y-71163571D01*
X96982357Y-71020714D01*
X96982357Y-70877857D01*
X96910928Y-70663571D01*
X96053785Y-69806428D01*
X96982357Y-69806428D01*
X97910928Y-71306428D02*
X98053785Y-71306428D01*
X98196642Y-71235000D01*
X98268071Y-71163571D01*
X98339500Y-71020714D01*
X98410928Y-70735000D01*
X98410928Y-70377857D01*
X98339500Y-70092142D01*
X98268071Y-69949285D01*
X98196642Y-69877857D01*
X98053785Y-69806428D01*
X97910928Y-69806428D01*
X97768071Y-69877857D01*
X97696642Y-69949285D01*
X97625214Y-70092142D01*
X97553785Y-70377857D01*
X97553785Y-70735000D01*
X97625214Y-71020714D01*
X97696642Y-71163571D01*
X97768071Y-71235000D01*
X97910928Y-71306428D01*
D11*
X98513000Y-77668500D02*
X98513000Y-78668500D01*
X96813000Y-78668500D02*
X96813000Y-77668500D01*
X85510000Y-97544000D02*
X85510000Y-96544000D01*
X87210000Y-96544000D02*
X87210000Y-97544000D01*
X64350000Y-113292000D02*
X64350000Y-114292000D01*
X62650000Y-114292000D02*
X62650000Y-113292000D01*
X50634000Y-108544500D02*
X50634000Y-109544500D01*
X48934000Y-109544500D02*
X48934000Y-108544500D01*
X48934000Y-120134000D02*
X48934000Y-119134000D01*
X50634000Y-119134000D02*
X50634000Y-120134000D01*
X60968000Y-119038000D02*
X61968000Y-119038000D01*
X61968000Y-120738000D02*
X60968000Y-120738000D01*
X65698000Y-115308000D02*
X65698000Y-114308000D01*
X67398000Y-114308000D02*
X67398000Y-115308000D01*
X56222000Y-113292000D02*
X56222000Y-114292000D01*
X54522000Y-114292000D02*
X54522000Y-113292000D01*
X61968000Y-109562000D02*
X60968000Y-109562000D01*
X60968000Y-107862000D02*
X61968000Y-107862000D01*
X57825500Y-120992000D02*
X56825500Y-120992000D01*
X56825500Y-119292000D02*
X57825500Y-119292000D01*
X85510000Y-107180000D02*
X85510000Y-106180000D01*
X87210000Y-106180000D02*
X87210000Y-107180000D01*
X59918000Y-118731000D02*
X61118000Y-118731000D01*
X61118000Y-116981000D02*
X59918000Y-116981000D01*
X59918000Y-116699000D02*
X61118000Y-116699000D01*
X61118000Y-114949000D02*
X59918000Y-114949000D01*
X58770000Y-113651000D02*
X59970000Y-113651000D01*
X59970000Y-111901000D02*
X58770000Y-111901000D01*
X95920142Y-77525642D02*
X95967761Y-77478023D01*
X96015380Y-77335166D01*
X96015380Y-77239928D01*
X95967761Y-77097071D01*
X95872523Y-77001833D01*
X95777285Y-76954214D01*
X95586809Y-76906595D01*
X95443952Y-76906595D01*
X95253476Y-76954214D01*
X95158238Y-77001833D01*
X95063000Y-77097071D01*
X95015380Y-77239928D01*
X95015380Y-77335166D01*
X95063000Y-77478023D01*
X95110619Y-77525642D01*
X95110619Y-77906595D02*
X95063000Y-77954214D01*
X95015380Y-78049452D01*
X95015380Y-78287547D01*
X95063000Y-78382785D01*
X95110619Y-78430404D01*
X95205857Y-78478023D01*
X95301095Y-78478023D01*
X95443952Y-78430404D01*
X96015380Y-77858976D01*
X96015380Y-78478023D01*
X95015380Y-79097071D02*
X95015380Y-79192309D01*
X95063000Y-79287547D01*
X95110619Y-79335166D01*
X95205857Y-79382785D01*
X95396333Y-79430404D01*
X95634428Y-79430404D01*
X95824904Y-79382785D01*
X95920142Y-79335166D01*
X95967761Y-79287547D01*
X96015380Y-79192309D01*
X96015380Y-79097071D01*
X95967761Y-79001833D01*
X95920142Y-78954214D01*
X95824904Y-78906595D01*
X95634428Y-78858976D01*
X95396333Y-78858976D01*
X95205857Y-78906595D01*
X95110619Y-78954214D01*
X95063000Y-79001833D01*
X95015380Y-79097071D01*
X88817142Y-96401142D02*
X88864761Y-96353523D01*
X88912380Y-96210666D01*
X88912380Y-96115428D01*
X88864761Y-95972571D01*
X88769523Y-95877333D01*
X88674285Y-95829714D01*
X88483809Y-95782095D01*
X88340952Y-95782095D01*
X88150476Y-95829714D01*
X88055238Y-95877333D01*
X87960000Y-95972571D01*
X87912380Y-96115428D01*
X87912380Y-96210666D01*
X87960000Y-96353523D01*
X88007619Y-96401142D01*
X88912380Y-97353523D02*
X88912380Y-96782095D01*
X88912380Y-97067809D02*
X87912380Y-97067809D01*
X88055238Y-96972571D01*
X88150476Y-96877333D01*
X88198095Y-96782095D01*
X87912380Y-98210666D02*
X87912380Y-98020190D01*
X87960000Y-97924952D01*
X88007619Y-97877333D01*
X88150476Y-97782095D01*
X88340952Y-97734476D01*
X88721904Y-97734476D01*
X88817142Y-97782095D01*
X88864761Y-97829714D01*
X88912380Y-97924952D01*
X88912380Y-98115428D01*
X88864761Y-98210666D01*
X88817142Y-98258285D01*
X88721904Y-98305904D01*
X88483809Y-98305904D01*
X88388571Y-98258285D01*
X88340952Y-98210666D01*
X88293333Y-98115428D01*
X88293333Y-97924952D01*
X88340952Y-97829714D01*
X88388571Y-97782095D01*
X88483809Y-97734476D01*
X65698642Y-110672642D02*
X65746261Y-110625023D01*
X65793880Y-110482166D01*
X65793880Y-110386928D01*
X65746261Y-110244071D01*
X65651023Y-110148833D01*
X65555785Y-110101214D01*
X65365309Y-110053595D01*
X65222452Y-110053595D01*
X65031976Y-110101214D01*
X64936738Y-110148833D01*
X64841500Y-110244071D01*
X64793880Y-110386928D01*
X64793880Y-110482166D01*
X64841500Y-110625023D01*
X64889119Y-110672642D01*
X65793880Y-111625023D02*
X65793880Y-111053595D01*
X65793880Y-111339309D02*
X64793880Y-111339309D01*
X64936738Y-111244071D01*
X65031976Y-111148833D01*
X65079595Y-111053595D01*
X64793880Y-111958357D02*
X64793880Y-112577404D01*
X65174833Y-112244071D01*
X65174833Y-112386928D01*
X65222452Y-112482166D01*
X65270071Y-112529785D01*
X65365309Y-112577404D01*
X65603404Y-112577404D01*
X65698642Y-112529785D01*
X65746261Y-112482166D01*
X65793880Y-112386928D01*
X65793880Y-112101214D01*
X65746261Y-112005976D01*
X65698642Y-111958357D01*
X48041142Y-108401642D02*
X48088761Y-108354023D01*
X48136380Y-108211166D01*
X48136380Y-108115928D01*
X48088761Y-107973071D01*
X47993523Y-107877833D01*
X47898285Y-107830214D01*
X47707809Y-107782595D01*
X47564952Y-107782595D01*
X47374476Y-107830214D01*
X47279238Y-107877833D01*
X47184000Y-107973071D01*
X47136380Y-108115928D01*
X47136380Y-108211166D01*
X47184000Y-108354023D01*
X47231619Y-108401642D01*
X48136380Y-109354023D02*
X48136380Y-108782595D01*
X48136380Y-109068309D02*
X47136380Y-109068309D01*
X47279238Y-108973071D01*
X47374476Y-108877833D01*
X47422095Y-108782595D01*
X47231619Y-109734976D02*
X47184000Y-109782595D01*
X47136380Y-109877833D01*
X47136380Y-110115928D01*
X47184000Y-110211166D01*
X47231619Y-110258785D01*
X47326857Y-110306404D01*
X47422095Y-110306404D01*
X47564952Y-110258785D01*
X48136380Y-109687357D01*
X48136380Y-110306404D01*
X52241142Y-118991142D02*
X52288761Y-118943523D01*
X52336380Y-118800666D01*
X52336380Y-118705428D01*
X52288761Y-118562571D01*
X52193523Y-118467333D01*
X52098285Y-118419714D01*
X51907809Y-118372095D01*
X51764952Y-118372095D01*
X51574476Y-118419714D01*
X51479238Y-118467333D01*
X51384000Y-118562571D01*
X51336380Y-118705428D01*
X51336380Y-118800666D01*
X51384000Y-118943523D01*
X51431619Y-118991142D01*
X52336380Y-119943523D02*
X52336380Y-119372095D01*
X52336380Y-119657809D02*
X51336380Y-119657809D01*
X51479238Y-119562571D01*
X51574476Y-119467333D01*
X51622095Y-119372095D01*
X52336380Y-120895904D02*
X52336380Y-120324476D01*
X52336380Y-120610190D02*
X51336380Y-120610190D01*
X51479238Y-120514952D01*
X51574476Y-120419714D01*
X51622095Y-120324476D01*
X62110857Y-122345142D02*
X62158476Y-122392761D01*
X62301333Y-122440380D01*
X62396571Y-122440380D01*
X62539428Y-122392761D01*
X62634666Y-122297523D01*
X62682285Y-122202285D01*
X62729904Y-122011809D01*
X62729904Y-121868952D01*
X62682285Y-121678476D01*
X62634666Y-121583238D01*
X62539428Y-121488000D01*
X62396571Y-121440380D01*
X62301333Y-121440380D01*
X62158476Y-121488000D01*
X62110857Y-121535619D01*
X61158476Y-122440380D02*
X61729904Y-122440380D01*
X61444190Y-122440380D02*
X61444190Y-121440380D01*
X61539428Y-121583238D01*
X61634666Y-121678476D01*
X61729904Y-121726095D01*
X60539428Y-121440380D02*
X60444190Y-121440380D01*
X60348952Y-121488000D01*
X60301333Y-121535619D01*
X60253714Y-121630857D01*
X60206095Y-121821333D01*
X60206095Y-122059428D01*
X60253714Y-122249904D01*
X60301333Y-122345142D01*
X60348952Y-122392761D01*
X60444190Y-122440380D01*
X60539428Y-122440380D01*
X60634666Y-122392761D01*
X60682285Y-122345142D01*
X60729904Y-122249904D01*
X60777523Y-122059428D01*
X60777523Y-121821333D01*
X60729904Y-121630857D01*
X60682285Y-121535619D01*
X60634666Y-121488000D01*
X60539428Y-121440380D01*
X69005142Y-114641333D02*
X69052761Y-114593714D01*
X69100380Y-114450857D01*
X69100380Y-114355619D01*
X69052761Y-114212761D01*
X68957523Y-114117523D01*
X68862285Y-114069904D01*
X68671809Y-114022285D01*
X68528952Y-114022285D01*
X68338476Y-114069904D01*
X68243238Y-114117523D01*
X68148000Y-114212761D01*
X68100380Y-114355619D01*
X68100380Y-114450857D01*
X68148000Y-114593714D01*
X68195619Y-114641333D01*
X69100380Y-115117523D02*
X69100380Y-115308000D01*
X69052761Y-115403238D01*
X69005142Y-115450857D01*
X68862285Y-115546095D01*
X68671809Y-115593714D01*
X68290857Y-115593714D01*
X68195619Y-115546095D01*
X68148000Y-115498476D01*
X68100380Y-115403238D01*
X68100380Y-115212761D01*
X68148000Y-115117523D01*
X68195619Y-115069904D01*
X68290857Y-115022285D01*
X68528952Y-115022285D01*
X68624190Y-115069904D01*
X68671809Y-115117523D01*
X68719428Y-115212761D01*
X68719428Y-115403238D01*
X68671809Y-115498476D01*
X68624190Y-115546095D01*
X68528952Y-115593714D01*
X53629142Y-113625333D02*
X53676761Y-113577714D01*
X53724380Y-113434857D01*
X53724380Y-113339619D01*
X53676761Y-113196761D01*
X53581523Y-113101523D01*
X53486285Y-113053904D01*
X53295809Y-113006285D01*
X53152952Y-113006285D01*
X52962476Y-113053904D01*
X52867238Y-113101523D01*
X52772000Y-113196761D01*
X52724380Y-113339619D01*
X52724380Y-113434857D01*
X52772000Y-113577714D01*
X52819619Y-113625333D01*
X53152952Y-114196761D02*
X53105333Y-114101523D01*
X53057714Y-114053904D01*
X52962476Y-114006285D01*
X52914857Y-114006285D01*
X52819619Y-114053904D01*
X52772000Y-114101523D01*
X52724380Y-114196761D01*
X52724380Y-114387238D01*
X52772000Y-114482476D01*
X52819619Y-114530095D01*
X52914857Y-114577714D01*
X52962476Y-114577714D01*
X53057714Y-114530095D01*
X53105333Y-114482476D01*
X53152952Y-114387238D01*
X53152952Y-114196761D01*
X53200571Y-114101523D01*
X53248190Y-114053904D01*
X53343428Y-114006285D01*
X53533904Y-114006285D01*
X53629142Y-114053904D01*
X53676761Y-114101523D01*
X53724380Y-114196761D01*
X53724380Y-114387238D01*
X53676761Y-114482476D01*
X53629142Y-114530095D01*
X53533904Y-114577714D01*
X53343428Y-114577714D01*
X53248190Y-114530095D01*
X53200571Y-114482476D01*
X53152952Y-114387238D01*
X61634666Y-106969142D02*
X61682285Y-107016761D01*
X61825142Y-107064380D01*
X61920380Y-107064380D01*
X62063238Y-107016761D01*
X62158476Y-106921523D01*
X62206095Y-106826285D01*
X62253714Y-106635809D01*
X62253714Y-106492952D01*
X62206095Y-106302476D01*
X62158476Y-106207238D01*
X62063238Y-106112000D01*
X61920380Y-106064380D01*
X61825142Y-106064380D01*
X61682285Y-106112000D01*
X61634666Y-106159619D01*
X61301333Y-106064380D02*
X60634666Y-106064380D01*
X61063238Y-107064380D01*
X57492166Y-118399142D02*
X57539785Y-118446761D01*
X57682642Y-118494380D01*
X57777880Y-118494380D01*
X57920738Y-118446761D01*
X58015976Y-118351523D01*
X58063595Y-118256285D01*
X58111214Y-118065809D01*
X58111214Y-117922952D01*
X58063595Y-117732476D01*
X58015976Y-117637238D01*
X57920738Y-117542000D01*
X57777880Y-117494380D01*
X57682642Y-117494380D01*
X57539785Y-117542000D01*
X57492166Y-117589619D01*
X56635023Y-117494380D02*
X56825500Y-117494380D01*
X56920738Y-117542000D01*
X56968357Y-117589619D01*
X57063595Y-117732476D01*
X57111214Y-117922952D01*
X57111214Y-118303904D01*
X57063595Y-118399142D01*
X57015976Y-118446761D01*
X56920738Y-118494380D01*
X56730261Y-118494380D01*
X56635023Y-118446761D01*
X56587404Y-118399142D01*
X56539785Y-118303904D01*
X56539785Y-118065809D01*
X56587404Y-117970571D01*
X56635023Y-117922952D01*
X56730261Y-117875333D01*
X56920738Y-117875333D01*
X57015976Y-117922952D01*
X57063595Y-117970571D01*
X57111214Y-118065809D01*
X88817142Y-106513333D02*
X88864761Y-106465714D01*
X88912380Y-106322857D01*
X88912380Y-106227619D01*
X88864761Y-106084761D01*
X88769523Y-105989523D01*
X88674285Y-105941904D01*
X88483809Y-105894285D01*
X88340952Y-105894285D01*
X88150476Y-105941904D01*
X88055238Y-105989523D01*
X87960000Y-106084761D01*
X87912380Y-106227619D01*
X87912380Y-106322857D01*
X87960000Y-106465714D01*
X88007619Y-106513333D01*
X87912380Y-107418095D02*
X87912380Y-106941904D01*
X88388571Y-106894285D01*
X88340952Y-106941904D01*
X88293333Y-107037142D01*
X88293333Y-107275238D01*
X88340952Y-107370476D01*
X88388571Y-107418095D01*
X88483809Y-107465714D01*
X88721904Y-107465714D01*
X88817142Y-107418095D01*
X88864761Y-107370476D01*
X88912380Y-107275238D01*
X88912380Y-107037142D01*
X88864761Y-106941904D01*
X88817142Y-106894285D01*
X64333357Y-118308380D02*
X64666690Y-117832190D01*
X64904785Y-118308380D02*
X64904785Y-117308380D01*
X64523833Y-117308380D01*
X64428595Y-117356000D01*
X64380976Y-117403619D01*
X64333357Y-117498857D01*
X64333357Y-117641714D01*
X64380976Y-117736952D01*
X64428595Y-117784571D01*
X64523833Y-117832190D01*
X64904785Y-117832190D01*
X63380976Y-118308380D02*
X63952404Y-118308380D01*
X63666690Y-118308380D02*
X63666690Y-117308380D01*
X63761928Y-117451238D01*
X63857166Y-117546476D01*
X63952404Y-117594095D01*
X62476214Y-117308380D02*
X62952404Y-117308380D01*
X63000023Y-117784571D01*
X62952404Y-117736952D01*
X62857166Y-117689333D01*
X62619071Y-117689333D01*
X62523833Y-117736952D01*
X62476214Y-117784571D01*
X62428595Y-117879809D01*
X62428595Y-118117904D01*
X62476214Y-118213142D01*
X62523833Y-118260761D01*
X62619071Y-118308380D01*
X62857166Y-118308380D01*
X62952404Y-118260761D01*
X63000023Y-118213142D01*
X61221857Y-114815880D02*
X61555190Y-114339690D01*
X61793285Y-114815880D02*
X61793285Y-113815880D01*
X61412333Y-113815880D01*
X61317095Y-113863500D01*
X61269476Y-113911119D01*
X61221857Y-114006357D01*
X61221857Y-114149214D01*
X61269476Y-114244452D01*
X61317095Y-114292071D01*
X61412333Y-114339690D01*
X61793285Y-114339690D01*
X60269476Y-114815880D02*
X60840904Y-114815880D01*
X60555190Y-114815880D02*
X60555190Y-113815880D01*
X60650428Y-113958738D01*
X60745666Y-114053976D01*
X60840904Y-114101595D01*
X59888523Y-113911119D02*
X59840904Y-113863500D01*
X59745666Y-113815880D01*
X59507571Y-113815880D01*
X59412333Y-113863500D01*
X59364714Y-113911119D01*
X59317095Y-114006357D01*
X59317095Y-114101595D01*
X59364714Y-114244452D01*
X59936142Y-114815880D01*
X59317095Y-114815880D01*
X59536666Y-111577380D02*
X59870000Y-111101190D01*
X60108095Y-111577380D02*
X60108095Y-110577380D01*
X59727142Y-110577380D01*
X59631904Y-110625000D01*
X59584285Y-110672619D01*
X59536666Y-110767857D01*
X59536666Y-110910714D01*
X59584285Y-111005952D01*
X59631904Y-111053571D01*
X59727142Y-111101190D01*
X60108095Y-111101190D01*
X58584285Y-111577380D02*
X59155714Y-111577380D01*
X58870000Y-111577380D02*
X58870000Y-110577380D01*
X58965238Y-110720238D01*
X59060476Y-110815476D01*
X59155714Y-110863095D01*
M02*
