G04 #@! TF.GenerationSoftware,KiCad,Pcbnew,(5.1.4)-1*
G04 #@! TF.CreationDate,2020-04-24T18:52:46+02:00*
G04 #@! TF.ProjectId,electronic_load,656c6563-7472-46f6-9e69-635f6c6f6164,rev?*
G04 #@! TF.SameCoordinates,Original*
G04 #@! TF.FileFunction,Soldermask,Bot*
G04 #@! TF.FilePolarity,Negative*
%FSLAX46Y46*%
G04 Gerber Fmt 4.6, Leading zero omitted, Abs format (unit mm)*
G04 Created by KiCad (PCBNEW (5.1.4)-1) date 2020-04-24 18:52:46*
%MOMM*%
%LPD*%
G04 APERTURE LIST*
%ADD10C,0.100000*%
G04 APERTURE END LIST*
D10*
G36*
X110393473Y-123792418D02*
G01*
X110803282Y-123873934D01*
X111394926Y-124119001D01*
X111701192Y-124323642D01*
X111927391Y-124474783D01*
X112380217Y-124927609D01*
X112450986Y-125033523D01*
X112735999Y-125460074D01*
X112981066Y-126051718D01*
X113029845Y-126296948D01*
X113064849Y-126472921D01*
X113106000Y-126679804D01*
X113106000Y-127320196D01*
X112981066Y-127948282D01*
X112735999Y-128539926D01*
X112380216Y-129072392D01*
X111927392Y-129525216D01*
X111394926Y-129880999D01*
X110803282Y-130126066D01*
X110489239Y-130188533D01*
X110175197Y-130251000D01*
X109534803Y-130251000D01*
X109220761Y-130188533D01*
X108906718Y-130126066D01*
X108315074Y-129880999D01*
X107782608Y-129525216D01*
X107329784Y-129072392D01*
X106974001Y-128539926D01*
X106728934Y-127948282D01*
X106604000Y-127320196D01*
X106604000Y-126679804D01*
X106645152Y-126472921D01*
X106680155Y-126296948D01*
X106728934Y-126051718D01*
X106974001Y-125460074D01*
X107259014Y-125033523D01*
X107329783Y-124927609D01*
X107782609Y-124474783D01*
X108008808Y-124323642D01*
X108315074Y-124119001D01*
X108906718Y-123873934D01*
X109316527Y-123792418D01*
X109534803Y-123749000D01*
X110175197Y-123749000D01*
X110393473Y-123792418D01*
X110393473Y-123792418D01*
G37*
G36*
X51973473Y-123792418D02*
G01*
X52383282Y-123873934D01*
X52974926Y-124119001D01*
X53281192Y-124323642D01*
X53507391Y-124474783D01*
X53960217Y-124927609D01*
X54030986Y-125033523D01*
X54315999Y-125460074D01*
X54561066Y-126051718D01*
X54609845Y-126296948D01*
X54644849Y-126472921D01*
X54686000Y-126679804D01*
X54686000Y-127320196D01*
X54561066Y-127948282D01*
X54315999Y-128539926D01*
X53960216Y-129072392D01*
X53507392Y-129525216D01*
X52974926Y-129880999D01*
X52383282Y-130126066D01*
X52069239Y-130188533D01*
X51755197Y-130251000D01*
X51114803Y-130251000D01*
X50800761Y-130188533D01*
X50486718Y-130126066D01*
X49895074Y-129880999D01*
X49362608Y-129525216D01*
X48909784Y-129072392D01*
X48554001Y-128539926D01*
X48308934Y-127948282D01*
X48184000Y-127320196D01*
X48184000Y-126679804D01*
X48225152Y-126472921D01*
X48260155Y-126296948D01*
X48308934Y-126051718D01*
X48554001Y-125460074D01*
X48839014Y-125033523D01*
X48909783Y-124927609D01*
X49362609Y-124474783D01*
X49588808Y-124323642D01*
X49895074Y-124119001D01*
X50486718Y-123873934D01*
X50896527Y-123792418D01*
X51114803Y-123749000D01*
X51755197Y-123749000D01*
X51973473Y-123792418D01*
X51973473Y-123792418D01*
G37*
G36*
X76395052Y-125994831D02*
G01*
X76477127Y-126028828D01*
X76477129Y-126028829D01*
X76511384Y-126051718D01*
X76550995Y-126078185D01*
X76613815Y-126141005D01*
X76663172Y-126214873D01*
X76697169Y-126296948D01*
X76714500Y-126384079D01*
X76714500Y-126472921D01*
X76697169Y-126560052D01*
X76663172Y-126642127D01*
X76663171Y-126642129D01*
X76613814Y-126715996D01*
X76550996Y-126778814D01*
X76477129Y-126828171D01*
X76477128Y-126828172D01*
X76477127Y-126828172D01*
X76395052Y-126862169D01*
X76307921Y-126879500D01*
X76219079Y-126879500D01*
X76131948Y-126862169D01*
X76049873Y-126828172D01*
X76049872Y-126828172D01*
X76049871Y-126828171D01*
X75976004Y-126778814D01*
X75913186Y-126715996D01*
X75863829Y-126642129D01*
X75863828Y-126642127D01*
X75829831Y-126560052D01*
X75812500Y-126472921D01*
X75812500Y-126384079D01*
X75829831Y-126296948D01*
X75863828Y-126214873D01*
X75913185Y-126141005D01*
X75976005Y-126078185D01*
X76015616Y-126051718D01*
X76049871Y-126028829D01*
X76049873Y-126028828D01*
X76131948Y-125994831D01*
X76219079Y-125977500D01*
X76307921Y-125977500D01*
X76395052Y-125994831D01*
X76395052Y-125994831D01*
G37*
G36*
X60682104Y-124839585D02*
G01*
X60850626Y-124909389D01*
X61002291Y-125010728D01*
X61131272Y-125139709D01*
X61232611Y-125291374D01*
X61302415Y-125459896D01*
X61338000Y-125638797D01*
X61338000Y-125821203D01*
X61302415Y-126000104D01*
X61232611Y-126168626D01*
X61131272Y-126320291D01*
X61002291Y-126449272D01*
X60850626Y-126550611D01*
X60682104Y-126620415D01*
X60503203Y-126656000D01*
X60320797Y-126656000D01*
X60141896Y-126620415D01*
X59973374Y-126550611D01*
X59821709Y-126449272D01*
X59692728Y-126320291D01*
X59591389Y-126168626D01*
X59521585Y-126000104D01*
X59486000Y-125821203D01*
X59486000Y-125638797D01*
X59521585Y-125459896D01*
X59591389Y-125291374D01*
X59692728Y-125139709D01*
X59821709Y-125010728D01*
X59973374Y-124909389D01*
X60141896Y-124839585D01*
X60320797Y-124804000D01*
X60503203Y-124804000D01*
X60682104Y-124839585D01*
X60682104Y-124839585D01*
G37*
G36*
X58838000Y-126656000D02*
G01*
X56986000Y-126656000D01*
X56986000Y-124804000D01*
X58838000Y-124804000D01*
X58838000Y-126656000D01*
X58838000Y-126656000D01*
G37*
G36*
X63182104Y-124839585D02*
G01*
X63350626Y-124909389D01*
X63502291Y-125010728D01*
X63631272Y-125139709D01*
X63732611Y-125291374D01*
X63802415Y-125459896D01*
X63838000Y-125638797D01*
X63838000Y-125821203D01*
X63802415Y-126000104D01*
X63732611Y-126168626D01*
X63631272Y-126320291D01*
X63502291Y-126449272D01*
X63350626Y-126550611D01*
X63182104Y-126620415D01*
X63003203Y-126656000D01*
X62820797Y-126656000D01*
X62641896Y-126620415D01*
X62473374Y-126550611D01*
X62321709Y-126449272D01*
X62192728Y-126320291D01*
X62091389Y-126168626D01*
X62021585Y-126000104D01*
X61986000Y-125821203D01*
X61986000Y-125638797D01*
X62021585Y-125459896D01*
X62091389Y-125291374D01*
X62192728Y-125139709D01*
X62321709Y-125010728D01*
X62473374Y-124909389D01*
X62641896Y-124839585D01*
X62820797Y-124804000D01*
X63003203Y-124804000D01*
X63182104Y-124839585D01*
X63182104Y-124839585D01*
G37*
G36*
X65682104Y-124839585D02*
G01*
X65850626Y-124909389D01*
X66002291Y-125010728D01*
X66131272Y-125139709D01*
X66232611Y-125291374D01*
X66302415Y-125459896D01*
X66338000Y-125638797D01*
X66338000Y-125821203D01*
X66302415Y-126000104D01*
X66232611Y-126168626D01*
X66131272Y-126320291D01*
X66002291Y-126449272D01*
X65850626Y-126550611D01*
X65682104Y-126620415D01*
X65503203Y-126656000D01*
X65320797Y-126656000D01*
X65141896Y-126620415D01*
X64973374Y-126550611D01*
X64821709Y-126449272D01*
X64692728Y-126320291D01*
X64591389Y-126168626D01*
X64521585Y-126000104D01*
X64486000Y-125821203D01*
X64486000Y-125638797D01*
X64521585Y-125459896D01*
X64591389Y-125291374D01*
X64692728Y-125139709D01*
X64821709Y-125010728D01*
X64973374Y-124909389D01*
X65141896Y-124839585D01*
X65320797Y-124804000D01*
X65503203Y-124804000D01*
X65682104Y-124839585D01*
X65682104Y-124839585D01*
G37*
G36*
X105287552Y-125296331D02*
G01*
X105369627Y-125330328D01*
X105369629Y-125330329D01*
X105406813Y-125355175D01*
X105443495Y-125379685D01*
X105506315Y-125442505D01*
X105555672Y-125516373D01*
X105589669Y-125598448D01*
X105607000Y-125685579D01*
X105607000Y-125774421D01*
X105589669Y-125861552D01*
X105555672Y-125943627D01*
X105521459Y-125994831D01*
X105506314Y-126017496D01*
X105443496Y-126080314D01*
X105369629Y-126129671D01*
X105369628Y-126129672D01*
X105369627Y-126129672D01*
X105287552Y-126163669D01*
X105200421Y-126181000D01*
X105111579Y-126181000D01*
X105024448Y-126163669D01*
X104942373Y-126129672D01*
X104942372Y-126129672D01*
X104942371Y-126129671D01*
X104868504Y-126080314D01*
X104805686Y-126017496D01*
X104790542Y-125994831D01*
X104756328Y-125943627D01*
X104722331Y-125861552D01*
X104705000Y-125774421D01*
X104705000Y-125685579D01*
X104722331Y-125598448D01*
X104756328Y-125516373D01*
X104805685Y-125442505D01*
X104868505Y-125379685D01*
X104905187Y-125355175D01*
X104942371Y-125330329D01*
X104942373Y-125330328D01*
X105024448Y-125296331D01*
X105111579Y-125279000D01*
X105200421Y-125279000D01*
X105287552Y-125296331D01*
X105287552Y-125296331D01*
G37*
G36*
X79125552Y-124280331D02*
G01*
X79207627Y-124314328D01*
X79207629Y-124314329D01*
X79244813Y-124339175D01*
X79281495Y-124363685D01*
X79344315Y-124426505D01*
X79393672Y-124500373D01*
X79427669Y-124582448D01*
X79445000Y-124669579D01*
X79445000Y-124758421D01*
X79427669Y-124845552D01*
X79393680Y-124927608D01*
X79393671Y-124927629D01*
X79344314Y-125001496D01*
X79281496Y-125064314D01*
X79207629Y-125113671D01*
X79207628Y-125113672D01*
X79207627Y-125113672D01*
X79125552Y-125147669D01*
X79038421Y-125165000D01*
X78949579Y-125165000D01*
X78862448Y-125147669D01*
X78780373Y-125113672D01*
X78780372Y-125113672D01*
X78780371Y-125113671D01*
X78706504Y-125064314D01*
X78643686Y-125001496D01*
X78594329Y-124927629D01*
X78594320Y-124927608D01*
X78560331Y-124845552D01*
X78543000Y-124758421D01*
X78543000Y-124669579D01*
X78560331Y-124582448D01*
X78594328Y-124500373D01*
X78643685Y-124426505D01*
X78706505Y-124363685D01*
X78743187Y-124339175D01*
X78780371Y-124314329D01*
X78780373Y-124314328D01*
X78862448Y-124280331D01*
X78949579Y-124263000D01*
X79038421Y-124263000D01*
X79125552Y-124280331D01*
X79125552Y-124280331D01*
G37*
G36*
X95762552Y-124153331D02*
G01*
X95844627Y-124187328D01*
X95844629Y-124187329D01*
X95881813Y-124212175D01*
X95918235Y-124236511D01*
X95918496Y-124236686D01*
X95981314Y-124299504D01*
X96024200Y-124363686D01*
X96030672Y-124373373D01*
X96064669Y-124455448D01*
X96082000Y-124542579D01*
X96082000Y-124631421D01*
X96064669Y-124718552D01*
X96030672Y-124800627D01*
X96030671Y-124800629D01*
X95981314Y-124874496D01*
X95918496Y-124937314D01*
X95844629Y-124986671D01*
X95844628Y-124986672D01*
X95844627Y-124986672D01*
X95762552Y-125020669D01*
X95675421Y-125038000D01*
X95586579Y-125038000D01*
X95499448Y-125020669D01*
X95417373Y-124986672D01*
X95417372Y-124986672D01*
X95417371Y-124986671D01*
X95343504Y-124937314D01*
X95280686Y-124874496D01*
X95231329Y-124800629D01*
X95231328Y-124800627D01*
X95197331Y-124718552D01*
X95180000Y-124631421D01*
X95180000Y-124542579D01*
X95197331Y-124455448D01*
X95231328Y-124373373D01*
X95237801Y-124363686D01*
X95280686Y-124299504D01*
X95343504Y-124236686D01*
X95343766Y-124236511D01*
X95380187Y-124212175D01*
X95417371Y-124187329D01*
X95417373Y-124187328D01*
X95499448Y-124153331D01*
X95586579Y-124136000D01*
X95675421Y-124136000D01*
X95762552Y-124153331D01*
X95762552Y-124153331D01*
G37*
G36*
X69196323Y-123758421D02*
G01*
X69278398Y-123792418D01*
X69278400Y-123792419D01*
X69352267Y-123841776D01*
X69415085Y-123904594D01*
X69449022Y-123955383D01*
X69464443Y-123978463D01*
X69498440Y-124060538D01*
X69515771Y-124147669D01*
X69515771Y-124236511D01*
X69498440Y-124323642D01*
X69464443Y-124405717D01*
X69415086Y-124479585D01*
X69352266Y-124542405D01*
X69352004Y-124542580D01*
X69278400Y-124591761D01*
X69278399Y-124591762D01*
X69278398Y-124591762D01*
X69196323Y-124625759D01*
X69109192Y-124643090D01*
X69020350Y-124643090D01*
X68933219Y-124625759D01*
X68851144Y-124591762D01*
X68851143Y-124591762D01*
X68851142Y-124591761D01*
X68777538Y-124542580D01*
X68777276Y-124542405D01*
X68714456Y-124479585D01*
X68665099Y-124405717D01*
X68631102Y-124323642D01*
X68613771Y-124236511D01*
X68613771Y-124147669D01*
X68631102Y-124060538D01*
X68665099Y-123978463D01*
X68680521Y-123955383D01*
X68714457Y-123904594D01*
X68777275Y-123841776D01*
X68851142Y-123792419D01*
X68851144Y-123792418D01*
X68933219Y-123758421D01*
X69020350Y-123741090D01*
X69109192Y-123741090D01*
X69196323Y-123758421D01*
X69196323Y-123758421D01*
G37*
G36*
X66818514Y-123735341D02*
G01*
X66900589Y-123769338D01*
X66900591Y-123769339D01*
X66935131Y-123792418D01*
X66974457Y-123818695D01*
X67037277Y-123881515D01*
X67086634Y-123955383D01*
X67120631Y-124037458D01*
X67137962Y-124124589D01*
X67137962Y-124213431D01*
X67120631Y-124300562D01*
X67090472Y-124373371D01*
X67086633Y-124382639D01*
X67037276Y-124456506D01*
X66974458Y-124519324D01*
X66900591Y-124568681D01*
X66900590Y-124568682D01*
X66900589Y-124568682D01*
X66818514Y-124602679D01*
X66731383Y-124620010D01*
X66642541Y-124620010D01*
X66555410Y-124602679D01*
X66473335Y-124568682D01*
X66473334Y-124568682D01*
X66473333Y-124568681D01*
X66399466Y-124519324D01*
X66336648Y-124456506D01*
X66287291Y-124382639D01*
X66283452Y-124373371D01*
X66253293Y-124300562D01*
X66235962Y-124213431D01*
X66235962Y-124124589D01*
X66253293Y-124037458D01*
X66287290Y-123955383D01*
X66336647Y-123881515D01*
X66399467Y-123818695D01*
X66438793Y-123792418D01*
X66473333Y-123769339D01*
X66473335Y-123769338D01*
X66555410Y-123735341D01*
X66642541Y-123718010D01*
X66731383Y-123718010D01*
X66818514Y-123735341D01*
X66818514Y-123735341D01*
G37*
G36*
X70870552Y-122184831D02*
G01*
X70952627Y-122218828D01*
X70952629Y-122218829D01*
X70964362Y-122226669D01*
X71026495Y-122268185D01*
X71089315Y-122331005D01*
X71138672Y-122404873D01*
X71172669Y-122486948D01*
X71190000Y-122574079D01*
X71190000Y-122662921D01*
X71172669Y-122750052D01*
X71138672Y-122832127D01*
X71089315Y-122905995D01*
X71026495Y-122968815D01*
X70989813Y-122993325D01*
X70952629Y-123018171D01*
X70952628Y-123018172D01*
X70952627Y-123018172D01*
X70875512Y-123050114D01*
X70853901Y-123061665D01*
X70834960Y-123077210D01*
X70819414Y-123096152D01*
X70807863Y-123117763D01*
X70800750Y-123141212D01*
X70798348Y-123165598D01*
X70800750Y-123189984D01*
X70807863Y-123213433D01*
X70819414Y-123235044D01*
X70834959Y-123253986D01*
X70892414Y-123311441D01*
X70941771Y-123385309D01*
X70975768Y-123467384D01*
X70993099Y-123554515D01*
X70993099Y-123643357D01*
X70975768Y-123730488D01*
X70941771Y-123812563D01*
X70892414Y-123886431D01*
X70829594Y-123949251D01*
X70792912Y-123973761D01*
X70755728Y-123998607D01*
X70755727Y-123998608D01*
X70755726Y-123998608D01*
X70673651Y-124032605D01*
X70586520Y-124049936D01*
X70497678Y-124049936D01*
X70410547Y-124032605D01*
X70328472Y-123998608D01*
X70328471Y-123998608D01*
X70328470Y-123998607D01*
X70291286Y-123973761D01*
X70254604Y-123949251D01*
X70191784Y-123886431D01*
X70142427Y-123812563D01*
X70108430Y-123730488D01*
X70091099Y-123643357D01*
X70091099Y-123554515D01*
X70108430Y-123467384D01*
X70142427Y-123385309D01*
X70191784Y-123311441D01*
X70254604Y-123248621D01*
X70291286Y-123224111D01*
X70328470Y-123199265D01*
X70328472Y-123199264D01*
X70405587Y-123167322D01*
X70427198Y-123155771D01*
X70446139Y-123140226D01*
X70461685Y-123121284D01*
X70473236Y-123099673D01*
X70480349Y-123076224D01*
X70482751Y-123051838D01*
X70480349Y-123027452D01*
X70473236Y-123004003D01*
X70461685Y-122982392D01*
X70446140Y-122963450D01*
X70388685Y-122905995D01*
X70339328Y-122832127D01*
X70305331Y-122750052D01*
X70288000Y-122662921D01*
X70288000Y-122574079D01*
X70305331Y-122486948D01*
X70339328Y-122404873D01*
X70388685Y-122331005D01*
X70451505Y-122268185D01*
X70513638Y-122226669D01*
X70525371Y-122218829D01*
X70525373Y-122218828D01*
X70607448Y-122184831D01*
X70694579Y-122167500D01*
X70783421Y-122167500D01*
X70870552Y-122184831D01*
X70870552Y-122184831D01*
G37*
G36*
X63202758Y-122717856D02*
G01*
X63280485Y-122750052D01*
X63284835Y-122751854D01*
X63322019Y-122776700D01*
X63358701Y-122801210D01*
X63421521Y-122864030D01*
X63470878Y-122937898D01*
X63504875Y-123019973D01*
X63522206Y-123107104D01*
X63522206Y-123195946D01*
X63504875Y-123283077D01*
X63470878Y-123365152D01*
X63470877Y-123365154D01*
X63421520Y-123439021D01*
X63358702Y-123501839D01*
X63284835Y-123551196D01*
X63284834Y-123551197D01*
X63284833Y-123551197D01*
X63202758Y-123585194D01*
X63115627Y-123602525D01*
X63026785Y-123602525D01*
X62939654Y-123585194D01*
X62857579Y-123551197D01*
X62857578Y-123551197D01*
X62857577Y-123551196D01*
X62783710Y-123501839D01*
X62720892Y-123439021D01*
X62671535Y-123365154D01*
X62671534Y-123365152D01*
X62637537Y-123283077D01*
X62620206Y-123195946D01*
X62620206Y-123107104D01*
X62637537Y-123019973D01*
X62671534Y-122937898D01*
X62720891Y-122864030D01*
X62783711Y-122801210D01*
X62820393Y-122776700D01*
X62857577Y-122751854D01*
X62861927Y-122750052D01*
X62939654Y-122717856D01*
X63026785Y-122700525D01*
X63115627Y-122700525D01*
X63202758Y-122717856D01*
X63202758Y-122717856D01*
G37*
G36*
X61980552Y-121359331D02*
G01*
X62062627Y-121393328D01*
X62062629Y-121393329D01*
X62136496Y-121442686D01*
X62199314Y-121505504D01*
X62244077Y-121572495D01*
X62248672Y-121579373D01*
X62282669Y-121661448D01*
X62300000Y-121748579D01*
X62300000Y-121837421D01*
X62282669Y-121924552D01*
X62248672Y-122006627D01*
X62248671Y-122006629D01*
X62199314Y-122080496D01*
X62136496Y-122143314D01*
X62062629Y-122192671D01*
X62062628Y-122192672D01*
X62062627Y-122192672D01*
X61980552Y-122226669D01*
X61893421Y-122244000D01*
X61804579Y-122244000D01*
X61717448Y-122226669D01*
X61635373Y-122192672D01*
X61635372Y-122192672D01*
X61635371Y-122192671D01*
X61561504Y-122143314D01*
X61498686Y-122080496D01*
X61449329Y-122006629D01*
X61449328Y-122006627D01*
X61415331Y-121924552D01*
X61398000Y-121837421D01*
X61398000Y-121748579D01*
X61415331Y-121661448D01*
X61449328Y-121579373D01*
X61453924Y-121572495D01*
X61498686Y-121505504D01*
X61561504Y-121442686D01*
X61635371Y-121393329D01*
X61635373Y-121393328D01*
X61717448Y-121359331D01*
X61804579Y-121342000D01*
X61893421Y-121342000D01*
X61980552Y-121359331D01*
X61980552Y-121359331D01*
G37*
G36*
X60583552Y-120978331D02*
G01*
X60665627Y-121012328D01*
X60665629Y-121012329D01*
X60674403Y-121018192D01*
X60739495Y-121061685D01*
X60802315Y-121124505D01*
X60821654Y-121153448D01*
X60842737Y-121185000D01*
X60851672Y-121198373D01*
X60885669Y-121280448D01*
X60903000Y-121367579D01*
X60903000Y-121456421D01*
X60885669Y-121543552D01*
X60858416Y-121609345D01*
X60851671Y-121625629D01*
X60845199Y-121635315D01*
X60806857Y-121692698D01*
X60802314Y-121699496D01*
X60739496Y-121762314D01*
X60665629Y-121811671D01*
X60665628Y-121811672D01*
X60665627Y-121811672D01*
X60583552Y-121845669D01*
X60496421Y-121863000D01*
X60407579Y-121863000D01*
X60320448Y-121845669D01*
X60238373Y-121811672D01*
X60238372Y-121811672D01*
X60238371Y-121811671D01*
X60164504Y-121762314D01*
X60101686Y-121699496D01*
X60097144Y-121692698D01*
X60058801Y-121635315D01*
X60052329Y-121625629D01*
X60045584Y-121609345D01*
X60018331Y-121543552D01*
X60001000Y-121456421D01*
X60001000Y-121367579D01*
X60018331Y-121280448D01*
X60052328Y-121198373D01*
X60061264Y-121185000D01*
X60082346Y-121153448D01*
X60101685Y-121124505D01*
X60164505Y-121061685D01*
X60229597Y-121018192D01*
X60238371Y-121012329D01*
X60238373Y-121012328D01*
X60320448Y-120978331D01*
X60407579Y-120961000D01*
X60496421Y-120961000D01*
X60583552Y-120978331D01*
X60583552Y-120978331D01*
G37*
G36*
X81665552Y-120851331D02*
G01*
X81747627Y-120885328D01*
X81747629Y-120885329D01*
X81778589Y-120906016D01*
X81821495Y-120934685D01*
X81884315Y-120997505D01*
X81898138Y-121018193D01*
X81928622Y-121063814D01*
X81933672Y-121071373D01*
X81967669Y-121153448D01*
X81985000Y-121240579D01*
X81985000Y-121329421D01*
X81967669Y-121416552D01*
X81944429Y-121472657D01*
X81933671Y-121498629D01*
X81908825Y-121535813D01*
X81901668Y-121546525D01*
X81884314Y-121572496D01*
X81821496Y-121635314D01*
X81747629Y-121684671D01*
X81747628Y-121684672D01*
X81747627Y-121684672D01*
X81665552Y-121718669D01*
X81578421Y-121736000D01*
X81489579Y-121736000D01*
X81402448Y-121718669D01*
X81320373Y-121684672D01*
X81320372Y-121684672D01*
X81320371Y-121684671D01*
X81246504Y-121635314D01*
X81183686Y-121572496D01*
X81166333Y-121546525D01*
X81159175Y-121535813D01*
X81134329Y-121498629D01*
X81123571Y-121472657D01*
X81100331Y-121416552D01*
X81083000Y-121329421D01*
X81083000Y-121240579D01*
X81100331Y-121153448D01*
X81134328Y-121071373D01*
X81139379Y-121063814D01*
X81169862Y-121018193D01*
X81183685Y-120997505D01*
X81246505Y-120934685D01*
X81289411Y-120906016D01*
X81320371Y-120885329D01*
X81320373Y-120885328D01*
X81402448Y-120851331D01*
X81489579Y-120834000D01*
X81578421Y-120834000D01*
X81665552Y-120851331D01*
X81665552Y-120851331D01*
G37*
G36*
X71764207Y-120825361D02*
G01*
X71846282Y-120859358D01*
X71846284Y-120859359D01*
X71852671Y-120863627D01*
X71920150Y-120908715D01*
X71982970Y-120971535D01*
X72032327Y-121045403D01*
X72066324Y-121127478D01*
X72083655Y-121214609D01*
X72083655Y-121303451D01*
X72066324Y-121390582D01*
X72039052Y-121456421D01*
X72032326Y-121472659D01*
X71982969Y-121546526D01*
X71920151Y-121609344D01*
X71846284Y-121658701D01*
X71846283Y-121658702D01*
X71846282Y-121658702D01*
X71764207Y-121692699D01*
X71677076Y-121710030D01*
X71588234Y-121710030D01*
X71501103Y-121692699D01*
X71419028Y-121658702D01*
X71419027Y-121658702D01*
X71419026Y-121658701D01*
X71345159Y-121609344D01*
X71282341Y-121546526D01*
X71232984Y-121472659D01*
X71226258Y-121456421D01*
X71198986Y-121390582D01*
X71181655Y-121303451D01*
X71181655Y-121214609D01*
X71198986Y-121127478D01*
X71232983Y-121045403D01*
X71282340Y-120971535D01*
X71345160Y-120908715D01*
X71412639Y-120863627D01*
X71419026Y-120859359D01*
X71419028Y-120859358D01*
X71501103Y-120825361D01*
X71588234Y-120808030D01*
X71677076Y-120808030D01*
X71764207Y-120825361D01*
X71764207Y-120825361D01*
G37*
G36*
X50460000Y-121185000D02*
G01*
X49108000Y-121185000D01*
X49108000Y-120083000D01*
X50460000Y-120083000D01*
X50460000Y-121185000D01*
X50460000Y-121185000D01*
G37*
G36*
X99255052Y-120279831D02*
G01*
X99337127Y-120313828D01*
X99337129Y-120313829D01*
X99362864Y-120331025D01*
X99410995Y-120363185D01*
X99473815Y-120426005D01*
X99523172Y-120499873D01*
X99557169Y-120581948D01*
X99574500Y-120669079D01*
X99574500Y-120757921D01*
X99557169Y-120845052D01*
X99530798Y-120908716D01*
X99523171Y-120927129D01*
X99516244Y-120937496D01*
X99473815Y-121000995D01*
X99410995Y-121063815D01*
X99381283Y-121083668D01*
X99337129Y-121113171D01*
X99337128Y-121113172D01*
X99337127Y-121113172D01*
X99255052Y-121147169D01*
X99167921Y-121164500D01*
X99079079Y-121164500D01*
X98991948Y-121147169D01*
X98909873Y-121113172D01*
X98909872Y-121113172D01*
X98909871Y-121113171D01*
X98865717Y-121083668D01*
X98836005Y-121063815D01*
X98773185Y-121000995D01*
X98730756Y-120937496D01*
X98723829Y-120927129D01*
X98716202Y-120908716D01*
X98689831Y-120845052D01*
X98672500Y-120757921D01*
X98672500Y-120669079D01*
X98689831Y-120581948D01*
X98723828Y-120499873D01*
X98773185Y-120426005D01*
X98836005Y-120363185D01*
X98884136Y-120331025D01*
X98909871Y-120313829D01*
X98909873Y-120313828D01*
X98991948Y-120279831D01*
X99079079Y-120262500D01*
X99167921Y-120262500D01*
X99255052Y-120279831D01*
X99255052Y-120279831D01*
G37*
G36*
X112907552Y-120216331D02*
G01*
X112989627Y-120250328D01*
X112989629Y-120250329D01*
X113007844Y-120262500D01*
X113063495Y-120299685D01*
X113126315Y-120362505D01*
X113150825Y-120399187D01*
X113168745Y-120426005D01*
X113175672Y-120436373D01*
X113209669Y-120518448D01*
X113227000Y-120605579D01*
X113227000Y-120694421D01*
X113209669Y-120781552D01*
X113175672Y-120863627D01*
X113126315Y-120937495D01*
X113063495Y-121000315D01*
X113045516Y-121012328D01*
X112989629Y-121049671D01*
X112989628Y-121049672D01*
X112989627Y-121049672D01*
X112907552Y-121083669D01*
X112820421Y-121101000D01*
X112731579Y-121101000D01*
X112644448Y-121083669D01*
X112562373Y-121049672D01*
X112562372Y-121049672D01*
X112562371Y-121049671D01*
X112506484Y-121012328D01*
X112488505Y-121000315D01*
X112425685Y-120937495D01*
X112376328Y-120863627D01*
X112342331Y-120781552D01*
X112325000Y-120694421D01*
X112325000Y-120605579D01*
X112342331Y-120518448D01*
X112376328Y-120436373D01*
X112383256Y-120426005D01*
X112401175Y-120399187D01*
X112425685Y-120362505D01*
X112488505Y-120299685D01*
X112544156Y-120262500D01*
X112562371Y-120250329D01*
X112562373Y-120250328D01*
X112644448Y-120216331D01*
X112731579Y-120199000D01*
X112820421Y-120199000D01*
X112907552Y-120216331D01*
X112907552Y-120216331D01*
G37*
G36*
X90244867Y-120184852D02*
G01*
X90320863Y-120216331D01*
X90326944Y-120218850D01*
X90363835Y-120243500D01*
X90400810Y-120268206D01*
X90463630Y-120331026D01*
X90512987Y-120404894D01*
X90546984Y-120486969D01*
X90564315Y-120574100D01*
X90564315Y-120662942D01*
X90546984Y-120750073D01*
X90521905Y-120810618D01*
X90512986Y-120832150D01*
X90504657Y-120844615D01*
X90463630Y-120906016D01*
X90400810Y-120968836D01*
X90386598Y-120978332D01*
X90326944Y-121018192D01*
X90326943Y-121018193D01*
X90326942Y-121018193D01*
X90244867Y-121052190D01*
X90157736Y-121069521D01*
X90068894Y-121069521D01*
X89981763Y-121052190D01*
X89899688Y-121018193D01*
X89899687Y-121018193D01*
X89899686Y-121018192D01*
X89840032Y-120978332D01*
X89825820Y-120968836D01*
X89763000Y-120906016D01*
X89721973Y-120844615D01*
X89713644Y-120832150D01*
X89704725Y-120810618D01*
X89679646Y-120750073D01*
X89662315Y-120662942D01*
X89662315Y-120574100D01*
X89679646Y-120486969D01*
X89713643Y-120404894D01*
X89763000Y-120331026D01*
X89825820Y-120268206D01*
X89862795Y-120243500D01*
X89899686Y-120218850D01*
X89905767Y-120216331D01*
X89981763Y-120184852D01*
X90068894Y-120167521D01*
X90157736Y-120167521D01*
X90244867Y-120184852D01*
X90244867Y-120184852D01*
G37*
G36*
X96461052Y-120184852D02*
G01*
X96537048Y-120216331D01*
X96543129Y-120218850D01*
X96580020Y-120243500D01*
X96616995Y-120268206D01*
X96679815Y-120331026D01*
X96729172Y-120404894D01*
X96763169Y-120486969D01*
X96780500Y-120574100D01*
X96780500Y-120662942D01*
X96763169Y-120750073D01*
X96738090Y-120810618D01*
X96729171Y-120832150D01*
X96720842Y-120844615D01*
X96679815Y-120906016D01*
X96616995Y-120968836D01*
X96602783Y-120978332D01*
X96543129Y-121018192D01*
X96543128Y-121018193D01*
X96543127Y-121018193D01*
X96461052Y-121052190D01*
X96373921Y-121069521D01*
X96285079Y-121069521D01*
X96197948Y-121052190D01*
X96115873Y-121018193D01*
X96115872Y-121018193D01*
X96115871Y-121018192D01*
X96056217Y-120978332D01*
X96042005Y-120968836D01*
X95979185Y-120906016D01*
X95938158Y-120844615D01*
X95929829Y-120832150D01*
X95920910Y-120810618D01*
X95895831Y-120750073D01*
X95880597Y-120673484D01*
X95873484Y-120650035D01*
X95861933Y-120628425D01*
X95853805Y-120618521D01*
X95861933Y-120608618D01*
X95873484Y-120587008D01*
X95880597Y-120563558D01*
X95895831Y-120486969D01*
X95929828Y-120404894D01*
X95979185Y-120331026D01*
X96042005Y-120268206D01*
X96078980Y-120243500D01*
X96115871Y-120218850D01*
X96121952Y-120216331D01*
X96197948Y-120184852D01*
X96285079Y-120167521D01*
X96373921Y-120167521D01*
X96461052Y-120184852D01*
X96461052Y-120184852D01*
G37*
G36*
X95318052Y-120184852D02*
G01*
X95394048Y-120216331D01*
X95400129Y-120218850D01*
X95437020Y-120243500D01*
X95473995Y-120268206D01*
X95536815Y-120331026D01*
X95586172Y-120404894D01*
X95620169Y-120486969D01*
X95635403Y-120563558D01*
X95642516Y-120587007D01*
X95654067Y-120608617D01*
X95662195Y-120618521D01*
X95654067Y-120628424D01*
X95642516Y-120650034D01*
X95635403Y-120673484D01*
X95620169Y-120750073D01*
X95595090Y-120810618D01*
X95586171Y-120832150D01*
X95577842Y-120844615D01*
X95536815Y-120906016D01*
X95473995Y-120968836D01*
X95459783Y-120978332D01*
X95400129Y-121018192D01*
X95400128Y-121018193D01*
X95400127Y-121018193D01*
X95318052Y-121052190D01*
X95230921Y-121069521D01*
X95142079Y-121069521D01*
X95054948Y-121052190D01*
X94972873Y-121018193D01*
X94972872Y-121018193D01*
X94972871Y-121018192D01*
X94913217Y-120978332D01*
X94899005Y-120968836D01*
X94836185Y-120906016D01*
X94795158Y-120844615D01*
X94786829Y-120832150D01*
X94777910Y-120810618D01*
X94752831Y-120750073D01*
X94735500Y-120662942D01*
X94735500Y-120574100D01*
X94752831Y-120486969D01*
X94786828Y-120404894D01*
X94836185Y-120331026D01*
X94899005Y-120268206D01*
X94935980Y-120243500D01*
X94972871Y-120218850D01*
X94978952Y-120216331D01*
X95054948Y-120184852D01*
X95142079Y-120167521D01*
X95230921Y-120167521D01*
X95318052Y-120184852D01*
X95318052Y-120184852D01*
G37*
G36*
X69918052Y-118184331D02*
G01*
X70000127Y-118218328D01*
X70000129Y-118218329D01*
X70037313Y-118243175D01*
X70073995Y-118267685D01*
X70136815Y-118330505D01*
X70186172Y-118404373D01*
X70220169Y-118486448D01*
X70237500Y-118573579D01*
X70237500Y-118662421D01*
X70220169Y-118749552D01*
X70186172Y-118831627D01*
X70186171Y-118831629D01*
X70136814Y-118905496D01*
X70073996Y-118968314D01*
X70000129Y-119017671D01*
X70000128Y-119017672D01*
X70000127Y-119017672D01*
X69918055Y-119051668D01*
X69901627Y-119054935D01*
X69890366Y-119057175D01*
X69866921Y-119064287D01*
X69845310Y-119075838D01*
X69826368Y-119091383D01*
X69810822Y-119110325D01*
X69799271Y-119131935D01*
X69792157Y-119155384D01*
X69789755Y-119179770D01*
X69792156Y-119204156D01*
X69799269Y-119227605D01*
X69810820Y-119249216D01*
X69826365Y-119268158D01*
X69845307Y-119283704D01*
X69866916Y-119295255D01*
X69873127Y-119297828D01*
X69873129Y-119297829D01*
X69910313Y-119322675D01*
X69946995Y-119347185D01*
X70009815Y-119410005D01*
X70034325Y-119446687D01*
X70054122Y-119476314D01*
X70059172Y-119483873D01*
X70093169Y-119565948D01*
X70110500Y-119653079D01*
X70110500Y-119741921D01*
X70093169Y-119829052D01*
X70059172Y-119911127D01*
X70026105Y-119960616D01*
X70009814Y-119984996D01*
X69946996Y-120047814D01*
X69873129Y-120097171D01*
X69873128Y-120097172D01*
X69873127Y-120097172D01*
X69791052Y-120131169D01*
X69703921Y-120148500D01*
X69615079Y-120148500D01*
X69527948Y-120131169D01*
X69445870Y-120097171D01*
X69437730Y-120091732D01*
X69416120Y-120080181D01*
X69392671Y-120073068D01*
X69368284Y-120070666D01*
X69343898Y-120073068D01*
X69320449Y-120080181D01*
X69298839Y-120091732D01*
X69279897Y-120107278D01*
X69264352Y-120126220D01*
X69252801Y-120147830D01*
X69245688Y-120171279D01*
X69243286Y-120195666D01*
X69245688Y-120220052D01*
X69252801Y-120243500D01*
X69267669Y-120279394D01*
X69285000Y-120366525D01*
X69285000Y-120455367D01*
X69267669Y-120542498D01*
X69233672Y-120624573D01*
X69187002Y-120694420D01*
X69184314Y-120698442D01*
X69121496Y-120761260D01*
X69047629Y-120810617D01*
X69047628Y-120810618D01*
X69047627Y-120810618D01*
X68965552Y-120844615D01*
X68878421Y-120861946D01*
X68789579Y-120861946D01*
X68702448Y-120844615D01*
X68620373Y-120810618D01*
X68620372Y-120810618D01*
X68620371Y-120810617D01*
X68546504Y-120761260D01*
X68483686Y-120698442D01*
X68480999Y-120694420D01*
X68434328Y-120624573D01*
X68400331Y-120542498D01*
X68383000Y-120455367D01*
X68383000Y-120366525D01*
X68400331Y-120279394D01*
X68434328Y-120197319D01*
X68442658Y-120184853D01*
X68466948Y-120148500D01*
X68483685Y-120123451D01*
X68546505Y-120060631D01*
X68612231Y-120016714D01*
X68620371Y-120011275D01*
X68620373Y-120011274D01*
X68702448Y-119977277D01*
X68789579Y-119959946D01*
X68878421Y-119959946D01*
X68965552Y-119977277D01*
X69047630Y-120011275D01*
X69055770Y-120016714D01*
X69077380Y-120028265D01*
X69100829Y-120035378D01*
X69125216Y-120037780D01*
X69149602Y-120035378D01*
X69173051Y-120028265D01*
X69194661Y-120016714D01*
X69213603Y-120001168D01*
X69229148Y-119982226D01*
X69240699Y-119960616D01*
X69247812Y-119937167D01*
X69250214Y-119912780D01*
X69247812Y-119888394D01*
X69240699Y-119864946D01*
X69225831Y-119829052D01*
X69208500Y-119741921D01*
X69208500Y-119653079D01*
X69225831Y-119565948D01*
X69259828Y-119483873D01*
X69264879Y-119476314D01*
X69284675Y-119446687D01*
X69309185Y-119410005D01*
X69372005Y-119347185D01*
X69408687Y-119322675D01*
X69445871Y-119297829D01*
X69452085Y-119295255D01*
X69527945Y-119263832D01*
X69544373Y-119260565D01*
X69555634Y-119258325D01*
X69579079Y-119251213D01*
X69600690Y-119239662D01*
X69619632Y-119224117D01*
X69635178Y-119205175D01*
X69646729Y-119183565D01*
X69653843Y-119160116D01*
X69656245Y-119135730D01*
X69653844Y-119111344D01*
X69646731Y-119087895D01*
X69635180Y-119066284D01*
X69619635Y-119047342D01*
X69600693Y-119031796D01*
X69579084Y-119020245D01*
X69572873Y-119017672D01*
X69572872Y-119017672D01*
X69572871Y-119017671D01*
X69499004Y-118968314D01*
X69436186Y-118905496D01*
X69386829Y-118831629D01*
X69386828Y-118831627D01*
X69352831Y-118749552D01*
X69335500Y-118662421D01*
X69335500Y-118573579D01*
X69352831Y-118486448D01*
X69386828Y-118404373D01*
X69436185Y-118330505D01*
X69499005Y-118267685D01*
X69535687Y-118243175D01*
X69572871Y-118218329D01*
X69572873Y-118218328D01*
X69654948Y-118184331D01*
X69742079Y-118167000D01*
X69830921Y-118167000D01*
X69918052Y-118184331D01*
X69918052Y-118184331D01*
G37*
G36*
X58876500Y-120818000D02*
G01*
X57774500Y-120818000D01*
X57774500Y-119466000D01*
X58876500Y-119466000D01*
X58876500Y-120818000D01*
X58876500Y-120818000D01*
G37*
G36*
X56876500Y-120818000D02*
G01*
X55774500Y-120818000D01*
X55774500Y-119466000D01*
X56876500Y-119466000D01*
X56876500Y-120818000D01*
X56876500Y-120818000D01*
G37*
G36*
X61019000Y-120564000D02*
G01*
X59917000Y-120564000D01*
X59917000Y-119212000D01*
X61019000Y-119212000D01*
X61019000Y-120564000D01*
X61019000Y-120564000D01*
G37*
G36*
X63019000Y-120564000D02*
G01*
X61917000Y-120564000D01*
X61917000Y-119212000D01*
X63019000Y-119212000D01*
X63019000Y-120564000D01*
X63019000Y-120564000D01*
G37*
G36*
X96905552Y-118692331D02*
G01*
X96987627Y-118726328D01*
X96987629Y-118726329D01*
X97061496Y-118775686D01*
X97124314Y-118838504D01*
X97169077Y-118905495D01*
X97173672Y-118912373D01*
X97207669Y-118994448D01*
X97225000Y-119081579D01*
X97225000Y-119170421D01*
X97207669Y-119257552D01*
X97173672Y-119339627D01*
X97173671Y-119339629D01*
X97148825Y-119376813D01*
X97124315Y-119413495D01*
X97061495Y-119476315D01*
X97024813Y-119500825D01*
X96987629Y-119525671D01*
X96987628Y-119525672D01*
X96987627Y-119525672D01*
X96905552Y-119559669D01*
X96818421Y-119577000D01*
X96729579Y-119577000D01*
X96642448Y-119559669D01*
X96560373Y-119525672D01*
X96560372Y-119525672D01*
X96560371Y-119525671D01*
X96523187Y-119500825D01*
X96486505Y-119476315D01*
X96423685Y-119413495D01*
X96399175Y-119376813D01*
X96374329Y-119339629D01*
X96374328Y-119339627D01*
X96340331Y-119257552D01*
X96323000Y-119170421D01*
X96323000Y-119081579D01*
X96340331Y-118994448D01*
X96374328Y-118912373D01*
X96378924Y-118905495D01*
X96423686Y-118838504D01*
X96486504Y-118775686D01*
X96560371Y-118726329D01*
X96560373Y-118726328D01*
X96642448Y-118692331D01*
X96729579Y-118675000D01*
X96818421Y-118675000D01*
X96905552Y-118692331D01*
X96905552Y-118692331D01*
G37*
G36*
X50460000Y-119185000D02*
G01*
X49108000Y-119185000D01*
X49108000Y-118083000D01*
X50460000Y-118083000D01*
X50460000Y-119185000D01*
X50460000Y-119185000D01*
G37*
G36*
X76395880Y-114427776D02*
G01*
X76776593Y-114503504D01*
X77186249Y-114673189D01*
X77554929Y-114919534D01*
X77868466Y-115233071D01*
X78114811Y-115601751D01*
X78284496Y-116011407D01*
X78371000Y-116446296D01*
X78371000Y-116889704D01*
X78284496Y-117324593D01*
X78114811Y-117734249D01*
X77868466Y-118102929D01*
X77554929Y-118416466D01*
X77186249Y-118662811D01*
X76776593Y-118832496D01*
X76409599Y-118905495D01*
X76341705Y-118919000D01*
X75898295Y-118919000D01*
X75830401Y-118905495D01*
X75463407Y-118832496D01*
X75053751Y-118662811D01*
X74685071Y-118416466D01*
X74371534Y-118102929D01*
X74125189Y-117734249D01*
X73955504Y-117324593D01*
X73869000Y-116889704D01*
X73869000Y-116446296D01*
X73955504Y-116011407D01*
X74125189Y-115601751D01*
X74371534Y-115233071D01*
X74685071Y-114919534D01*
X75053751Y-114673189D01*
X75463407Y-114503504D01*
X75844120Y-114427776D01*
X75898295Y-114417000D01*
X76341705Y-114417000D01*
X76395880Y-114427776D01*
X76395880Y-114427776D01*
G37*
G36*
X102105880Y-114427776D02*
G01*
X102486593Y-114503504D01*
X102896249Y-114673189D01*
X103264929Y-114919534D01*
X103578466Y-115233071D01*
X103824811Y-115601751D01*
X103994496Y-116011407D01*
X104081000Y-116446296D01*
X104081000Y-116889704D01*
X103994496Y-117324593D01*
X103824811Y-117734249D01*
X103578466Y-118102929D01*
X103264929Y-118416466D01*
X102896249Y-118662811D01*
X102486593Y-118832496D01*
X102119599Y-118905495D01*
X102051705Y-118919000D01*
X101608295Y-118919000D01*
X101540401Y-118905495D01*
X101173407Y-118832496D01*
X100763751Y-118662811D01*
X100395071Y-118416466D01*
X100081534Y-118102929D01*
X99835189Y-117734249D01*
X99665504Y-117324593D01*
X99579000Y-116889704D01*
X99579000Y-116446296D01*
X99665504Y-116011407D01*
X99835189Y-115601751D01*
X100081534Y-115233071D01*
X100395071Y-114919534D01*
X100763751Y-114673189D01*
X101173407Y-114503504D01*
X101554120Y-114427776D01*
X101608295Y-114417000D01*
X102051705Y-114417000D01*
X102105880Y-114427776D01*
X102105880Y-114427776D01*
G37*
G36*
X62869552Y-116406331D02*
G01*
X62951627Y-116440328D01*
X62951629Y-116440329D01*
X62960559Y-116446296D01*
X63025495Y-116489685D01*
X63088315Y-116552505D01*
X63137672Y-116626373D01*
X63171669Y-116708448D01*
X63189000Y-116795579D01*
X63189000Y-116884421D01*
X63171669Y-116971552D01*
X63137672Y-117053627D01*
X63092905Y-117120626D01*
X63088314Y-117127496D01*
X63025496Y-117190314D01*
X62951629Y-117239671D01*
X62951628Y-117239672D01*
X62951627Y-117239672D01*
X62869552Y-117273669D01*
X62822385Y-117283051D01*
X62798937Y-117290164D01*
X62777326Y-117301715D01*
X62758384Y-117317261D01*
X62742839Y-117336203D01*
X62731288Y-117357813D01*
X62724175Y-117381262D01*
X62721773Y-117405648D01*
X62724175Y-117430035D01*
X62731288Y-117453483D01*
X62742839Y-117475094D01*
X62758385Y-117494036D01*
X62766534Y-117500724D01*
X62834315Y-117568505D01*
X62883672Y-117642373D01*
X62917669Y-117724448D01*
X62935000Y-117811579D01*
X62935000Y-117900421D01*
X62917669Y-117987552D01*
X62883672Y-118069627D01*
X62883671Y-118069629D01*
X62834314Y-118143496D01*
X62771496Y-118206314D01*
X62697629Y-118255671D01*
X62697628Y-118255672D01*
X62697627Y-118255672D01*
X62615552Y-118289669D01*
X62528421Y-118307000D01*
X62439579Y-118307000D01*
X62352448Y-118289669D01*
X62270373Y-118255672D01*
X62270372Y-118255672D01*
X62270371Y-118255671D01*
X62196504Y-118206314D01*
X62133686Y-118143496D01*
X62097932Y-118089987D01*
X62082387Y-118071045D01*
X62063445Y-118055500D01*
X62041834Y-118043949D01*
X62018385Y-118036836D01*
X61993999Y-118034434D01*
X61969613Y-118036836D01*
X61946164Y-118043949D01*
X61924553Y-118055500D01*
X61905611Y-118071045D01*
X61890066Y-118089987D01*
X61878515Y-118111598D01*
X61871402Y-118135047D01*
X61869000Y-118159433D01*
X61869000Y-118557000D01*
X61067000Y-118557000D01*
X61067000Y-117155000D01*
X61869000Y-117155000D01*
X61869000Y-117552567D01*
X61871402Y-117576953D01*
X61878515Y-117600402D01*
X61890066Y-117622013D01*
X61905611Y-117640955D01*
X61924553Y-117656500D01*
X61946164Y-117668051D01*
X61969613Y-117675164D01*
X61993999Y-117677566D01*
X62018385Y-117675164D01*
X62041834Y-117668051D01*
X62063445Y-117656500D01*
X62082387Y-117640955D01*
X62097932Y-117622013D01*
X62133685Y-117568505D01*
X62196505Y-117505685D01*
X62249241Y-117470448D01*
X62270371Y-117456329D01*
X62270373Y-117456328D01*
X62352448Y-117422331D01*
X62399615Y-117412949D01*
X62423063Y-117405836D01*
X62444674Y-117394285D01*
X62463616Y-117378739D01*
X62479161Y-117359797D01*
X62490712Y-117338187D01*
X62497825Y-117314738D01*
X62500227Y-117290352D01*
X62497825Y-117265965D01*
X62490712Y-117242517D01*
X62479161Y-117220906D01*
X62463615Y-117201964D01*
X62455466Y-117195276D01*
X62387685Y-117127495D01*
X62338328Y-117053627D01*
X62304331Y-116971552D01*
X62287000Y-116884421D01*
X62287000Y-116795579D01*
X62304331Y-116708448D01*
X62338328Y-116626373D01*
X62387685Y-116552505D01*
X62450505Y-116489685D01*
X62515441Y-116446296D01*
X62524371Y-116440329D01*
X62524373Y-116440328D01*
X62606448Y-116406331D01*
X62693579Y-116389000D01*
X62782421Y-116389000D01*
X62869552Y-116406331D01*
X62869552Y-116406331D01*
G37*
G36*
X59969000Y-118557000D02*
G01*
X59167000Y-118557000D01*
X59167000Y-117155000D01*
X59969000Y-117155000D01*
X59969000Y-118557000D01*
X59969000Y-118557000D01*
G37*
G36*
X58043552Y-117422331D02*
G01*
X58125627Y-117456328D01*
X58125629Y-117456329D01*
X58146759Y-117470448D01*
X58199495Y-117505685D01*
X58262315Y-117568505D01*
X58311672Y-117642373D01*
X58345669Y-117724448D01*
X58363000Y-117811579D01*
X58363000Y-117900421D01*
X58345669Y-117987552D01*
X58311672Y-118069627D01*
X58311671Y-118069629D01*
X58262314Y-118143496D01*
X58199496Y-118206314D01*
X58125629Y-118255671D01*
X58125628Y-118255672D01*
X58125627Y-118255672D01*
X58043552Y-118289669D01*
X57956421Y-118307000D01*
X57867579Y-118307000D01*
X57780448Y-118289669D01*
X57698373Y-118255672D01*
X57698372Y-118255672D01*
X57698371Y-118255671D01*
X57624504Y-118206314D01*
X57561686Y-118143496D01*
X57512329Y-118069629D01*
X57512328Y-118069627D01*
X57478331Y-117987552D01*
X57461000Y-117900421D01*
X57461000Y-117811579D01*
X57478331Y-117724448D01*
X57512328Y-117642373D01*
X57561685Y-117568505D01*
X57624505Y-117505685D01*
X57677241Y-117470448D01*
X57698371Y-117456329D01*
X57698373Y-117456328D01*
X57780448Y-117422331D01*
X57867579Y-117405000D01*
X57956421Y-117405000D01*
X58043552Y-117422331D01*
X58043552Y-117422331D01*
G37*
G36*
X111924000Y-118274000D02*
G01*
X110072000Y-118274000D01*
X110072000Y-116422000D01*
X111924000Y-116422000D01*
X111924000Y-118274000D01*
X111924000Y-118274000D01*
G37*
G36*
X64901552Y-117168331D02*
G01*
X64982748Y-117201964D01*
X64983629Y-117202329D01*
X65011431Y-117220906D01*
X65057495Y-117251685D01*
X65120315Y-117314505D01*
X65134813Y-117336203D01*
X65153093Y-117363560D01*
X65169672Y-117388373D01*
X65203669Y-117470448D01*
X65221000Y-117557579D01*
X65221000Y-117646421D01*
X65203669Y-117733552D01*
X65171349Y-117811579D01*
X65169671Y-117815629D01*
X65120314Y-117889496D01*
X65057496Y-117952314D01*
X64983629Y-118001671D01*
X64983628Y-118001672D01*
X64983627Y-118001672D01*
X64901552Y-118035669D01*
X64814421Y-118053000D01*
X64725579Y-118053000D01*
X64638448Y-118035669D01*
X64556373Y-118001672D01*
X64556372Y-118001672D01*
X64556371Y-118001671D01*
X64482504Y-117952314D01*
X64419686Y-117889496D01*
X64370329Y-117815629D01*
X64368651Y-117811579D01*
X64336331Y-117733552D01*
X64319000Y-117646421D01*
X64319000Y-117557579D01*
X64336331Y-117470448D01*
X64370328Y-117388373D01*
X64386908Y-117363560D01*
X64405187Y-117336203D01*
X64419685Y-117314505D01*
X64482505Y-117251685D01*
X64528569Y-117220906D01*
X64556371Y-117202329D01*
X64557252Y-117201964D01*
X64638448Y-117168331D01*
X64725579Y-117151000D01*
X64814421Y-117151000D01*
X64901552Y-117168331D01*
X64901552Y-117168331D01*
G37*
G36*
X50017809Y-115970174D02*
G01*
X50163686Y-116030598D01*
X50294971Y-116118320D01*
X50406620Y-116229969D01*
X50494342Y-116361254D01*
X50554766Y-116507131D01*
X50585570Y-116661991D01*
X50585570Y-116819889D01*
X50571683Y-116889704D01*
X50554766Y-116974749D01*
X50494342Y-117120626D01*
X50406620Y-117251911D01*
X50294971Y-117363560D01*
X50163686Y-117451282D01*
X50163685Y-117451283D01*
X50163684Y-117451283D01*
X50120957Y-117468981D01*
X50017809Y-117511706D01*
X49940378Y-117527108D01*
X49862949Y-117542510D01*
X49705051Y-117542510D01*
X49627622Y-117527108D01*
X49550191Y-117511706D01*
X49447043Y-117468981D01*
X49404316Y-117451283D01*
X49404315Y-117451283D01*
X49404314Y-117451282D01*
X49273029Y-117363560D01*
X49161380Y-117251911D01*
X49073658Y-117120626D01*
X49013234Y-116974749D01*
X48996317Y-116889704D01*
X48982430Y-116819889D01*
X48982430Y-116661991D01*
X48997832Y-116584562D01*
X49013234Y-116507131D01*
X49073658Y-116361254D01*
X49161380Y-116229969D01*
X49273029Y-116118320D01*
X49404314Y-116030598D01*
X49550191Y-115970174D01*
X49705051Y-115939370D01*
X49862949Y-115939370D01*
X50017809Y-115970174D01*
X50017809Y-115970174D01*
G37*
G36*
X59969000Y-116525000D02*
G01*
X59167000Y-116525000D01*
X59167000Y-115123000D01*
X59969000Y-115123000D01*
X59969000Y-116525000D01*
X59969000Y-116525000D01*
G37*
G36*
X61869000Y-116525000D02*
G01*
X61067000Y-116525000D01*
X61067000Y-115123000D01*
X61869000Y-115123000D01*
X61869000Y-116525000D01*
X61869000Y-116525000D01*
G37*
G36*
X67224000Y-116359000D02*
G01*
X65872000Y-116359000D01*
X65872000Y-115257000D01*
X67224000Y-115257000D01*
X67224000Y-116359000D01*
X67224000Y-116359000D01*
G37*
G36*
X82491052Y-115072831D02*
G01*
X82573127Y-115106828D01*
X82573129Y-115106829D01*
X82590003Y-115118104D01*
X82646995Y-115156185D01*
X82709815Y-115219005D01*
X82734325Y-115255687D01*
X82754998Y-115286625D01*
X82759172Y-115292873D01*
X82793169Y-115374948D01*
X82810500Y-115462079D01*
X82810500Y-115550921D01*
X82793169Y-115638052D01*
X82761018Y-115715671D01*
X82759171Y-115720129D01*
X82709814Y-115793996D01*
X82646996Y-115856814D01*
X82573129Y-115906171D01*
X82573128Y-115906172D01*
X82573127Y-115906172D01*
X82491052Y-115940169D01*
X82403921Y-115957500D01*
X82315079Y-115957500D01*
X82227948Y-115940169D01*
X82145873Y-115906172D01*
X82145872Y-115906172D01*
X82145871Y-115906171D01*
X82072004Y-115856814D01*
X82009186Y-115793996D01*
X81959829Y-115720129D01*
X81957982Y-115715671D01*
X81925831Y-115638052D01*
X81908500Y-115550921D01*
X81908500Y-115462079D01*
X81925831Y-115374948D01*
X81959828Y-115292873D01*
X81964003Y-115286625D01*
X81984675Y-115255687D01*
X82009185Y-115219005D01*
X82072005Y-115156185D01*
X82128997Y-115118104D01*
X82145871Y-115106829D01*
X82145873Y-115106828D01*
X82227948Y-115072831D01*
X82315079Y-115055500D01*
X82403921Y-115055500D01*
X82491052Y-115072831D01*
X82491052Y-115072831D01*
G37*
G36*
X111268104Y-113957585D02*
G01*
X111436626Y-114027389D01*
X111588291Y-114128728D01*
X111717272Y-114257709D01*
X111818611Y-114409374D01*
X111888415Y-114577896D01*
X111924000Y-114756797D01*
X111924000Y-114939203D01*
X111888415Y-115118104D01*
X111818611Y-115286626D01*
X111717272Y-115438291D01*
X111588291Y-115567272D01*
X111436626Y-115668611D01*
X111268104Y-115738415D01*
X111089203Y-115774000D01*
X110906797Y-115774000D01*
X110727896Y-115738415D01*
X110559374Y-115668611D01*
X110407709Y-115567272D01*
X110278728Y-115438291D01*
X110177389Y-115286626D01*
X110107585Y-115118104D01*
X110072000Y-114939203D01*
X110072000Y-114756797D01*
X110107585Y-114577896D01*
X110177389Y-114409374D01*
X110278728Y-114257709D01*
X110407709Y-114128728D01*
X110559374Y-114027389D01*
X110727896Y-113957585D01*
X110906797Y-113922000D01*
X111089203Y-113922000D01*
X111268104Y-113957585D01*
X111268104Y-113957585D01*
G37*
G36*
X68711552Y-114882331D02*
G01*
X68793627Y-114916328D01*
X68793629Y-114916329D01*
X68867496Y-114965686D01*
X68930314Y-115028504D01*
X68975077Y-115095495D01*
X68979672Y-115102373D01*
X69013669Y-115184448D01*
X69031000Y-115271579D01*
X69031000Y-115360421D01*
X69013669Y-115447552D01*
X68979672Y-115529627D01*
X68979671Y-115529629D01*
X68965444Y-115550921D01*
X68930315Y-115603495D01*
X68867495Y-115666315D01*
X68830813Y-115690825D01*
X68793629Y-115715671D01*
X68793628Y-115715672D01*
X68793627Y-115715672D01*
X68711552Y-115749669D01*
X68624421Y-115767000D01*
X68535579Y-115767000D01*
X68448448Y-115749669D01*
X68366373Y-115715672D01*
X68366372Y-115715672D01*
X68366371Y-115715671D01*
X68329187Y-115690825D01*
X68292505Y-115666315D01*
X68229685Y-115603495D01*
X68194556Y-115550921D01*
X68180329Y-115529629D01*
X68180328Y-115529627D01*
X68146331Y-115447552D01*
X68129000Y-115360421D01*
X68129000Y-115271579D01*
X68146331Y-115184448D01*
X68180328Y-115102373D01*
X68184924Y-115095495D01*
X68229686Y-115028504D01*
X68292504Y-114965686D01*
X68366371Y-114916329D01*
X68366373Y-114916328D01*
X68448448Y-114882331D01*
X68535579Y-114865000D01*
X68624421Y-114865000D01*
X68711552Y-114882331D01*
X68711552Y-114882331D01*
G37*
G36*
X89539552Y-114882331D02*
G01*
X89621627Y-114916328D01*
X89621629Y-114916329D01*
X89695496Y-114965686D01*
X89758314Y-115028504D01*
X89803077Y-115095495D01*
X89807672Y-115102373D01*
X89841669Y-115184448D01*
X89859000Y-115271579D01*
X89859000Y-115360421D01*
X89841669Y-115447552D01*
X89807672Y-115529627D01*
X89807671Y-115529629D01*
X89793444Y-115550921D01*
X89758315Y-115603495D01*
X89695495Y-115666315D01*
X89658813Y-115690825D01*
X89621629Y-115715671D01*
X89621628Y-115715672D01*
X89621627Y-115715672D01*
X89539552Y-115749669D01*
X89452421Y-115767000D01*
X89363579Y-115767000D01*
X89276448Y-115749669D01*
X89194373Y-115715672D01*
X89194372Y-115715672D01*
X89194371Y-115715671D01*
X89157187Y-115690825D01*
X89120505Y-115666315D01*
X89057685Y-115603495D01*
X89022556Y-115550921D01*
X89008329Y-115529629D01*
X89008328Y-115529627D01*
X88974331Y-115447552D01*
X88957000Y-115360421D01*
X88957000Y-115271579D01*
X88974331Y-115184448D01*
X89008328Y-115102373D01*
X89012924Y-115095495D01*
X89057686Y-115028504D01*
X89120504Y-114965686D01*
X89194371Y-114916329D01*
X89194373Y-114916328D01*
X89276448Y-114882331D01*
X89363579Y-114865000D01*
X89452421Y-114865000D01*
X89539552Y-114882331D01*
X89539552Y-114882331D01*
G37*
G36*
X56048000Y-115343000D02*
G01*
X54696000Y-115343000D01*
X54696000Y-114241000D01*
X56048000Y-114241000D01*
X56048000Y-115343000D01*
X56048000Y-115343000D01*
G37*
G36*
X64176000Y-115343000D02*
G01*
X62824000Y-115343000D01*
X62824000Y-114241000D01*
X64176000Y-114241000D01*
X64176000Y-115343000D01*
X64176000Y-115343000D01*
G37*
G36*
X57027552Y-114374331D02*
G01*
X57109627Y-114408328D01*
X57109629Y-114408329D01*
X57111194Y-114409375D01*
X57183495Y-114457685D01*
X57246315Y-114520505D01*
X57270825Y-114557187D01*
X57291077Y-114587495D01*
X57295672Y-114594373D01*
X57329669Y-114676448D01*
X57347000Y-114763579D01*
X57347000Y-114852421D01*
X57329669Y-114939552D01*
X57295672Y-115021627D01*
X57295671Y-115021629D01*
X57273039Y-115055500D01*
X57261459Y-115072831D01*
X57246314Y-115095496D01*
X57183496Y-115158314D01*
X57109629Y-115207671D01*
X57109628Y-115207672D01*
X57109627Y-115207672D01*
X57027552Y-115241669D01*
X56940421Y-115259000D01*
X56851579Y-115259000D01*
X56764448Y-115241669D01*
X56682373Y-115207672D01*
X56682372Y-115207672D01*
X56682371Y-115207671D01*
X56608504Y-115158314D01*
X56545686Y-115095496D01*
X56530542Y-115072831D01*
X56518961Y-115055500D01*
X56496329Y-115021629D01*
X56496328Y-115021627D01*
X56462331Y-114939552D01*
X56445000Y-114852421D01*
X56445000Y-114763579D01*
X56462331Y-114676448D01*
X56496328Y-114594373D01*
X56500924Y-114587495D01*
X56521175Y-114557187D01*
X56545685Y-114520505D01*
X56608505Y-114457685D01*
X56680806Y-114409375D01*
X56682371Y-114408329D01*
X56682373Y-114408328D01*
X56764448Y-114374331D01*
X56851579Y-114357000D01*
X56940421Y-114357000D01*
X57027552Y-114374331D01*
X57027552Y-114374331D01*
G37*
G36*
X65155552Y-112850331D02*
G01*
X65237627Y-112884328D01*
X65237629Y-112884329D01*
X65311496Y-112933686D01*
X65374314Y-112996504D01*
X65421600Y-113067271D01*
X65423672Y-113070373D01*
X65457669Y-113152448D01*
X65475000Y-113239579D01*
X65475000Y-113328421D01*
X65457669Y-113415552D01*
X65432216Y-113477000D01*
X65423671Y-113497629D01*
X65398825Y-113534813D01*
X65374315Y-113571495D01*
X65311494Y-113634316D01*
X65231050Y-113688067D01*
X65212108Y-113703613D01*
X65196563Y-113722554D01*
X65185012Y-113744165D01*
X65177899Y-113767614D01*
X65175497Y-113792000D01*
X65177899Y-113816386D01*
X65185012Y-113839835D01*
X65196563Y-113861446D01*
X65212109Y-113880388D01*
X65231050Y-113895933D01*
X65311494Y-113949684D01*
X65374314Y-114012504D01*
X65419077Y-114079495D01*
X65423672Y-114086373D01*
X65457669Y-114168448D01*
X65475000Y-114255579D01*
X65475000Y-114344421D01*
X65457669Y-114431552D01*
X65423672Y-114513627D01*
X65423671Y-114513629D01*
X65374314Y-114587496D01*
X65311496Y-114650314D01*
X65237629Y-114699671D01*
X65237628Y-114699672D01*
X65237627Y-114699672D01*
X65155552Y-114733669D01*
X65068421Y-114751000D01*
X64979579Y-114751000D01*
X64892448Y-114733669D01*
X64810373Y-114699672D01*
X64810372Y-114699672D01*
X64810371Y-114699671D01*
X64736504Y-114650314D01*
X64673686Y-114587496D01*
X64624329Y-114513629D01*
X64624328Y-114513627D01*
X64590331Y-114431552D01*
X64573000Y-114344421D01*
X64573000Y-114255579D01*
X64590331Y-114168448D01*
X64624328Y-114086373D01*
X64628924Y-114079495D01*
X64673686Y-114012504D01*
X64736506Y-113949684D01*
X64816950Y-113895933D01*
X64835892Y-113880387D01*
X64851437Y-113861446D01*
X64862988Y-113839835D01*
X64870101Y-113816386D01*
X64872503Y-113792000D01*
X64870101Y-113767614D01*
X64862988Y-113744165D01*
X64851437Y-113722554D01*
X64835891Y-113703612D01*
X64816950Y-113688067D01*
X64736506Y-113634316D01*
X64673685Y-113571495D01*
X64649175Y-113534813D01*
X64624329Y-113497629D01*
X64615784Y-113477000D01*
X64590331Y-113415552D01*
X64573000Y-113328421D01*
X64573000Y-113239579D01*
X64590331Y-113152448D01*
X64624328Y-113070373D01*
X64626401Y-113067271D01*
X64673686Y-112996504D01*
X64736504Y-112933686D01*
X64810371Y-112884329D01*
X64810373Y-112884328D01*
X64892448Y-112850331D01*
X64979579Y-112833000D01*
X65068421Y-112833000D01*
X65155552Y-112850331D01*
X65155552Y-112850331D01*
G37*
G36*
X61726552Y-113739331D02*
G01*
X61794832Y-113767614D01*
X61808629Y-113773329D01*
X61882496Y-113822686D01*
X61945314Y-113885504D01*
X61993478Y-113957585D01*
X61994672Y-113959373D01*
X62028669Y-114041448D01*
X62046000Y-114128579D01*
X62046000Y-114217421D01*
X62028669Y-114304552D01*
X61994672Y-114386627D01*
X61947193Y-114457685D01*
X61945314Y-114460496D01*
X61882496Y-114523314D01*
X61808629Y-114572671D01*
X61808628Y-114572672D01*
X61808627Y-114572672D01*
X61726552Y-114606669D01*
X61639421Y-114624000D01*
X61550579Y-114624000D01*
X61463448Y-114606669D01*
X61381373Y-114572672D01*
X61381372Y-114572672D01*
X61381371Y-114572671D01*
X61307504Y-114523314D01*
X61244686Y-114460496D01*
X61242808Y-114457685D01*
X61195328Y-114386627D01*
X61161331Y-114304552D01*
X61144000Y-114217421D01*
X61144000Y-114128579D01*
X61161331Y-114041448D01*
X61195328Y-113959373D01*
X61196523Y-113957585D01*
X61244686Y-113885504D01*
X61307504Y-113822686D01*
X61381371Y-113773329D01*
X61395168Y-113767614D01*
X61463448Y-113739331D01*
X61550579Y-113722000D01*
X61639421Y-113722000D01*
X61726552Y-113739331D01*
X61726552Y-113739331D01*
G37*
G36*
X67224000Y-114359000D02*
G01*
X65872000Y-114359000D01*
X65872000Y-113257000D01*
X67224000Y-113257000D01*
X67224000Y-114359000D01*
X67224000Y-114359000D01*
G37*
G36*
X68711552Y-113358331D02*
G01*
X68793627Y-113392328D01*
X68793629Y-113392329D01*
X68867496Y-113441686D01*
X68930314Y-113504504D01*
X68975077Y-113571495D01*
X68979672Y-113578373D01*
X69013669Y-113660448D01*
X69031000Y-113747579D01*
X69031000Y-113836421D01*
X69013669Y-113923552D01*
X68998831Y-113959373D01*
X68979671Y-114005629D01*
X68930314Y-114079496D01*
X68867496Y-114142314D01*
X68793629Y-114191671D01*
X68793628Y-114191672D01*
X68793627Y-114191672D01*
X68711552Y-114225669D01*
X68624421Y-114243000D01*
X68535579Y-114243000D01*
X68448448Y-114225669D01*
X68366373Y-114191672D01*
X68366372Y-114191672D01*
X68366371Y-114191671D01*
X68292504Y-114142314D01*
X68229686Y-114079496D01*
X68180329Y-114005629D01*
X68161169Y-113959373D01*
X68146331Y-113923552D01*
X68129000Y-113836421D01*
X68129000Y-113747579D01*
X68146331Y-113660448D01*
X68180328Y-113578373D01*
X68184924Y-113571495D01*
X68229686Y-113504504D01*
X68292504Y-113441686D01*
X68366371Y-113392329D01*
X68366373Y-113392328D01*
X68448448Y-113358331D01*
X68535579Y-113341000D01*
X68624421Y-113341000D01*
X68711552Y-113358331D01*
X68711552Y-113358331D01*
G37*
G36*
X57027552Y-112850331D02*
G01*
X57109627Y-112884328D01*
X57109629Y-112884329D01*
X57183496Y-112933686D01*
X57246314Y-112996504D01*
X57293600Y-113067271D01*
X57295672Y-113070373D01*
X57329669Y-113152448D01*
X57347000Y-113239579D01*
X57347000Y-113328421D01*
X57329669Y-113415552D01*
X57304216Y-113477000D01*
X57295671Y-113497629D01*
X57270825Y-113534813D01*
X57246315Y-113571495D01*
X57183495Y-113634315D01*
X57146813Y-113658825D01*
X57109629Y-113683671D01*
X57109628Y-113683672D01*
X57109627Y-113683672D01*
X57027552Y-113717669D01*
X56940421Y-113735000D01*
X56851579Y-113735000D01*
X56764448Y-113717669D01*
X56682373Y-113683672D01*
X56682372Y-113683672D01*
X56682371Y-113683671D01*
X56645187Y-113658825D01*
X56608505Y-113634315D01*
X56545685Y-113571495D01*
X56521175Y-113534813D01*
X56496329Y-113497629D01*
X56487784Y-113477000D01*
X56462331Y-113415552D01*
X56445000Y-113328421D01*
X56445000Y-113239579D01*
X56462331Y-113152448D01*
X56496328Y-113070373D01*
X56498401Y-113067271D01*
X56545686Y-112996504D01*
X56608504Y-112933686D01*
X56682371Y-112884329D01*
X56682373Y-112884328D01*
X56764448Y-112850331D01*
X56851579Y-112833000D01*
X56940421Y-112833000D01*
X57027552Y-112850331D01*
X57027552Y-112850331D01*
G37*
G36*
X58821000Y-113477000D02*
G01*
X58019000Y-113477000D01*
X58019000Y-112075000D01*
X58821000Y-112075000D01*
X58821000Y-113477000D01*
X58821000Y-113477000D01*
G37*
G36*
X60721000Y-113477000D02*
G01*
X59919000Y-113477000D01*
X59919000Y-112075000D01*
X60721000Y-112075000D01*
X60721000Y-113477000D01*
X60721000Y-113477000D01*
G37*
G36*
X64176000Y-113343000D02*
G01*
X62824000Y-113343000D01*
X62824000Y-112241000D01*
X64176000Y-112241000D01*
X64176000Y-113343000D01*
X64176000Y-113343000D01*
G37*
G36*
X56048000Y-113343000D02*
G01*
X54696000Y-113343000D01*
X54696000Y-112241000D01*
X56048000Y-112241000D01*
X56048000Y-113343000D01*
X56048000Y-113343000D01*
G37*
G36*
X111268104Y-111457585D02*
G01*
X111436626Y-111527389D01*
X111588291Y-111628728D01*
X111717272Y-111757709D01*
X111818611Y-111909374D01*
X111888415Y-112077896D01*
X111924000Y-112256797D01*
X111924000Y-112439203D01*
X111888415Y-112618104D01*
X111818611Y-112786626D01*
X111717272Y-112938291D01*
X111588291Y-113067272D01*
X111436626Y-113168611D01*
X111268104Y-113238415D01*
X111089203Y-113274000D01*
X110906797Y-113274000D01*
X110727896Y-113238415D01*
X110559374Y-113168611D01*
X110407709Y-113067272D01*
X110278728Y-112938291D01*
X110177389Y-112786626D01*
X110107585Y-112618104D01*
X110072000Y-112439203D01*
X110072000Y-112256797D01*
X110107585Y-112077896D01*
X110177389Y-111909374D01*
X110278728Y-111757709D01*
X110407709Y-111628728D01*
X110559374Y-111527389D01*
X110727896Y-111457585D01*
X110906797Y-111422000D01*
X111089203Y-111422000D01*
X111268104Y-111457585D01*
X111268104Y-111457585D01*
G37*
G36*
X49940378Y-111072892D02*
G01*
X50017809Y-111088294D01*
X50117415Y-111129552D01*
X50151502Y-111143671D01*
X50163686Y-111148718D01*
X50294971Y-111236440D01*
X50406620Y-111348089D01*
X50494342Y-111479374D01*
X50554766Y-111625251D01*
X50585570Y-111780112D01*
X50585570Y-111938008D01*
X50554766Y-112092869D01*
X50494342Y-112238746D01*
X50406620Y-112370031D01*
X50294971Y-112481680D01*
X50163686Y-112569402D01*
X50017809Y-112629826D01*
X49862949Y-112660630D01*
X49705051Y-112660630D01*
X49550191Y-112629826D01*
X49404314Y-112569402D01*
X49273029Y-112481680D01*
X49161380Y-112370031D01*
X49073658Y-112238746D01*
X49013234Y-112092869D01*
X48982430Y-111938008D01*
X48982430Y-111780112D01*
X49013234Y-111625251D01*
X49073658Y-111479374D01*
X49161380Y-111348089D01*
X49273029Y-111236440D01*
X49404314Y-111148718D01*
X49416499Y-111143671D01*
X49450585Y-111129552D01*
X49550191Y-111088294D01*
X49627622Y-111072892D01*
X49705051Y-111057490D01*
X49862949Y-111057490D01*
X49940378Y-111072892D01*
X49940378Y-111072892D01*
G37*
G36*
X57789552Y-110564331D02*
G01*
X57871627Y-110598328D01*
X57871629Y-110598329D01*
X57892759Y-110612448D01*
X57945495Y-110647685D01*
X58008315Y-110710505D01*
X58057672Y-110784373D01*
X58091669Y-110866448D01*
X58109000Y-110953579D01*
X58109000Y-111042421D01*
X58091669Y-111129552D01*
X58071738Y-111177668D01*
X58057671Y-111211629D01*
X58008314Y-111285496D01*
X57945496Y-111348314D01*
X57871629Y-111397671D01*
X57871628Y-111397672D01*
X57871627Y-111397672D01*
X57789552Y-111431669D01*
X57702421Y-111449000D01*
X57613579Y-111449000D01*
X57526448Y-111431669D01*
X57444373Y-111397672D01*
X57444372Y-111397672D01*
X57444371Y-111397671D01*
X57370504Y-111348314D01*
X57307686Y-111285496D01*
X57258329Y-111211629D01*
X57244262Y-111177668D01*
X57224331Y-111129552D01*
X57207000Y-111042421D01*
X57207000Y-110953579D01*
X57224331Y-110866448D01*
X57258328Y-110784373D01*
X57307685Y-110710505D01*
X57370505Y-110647685D01*
X57423241Y-110612448D01*
X57444371Y-110598329D01*
X57444373Y-110598328D01*
X57526448Y-110564331D01*
X57613579Y-110547000D01*
X57702421Y-110547000D01*
X57789552Y-110564331D01*
X57789552Y-110564331D01*
G37*
G36*
X64647552Y-110310331D02*
G01*
X64729627Y-110344328D01*
X64729629Y-110344329D01*
X64803496Y-110393686D01*
X64866314Y-110456504D01*
X64911077Y-110523495D01*
X64915672Y-110530373D01*
X64949669Y-110612448D01*
X64967000Y-110699579D01*
X64967000Y-110788421D01*
X64949669Y-110875552D01*
X64917349Y-110953579D01*
X64915671Y-110957629D01*
X64866314Y-111031496D01*
X64803496Y-111094314D01*
X64729629Y-111143671D01*
X64729628Y-111143672D01*
X64729627Y-111143672D01*
X64647552Y-111177669D01*
X64560421Y-111195000D01*
X64471579Y-111195000D01*
X64384448Y-111177669D01*
X64302373Y-111143672D01*
X64302372Y-111143672D01*
X64302371Y-111143671D01*
X64228504Y-111094314D01*
X64165686Y-111031496D01*
X64116329Y-110957629D01*
X64114651Y-110953579D01*
X64082331Y-110875552D01*
X64065000Y-110788421D01*
X64065000Y-110699579D01*
X64082331Y-110612448D01*
X64116328Y-110530373D01*
X64120924Y-110523495D01*
X64165686Y-110456504D01*
X64228504Y-110393686D01*
X64302371Y-110344329D01*
X64302373Y-110344328D01*
X64384448Y-110310331D01*
X64471579Y-110293000D01*
X64560421Y-110293000D01*
X64647552Y-110310331D01*
X64647552Y-110310331D01*
G37*
G36*
X59567552Y-110310331D02*
G01*
X59649627Y-110344328D01*
X59649629Y-110344329D01*
X59723496Y-110393686D01*
X59786314Y-110456504D01*
X59831077Y-110523495D01*
X59835672Y-110530373D01*
X59869669Y-110612448D01*
X59887000Y-110699579D01*
X59887000Y-110788421D01*
X59869669Y-110875552D01*
X59837349Y-110953579D01*
X59835671Y-110957629D01*
X59786314Y-111031496D01*
X59723496Y-111094314D01*
X59649629Y-111143671D01*
X59649628Y-111143672D01*
X59649627Y-111143672D01*
X59567552Y-111177669D01*
X59480421Y-111195000D01*
X59391579Y-111195000D01*
X59304448Y-111177669D01*
X59222373Y-111143672D01*
X59222372Y-111143672D01*
X59222371Y-111143671D01*
X59148504Y-111094314D01*
X59085686Y-111031496D01*
X59036329Y-110957629D01*
X59034651Y-110953579D01*
X59002331Y-110875552D01*
X58985000Y-110788421D01*
X58985000Y-110699579D01*
X59002331Y-110612448D01*
X59036328Y-110530373D01*
X59040924Y-110523495D01*
X59085686Y-110456504D01*
X59148504Y-110393686D01*
X59222371Y-110344329D01*
X59222373Y-110344328D01*
X59304448Y-110310331D01*
X59391579Y-110293000D01*
X59480421Y-110293000D01*
X59567552Y-110310331D01*
X59567552Y-110310331D01*
G37*
G36*
X61091552Y-109802331D02*
G01*
X61173627Y-109836328D01*
X61173629Y-109836329D01*
X61210813Y-109861175D01*
X61247495Y-109885685D01*
X61310315Y-109948505D01*
X61359672Y-110022373D01*
X61393669Y-110104448D01*
X61411000Y-110191579D01*
X61411000Y-110280421D01*
X61393669Y-110367552D01*
X61359672Y-110449627D01*
X61359671Y-110449629D01*
X61334825Y-110486813D01*
X61310315Y-110523495D01*
X61247495Y-110586315D01*
X61229516Y-110598328D01*
X61173629Y-110635671D01*
X61173628Y-110635672D01*
X61173627Y-110635672D01*
X61091552Y-110669669D01*
X61004421Y-110687000D01*
X60915579Y-110687000D01*
X60828448Y-110669669D01*
X60746373Y-110635672D01*
X60746372Y-110635672D01*
X60746371Y-110635671D01*
X60690484Y-110598328D01*
X60672505Y-110586315D01*
X60609685Y-110523495D01*
X60585175Y-110486813D01*
X60560329Y-110449629D01*
X60560328Y-110449627D01*
X60526331Y-110367552D01*
X60509000Y-110280421D01*
X60509000Y-110191579D01*
X60526331Y-110104448D01*
X60560328Y-110022373D01*
X60609685Y-109948505D01*
X60672505Y-109885685D01*
X60709187Y-109861175D01*
X60746371Y-109836329D01*
X60746373Y-109836328D01*
X60828448Y-109802331D01*
X60915579Y-109785000D01*
X61004421Y-109785000D01*
X61091552Y-109802331D01*
X61091552Y-109802331D01*
G37*
G36*
X62615552Y-109802331D02*
G01*
X62697627Y-109836328D01*
X62697629Y-109836329D01*
X62734813Y-109861175D01*
X62771495Y-109885685D01*
X62834315Y-109948505D01*
X62883672Y-110022373D01*
X62917669Y-110104448D01*
X62935000Y-110191579D01*
X62935000Y-110280421D01*
X62917669Y-110367552D01*
X62883672Y-110449627D01*
X62883671Y-110449629D01*
X62858825Y-110486813D01*
X62834315Y-110523495D01*
X62771495Y-110586315D01*
X62753516Y-110598328D01*
X62697629Y-110635671D01*
X62697628Y-110635672D01*
X62697627Y-110635672D01*
X62615552Y-110669669D01*
X62528421Y-110687000D01*
X62439579Y-110687000D01*
X62352448Y-110669669D01*
X62270373Y-110635672D01*
X62270372Y-110635672D01*
X62270371Y-110635671D01*
X62214484Y-110598328D01*
X62196505Y-110586315D01*
X62133685Y-110523495D01*
X62109175Y-110486813D01*
X62084329Y-110449629D01*
X62084328Y-110449627D01*
X62050331Y-110367552D01*
X62033000Y-110280421D01*
X62033000Y-110191579D01*
X62050331Y-110104448D01*
X62084328Y-110022373D01*
X62133685Y-109948505D01*
X62196505Y-109885685D01*
X62233187Y-109861175D01*
X62270371Y-109836329D01*
X62270373Y-109836328D01*
X62352448Y-109802331D01*
X62439579Y-109785000D01*
X62528421Y-109785000D01*
X62615552Y-109802331D01*
X62615552Y-109802331D01*
G37*
G36*
X50460000Y-110595500D02*
G01*
X49108000Y-110595500D01*
X49108000Y-109493500D01*
X50460000Y-109493500D01*
X50460000Y-110595500D01*
X50460000Y-110595500D01*
G37*
G36*
X61019000Y-109388000D02*
G01*
X59917000Y-109388000D01*
X59917000Y-108036000D01*
X61019000Y-108036000D01*
X61019000Y-109388000D01*
X61019000Y-109388000D01*
G37*
G36*
X63019000Y-109388000D02*
G01*
X61917000Y-109388000D01*
X61917000Y-108036000D01*
X63019000Y-108036000D01*
X63019000Y-109388000D01*
X63019000Y-109388000D01*
G37*
G36*
X85221552Y-108278331D02*
G01*
X85303627Y-108312328D01*
X85303629Y-108312329D01*
X85340813Y-108337175D01*
X85377495Y-108361685D01*
X85440315Y-108424505D01*
X85489672Y-108498373D01*
X85523669Y-108580448D01*
X85541000Y-108667579D01*
X85541000Y-108756421D01*
X85523669Y-108843552D01*
X85489672Y-108925627D01*
X85489671Y-108925629D01*
X85440314Y-108999496D01*
X85377496Y-109062314D01*
X85303629Y-109111671D01*
X85303628Y-109111672D01*
X85303627Y-109111672D01*
X85221552Y-109145669D01*
X85134421Y-109163000D01*
X85045579Y-109163000D01*
X84958448Y-109145669D01*
X84876373Y-109111672D01*
X84876372Y-109111672D01*
X84876371Y-109111671D01*
X84802504Y-109062314D01*
X84739686Y-108999496D01*
X84690329Y-108925629D01*
X84690328Y-108925627D01*
X84656331Y-108843552D01*
X84639000Y-108756421D01*
X84639000Y-108667579D01*
X84656331Y-108580448D01*
X84690328Y-108498373D01*
X84739685Y-108424505D01*
X84802505Y-108361685D01*
X84839187Y-108337175D01*
X84876371Y-108312329D01*
X84876373Y-108312328D01*
X84958448Y-108278331D01*
X85045579Y-108261000D01*
X85134421Y-108261000D01*
X85221552Y-108278331D01*
X85221552Y-108278331D01*
G37*
G36*
X50460000Y-108595500D02*
G01*
X49108000Y-108595500D01*
X49108000Y-107493500D01*
X50460000Y-107493500D01*
X50460000Y-108595500D01*
X50460000Y-108595500D01*
G37*
G36*
X87036000Y-108231000D02*
G01*
X85684000Y-108231000D01*
X85684000Y-107129000D01*
X87036000Y-107129000D01*
X87036000Y-108231000D01*
X87036000Y-108231000D01*
G37*
G36*
X68457552Y-106500331D02*
G01*
X68539627Y-106534328D01*
X68539629Y-106534329D01*
X68576813Y-106559175D01*
X68613495Y-106583685D01*
X68676315Y-106646505D01*
X68725672Y-106720373D01*
X68759669Y-106802448D01*
X68777000Y-106889579D01*
X68777000Y-106978421D01*
X68759669Y-107065552D01*
X68725672Y-107147627D01*
X68676315Y-107221495D01*
X68613495Y-107284315D01*
X68600341Y-107293104D01*
X68539629Y-107333671D01*
X68539628Y-107333672D01*
X68539627Y-107333672D01*
X68457552Y-107367669D01*
X68370421Y-107385000D01*
X68281579Y-107385000D01*
X68194448Y-107367669D01*
X68137328Y-107344009D01*
X68113879Y-107336896D01*
X68089493Y-107334494D01*
X68065107Y-107336896D01*
X68041658Y-107344009D01*
X68020047Y-107355560D01*
X68001105Y-107371106D01*
X67985560Y-107390047D01*
X67974009Y-107411658D01*
X67966896Y-107435107D01*
X67964494Y-107459493D01*
X67966896Y-107483879D01*
X67974009Y-107507328D01*
X67997669Y-107564448D01*
X68015000Y-107651579D01*
X68015000Y-107740421D01*
X67997669Y-107827552D01*
X67963672Y-107909627D01*
X67963671Y-107909629D01*
X67914314Y-107983496D01*
X67851496Y-108046314D01*
X67777629Y-108095671D01*
X67777628Y-108095672D01*
X67777627Y-108095672D01*
X67695552Y-108129669D01*
X67608421Y-108147000D01*
X67519579Y-108147000D01*
X67432448Y-108129669D01*
X67350373Y-108095672D01*
X67350372Y-108095672D01*
X67350371Y-108095671D01*
X67276504Y-108046314D01*
X67213686Y-107983496D01*
X67164329Y-107909629D01*
X67164328Y-107909627D01*
X67130331Y-107827552D01*
X67113000Y-107740421D01*
X67113000Y-107651579D01*
X67130331Y-107564448D01*
X67164328Y-107482373D01*
X67213685Y-107408505D01*
X67276505Y-107345685D01*
X67313187Y-107321175D01*
X67350371Y-107296329D01*
X67350373Y-107296328D01*
X67432448Y-107262331D01*
X67519579Y-107245000D01*
X67608421Y-107245000D01*
X67695552Y-107262331D01*
X67752672Y-107285991D01*
X67776121Y-107293104D01*
X67800507Y-107295506D01*
X67824893Y-107293104D01*
X67848342Y-107285991D01*
X67869953Y-107274440D01*
X67888895Y-107258894D01*
X67904440Y-107239953D01*
X67915991Y-107218342D01*
X67923104Y-107194893D01*
X67925506Y-107170507D01*
X67923104Y-107146121D01*
X67915991Y-107122672D01*
X67892331Y-107065552D01*
X67875000Y-106978421D01*
X67875000Y-106889579D01*
X67892331Y-106802448D01*
X67926328Y-106720373D01*
X67975685Y-106646505D01*
X68038505Y-106583685D01*
X68075187Y-106559175D01*
X68112371Y-106534329D01*
X68112373Y-106534328D01*
X68194448Y-106500331D01*
X68281579Y-106483000D01*
X68370421Y-106483000D01*
X68457552Y-106500331D01*
X68457552Y-106500331D01*
G37*
G36*
X80009896Y-106631995D02*
G01*
X80091971Y-106665992D01*
X80091973Y-106665993D01*
X80129157Y-106690839D01*
X80165839Y-106715349D01*
X80228659Y-106778169D01*
X80278016Y-106852037D01*
X80312013Y-106934112D01*
X80329344Y-107021243D01*
X80329344Y-107110085D01*
X80312013Y-107197216D01*
X80280025Y-107274440D01*
X80278015Y-107279293D01*
X80266632Y-107296328D01*
X80239526Y-107336896D01*
X80228658Y-107353160D01*
X80165840Y-107415978D01*
X80091973Y-107465335D01*
X80091972Y-107465336D01*
X80091971Y-107465336D01*
X80009896Y-107499333D01*
X79922765Y-107516664D01*
X79833923Y-107516664D01*
X79746792Y-107499333D01*
X79664717Y-107465336D01*
X79664716Y-107465336D01*
X79664715Y-107465335D01*
X79590848Y-107415978D01*
X79528030Y-107353160D01*
X79517163Y-107336896D01*
X79490056Y-107296328D01*
X79478673Y-107279293D01*
X79476663Y-107274440D01*
X79444675Y-107197216D01*
X79427344Y-107110085D01*
X79427344Y-107021243D01*
X79444675Y-106934112D01*
X79478672Y-106852037D01*
X79528029Y-106778169D01*
X79590849Y-106715349D01*
X79627531Y-106690839D01*
X79664715Y-106665993D01*
X79664717Y-106665992D01*
X79746792Y-106631995D01*
X79833923Y-106614664D01*
X79922765Y-106614664D01*
X80009896Y-106631995D01*
X80009896Y-106631995D01*
G37*
G36*
X96905552Y-106500331D02*
G01*
X96987627Y-106534328D01*
X96987629Y-106534329D01*
X97024813Y-106559175D01*
X97061495Y-106583685D01*
X97124315Y-106646505D01*
X97173672Y-106720373D01*
X97207669Y-106802448D01*
X97225000Y-106889579D01*
X97225000Y-106978421D01*
X97207669Y-107065552D01*
X97173672Y-107147627D01*
X97124315Y-107221495D01*
X97061495Y-107284315D01*
X97048341Y-107293104D01*
X96987629Y-107333671D01*
X96987628Y-107333672D01*
X96987627Y-107333672D01*
X96905552Y-107367669D01*
X96818421Y-107385000D01*
X96729579Y-107385000D01*
X96642448Y-107367669D01*
X96560373Y-107333672D01*
X96560372Y-107333672D01*
X96560371Y-107333671D01*
X96499659Y-107293104D01*
X96486505Y-107284315D01*
X96423685Y-107221495D01*
X96374328Y-107147627D01*
X96340331Y-107065552D01*
X96323000Y-106978421D01*
X96323000Y-106889579D01*
X96340331Y-106802448D01*
X96374328Y-106720373D01*
X96423685Y-106646505D01*
X96486505Y-106583685D01*
X96523187Y-106559175D01*
X96560371Y-106534329D01*
X96560373Y-106534328D01*
X96642448Y-106500331D01*
X96729579Y-106483000D01*
X96818421Y-106483000D01*
X96905552Y-106500331D01*
X96905552Y-106500331D01*
G37*
G36*
X111924000Y-107098000D02*
G01*
X110072000Y-107098000D01*
X110072000Y-105246000D01*
X111924000Y-105246000D01*
X111924000Y-107098000D01*
X111924000Y-107098000D01*
G37*
G36*
X72267552Y-105738331D02*
G01*
X72349627Y-105772328D01*
X72349629Y-105772329D01*
X72386813Y-105797175D01*
X72423495Y-105821685D01*
X72486315Y-105884505D01*
X72535672Y-105958373D01*
X72569669Y-106040448D01*
X72587000Y-106127579D01*
X72587000Y-106216421D01*
X72569669Y-106303552D01*
X72535672Y-106385627D01*
X72535671Y-106385629D01*
X72486314Y-106459496D01*
X72423496Y-106522314D01*
X72349629Y-106571671D01*
X72349628Y-106571672D01*
X72349627Y-106571672D01*
X72267552Y-106605669D01*
X72180421Y-106623000D01*
X72091579Y-106623000D01*
X72004448Y-106605669D01*
X71922373Y-106571672D01*
X71922372Y-106571672D01*
X71922371Y-106571671D01*
X71848504Y-106522314D01*
X71785686Y-106459496D01*
X71736329Y-106385629D01*
X71736328Y-106385627D01*
X71702331Y-106303552D01*
X71685000Y-106216421D01*
X71685000Y-106127579D01*
X71702331Y-106040448D01*
X71736328Y-105958373D01*
X71785685Y-105884505D01*
X71848505Y-105821685D01*
X71885187Y-105797175D01*
X71922371Y-105772329D01*
X71922373Y-105772328D01*
X72004448Y-105738331D01*
X72091579Y-105721000D01*
X72180421Y-105721000D01*
X72267552Y-105738331D01*
X72267552Y-105738331D01*
G37*
G36*
X87036000Y-106231000D02*
G01*
X85684000Y-106231000D01*
X85684000Y-105129000D01*
X87036000Y-105129000D01*
X87036000Y-106231000D01*
X87036000Y-106231000D01*
G37*
G36*
X67743294Y-104254633D02*
G01*
X67915695Y-104306931D01*
X68074583Y-104391858D01*
X68213849Y-104506151D01*
X68328142Y-104645417D01*
X68413069Y-104804305D01*
X68465367Y-104976706D01*
X68483025Y-105156000D01*
X68465367Y-105335294D01*
X68413069Y-105507695D01*
X68328142Y-105666583D01*
X68213849Y-105805849D01*
X68074583Y-105920142D01*
X67915695Y-106005069D01*
X67743294Y-106057367D01*
X67608931Y-106070600D01*
X67519069Y-106070600D01*
X67384706Y-106057367D01*
X67212305Y-106005069D01*
X67053417Y-105920142D01*
X66914151Y-105805849D01*
X66799858Y-105666583D01*
X66714931Y-105507695D01*
X66662633Y-105335294D01*
X66644975Y-105156000D01*
X66662633Y-104976706D01*
X66714931Y-104804305D01*
X66799858Y-104645417D01*
X66914151Y-104506151D01*
X67053417Y-104391858D01*
X67212305Y-104306931D01*
X67384706Y-104254633D01*
X67519069Y-104241400D01*
X67608931Y-104241400D01*
X67743294Y-104254633D01*
X67743294Y-104254633D01*
G37*
G36*
X63398600Y-106070600D02*
G01*
X61569400Y-106070600D01*
X61569400Y-104241400D01*
X63398600Y-104241400D01*
X63398600Y-106070600D01*
X63398600Y-106070600D01*
G37*
G36*
X65203294Y-104254633D02*
G01*
X65375695Y-104306931D01*
X65534583Y-104391858D01*
X65673849Y-104506151D01*
X65788142Y-104645417D01*
X65873069Y-104804305D01*
X65925367Y-104976706D01*
X65943025Y-105156000D01*
X65925367Y-105335294D01*
X65873069Y-105507695D01*
X65788142Y-105666583D01*
X65673849Y-105805849D01*
X65534583Y-105920142D01*
X65375695Y-106005069D01*
X65203294Y-106057367D01*
X65068931Y-106070600D01*
X64979069Y-106070600D01*
X64844706Y-106057367D01*
X64672305Y-106005069D01*
X64513417Y-105920142D01*
X64374151Y-105805849D01*
X64259858Y-105666583D01*
X64174931Y-105507695D01*
X64122633Y-105335294D01*
X64104975Y-105156000D01*
X64122633Y-104976706D01*
X64174931Y-104804305D01*
X64259858Y-104645417D01*
X64374151Y-104506151D01*
X64513417Y-104391858D01*
X64672305Y-104306931D01*
X64844706Y-104254633D01*
X64979069Y-104241400D01*
X65068931Y-104241400D01*
X65203294Y-104254633D01*
X65203294Y-104254633D01*
G37*
G36*
X87761552Y-104214331D02*
G01*
X87843627Y-104248328D01*
X87843629Y-104248329D01*
X87917496Y-104297686D01*
X87980314Y-104360504D01*
X88025077Y-104427495D01*
X88029672Y-104434373D01*
X88063669Y-104516448D01*
X88081000Y-104603579D01*
X88081000Y-104692421D01*
X88063669Y-104779552D01*
X88029672Y-104861627D01*
X88029671Y-104861629D01*
X87980314Y-104935496D01*
X87917496Y-104998314D01*
X87843629Y-105047671D01*
X87843628Y-105047672D01*
X87843627Y-105047672D01*
X87761552Y-105081669D01*
X87674421Y-105099000D01*
X87585579Y-105099000D01*
X87498448Y-105081669D01*
X87416373Y-105047672D01*
X87416372Y-105047672D01*
X87416371Y-105047671D01*
X87342504Y-104998314D01*
X87279686Y-104935496D01*
X87230329Y-104861629D01*
X87230328Y-104861627D01*
X87196331Y-104779552D01*
X87179000Y-104692421D01*
X87179000Y-104603579D01*
X87196331Y-104516448D01*
X87230328Y-104434373D01*
X87234924Y-104427495D01*
X87279686Y-104360504D01*
X87342504Y-104297686D01*
X87416371Y-104248329D01*
X87416373Y-104248328D01*
X87498448Y-104214331D01*
X87585579Y-104197000D01*
X87674421Y-104197000D01*
X87761552Y-104214331D01*
X87761552Y-104214331D01*
G37*
G36*
X111268104Y-102781585D02*
G01*
X111436626Y-102851389D01*
X111588291Y-102952728D01*
X111717272Y-103081709D01*
X111818611Y-103233374D01*
X111888415Y-103401896D01*
X111924000Y-103580797D01*
X111924000Y-103763203D01*
X111888415Y-103942104D01*
X111818611Y-104110626D01*
X111717272Y-104262291D01*
X111588291Y-104391272D01*
X111436626Y-104492611D01*
X111268104Y-104562415D01*
X111089203Y-104598000D01*
X110906797Y-104598000D01*
X110727896Y-104562415D01*
X110559374Y-104492611D01*
X110407709Y-104391272D01*
X110278728Y-104262291D01*
X110177389Y-104110626D01*
X110107585Y-103942104D01*
X110072000Y-103763203D01*
X110072000Y-103580797D01*
X110107585Y-103401896D01*
X110177389Y-103233374D01*
X110278728Y-103081709D01*
X110407709Y-102952728D01*
X110559374Y-102851389D01*
X110727896Y-102781585D01*
X110906797Y-102746000D01*
X111089203Y-102746000D01*
X111268104Y-102781585D01*
X111268104Y-102781585D01*
G37*
G36*
X99191552Y-103706331D02*
G01*
X99273627Y-103740328D01*
X99273629Y-103740329D01*
X99347496Y-103789686D01*
X99410314Y-103852504D01*
X99455077Y-103919495D01*
X99459672Y-103926373D01*
X99493669Y-104008448D01*
X99511000Y-104095579D01*
X99511000Y-104184421D01*
X99493669Y-104271552D01*
X99459672Y-104353627D01*
X99459671Y-104353629D01*
X99434825Y-104390813D01*
X99410315Y-104427495D01*
X99347495Y-104490315D01*
X99323795Y-104506151D01*
X99273629Y-104539671D01*
X99273628Y-104539672D01*
X99273627Y-104539672D01*
X99191552Y-104573669D01*
X99104421Y-104591000D01*
X99015579Y-104591000D01*
X98928448Y-104573669D01*
X98846373Y-104539672D01*
X98846372Y-104539672D01*
X98846371Y-104539671D01*
X98796205Y-104506151D01*
X98772505Y-104490315D01*
X98709685Y-104427495D01*
X98685175Y-104390813D01*
X98660329Y-104353629D01*
X98660328Y-104353627D01*
X98626331Y-104271552D01*
X98609000Y-104184421D01*
X98609000Y-104095579D01*
X98626331Y-104008448D01*
X98660328Y-103926373D01*
X98664924Y-103919495D01*
X98709686Y-103852504D01*
X98772504Y-103789686D01*
X98846371Y-103740329D01*
X98846373Y-103740328D01*
X98928448Y-103706331D01*
X99015579Y-103689000D01*
X99104421Y-103689000D01*
X99191552Y-103706331D01*
X99191552Y-103706331D01*
G37*
G36*
X97159552Y-103706331D02*
G01*
X97241627Y-103740328D01*
X97241629Y-103740329D01*
X97315496Y-103789686D01*
X97378314Y-103852504D01*
X97423077Y-103919495D01*
X97427672Y-103926373D01*
X97461669Y-104008448D01*
X97479000Y-104095579D01*
X97479000Y-104184421D01*
X97461669Y-104271552D01*
X97427672Y-104353627D01*
X97427671Y-104353629D01*
X97402825Y-104390813D01*
X97378315Y-104427495D01*
X97315495Y-104490315D01*
X97291795Y-104506151D01*
X97241629Y-104539671D01*
X97241628Y-104539672D01*
X97241627Y-104539672D01*
X97159552Y-104573669D01*
X97072421Y-104591000D01*
X96983579Y-104591000D01*
X96896448Y-104573669D01*
X96814373Y-104539672D01*
X96814372Y-104539672D01*
X96814371Y-104539671D01*
X96764205Y-104506151D01*
X96740505Y-104490315D01*
X96677685Y-104427495D01*
X96653175Y-104390813D01*
X96628329Y-104353629D01*
X96628328Y-104353627D01*
X96594331Y-104271552D01*
X96577000Y-104184421D01*
X96577000Y-104095579D01*
X96594331Y-104008448D01*
X96628328Y-103926373D01*
X96632924Y-103919495D01*
X96677686Y-103852504D01*
X96740504Y-103789686D01*
X96814371Y-103740329D01*
X96814373Y-103740328D01*
X96896448Y-103706331D01*
X96983579Y-103689000D01*
X97072421Y-103689000D01*
X97159552Y-103706331D01*
X97159552Y-103706331D01*
G37*
G36*
X73791552Y-103198331D02*
G01*
X73873627Y-103232328D01*
X73873629Y-103232329D01*
X73947496Y-103281686D01*
X74010314Y-103344504D01*
X74048663Y-103401896D01*
X74059672Y-103418373D01*
X74093669Y-103500448D01*
X74111000Y-103587579D01*
X74111000Y-103676421D01*
X74093669Y-103763552D01*
X74059672Y-103845627D01*
X74059671Y-103845629D01*
X74010314Y-103919496D01*
X73947496Y-103982314D01*
X73873629Y-104031671D01*
X73873628Y-104031672D01*
X73873627Y-104031672D01*
X73791552Y-104065669D01*
X73704421Y-104083000D01*
X73615579Y-104083000D01*
X73528448Y-104065669D01*
X73446373Y-104031672D01*
X73446372Y-104031672D01*
X73446371Y-104031671D01*
X73372504Y-103982314D01*
X73309686Y-103919496D01*
X73260329Y-103845629D01*
X73260328Y-103845627D01*
X73226331Y-103763552D01*
X73209000Y-103676421D01*
X73209000Y-103587579D01*
X73226331Y-103500448D01*
X73260328Y-103418373D01*
X73271338Y-103401896D01*
X73309686Y-103344504D01*
X73372504Y-103281686D01*
X73446371Y-103232329D01*
X73446373Y-103232328D01*
X73528448Y-103198331D01*
X73615579Y-103181000D01*
X73704421Y-103181000D01*
X73791552Y-103198331D01*
X73791552Y-103198331D01*
G37*
G36*
X65203294Y-101714633D02*
G01*
X65375695Y-101766931D01*
X65534583Y-101851858D01*
X65673849Y-101966151D01*
X65788142Y-102105417D01*
X65873069Y-102264305D01*
X65925367Y-102436706D01*
X65943025Y-102616000D01*
X65925367Y-102795294D01*
X65873069Y-102967695D01*
X65788142Y-103126583D01*
X65673849Y-103265849D01*
X65534583Y-103380142D01*
X65375695Y-103465069D01*
X65203294Y-103517367D01*
X65068931Y-103530600D01*
X64979069Y-103530600D01*
X64844706Y-103517367D01*
X64672305Y-103465069D01*
X64513417Y-103380142D01*
X64374151Y-103265849D01*
X64259858Y-103126583D01*
X64174931Y-102967695D01*
X64122633Y-102795294D01*
X64104975Y-102616000D01*
X64122633Y-102436706D01*
X64174931Y-102264305D01*
X64259858Y-102105417D01*
X64374151Y-101966151D01*
X64513417Y-101851858D01*
X64672305Y-101766931D01*
X64844706Y-101714633D01*
X64979069Y-101701400D01*
X65068931Y-101701400D01*
X65203294Y-101714633D01*
X65203294Y-101714633D01*
G37*
G36*
X67743294Y-101714633D02*
G01*
X67915695Y-101766931D01*
X68074583Y-101851858D01*
X68213849Y-101966151D01*
X68328142Y-102105417D01*
X68413069Y-102264305D01*
X68465367Y-102436706D01*
X68483025Y-102616000D01*
X68465367Y-102795294D01*
X68413069Y-102967695D01*
X68328142Y-103126583D01*
X68213849Y-103265849D01*
X68074583Y-103380142D01*
X67915695Y-103465069D01*
X67743294Y-103517367D01*
X67608931Y-103530600D01*
X67519069Y-103530600D01*
X67384706Y-103517367D01*
X67212305Y-103465069D01*
X67053417Y-103380142D01*
X66914151Y-103265849D01*
X66799858Y-103126583D01*
X66714931Y-102967695D01*
X66662633Y-102795294D01*
X66644975Y-102616000D01*
X66662633Y-102436706D01*
X66714931Y-102264305D01*
X66799858Y-102105417D01*
X66914151Y-101966151D01*
X67053417Y-101851858D01*
X67212305Y-101766931D01*
X67384706Y-101714633D01*
X67519069Y-101701400D01*
X67608931Y-101701400D01*
X67743294Y-101714633D01*
X67743294Y-101714633D01*
G37*
G36*
X62663294Y-101714633D02*
G01*
X62835695Y-101766931D01*
X62994583Y-101851858D01*
X63133849Y-101966151D01*
X63248142Y-102105417D01*
X63333069Y-102264305D01*
X63385367Y-102436706D01*
X63403025Y-102616000D01*
X63385367Y-102795294D01*
X63333069Y-102967695D01*
X63248142Y-103126583D01*
X63133849Y-103265849D01*
X62994583Y-103380142D01*
X62835695Y-103465069D01*
X62663294Y-103517367D01*
X62528931Y-103530600D01*
X62439069Y-103530600D01*
X62304706Y-103517367D01*
X62132305Y-103465069D01*
X61973417Y-103380142D01*
X61834151Y-103265849D01*
X61719858Y-103126583D01*
X61634931Y-102967695D01*
X61582633Y-102795294D01*
X61564975Y-102616000D01*
X61582633Y-102436706D01*
X61634931Y-102264305D01*
X61719858Y-102105417D01*
X61834151Y-101966151D01*
X61973417Y-101851858D01*
X62132305Y-101766931D01*
X62304706Y-101714633D01*
X62439069Y-101701400D01*
X62528931Y-101701400D01*
X62663294Y-101714633D01*
X62663294Y-101714633D01*
G37*
G36*
X58043552Y-101928331D02*
G01*
X58125627Y-101962328D01*
X58125629Y-101962329D01*
X58131349Y-101966151D01*
X58199495Y-102011685D01*
X58262315Y-102074505D01*
X58311672Y-102148373D01*
X58345669Y-102230448D01*
X58363000Y-102317579D01*
X58363000Y-102406421D01*
X58345669Y-102493552D01*
X58311672Y-102575627D01*
X58311671Y-102575629D01*
X58262314Y-102649496D01*
X58199496Y-102712314D01*
X58125629Y-102761671D01*
X58125628Y-102761672D01*
X58125627Y-102761672D01*
X58043552Y-102795669D01*
X57956421Y-102813000D01*
X57867579Y-102813000D01*
X57780448Y-102795669D01*
X57698373Y-102761672D01*
X57698372Y-102761672D01*
X57698371Y-102761671D01*
X57624504Y-102712314D01*
X57561686Y-102649496D01*
X57512329Y-102575629D01*
X57512328Y-102575627D01*
X57478331Y-102493552D01*
X57461000Y-102406421D01*
X57461000Y-102317579D01*
X57478331Y-102230448D01*
X57512328Y-102148373D01*
X57561685Y-102074505D01*
X57624505Y-102011685D01*
X57692651Y-101966151D01*
X57698371Y-101962329D01*
X57698373Y-101962328D01*
X57780448Y-101928331D01*
X57867579Y-101911000D01*
X57956421Y-101911000D01*
X58043552Y-101928331D01*
X58043552Y-101928331D01*
G37*
G36*
X111268104Y-100281585D02*
G01*
X111436626Y-100351389D01*
X111588291Y-100452728D01*
X111717272Y-100581709D01*
X111818611Y-100733374D01*
X111888415Y-100901896D01*
X111924000Y-101080797D01*
X111924000Y-101263203D01*
X111888415Y-101442104D01*
X111818611Y-101610626D01*
X111717272Y-101762291D01*
X111588291Y-101891272D01*
X111436626Y-101992611D01*
X111268104Y-102062415D01*
X111089203Y-102098000D01*
X110906797Y-102098000D01*
X110727896Y-102062415D01*
X110559374Y-101992611D01*
X110407709Y-101891272D01*
X110278728Y-101762291D01*
X110177389Y-101610626D01*
X110107585Y-101442104D01*
X110072000Y-101263203D01*
X110072000Y-101080797D01*
X110107585Y-100901896D01*
X110177389Y-100733374D01*
X110278728Y-100581709D01*
X110407709Y-100452728D01*
X110559374Y-100351389D01*
X110727896Y-100281585D01*
X110906797Y-100246000D01*
X111089203Y-100246000D01*
X111268104Y-100281585D01*
X111268104Y-100281585D01*
G37*
G36*
X75315552Y-100912331D02*
G01*
X75397627Y-100946328D01*
X75397629Y-100946329D01*
X75418759Y-100960448D01*
X75471495Y-100995685D01*
X75534315Y-101058505D01*
X75583672Y-101132373D01*
X75617669Y-101214448D01*
X75635000Y-101301579D01*
X75635000Y-101390421D01*
X75617669Y-101477552D01*
X75583672Y-101559627D01*
X75534315Y-101633495D01*
X75471495Y-101696315D01*
X75444080Y-101714633D01*
X75397629Y-101745671D01*
X75397628Y-101745672D01*
X75397627Y-101745672D01*
X75315552Y-101779669D01*
X75228421Y-101797000D01*
X75139579Y-101797000D01*
X75052448Y-101779669D01*
X74970373Y-101745672D01*
X74970372Y-101745672D01*
X74970371Y-101745671D01*
X74923920Y-101714633D01*
X74896505Y-101696315D01*
X74833685Y-101633495D01*
X74784328Y-101559627D01*
X74750331Y-101477552D01*
X74733000Y-101390421D01*
X74733000Y-101301579D01*
X74750331Y-101214448D01*
X74784328Y-101132373D01*
X74833685Y-101058505D01*
X74896505Y-100995685D01*
X74949241Y-100960448D01*
X74970371Y-100946329D01*
X74970373Y-100946328D01*
X75052448Y-100912331D01*
X75139579Y-100895000D01*
X75228421Y-100895000D01*
X75315552Y-100912331D01*
X75315552Y-100912331D01*
G37*
G36*
X83697552Y-100912331D02*
G01*
X83779627Y-100946328D01*
X83779629Y-100946329D01*
X83800759Y-100960448D01*
X83853495Y-100995685D01*
X83916315Y-101058505D01*
X83965672Y-101132373D01*
X83999669Y-101214448D01*
X84017000Y-101301579D01*
X84017000Y-101390421D01*
X83999669Y-101477552D01*
X83965672Y-101559627D01*
X83916315Y-101633495D01*
X83853495Y-101696315D01*
X83826080Y-101714633D01*
X83779629Y-101745671D01*
X83779628Y-101745672D01*
X83779627Y-101745672D01*
X83697552Y-101779669D01*
X83610421Y-101797000D01*
X83521579Y-101797000D01*
X83434448Y-101779669D01*
X83352373Y-101745672D01*
X83352372Y-101745672D01*
X83352371Y-101745671D01*
X83305920Y-101714633D01*
X83278505Y-101696315D01*
X83215685Y-101633495D01*
X83166328Y-101559627D01*
X83132331Y-101477552D01*
X83115000Y-101390421D01*
X83115000Y-101301579D01*
X83132331Y-101214448D01*
X83166328Y-101132373D01*
X83215685Y-101058505D01*
X83278505Y-100995685D01*
X83331241Y-100960448D01*
X83352371Y-100946329D01*
X83352373Y-100946328D01*
X83434448Y-100912331D01*
X83521579Y-100895000D01*
X83610421Y-100895000D01*
X83697552Y-100912331D01*
X83697552Y-100912331D01*
G37*
G36*
X93095552Y-100658331D02*
G01*
X93177627Y-100692328D01*
X93177629Y-100692329D01*
X93214813Y-100717175D01*
X93251495Y-100741685D01*
X93314315Y-100804505D01*
X93363672Y-100878373D01*
X93397669Y-100960448D01*
X93415000Y-101047579D01*
X93415000Y-101136421D01*
X93397669Y-101223552D01*
X93365349Y-101301579D01*
X93363671Y-101305629D01*
X93314314Y-101379496D01*
X93251496Y-101442314D01*
X93177629Y-101491671D01*
X93177628Y-101491672D01*
X93177627Y-101491672D01*
X93095552Y-101525669D01*
X93008421Y-101543000D01*
X92919579Y-101543000D01*
X92832448Y-101525669D01*
X92750373Y-101491672D01*
X92750372Y-101491672D01*
X92750371Y-101491671D01*
X92676504Y-101442314D01*
X92613686Y-101379496D01*
X92564329Y-101305629D01*
X92562651Y-101301579D01*
X92530331Y-101223552D01*
X92513000Y-101136421D01*
X92513000Y-101047579D01*
X92530331Y-100960448D01*
X92564328Y-100878373D01*
X92613685Y-100804505D01*
X92676505Y-100741685D01*
X92713187Y-100717175D01*
X92750371Y-100692329D01*
X92750373Y-100692328D01*
X92832448Y-100658331D01*
X92919579Y-100641000D01*
X93008421Y-100641000D01*
X93095552Y-100658331D01*
X93095552Y-100658331D01*
G37*
G36*
X96868552Y-98880331D02*
G01*
X96950627Y-98914328D01*
X96950629Y-98914329D01*
X96987813Y-98939175D01*
X97024495Y-98963685D01*
X97087315Y-99026505D01*
X97136672Y-99100373D01*
X97170669Y-99182448D01*
X97188000Y-99269579D01*
X97188000Y-99358421D01*
X97170669Y-99445552D01*
X97136672Y-99527627D01*
X97136671Y-99527629D01*
X97087314Y-99601496D01*
X97024496Y-99664314D01*
X96950629Y-99713671D01*
X96950628Y-99713672D01*
X96950627Y-99713672D01*
X96868552Y-99747669D01*
X96781421Y-99765000D01*
X96692579Y-99765000D01*
X96605448Y-99747669D01*
X96523373Y-99713672D01*
X96523372Y-99713672D01*
X96523371Y-99713671D01*
X96449504Y-99664314D01*
X96386686Y-99601496D01*
X96337329Y-99527629D01*
X96337328Y-99527627D01*
X96303331Y-99445552D01*
X96286000Y-99358421D01*
X96286000Y-99269579D01*
X96303331Y-99182448D01*
X96337328Y-99100373D01*
X96386685Y-99026505D01*
X96449505Y-98963685D01*
X96486187Y-98939175D01*
X96523371Y-98914329D01*
X96523373Y-98914328D01*
X96605448Y-98880331D01*
X96692579Y-98863000D01*
X96781421Y-98863000D01*
X96868552Y-98880331D01*
X96868552Y-98880331D01*
G37*
G36*
X85221552Y-98880331D02*
G01*
X85303627Y-98914328D01*
X85303629Y-98914329D01*
X85340813Y-98939175D01*
X85377495Y-98963685D01*
X85440315Y-99026505D01*
X85489672Y-99100373D01*
X85523669Y-99182448D01*
X85541000Y-99269579D01*
X85541000Y-99358421D01*
X85523669Y-99445552D01*
X85489672Y-99527627D01*
X85489671Y-99527629D01*
X85440314Y-99601496D01*
X85377496Y-99664314D01*
X85303629Y-99713671D01*
X85303628Y-99713672D01*
X85303627Y-99713672D01*
X85221552Y-99747669D01*
X85134421Y-99765000D01*
X85045579Y-99765000D01*
X84958448Y-99747669D01*
X84876373Y-99713672D01*
X84876372Y-99713672D01*
X84876371Y-99713671D01*
X84802504Y-99664314D01*
X84739686Y-99601496D01*
X84690329Y-99527629D01*
X84690328Y-99527627D01*
X84656331Y-99445552D01*
X84639000Y-99358421D01*
X84639000Y-99269579D01*
X84656331Y-99182448D01*
X84690328Y-99100373D01*
X84739685Y-99026505D01*
X84802505Y-98963685D01*
X84839187Y-98939175D01*
X84876371Y-98914329D01*
X84876373Y-98914328D01*
X84958448Y-98880331D01*
X85045579Y-98863000D01*
X85134421Y-98863000D01*
X85221552Y-98880331D01*
X85221552Y-98880331D01*
G37*
G36*
X63631552Y-98583301D02*
G01*
X63713627Y-98617298D01*
X63713629Y-98617299D01*
X63750813Y-98642145D01*
X63787495Y-98666655D01*
X63850315Y-98729475D01*
X63899672Y-98803343D01*
X63933669Y-98885418D01*
X63951000Y-98972549D01*
X63951000Y-99061391D01*
X63933669Y-99148522D01*
X63919616Y-99182448D01*
X63899671Y-99230599D01*
X63850314Y-99304466D01*
X63787496Y-99367284D01*
X63713629Y-99416641D01*
X63713628Y-99416642D01*
X63713627Y-99416642D01*
X63631552Y-99450639D01*
X63544421Y-99467970D01*
X63455579Y-99467970D01*
X63368448Y-99450639D01*
X63286373Y-99416642D01*
X63286372Y-99416642D01*
X63286371Y-99416641D01*
X63212504Y-99367284D01*
X63149686Y-99304466D01*
X63100329Y-99230599D01*
X63080384Y-99182448D01*
X63066331Y-99148522D01*
X63049000Y-99061391D01*
X63049000Y-98972549D01*
X63066331Y-98885418D01*
X63100328Y-98803343D01*
X63149685Y-98729475D01*
X63212505Y-98666655D01*
X63249187Y-98642145D01*
X63286371Y-98617299D01*
X63286373Y-98617298D01*
X63368448Y-98583301D01*
X63455579Y-98565970D01*
X63544421Y-98565970D01*
X63631552Y-98583301D01*
X63631552Y-98583301D01*
G37*
G36*
X87761552Y-95070331D02*
G01*
X87843627Y-95104328D01*
X87843629Y-95104329D01*
X87880813Y-95129175D01*
X87917495Y-95153685D01*
X87980315Y-95216505D01*
X88029672Y-95290373D01*
X88063669Y-95372448D01*
X88081000Y-95459579D01*
X88081000Y-95548421D01*
X88063669Y-95635552D01*
X88031231Y-95713863D01*
X88029671Y-95717629D01*
X88018150Y-95734871D01*
X87980316Y-95791494D01*
X87917496Y-95854314D01*
X87843629Y-95903671D01*
X87843628Y-95903672D01*
X87843627Y-95903672D01*
X87761552Y-95937669D01*
X87674421Y-95955000D01*
X87585579Y-95955000D01*
X87498448Y-95937669D01*
X87416373Y-95903672D01*
X87416372Y-95903672D01*
X87416371Y-95903671D01*
X87342504Y-95854314D01*
X87279684Y-95791494D01*
X87264932Y-95769416D01*
X87249386Y-95750474D01*
X87230444Y-95734929D01*
X87208834Y-95723378D01*
X87185385Y-95716265D01*
X87160999Y-95713863D01*
X87136613Y-95716265D01*
X87113164Y-95723378D01*
X87091553Y-95734929D01*
X87072611Y-95750475D01*
X87057066Y-95769417D01*
X87045515Y-95791027D01*
X87038402Y-95814476D01*
X87036000Y-95838862D01*
X87036000Y-96493599D01*
X87038402Y-96517985D01*
X87045515Y-96541434D01*
X87057066Y-96563045D01*
X87072611Y-96581987D01*
X87091553Y-96597532D01*
X87113164Y-96609083D01*
X87136613Y-96616196D01*
X87160999Y-96618598D01*
X87185385Y-96616196D01*
X87208834Y-96609083D01*
X87244448Y-96594331D01*
X87331579Y-96577000D01*
X87420421Y-96577000D01*
X87507552Y-96594331D01*
X87589627Y-96628328D01*
X87589629Y-96628329D01*
X87607844Y-96640500D01*
X87663495Y-96677685D01*
X87726315Y-96740505D01*
X87744576Y-96767834D01*
X87768745Y-96804005D01*
X87775672Y-96814373D01*
X87809669Y-96896448D01*
X87827000Y-96983579D01*
X87827000Y-97072421D01*
X87809669Y-97159552D01*
X87775672Y-97241627D01*
X87726315Y-97315495D01*
X87663495Y-97378315D01*
X87642435Y-97392387D01*
X87589629Y-97427671D01*
X87589628Y-97427672D01*
X87589627Y-97427672D01*
X87507552Y-97461669D01*
X87420421Y-97479000D01*
X87331579Y-97479000D01*
X87244448Y-97461669D01*
X87208834Y-97446917D01*
X87185385Y-97439804D01*
X87160999Y-97437402D01*
X87136613Y-97439804D01*
X87113164Y-97446917D01*
X87091553Y-97458468D01*
X87072611Y-97474013D01*
X87057066Y-97492955D01*
X87045515Y-97514566D01*
X87038402Y-97538015D01*
X87036000Y-97562401D01*
X87036000Y-98595000D01*
X85684000Y-98595000D01*
X85684000Y-97493000D01*
X86910433Y-97493000D01*
X86934819Y-97490598D01*
X86958268Y-97483485D01*
X86979879Y-97471934D01*
X86998821Y-97456389D01*
X87014366Y-97437447D01*
X87025917Y-97415836D01*
X87033030Y-97392387D01*
X87035432Y-97368001D01*
X87033030Y-97343615D01*
X87025917Y-97320166D01*
X87014366Y-97298555D01*
X86976328Y-97241627D01*
X86942331Y-97159552D01*
X86925000Y-97072421D01*
X86925000Y-96983579D01*
X86942331Y-96896448D01*
X86976329Y-96814370D01*
X86992984Y-96789444D01*
X87004535Y-96767834D01*
X87011648Y-96744385D01*
X87014050Y-96719999D01*
X87011648Y-96695613D01*
X87004535Y-96672164D01*
X86992984Y-96650553D01*
X86977438Y-96631611D01*
X86958496Y-96616066D01*
X86936886Y-96604515D01*
X86913437Y-96597402D01*
X86889051Y-96595000D01*
X85684000Y-96595000D01*
X85684000Y-95493000D01*
X87069768Y-95493000D01*
X87094154Y-95490598D01*
X87117603Y-95483485D01*
X87139214Y-95471934D01*
X87158156Y-95456389D01*
X87173701Y-95437447D01*
X87185252Y-95415836D01*
X87192365Y-95392387D01*
X87196331Y-95372449D01*
X87230328Y-95290373D01*
X87279685Y-95216505D01*
X87342505Y-95153685D01*
X87379187Y-95129175D01*
X87416371Y-95104329D01*
X87416373Y-95104328D01*
X87498448Y-95070331D01*
X87585579Y-95053000D01*
X87674421Y-95053000D01*
X87761552Y-95070331D01*
X87761552Y-95070331D01*
G37*
G36*
X91635052Y-96657831D02*
G01*
X91717127Y-96691828D01*
X91717129Y-96691829D01*
X91728862Y-96699669D01*
X91790995Y-96741185D01*
X91853815Y-96804005D01*
X91903172Y-96877873D01*
X91937169Y-96959948D01*
X91954500Y-97047079D01*
X91954500Y-97135921D01*
X91937169Y-97223052D01*
X91905894Y-97298555D01*
X91903171Y-97305129D01*
X91853814Y-97378996D01*
X91790996Y-97441814D01*
X91717129Y-97491171D01*
X91717128Y-97491172D01*
X91717127Y-97491172D01*
X91635052Y-97525169D01*
X91547921Y-97542500D01*
X91459079Y-97542500D01*
X91371948Y-97525169D01*
X91289873Y-97491172D01*
X91289872Y-97491172D01*
X91289871Y-97491171D01*
X91216004Y-97441814D01*
X91153186Y-97378996D01*
X91103829Y-97305129D01*
X91101106Y-97298555D01*
X91069831Y-97223052D01*
X91052500Y-97135921D01*
X91052500Y-97047079D01*
X91069831Y-96959948D01*
X91103828Y-96877873D01*
X91153185Y-96804005D01*
X91216005Y-96741185D01*
X91278138Y-96699669D01*
X91289871Y-96691829D01*
X91289873Y-96691828D01*
X91371948Y-96657831D01*
X91459079Y-96640500D01*
X91547921Y-96640500D01*
X91635052Y-96657831D01*
X91635052Y-96657831D01*
G37*
G36*
X97667552Y-96594331D02*
G01*
X97749627Y-96628328D01*
X97749629Y-96628329D01*
X97767844Y-96640500D01*
X97823495Y-96677685D01*
X97886315Y-96740505D01*
X97904576Y-96767834D01*
X97928745Y-96804005D01*
X97935672Y-96814373D01*
X97969669Y-96896448D01*
X97987000Y-96983579D01*
X97987000Y-97072421D01*
X97969669Y-97159552D01*
X97935672Y-97241627D01*
X97886315Y-97315495D01*
X97823495Y-97378315D01*
X97802435Y-97392387D01*
X97749629Y-97427671D01*
X97749628Y-97427672D01*
X97749627Y-97427672D01*
X97667552Y-97461669D01*
X97580421Y-97479000D01*
X97491579Y-97479000D01*
X97404448Y-97461669D01*
X97322373Y-97427672D01*
X97322372Y-97427672D01*
X97322371Y-97427671D01*
X97269565Y-97392387D01*
X97248505Y-97378315D01*
X97185685Y-97315495D01*
X97136328Y-97241627D01*
X97102331Y-97159552D01*
X97085000Y-97072421D01*
X97085000Y-96983579D01*
X97102331Y-96896448D01*
X97136328Y-96814373D01*
X97143256Y-96804005D01*
X97167424Y-96767834D01*
X97185685Y-96740505D01*
X97248505Y-96677685D01*
X97304156Y-96640500D01*
X97322371Y-96628329D01*
X97322373Y-96628328D01*
X97404448Y-96594331D01*
X97491579Y-96577000D01*
X97580421Y-96577000D01*
X97667552Y-96594331D01*
X97667552Y-96594331D01*
G37*
G36*
X81919552Y-95832331D02*
G01*
X82001627Y-95866328D01*
X82001629Y-95866329D01*
X82038813Y-95891175D01*
X82075495Y-95915685D01*
X82138315Y-95978505D01*
X82187672Y-96052373D01*
X82221669Y-96134448D01*
X82239000Y-96221579D01*
X82239000Y-96310421D01*
X82221669Y-96397552D01*
X82187672Y-96479627D01*
X82187671Y-96479629D01*
X82138314Y-96553496D01*
X82075496Y-96616314D01*
X82001629Y-96665671D01*
X82001628Y-96665672D01*
X82001627Y-96665672D01*
X81919552Y-96699669D01*
X81832421Y-96717000D01*
X81743579Y-96717000D01*
X81656448Y-96699669D01*
X81574373Y-96665672D01*
X81574372Y-96665672D01*
X81574371Y-96665671D01*
X81500504Y-96616314D01*
X81437686Y-96553496D01*
X81388329Y-96479629D01*
X81388328Y-96479627D01*
X81354331Y-96397552D01*
X81337000Y-96310421D01*
X81337000Y-96221579D01*
X81354331Y-96134448D01*
X81388328Y-96052373D01*
X81437685Y-95978505D01*
X81500505Y-95915685D01*
X81537187Y-95891175D01*
X81574371Y-95866329D01*
X81574373Y-95866328D01*
X81656448Y-95832331D01*
X81743579Y-95815000D01*
X81832421Y-95815000D01*
X81919552Y-95832331D01*
X81919552Y-95832331D01*
G37*
G36*
X69854552Y-95514831D02*
G01*
X69935642Y-95548420D01*
X69936629Y-95548829D01*
X70010496Y-95598186D01*
X70073314Y-95661004D01*
X70114992Y-95723378D01*
X70122672Y-95734873D01*
X70156669Y-95816948D01*
X70174000Y-95904079D01*
X70174000Y-95992921D01*
X70156669Y-96080052D01*
X70134137Y-96134448D01*
X70122671Y-96162129D01*
X70073314Y-96235996D01*
X70010496Y-96298814D01*
X69936629Y-96348171D01*
X69936628Y-96348172D01*
X69936627Y-96348172D01*
X69854552Y-96382169D01*
X69767421Y-96399500D01*
X69678579Y-96399500D01*
X69591448Y-96382169D01*
X69509373Y-96348172D01*
X69509372Y-96348172D01*
X69509371Y-96348171D01*
X69435504Y-96298814D01*
X69372686Y-96235996D01*
X69323329Y-96162129D01*
X69311863Y-96134448D01*
X69289331Y-96080052D01*
X69272000Y-95992921D01*
X69272000Y-95904079D01*
X69289331Y-95816948D01*
X69323328Y-95734873D01*
X69331009Y-95723378D01*
X69372686Y-95661004D01*
X69435504Y-95598186D01*
X69509371Y-95548829D01*
X69510358Y-95548420D01*
X69591448Y-95514831D01*
X69678579Y-95497500D01*
X69767421Y-95497500D01*
X69854552Y-95514831D01*
X69854552Y-95514831D01*
G37*
G36*
X111924000Y-95922000D02*
G01*
X110072000Y-95922000D01*
X110072000Y-94070000D01*
X111924000Y-94070000D01*
X111924000Y-95922000D01*
X111924000Y-95922000D01*
G37*
G36*
X111268104Y-91605585D02*
G01*
X111436626Y-91675389D01*
X111588291Y-91776728D01*
X111717272Y-91905709D01*
X111818611Y-92057374D01*
X111888415Y-92225896D01*
X111924000Y-92404797D01*
X111924000Y-92587203D01*
X111888415Y-92766104D01*
X111818611Y-92934626D01*
X111717272Y-93086291D01*
X111588291Y-93215272D01*
X111436626Y-93316611D01*
X111268104Y-93386415D01*
X111089203Y-93422000D01*
X110906797Y-93422000D01*
X110727896Y-93386415D01*
X110559374Y-93316611D01*
X110407709Y-93215272D01*
X110278728Y-93086291D01*
X110177389Y-92934626D01*
X110107585Y-92766104D01*
X110072000Y-92587203D01*
X110072000Y-92404797D01*
X110107585Y-92225896D01*
X110177389Y-92057374D01*
X110278728Y-91905709D01*
X110407709Y-91776728D01*
X110559374Y-91675389D01*
X110727896Y-91605585D01*
X110906797Y-91570000D01*
X111089203Y-91570000D01*
X111268104Y-91605585D01*
X111268104Y-91605585D01*
G37*
G36*
X63060052Y-92530331D02*
G01*
X63142127Y-92564328D01*
X63142129Y-92564329D01*
X63176362Y-92587203D01*
X63215995Y-92613685D01*
X63278815Y-92676505D01*
X63328172Y-92750373D01*
X63362169Y-92832448D01*
X63379500Y-92919579D01*
X63379500Y-93008421D01*
X63362169Y-93095552D01*
X63328172Y-93177627D01*
X63278815Y-93251495D01*
X63215995Y-93314315D01*
X63179313Y-93338825D01*
X63142129Y-93363671D01*
X63142128Y-93363672D01*
X63142127Y-93363672D01*
X63060052Y-93397669D01*
X62972921Y-93415000D01*
X62884079Y-93415000D01*
X62796948Y-93397669D01*
X62714873Y-93363672D01*
X62714872Y-93363672D01*
X62714871Y-93363671D01*
X62677687Y-93338825D01*
X62641005Y-93314315D01*
X62578185Y-93251495D01*
X62528828Y-93177627D01*
X62494831Y-93095552D01*
X62477500Y-93008421D01*
X62477500Y-92919579D01*
X62494831Y-92832448D01*
X62528828Y-92750373D01*
X62578185Y-92676505D01*
X62641005Y-92613685D01*
X62680638Y-92587203D01*
X62714871Y-92564329D01*
X62714873Y-92564328D01*
X62796948Y-92530331D01*
X62884079Y-92513000D01*
X62972921Y-92513000D01*
X63060052Y-92530331D01*
X63060052Y-92530331D01*
G37*
G36*
X59123052Y-90371331D02*
G01*
X59205127Y-90405328D01*
X59205129Y-90405329D01*
X59242313Y-90430175D01*
X59248975Y-90434626D01*
X59278996Y-90454686D01*
X59341814Y-90517504D01*
X59388919Y-90588000D01*
X59391172Y-90591373D01*
X59425169Y-90673448D01*
X59442500Y-90760579D01*
X59442500Y-90849421D01*
X59425169Y-90936552D01*
X59391172Y-91018627D01*
X59391171Y-91018629D01*
X59341814Y-91092496D01*
X59278996Y-91155314D01*
X59205129Y-91204671D01*
X59205128Y-91204672D01*
X59205127Y-91204672D01*
X59123052Y-91238669D01*
X59035921Y-91256000D01*
X58947079Y-91256000D01*
X58859948Y-91238669D01*
X58777873Y-91204672D01*
X58777872Y-91204672D01*
X58777871Y-91204671D01*
X58704004Y-91155314D01*
X58641186Y-91092496D01*
X58591829Y-91018629D01*
X58591828Y-91018627D01*
X58557831Y-90936552D01*
X58540500Y-90849421D01*
X58540500Y-90760579D01*
X58557831Y-90673448D01*
X58591828Y-90591373D01*
X58594082Y-90588000D01*
X58641186Y-90517504D01*
X58704004Y-90454686D01*
X58734026Y-90434626D01*
X58740687Y-90430175D01*
X58777871Y-90405329D01*
X58777873Y-90405328D01*
X58859948Y-90371331D01*
X58947079Y-90354000D01*
X59035921Y-90354000D01*
X59123052Y-90371331D01*
X59123052Y-90371331D01*
G37*
G36*
X76395880Y-86627776D02*
G01*
X76776593Y-86703504D01*
X77186249Y-86873189D01*
X77554929Y-87119534D01*
X77868466Y-87433071D01*
X78114811Y-87801751D01*
X78284496Y-88211407D01*
X78371000Y-88646296D01*
X78371000Y-89089704D01*
X78284496Y-89524593D01*
X78114811Y-89934249D01*
X77868466Y-90302929D01*
X77554929Y-90616466D01*
X77186249Y-90862811D01*
X76776593Y-91032496D01*
X76395880Y-91108224D01*
X76341705Y-91119000D01*
X75898295Y-91119000D01*
X75844120Y-91108224D01*
X75463407Y-91032496D01*
X75053751Y-90862811D01*
X74685071Y-90616466D01*
X74371534Y-90302929D01*
X74125189Y-89934249D01*
X73955504Y-89524593D01*
X73869000Y-89089704D01*
X73869000Y-88646296D01*
X73955504Y-88211407D01*
X74125189Y-87801751D01*
X74371534Y-87433071D01*
X74685071Y-87119534D01*
X75053751Y-86873189D01*
X75463407Y-86703504D01*
X75844120Y-86627776D01*
X75898295Y-86617000D01*
X76341705Y-86617000D01*
X76395880Y-86627776D01*
X76395880Y-86627776D01*
G37*
G36*
X102105880Y-86627776D02*
G01*
X102486593Y-86703504D01*
X102896249Y-86873189D01*
X103264929Y-87119534D01*
X103578466Y-87433071D01*
X103824811Y-87801751D01*
X103994496Y-88211407D01*
X104081000Y-88646296D01*
X104081000Y-89089704D01*
X103994496Y-89524593D01*
X103824811Y-89934249D01*
X103578466Y-90302929D01*
X103264929Y-90616466D01*
X102896249Y-90862811D01*
X102486593Y-91032496D01*
X102105880Y-91108224D01*
X102051705Y-91119000D01*
X101608295Y-91119000D01*
X101554120Y-91108224D01*
X101173407Y-91032496D01*
X100763751Y-90862811D01*
X100395071Y-90616466D01*
X100081534Y-90302929D01*
X99835189Y-89934249D01*
X99665504Y-89524593D01*
X99579000Y-89089704D01*
X99579000Y-88646296D01*
X99665504Y-88211407D01*
X99835189Y-87801751D01*
X100081534Y-87433071D01*
X100395071Y-87119534D01*
X100763751Y-86873189D01*
X101173407Y-86703504D01*
X101554120Y-86627776D01*
X101608295Y-86617000D01*
X102051705Y-86617000D01*
X102105880Y-86627776D01*
X102105880Y-86627776D01*
G37*
G36*
X111268104Y-89105585D02*
G01*
X111436626Y-89175389D01*
X111588291Y-89276728D01*
X111717272Y-89405709D01*
X111818611Y-89557374D01*
X111888415Y-89725896D01*
X111924000Y-89904797D01*
X111924000Y-90087203D01*
X111888415Y-90266104D01*
X111818611Y-90434626D01*
X111717272Y-90586291D01*
X111588291Y-90715272D01*
X111436626Y-90816611D01*
X111268104Y-90886415D01*
X111089203Y-90922000D01*
X110906797Y-90922000D01*
X110727896Y-90886415D01*
X110559374Y-90816611D01*
X110407709Y-90715272D01*
X110278728Y-90586291D01*
X110177389Y-90434626D01*
X110107585Y-90266104D01*
X110072000Y-90087203D01*
X110072000Y-89904797D01*
X110107585Y-89725896D01*
X110177389Y-89557374D01*
X110278728Y-89405709D01*
X110407709Y-89276728D01*
X110559374Y-89175389D01*
X110727896Y-89105585D01*
X110906797Y-89070000D01*
X111089203Y-89070000D01*
X111268104Y-89105585D01*
X111268104Y-89105585D01*
G37*
G36*
X50816104Y-88771585D02*
G01*
X50984626Y-88841389D01*
X51136291Y-88942728D01*
X51265272Y-89071709D01*
X51366611Y-89223374D01*
X51436415Y-89391896D01*
X51472000Y-89570797D01*
X51472000Y-89753203D01*
X51436415Y-89932104D01*
X51366611Y-90100626D01*
X51265272Y-90252291D01*
X51136291Y-90381272D01*
X50984626Y-90482611D01*
X50816104Y-90552415D01*
X50637203Y-90588000D01*
X50454797Y-90588000D01*
X50275896Y-90552415D01*
X50107374Y-90482611D01*
X49955709Y-90381272D01*
X49826728Y-90252291D01*
X49725389Y-90100626D01*
X49655585Y-89932104D01*
X49620000Y-89753203D01*
X49620000Y-89570797D01*
X49655585Y-89391896D01*
X49725389Y-89223374D01*
X49826728Y-89071709D01*
X49955709Y-88942728D01*
X50107374Y-88841389D01*
X50275896Y-88771585D01*
X50454797Y-88736000D01*
X50637203Y-88736000D01*
X50816104Y-88771585D01*
X50816104Y-88771585D01*
G37*
G36*
X71251552Y-89482331D02*
G01*
X71333627Y-89516328D01*
X71333629Y-89516329D01*
X71370813Y-89541175D01*
X71407495Y-89565685D01*
X71470315Y-89628505D01*
X71519672Y-89702373D01*
X71553669Y-89784448D01*
X71571000Y-89871579D01*
X71571000Y-89960421D01*
X71553669Y-90047552D01*
X71519672Y-90129627D01*
X71519671Y-90129629D01*
X71470314Y-90203496D01*
X71407496Y-90266314D01*
X71333629Y-90315671D01*
X71333628Y-90315672D01*
X71333627Y-90315672D01*
X71251552Y-90349669D01*
X71164421Y-90367000D01*
X71075579Y-90367000D01*
X70988448Y-90349669D01*
X70906373Y-90315672D01*
X70906372Y-90315672D01*
X70906371Y-90315671D01*
X70832504Y-90266314D01*
X70769686Y-90203496D01*
X70720329Y-90129629D01*
X70720328Y-90129627D01*
X70686331Y-90047552D01*
X70669000Y-89960421D01*
X70669000Y-89871579D01*
X70686331Y-89784448D01*
X70720328Y-89702373D01*
X70769685Y-89628505D01*
X70832505Y-89565685D01*
X70869187Y-89541175D01*
X70906371Y-89516329D01*
X70906373Y-89516328D01*
X70988448Y-89482331D01*
X71075579Y-89465000D01*
X71164421Y-89465000D01*
X71251552Y-89482331D01*
X71251552Y-89482331D01*
G37*
G36*
X92895442Y-87573518D02*
G01*
X92961627Y-87580037D01*
X93131466Y-87631557D01*
X93287991Y-87715222D01*
X93323729Y-87744552D01*
X93425186Y-87827814D01*
X93508448Y-87929271D01*
X93537778Y-87965009D01*
X93621443Y-88121534D01*
X93672963Y-88291373D01*
X93690359Y-88468000D01*
X93672963Y-88644627D01*
X93621443Y-88814466D01*
X93537778Y-88970991D01*
X93524944Y-88986629D01*
X93425186Y-89108186D01*
X93323729Y-89191448D01*
X93287991Y-89220778D01*
X93131466Y-89304443D01*
X92961627Y-89355963D01*
X92895443Y-89362481D01*
X92829260Y-89369000D01*
X92740740Y-89369000D01*
X92674557Y-89362481D01*
X92608373Y-89355963D01*
X92438534Y-89304443D01*
X92282009Y-89220778D01*
X92246271Y-89191448D01*
X92144814Y-89108186D01*
X92045056Y-88986629D01*
X92032222Y-88970991D01*
X91948557Y-88814466D01*
X91897037Y-88644627D01*
X91879641Y-88468000D01*
X91897037Y-88291373D01*
X91948557Y-88121534D01*
X92032222Y-87965009D01*
X92061552Y-87929271D01*
X92144814Y-87827814D01*
X92246271Y-87744552D01*
X92282009Y-87715222D01*
X92438534Y-87631557D01*
X92608373Y-87580037D01*
X92674558Y-87573518D01*
X92740740Y-87567000D01*
X92829260Y-87567000D01*
X92895442Y-87573518D01*
X92895442Y-87573518D01*
G37*
G36*
X87815442Y-87573518D02*
G01*
X87881627Y-87580037D01*
X88051466Y-87631557D01*
X88207991Y-87715222D01*
X88243729Y-87744552D01*
X88345186Y-87827814D01*
X88428448Y-87929271D01*
X88457778Y-87965009D01*
X88541443Y-88121534D01*
X88592963Y-88291373D01*
X88610359Y-88468000D01*
X88592963Y-88644627D01*
X88541443Y-88814466D01*
X88457778Y-88970991D01*
X88444944Y-88986629D01*
X88345186Y-89108186D01*
X88243729Y-89191448D01*
X88207991Y-89220778D01*
X88051466Y-89304443D01*
X87881627Y-89355963D01*
X87815443Y-89362481D01*
X87749260Y-89369000D01*
X87660740Y-89369000D01*
X87594557Y-89362481D01*
X87528373Y-89355963D01*
X87358534Y-89304443D01*
X87202009Y-89220778D01*
X87166271Y-89191448D01*
X87064814Y-89108186D01*
X86965056Y-88986629D01*
X86952222Y-88970991D01*
X86868557Y-88814466D01*
X86817037Y-88644627D01*
X86799641Y-88468000D01*
X86817037Y-88291373D01*
X86868557Y-88121534D01*
X86952222Y-87965009D01*
X86981552Y-87929271D01*
X87064814Y-87827814D01*
X87166271Y-87744552D01*
X87202009Y-87715222D01*
X87358534Y-87631557D01*
X87528373Y-87580037D01*
X87594558Y-87573518D01*
X87660740Y-87567000D01*
X87749260Y-87567000D01*
X87815442Y-87573518D01*
X87815442Y-87573518D01*
G37*
G36*
X86066000Y-89369000D02*
G01*
X84264000Y-89369000D01*
X84264000Y-87567000D01*
X86066000Y-87567000D01*
X86066000Y-89369000D01*
X86066000Y-89369000D01*
G37*
G36*
X90355442Y-87573518D02*
G01*
X90421627Y-87580037D01*
X90591466Y-87631557D01*
X90747991Y-87715222D01*
X90783729Y-87744552D01*
X90885186Y-87827814D01*
X90968448Y-87929271D01*
X90997778Y-87965009D01*
X91081443Y-88121534D01*
X91132963Y-88291373D01*
X91150359Y-88468000D01*
X91132963Y-88644627D01*
X91081443Y-88814466D01*
X90997778Y-88970991D01*
X90984944Y-88986629D01*
X90885186Y-89108186D01*
X90783729Y-89191448D01*
X90747991Y-89220778D01*
X90591466Y-89304443D01*
X90421627Y-89355963D01*
X90355443Y-89362481D01*
X90289260Y-89369000D01*
X90200740Y-89369000D01*
X90134557Y-89362481D01*
X90068373Y-89355963D01*
X89898534Y-89304443D01*
X89742009Y-89220778D01*
X89706271Y-89191448D01*
X89604814Y-89108186D01*
X89505056Y-88986629D01*
X89492222Y-88970991D01*
X89408557Y-88814466D01*
X89357037Y-88644627D01*
X89339641Y-88468000D01*
X89357037Y-88291373D01*
X89408557Y-88121534D01*
X89492222Y-87965009D01*
X89521552Y-87929271D01*
X89604814Y-87827814D01*
X89706271Y-87744552D01*
X89742009Y-87715222D01*
X89898534Y-87631557D01*
X90068373Y-87580037D01*
X90134558Y-87573518D01*
X90200740Y-87567000D01*
X90289260Y-87567000D01*
X90355442Y-87573518D01*
X90355442Y-87573518D01*
G37*
G36*
X66425552Y-88339331D02*
G01*
X66507627Y-88373328D01*
X66507629Y-88373329D01*
X66544813Y-88398175D01*
X66581495Y-88422685D01*
X66644315Y-88485505D01*
X66693672Y-88559373D01*
X66727669Y-88641448D01*
X66745000Y-88728579D01*
X66745000Y-88817421D01*
X66727669Y-88904552D01*
X66693672Y-88986627D01*
X66693671Y-88986629D01*
X66644314Y-89060496D01*
X66581496Y-89123314D01*
X66507629Y-89172671D01*
X66507628Y-89172672D01*
X66507627Y-89172672D01*
X66425552Y-89206669D01*
X66338421Y-89224000D01*
X66249579Y-89224000D01*
X66162448Y-89206669D01*
X66080373Y-89172672D01*
X66080372Y-89172672D01*
X66080371Y-89172671D01*
X66006504Y-89123314D01*
X65943686Y-89060496D01*
X65894329Y-88986629D01*
X65894328Y-88986627D01*
X65860331Y-88904552D01*
X65843000Y-88817421D01*
X65843000Y-88728579D01*
X65860331Y-88641448D01*
X65894328Y-88559373D01*
X65943685Y-88485505D01*
X66006505Y-88422685D01*
X66043187Y-88398175D01*
X66080371Y-88373329D01*
X66080373Y-88373328D01*
X66162448Y-88339331D01*
X66249579Y-88322000D01*
X66338421Y-88322000D01*
X66425552Y-88339331D01*
X66425552Y-88339331D01*
G37*
G36*
X51472000Y-88088000D02*
G01*
X49620000Y-88088000D01*
X49620000Y-86236000D01*
X51472000Y-86236000D01*
X51472000Y-88088000D01*
X51472000Y-88088000D01*
G37*
G36*
X80141552Y-84402331D02*
G01*
X80223627Y-84436328D01*
X80223629Y-84436329D01*
X80260813Y-84461175D01*
X80297495Y-84485685D01*
X80360315Y-84548505D01*
X80409672Y-84622373D01*
X80443669Y-84704448D01*
X80461000Y-84791579D01*
X80461000Y-84880421D01*
X80443669Y-84967552D01*
X80409672Y-85049627D01*
X80409671Y-85049629D01*
X80360314Y-85123496D01*
X80297496Y-85186314D01*
X80223629Y-85235671D01*
X80223628Y-85235672D01*
X80223627Y-85235672D01*
X80141552Y-85269669D01*
X80054421Y-85287000D01*
X79965579Y-85287000D01*
X79878448Y-85269669D01*
X79796373Y-85235672D01*
X79796372Y-85235672D01*
X79796371Y-85235671D01*
X79722504Y-85186314D01*
X79659686Y-85123496D01*
X79610329Y-85049629D01*
X79610328Y-85049627D01*
X79576331Y-84967552D01*
X79559000Y-84880421D01*
X79559000Y-84791579D01*
X79576331Y-84704448D01*
X79610328Y-84622373D01*
X79659685Y-84548505D01*
X79722505Y-84485685D01*
X79759187Y-84461175D01*
X79796371Y-84436329D01*
X79796373Y-84436328D01*
X79878448Y-84402331D01*
X79965579Y-84385000D01*
X80054421Y-84385000D01*
X80141552Y-84402331D01*
X80141552Y-84402331D01*
G37*
G36*
X82935552Y-84402331D02*
G01*
X83017627Y-84436328D01*
X83017629Y-84436329D01*
X83054813Y-84461175D01*
X83091495Y-84485685D01*
X83154315Y-84548505D01*
X83203672Y-84622373D01*
X83237669Y-84704448D01*
X83255000Y-84791579D01*
X83255000Y-84880421D01*
X83237669Y-84967552D01*
X83203672Y-85049627D01*
X83203671Y-85049629D01*
X83154314Y-85123496D01*
X83091496Y-85186314D01*
X83017629Y-85235671D01*
X83017628Y-85235672D01*
X83017627Y-85235672D01*
X82935552Y-85269669D01*
X82848421Y-85287000D01*
X82759579Y-85287000D01*
X82672448Y-85269669D01*
X82590373Y-85235672D01*
X82590372Y-85235672D01*
X82590371Y-85235671D01*
X82516504Y-85186314D01*
X82453686Y-85123496D01*
X82404329Y-85049629D01*
X82404328Y-85049627D01*
X82370331Y-84967552D01*
X82353000Y-84880421D01*
X82353000Y-84791579D01*
X82370331Y-84704448D01*
X82404328Y-84622373D01*
X82453685Y-84548505D01*
X82516505Y-84485685D01*
X82553187Y-84461175D01*
X82590371Y-84436329D01*
X82590373Y-84436328D01*
X82672448Y-84402331D01*
X82759579Y-84385000D01*
X82848421Y-84385000D01*
X82935552Y-84402331D01*
X82935552Y-84402331D01*
G37*
G36*
X81538552Y-84402331D02*
G01*
X81620627Y-84436328D01*
X81620629Y-84436329D01*
X81657813Y-84461175D01*
X81694495Y-84485685D01*
X81757315Y-84548505D01*
X81806672Y-84622373D01*
X81840669Y-84704448D01*
X81858000Y-84791579D01*
X81858000Y-84880421D01*
X81840669Y-84967552D01*
X81806672Y-85049627D01*
X81806671Y-85049629D01*
X81757314Y-85123496D01*
X81694496Y-85186314D01*
X81620629Y-85235671D01*
X81620628Y-85235672D01*
X81620627Y-85235672D01*
X81538552Y-85269669D01*
X81451421Y-85287000D01*
X81362579Y-85287000D01*
X81275448Y-85269669D01*
X81193373Y-85235672D01*
X81193372Y-85235672D01*
X81193371Y-85235671D01*
X81119504Y-85186314D01*
X81056686Y-85123496D01*
X81007329Y-85049629D01*
X81007328Y-85049627D01*
X80973331Y-84967552D01*
X80956000Y-84880421D01*
X80956000Y-84791579D01*
X80973331Y-84704448D01*
X81007328Y-84622373D01*
X81056685Y-84548505D01*
X81119505Y-84485685D01*
X81156187Y-84461175D01*
X81193371Y-84436329D01*
X81193373Y-84436328D01*
X81275448Y-84402331D01*
X81362579Y-84385000D01*
X81451421Y-84385000D01*
X81538552Y-84402331D01*
X81538552Y-84402331D01*
G37*
G36*
X71124552Y-84338831D02*
G01*
X71206627Y-84372828D01*
X71206629Y-84372829D01*
X71280496Y-84422186D01*
X71343314Y-84485004D01*
X71385745Y-84548505D01*
X71392672Y-84558873D01*
X71426669Y-84640948D01*
X71444000Y-84728079D01*
X71444000Y-84816921D01*
X71426669Y-84904052D01*
X71392672Y-84986127D01*
X71343315Y-85059995D01*
X71280495Y-85122815D01*
X71243813Y-85147325D01*
X71206629Y-85172171D01*
X71206628Y-85172172D01*
X71206627Y-85172172D01*
X71124552Y-85206169D01*
X71037421Y-85223500D01*
X70948579Y-85223500D01*
X70861448Y-85206169D01*
X70779373Y-85172172D01*
X70779372Y-85172172D01*
X70779371Y-85172171D01*
X70742187Y-85147325D01*
X70705505Y-85122815D01*
X70642685Y-85059995D01*
X70593328Y-84986127D01*
X70559331Y-84904052D01*
X70542000Y-84816921D01*
X70542000Y-84728079D01*
X70559331Y-84640948D01*
X70593328Y-84558873D01*
X70600256Y-84548505D01*
X70642686Y-84485004D01*
X70705504Y-84422186D01*
X70779371Y-84372829D01*
X70779373Y-84372828D01*
X70861448Y-84338831D01*
X70948579Y-84321500D01*
X71037421Y-84321500D01*
X71124552Y-84338831D01*
X71124552Y-84338831D01*
G37*
G36*
X69791052Y-84338831D02*
G01*
X69873127Y-84372828D01*
X69873129Y-84372829D01*
X69946996Y-84422186D01*
X70009814Y-84485004D01*
X70052245Y-84548505D01*
X70059172Y-84558873D01*
X70093169Y-84640948D01*
X70110500Y-84728079D01*
X70110500Y-84816921D01*
X70093169Y-84904052D01*
X70059172Y-84986127D01*
X70009815Y-85059995D01*
X69946995Y-85122815D01*
X69910313Y-85147325D01*
X69873129Y-85172171D01*
X69873128Y-85172172D01*
X69873127Y-85172172D01*
X69791052Y-85206169D01*
X69703921Y-85223500D01*
X69615079Y-85223500D01*
X69527948Y-85206169D01*
X69445873Y-85172172D01*
X69445872Y-85172172D01*
X69445871Y-85172171D01*
X69408687Y-85147325D01*
X69372005Y-85122815D01*
X69309185Y-85059995D01*
X69259828Y-84986127D01*
X69225831Y-84904052D01*
X69208500Y-84816921D01*
X69208500Y-84728079D01*
X69225831Y-84640948D01*
X69259828Y-84558873D01*
X69266756Y-84548505D01*
X69309186Y-84485004D01*
X69372004Y-84422186D01*
X69445871Y-84372829D01*
X69445873Y-84372828D01*
X69527948Y-84338831D01*
X69615079Y-84321500D01*
X69703921Y-84321500D01*
X69791052Y-84338831D01*
X69791052Y-84338831D01*
G37*
G36*
X68394052Y-84338831D02*
G01*
X68476127Y-84372828D01*
X68476129Y-84372829D01*
X68549996Y-84422186D01*
X68612814Y-84485004D01*
X68655245Y-84548505D01*
X68662172Y-84558873D01*
X68696169Y-84640948D01*
X68713500Y-84728079D01*
X68713500Y-84816921D01*
X68696169Y-84904052D01*
X68662172Y-84986127D01*
X68612815Y-85059995D01*
X68549995Y-85122815D01*
X68513313Y-85147325D01*
X68476129Y-85172171D01*
X68476128Y-85172172D01*
X68476127Y-85172172D01*
X68394052Y-85206169D01*
X68306921Y-85223500D01*
X68218079Y-85223500D01*
X68130948Y-85206169D01*
X68048873Y-85172172D01*
X68048872Y-85172172D01*
X68048871Y-85172171D01*
X68011687Y-85147325D01*
X67975005Y-85122815D01*
X67912185Y-85059995D01*
X67862828Y-84986127D01*
X67828831Y-84904052D01*
X67811500Y-84816921D01*
X67811500Y-84728079D01*
X67828831Y-84640948D01*
X67862828Y-84558873D01*
X67869756Y-84548505D01*
X67912186Y-84485004D01*
X67975004Y-84422186D01*
X68048871Y-84372829D01*
X68048873Y-84372828D01*
X68130948Y-84338831D01*
X68218079Y-84321500D01*
X68306921Y-84321500D01*
X68394052Y-84338831D01*
X68394052Y-84338831D01*
G37*
G36*
X81538552Y-82878331D02*
G01*
X81620627Y-82912328D01*
X81620629Y-82912329D01*
X81694496Y-82961686D01*
X81757314Y-83024504D01*
X81792445Y-83077080D01*
X81806672Y-83098373D01*
X81840669Y-83180448D01*
X81858000Y-83267579D01*
X81858000Y-83356421D01*
X81840669Y-83443552D01*
X81808518Y-83521171D01*
X81806671Y-83525629D01*
X81757314Y-83599496D01*
X81694496Y-83662314D01*
X81620629Y-83711671D01*
X81620628Y-83711672D01*
X81620627Y-83711672D01*
X81538552Y-83745669D01*
X81451421Y-83763000D01*
X81362579Y-83763000D01*
X81275448Y-83745669D01*
X81193373Y-83711672D01*
X81193372Y-83711672D01*
X81193371Y-83711671D01*
X81119504Y-83662314D01*
X81056686Y-83599496D01*
X81007329Y-83525629D01*
X81005482Y-83521171D01*
X80973331Y-83443552D01*
X80956000Y-83356421D01*
X80956000Y-83267579D01*
X80973331Y-83180448D01*
X81007328Y-83098373D01*
X81021556Y-83077080D01*
X81056686Y-83024504D01*
X81119504Y-82961686D01*
X81193371Y-82912329D01*
X81193373Y-82912328D01*
X81275448Y-82878331D01*
X81362579Y-82861000D01*
X81451421Y-82861000D01*
X81538552Y-82878331D01*
X81538552Y-82878331D01*
G37*
G36*
X80141552Y-82878331D02*
G01*
X80223627Y-82912328D01*
X80223629Y-82912329D01*
X80297496Y-82961686D01*
X80360314Y-83024504D01*
X80395445Y-83077080D01*
X80409672Y-83098373D01*
X80443669Y-83180448D01*
X80461000Y-83267579D01*
X80461000Y-83356421D01*
X80443669Y-83443552D01*
X80411518Y-83521171D01*
X80409671Y-83525629D01*
X80360314Y-83599496D01*
X80297496Y-83662314D01*
X80223629Y-83711671D01*
X80223628Y-83711672D01*
X80223627Y-83711672D01*
X80141552Y-83745669D01*
X80054421Y-83763000D01*
X79965579Y-83763000D01*
X79878448Y-83745669D01*
X79796373Y-83711672D01*
X79796372Y-83711672D01*
X79796371Y-83711671D01*
X79722504Y-83662314D01*
X79659686Y-83599496D01*
X79610329Y-83525629D01*
X79608482Y-83521171D01*
X79576331Y-83443552D01*
X79559000Y-83356421D01*
X79559000Y-83267579D01*
X79576331Y-83180448D01*
X79610328Y-83098373D01*
X79624556Y-83077080D01*
X79659686Y-83024504D01*
X79722504Y-82961686D01*
X79796371Y-82912329D01*
X79796373Y-82912328D01*
X79878448Y-82878331D01*
X79965579Y-82861000D01*
X80054421Y-82861000D01*
X80141552Y-82878331D01*
X80141552Y-82878331D01*
G37*
G36*
X82935552Y-82878331D02*
G01*
X83017627Y-82912328D01*
X83017629Y-82912329D01*
X83091496Y-82961686D01*
X83154314Y-83024504D01*
X83189445Y-83077080D01*
X83203672Y-83098373D01*
X83237669Y-83180448D01*
X83255000Y-83267579D01*
X83255000Y-83356421D01*
X83237669Y-83443552D01*
X83205518Y-83521171D01*
X83203671Y-83525629D01*
X83154314Y-83599496D01*
X83091496Y-83662314D01*
X83017629Y-83711671D01*
X83017628Y-83711672D01*
X83017627Y-83711672D01*
X82935552Y-83745669D01*
X82848421Y-83763000D01*
X82759579Y-83763000D01*
X82672448Y-83745669D01*
X82590373Y-83711672D01*
X82590372Y-83711672D01*
X82590371Y-83711671D01*
X82516504Y-83662314D01*
X82453686Y-83599496D01*
X82404329Y-83525629D01*
X82402482Y-83521171D01*
X82370331Y-83443552D01*
X82353000Y-83356421D01*
X82353000Y-83267579D01*
X82370331Y-83180448D01*
X82404328Y-83098373D01*
X82418556Y-83077080D01*
X82453686Y-83024504D01*
X82516504Y-82961686D01*
X82590371Y-82912329D01*
X82590373Y-82912328D01*
X82672448Y-82878331D01*
X82759579Y-82861000D01*
X82848421Y-82861000D01*
X82935552Y-82878331D01*
X82935552Y-82878331D01*
G37*
G36*
X68394052Y-82687831D02*
G01*
X68476127Y-82721828D01*
X68476129Y-82721829D01*
X68513313Y-82746675D01*
X68549995Y-82771185D01*
X68612815Y-82834005D01*
X68662172Y-82907873D01*
X68696169Y-82989948D01*
X68713500Y-83077079D01*
X68713500Y-83165921D01*
X68696169Y-83253052D01*
X68662172Y-83335127D01*
X68662171Y-83335129D01*
X68612814Y-83408996D01*
X68549996Y-83471814D01*
X68476129Y-83521171D01*
X68476128Y-83521172D01*
X68476127Y-83521172D01*
X68394052Y-83555169D01*
X68306921Y-83572500D01*
X68218079Y-83572500D01*
X68130948Y-83555169D01*
X68048873Y-83521172D01*
X68048872Y-83521172D01*
X68048871Y-83521171D01*
X67975004Y-83471814D01*
X67912186Y-83408996D01*
X67862829Y-83335129D01*
X67862828Y-83335127D01*
X67828831Y-83253052D01*
X67811500Y-83165921D01*
X67811500Y-83077079D01*
X67828831Y-82989948D01*
X67862828Y-82907873D01*
X67912185Y-82834005D01*
X67975005Y-82771185D01*
X68011687Y-82746675D01*
X68048871Y-82721829D01*
X68048873Y-82721828D01*
X68130948Y-82687831D01*
X68218079Y-82670500D01*
X68306921Y-82670500D01*
X68394052Y-82687831D01*
X68394052Y-82687831D01*
G37*
G36*
X69791052Y-82687831D02*
G01*
X69873127Y-82721828D01*
X69873129Y-82721829D01*
X69910313Y-82746675D01*
X69946995Y-82771185D01*
X70009815Y-82834005D01*
X70059172Y-82907873D01*
X70093169Y-82989948D01*
X70110500Y-83077079D01*
X70110500Y-83165921D01*
X70093169Y-83253052D01*
X70059172Y-83335127D01*
X70059171Y-83335129D01*
X70009814Y-83408996D01*
X69946996Y-83471814D01*
X69873129Y-83521171D01*
X69873128Y-83521172D01*
X69873127Y-83521172D01*
X69791052Y-83555169D01*
X69703921Y-83572500D01*
X69615079Y-83572500D01*
X69527948Y-83555169D01*
X69445873Y-83521172D01*
X69445872Y-83521172D01*
X69445871Y-83521171D01*
X69372004Y-83471814D01*
X69309186Y-83408996D01*
X69259829Y-83335129D01*
X69259828Y-83335127D01*
X69225831Y-83253052D01*
X69208500Y-83165921D01*
X69208500Y-83077079D01*
X69225831Y-82989948D01*
X69259828Y-82907873D01*
X69309185Y-82834005D01*
X69372005Y-82771185D01*
X69408687Y-82746675D01*
X69445871Y-82721829D01*
X69445873Y-82721828D01*
X69527948Y-82687831D01*
X69615079Y-82670500D01*
X69703921Y-82670500D01*
X69791052Y-82687831D01*
X69791052Y-82687831D01*
G37*
G36*
X71124552Y-82687831D02*
G01*
X71206627Y-82721828D01*
X71206629Y-82721829D01*
X71243813Y-82746675D01*
X71280495Y-82771185D01*
X71343315Y-82834005D01*
X71392672Y-82907873D01*
X71426669Y-82989948D01*
X71444000Y-83077079D01*
X71444000Y-83165921D01*
X71426669Y-83253052D01*
X71392672Y-83335127D01*
X71392671Y-83335129D01*
X71343314Y-83408996D01*
X71280496Y-83471814D01*
X71206629Y-83521171D01*
X71206628Y-83521172D01*
X71206627Y-83521172D01*
X71124552Y-83555169D01*
X71037421Y-83572500D01*
X70948579Y-83572500D01*
X70861448Y-83555169D01*
X70779373Y-83521172D01*
X70779372Y-83521172D01*
X70779371Y-83521171D01*
X70705504Y-83471814D01*
X70642686Y-83408996D01*
X70593329Y-83335129D01*
X70593328Y-83335127D01*
X70559331Y-83253052D01*
X70542000Y-83165921D01*
X70542000Y-83077079D01*
X70559331Y-82989948D01*
X70593328Y-82907873D01*
X70642685Y-82834005D01*
X70705505Y-82771185D01*
X70742187Y-82746675D01*
X70779371Y-82721829D01*
X70779373Y-82721828D01*
X70861448Y-82687831D01*
X70948579Y-82670500D01*
X71037421Y-82670500D01*
X71124552Y-82687831D01*
X71124552Y-82687831D01*
G37*
G36*
X79379552Y-81354331D02*
G01*
X79461627Y-81388328D01*
X79461629Y-81388329D01*
X79498813Y-81413175D01*
X79535495Y-81437685D01*
X79598315Y-81500505D01*
X79647672Y-81574373D01*
X79681669Y-81656448D01*
X79699000Y-81743579D01*
X79699000Y-81832421D01*
X79681669Y-81919552D01*
X79647672Y-82001627D01*
X79647671Y-82001629D01*
X79598314Y-82075496D01*
X79535496Y-82138314D01*
X79461629Y-82187671D01*
X79461628Y-82187672D01*
X79461627Y-82187672D01*
X79379552Y-82221669D01*
X79292421Y-82239000D01*
X79203579Y-82239000D01*
X79116448Y-82221669D01*
X79034373Y-82187672D01*
X79034372Y-82187672D01*
X79034371Y-82187671D01*
X78960504Y-82138314D01*
X78897686Y-82075496D01*
X78848329Y-82001629D01*
X78848328Y-82001627D01*
X78814331Y-81919552D01*
X78797000Y-81832421D01*
X78797000Y-81743579D01*
X78814331Y-81656448D01*
X78848328Y-81574373D01*
X78897685Y-81500505D01*
X78960505Y-81437685D01*
X78997187Y-81413175D01*
X79034371Y-81388329D01*
X79034373Y-81388328D01*
X79116448Y-81354331D01*
X79203579Y-81337000D01*
X79292421Y-81337000D01*
X79379552Y-81354331D01*
X79379552Y-81354331D01*
G37*
G36*
X81221052Y-81354331D02*
G01*
X81303127Y-81388328D01*
X81303129Y-81388329D01*
X81340313Y-81413175D01*
X81376995Y-81437685D01*
X81439815Y-81500505D01*
X81489172Y-81574373D01*
X81523169Y-81656448D01*
X81540500Y-81743579D01*
X81540500Y-81832421D01*
X81523169Y-81919552D01*
X81489172Y-82001627D01*
X81489171Y-82001629D01*
X81439814Y-82075496D01*
X81376996Y-82138314D01*
X81303129Y-82187671D01*
X81303128Y-82187672D01*
X81303127Y-82187672D01*
X81221052Y-82221669D01*
X81133921Y-82239000D01*
X81045079Y-82239000D01*
X80957948Y-82221669D01*
X80875873Y-82187672D01*
X80875872Y-82187672D01*
X80875871Y-82187671D01*
X80802004Y-82138314D01*
X80739186Y-82075496D01*
X80689829Y-82001629D01*
X80689828Y-82001627D01*
X80655831Y-81919552D01*
X80638500Y-81832421D01*
X80638500Y-81743579D01*
X80655831Y-81656448D01*
X80689828Y-81574373D01*
X80739185Y-81500505D01*
X80802005Y-81437685D01*
X80838687Y-81413175D01*
X80875871Y-81388329D01*
X80875873Y-81388328D01*
X80957948Y-81354331D01*
X81045079Y-81337000D01*
X81133921Y-81337000D01*
X81221052Y-81354331D01*
X81221052Y-81354331D01*
G37*
G36*
X82935552Y-81354331D02*
G01*
X83017627Y-81388328D01*
X83017629Y-81388329D01*
X83054813Y-81413175D01*
X83091495Y-81437685D01*
X83154315Y-81500505D01*
X83203672Y-81574373D01*
X83237669Y-81656448D01*
X83255000Y-81743579D01*
X83255000Y-81832421D01*
X83237669Y-81919552D01*
X83203672Y-82001627D01*
X83203671Y-82001629D01*
X83154314Y-82075496D01*
X83091496Y-82138314D01*
X83017629Y-82187671D01*
X83017628Y-82187672D01*
X83017627Y-82187672D01*
X82935552Y-82221669D01*
X82848421Y-82239000D01*
X82759579Y-82239000D01*
X82672448Y-82221669D01*
X82590373Y-82187672D01*
X82590372Y-82187672D01*
X82590371Y-82187671D01*
X82516504Y-82138314D01*
X82453686Y-82075496D01*
X82404329Y-82001629D01*
X82404328Y-82001627D01*
X82370331Y-81919552D01*
X82353000Y-81832421D01*
X82353000Y-81743579D01*
X82370331Y-81656448D01*
X82404328Y-81574373D01*
X82453685Y-81500505D01*
X82516505Y-81437685D01*
X82553187Y-81413175D01*
X82590371Y-81388329D01*
X82590373Y-81388328D01*
X82672448Y-81354331D01*
X82759579Y-81337000D01*
X82848421Y-81337000D01*
X82935552Y-81354331D01*
X82935552Y-81354331D01*
G37*
G36*
X68394052Y-81227331D02*
G01*
X68476127Y-81261328D01*
X68476129Y-81261329D01*
X68549996Y-81310686D01*
X68612814Y-81373504D01*
X68655700Y-81437686D01*
X68662172Y-81447373D01*
X68696169Y-81529448D01*
X68713500Y-81616579D01*
X68713500Y-81705421D01*
X68696169Y-81792552D01*
X68662172Y-81874627D01*
X68662171Y-81874629D01*
X68612814Y-81948496D01*
X68549996Y-82011314D01*
X68476129Y-82060671D01*
X68476128Y-82060672D01*
X68476127Y-82060672D01*
X68394052Y-82094669D01*
X68306921Y-82112000D01*
X68218079Y-82112000D01*
X68130948Y-82094669D01*
X68048873Y-82060672D01*
X68048872Y-82060672D01*
X68048871Y-82060671D01*
X67975004Y-82011314D01*
X67912186Y-81948496D01*
X67862829Y-81874629D01*
X67862828Y-81874627D01*
X67828831Y-81792552D01*
X67811500Y-81705421D01*
X67811500Y-81616579D01*
X67828831Y-81529448D01*
X67862828Y-81447373D01*
X67869301Y-81437686D01*
X67912186Y-81373504D01*
X67975004Y-81310686D01*
X68048871Y-81261329D01*
X68048873Y-81261328D01*
X68130948Y-81227331D01*
X68218079Y-81210000D01*
X68306921Y-81210000D01*
X68394052Y-81227331D01*
X68394052Y-81227331D01*
G37*
G36*
X70045052Y-81227331D02*
G01*
X70127127Y-81261328D01*
X70127129Y-81261329D01*
X70200996Y-81310686D01*
X70263814Y-81373504D01*
X70306700Y-81437686D01*
X70313172Y-81447373D01*
X70347169Y-81529448D01*
X70364500Y-81616579D01*
X70364500Y-81705421D01*
X70347169Y-81792552D01*
X70313172Y-81874627D01*
X70313171Y-81874629D01*
X70263814Y-81948496D01*
X70200996Y-82011314D01*
X70127129Y-82060671D01*
X70127128Y-82060672D01*
X70127127Y-82060672D01*
X70045052Y-82094669D01*
X69957921Y-82112000D01*
X69869079Y-82112000D01*
X69781948Y-82094669D01*
X69699873Y-82060672D01*
X69699872Y-82060672D01*
X69699871Y-82060671D01*
X69626004Y-82011314D01*
X69563186Y-81948496D01*
X69513829Y-81874629D01*
X69513828Y-81874627D01*
X69479831Y-81792552D01*
X69462500Y-81705421D01*
X69462500Y-81616579D01*
X69479831Y-81529448D01*
X69513828Y-81447373D01*
X69520301Y-81437686D01*
X69563186Y-81373504D01*
X69626004Y-81310686D01*
X69699871Y-81261329D01*
X69699873Y-81261328D01*
X69781948Y-81227331D01*
X69869079Y-81210000D01*
X69957921Y-81210000D01*
X70045052Y-81227331D01*
X70045052Y-81227331D01*
G37*
G36*
X71696052Y-81227331D02*
G01*
X71778127Y-81261328D01*
X71778129Y-81261329D01*
X71851996Y-81310686D01*
X71914814Y-81373504D01*
X71957700Y-81437686D01*
X71964172Y-81447373D01*
X71998169Y-81529448D01*
X72015500Y-81616579D01*
X72015500Y-81705421D01*
X71998169Y-81792552D01*
X71964172Y-81874627D01*
X71964171Y-81874629D01*
X71914814Y-81948496D01*
X71851996Y-82011314D01*
X71778129Y-82060671D01*
X71778128Y-82060672D01*
X71778127Y-82060672D01*
X71696052Y-82094669D01*
X71608921Y-82112000D01*
X71520079Y-82112000D01*
X71432948Y-82094669D01*
X71350873Y-82060672D01*
X71350872Y-82060672D01*
X71350871Y-82060671D01*
X71277004Y-82011314D01*
X71214186Y-81948496D01*
X71164829Y-81874629D01*
X71164828Y-81874627D01*
X71130831Y-81792552D01*
X71113500Y-81705421D01*
X71113500Y-81616579D01*
X71130831Y-81529448D01*
X71164828Y-81447373D01*
X71171301Y-81437686D01*
X71214186Y-81373504D01*
X71277004Y-81310686D01*
X71350871Y-81261329D01*
X71350873Y-81261328D01*
X71432948Y-81227331D01*
X71520079Y-81210000D01*
X71608921Y-81210000D01*
X71696052Y-81227331D01*
X71696052Y-81227331D01*
G37*
G36*
X82935552Y-79830331D02*
G01*
X83017627Y-79864328D01*
X83017629Y-79864329D01*
X83054813Y-79889175D01*
X83091495Y-79913685D01*
X83154315Y-79976505D01*
X83203672Y-80050373D01*
X83237669Y-80132448D01*
X83255000Y-80219579D01*
X83255000Y-80308421D01*
X83237669Y-80395552D01*
X83203672Y-80477627D01*
X83203671Y-80477629D01*
X83154314Y-80551496D01*
X83091496Y-80614314D01*
X83017629Y-80663671D01*
X83017628Y-80663672D01*
X83017627Y-80663672D01*
X82935552Y-80697669D01*
X82848421Y-80715000D01*
X82759579Y-80715000D01*
X82672448Y-80697669D01*
X82590373Y-80663672D01*
X82590372Y-80663672D01*
X82590371Y-80663671D01*
X82516504Y-80614314D01*
X82453686Y-80551496D01*
X82404329Y-80477629D01*
X82404328Y-80477627D01*
X82370331Y-80395552D01*
X82353000Y-80308421D01*
X82353000Y-80219579D01*
X82370331Y-80132448D01*
X82404328Y-80050373D01*
X82453685Y-79976505D01*
X82516505Y-79913685D01*
X82553187Y-79889175D01*
X82590371Y-79864329D01*
X82590373Y-79864328D01*
X82672448Y-79830331D01*
X82759579Y-79813000D01*
X82848421Y-79813000D01*
X82935552Y-79830331D01*
X82935552Y-79830331D01*
G37*
G36*
X81221052Y-79830331D02*
G01*
X81303127Y-79864328D01*
X81303129Y-79864329D01*
X81340313Y-79889175D01*
X81376995Y-79913685D01*
X81439815Y-79976505D01*
X81489172Y-80050373D01*
X81523169Y-80132448D01*
X81540500Y-80219579D01*
X81540500Y-80308421D01*
X81523169Y-80395552D01*
X81489172Y-80477627D01*
X81489171Y-80477629D01*
X81439814Y-80551496D01*
X81376996Y-80614314D01*
X81303129Y-80663671D01*
X81303128Y-80663672D01*
X81303127Y-80663672D01*
X81221052Y-80697669D01*
X81133921Y-80715000D01*
X81045079Y-80715000D01*
X80957948Y-80697669D01*
X80875873Y-80663672D01*
X80875872Y-80663672D01*
X80875871Y-80663671D01*
X80802004Y-80614314D01*
X80739186Y-80551496D01*
X80689829Y-80477629D01*
X80689828Y-80477627D01*
X80655831Y-80395552D01*
X80638500Y-80308421D01*
X80638500Y-80219579D01*
X80655831Y-80132448D01*
X80689828Y-80050373D01*
X80739185Y-79976505D01*
X80802005Y-79913685D01*
X80838687Y-79889175D01*
X80875871Y-79864329D01*
X80875873Y-79864328D01*
X80957948Y-79830331D01*
X81045079Y-79813000D01*
X81133921Y-79813000D01*
X81221052Y-79830331D01*
X81221052Y-79830331D01*
G37*
G36*
X79379552Y-79830331D02*
G01*
X79461627Y-79864328D01*
X79461629Y-79864329D01*
X79498813Y-79889175D01*
X79535495Y-79913685D01*
X79598315Y-79976505D01*
X79647672Y-80050373D01*
X79681669Y-80132448D01*
X79699000Y-80219579D01*
X79699000Y-80308421D01*
X79681669Y-80395552D01*
X79647672Y-80477627D01*
X79647671Y-80477629D01*
X79598314Y-80551496D01*
X79535496Y-80614314D01*
X79461629Y-80663671D01*
X79461628Y-80663672D01*
X79461627Y-80663672D01*
X79379552Y-80697669D01*
X79292421Y-80715000D01*
X79203579Y-80715000D01*
X79116448Y-80697669D01*
X79034373Y-80663672D01*
X79034372Y-80663672D01*
X79034371Y-80663671D01*
X78960504Y-80614314D01*
X78897686Y-80551496D01*
X78848329Y-80477629D01*
X78848328Y-80477627D01*
X78814331Y-80395552D01*
X78797000Y-80308421D01*
X78797000Y-80219579D01*
X78814331Y-80132448D01*
X78848328Y-80050373D01*
X78897685Y-79976505D01*
X78960505Y-79913685D01*
X78997187Y-79889175D01*
X79034371Y-79864329D01*
X79034373Y-79864328D01*
X79116448Y-79830331D01*
X79203579Y-79813000D01*
X79292421Y-79813000D01*
X79379552Y-79830331D01*
X79379552Y-79830331D01*
G37*
G36*
X71696052Y-79766831D02*
G01*
X71778127Y-79800828D01*
X71778129Y-79800829D01*
X71851996Y-79850186D01*
X71914814Y-79913004D01*
X71957245Y-79976505D01*
X71964172Y-79986873D01*
X71998169Y-80068948D01*
X72015500Y-80156079D01*
X72015500Y-80244921D01*
X71998169Y-80332052D01*
X71964172Y-80414127D01*
X71914815Y-80487995D01*
X71851995Y-80550815D01*
X71815313Y-80575325D01*
X71778129Y-80600171D01*
X71778128Y-80600172D01*
X71778127Y-80600172D01*
X71696052Y-80634169D01*
X71608921Y-80651500D01*
X71520079Y-80651500D01*
X71432948Y-80634169D01*
X71350873Y-80600172D01*
X71350872Y-80600172D01*
X71350871Y-80600171D01*
X71313687Y-80575325D01*
X71277005Y-80550815D01*
X71214185Y-80487995D01*
X71164828Y-80414127D01*
X71130831Y-80332052D01*
X71113500Y-80244921D01*
X71113500Y-80156079D01*
X71130831Y-80068948D01*
X71164828Y-79986873D01*
X71171756Y-79976505D01*
X71214186Y-79913004D01*
X71277004Y-79850186D01*
X71350871Y-79800829D01*
X71350873Y-79800828D01*
X71432948Y-79766831D01*
X71520079Y-79749500D01*
X71608921Y-79749500D01*
X71696052Y-79766831D01*
X71696052Y-79766831D01*
G37*
G36*
X68394052Y-79766831D02*
G01*
X68476127Y-79800828D01*
X68476129Y-79800829D01*
X68549996Y-79850186D01*
X68612814Y-79913004D01*
X68655245Y-79976505D01*
X68662172Y-79986873D01*
X68696169Y-80068948D01*
X68713500Y-80156079D01*
X68713500Y-80244921D01*
X68696169Y-80332052D01*
X68662172Y-80414127D01*
X68612815Y-80487995D01*
X68549995Y-80550815D01*
X68513313Y-80575325D01*
X68476129Y-80600171D01*
X68476128Y-80600172D01*
X68476127Y-80600172D01*
X68394052Y-80634169D01*
X68306921Y-80651500D01*
X68218079Y-80651500D01*
X68130948Y-80634169D01*
X68048873Y-80600172D01*
X68048872Y-80600172D01*
X68048871Y-80600171D01*
X68011687Y-80575325D01*
X67975005Y-80550815D01*
X67912185Y-80487995D01*
X67862828Y-80414127D01*
X67828831Y-80332052D01*
X67811500Y-80244921D01*
X67811500Y-80156079D01*
X67828831Y-80068948D01*
X67862828Y-79986873D01*
X67869756Y-79976505D01*
X67912186Y-79913004D01*
X67975004Y-79850186D01*
X68048871Y-79800829D01*
X68048873Y-79800828D01*
X68130948Y-79766831D01*
X68218079Y-79749500D01*
X68306921Y-79749500D01*
X68394052Y-79766831D01*
X68394052Y-79766831D01*
G37*
G36*
X70045052Y-79766831D02*
G01*
X70127127Y-79800828D01*
X70127129Y-79800829D01*
X70200996Y-79850186D01*
X70263814Y-79913004D01*
X70306245Y-79976505D01*
X70313172Y-79986873D01*
X70347169Y-80068948D01*
X70364500Y-80156079D01*
X70364500Y-80244921D01*
X70347169Y-80332052D01*
X70313172Y-80414127D01*
X70263815Y-80487995D01*
X70200995Y-80550815D01*
X70164313Y-80575325D01*
X70127129Y-80600171D01*
X70127128Y-80600172D01*
X70127127Y-80600172D01*
X70045052Y-80634169D01*
X69957921Y-80651500D01*
X69869079Y-80651500D01*
X69781948Y-80634169D01*
X69699873Y-80600172D01*
X69699872Y-80600172D01*
X69699871Y-80600171D01*
X69662687Y-80575325D01*
X69626005Y-80550815D01*
X69563185Y-80487995D01*
X69513828Y-80414127D01*
X69479831Y-80332052D01*
X69462500Y-80244921D01*
X69462500Y-80156079D01*
X69479831Y-80068948D01*
X69513828Y-79986873D01*
X69520756Y-79976505D01*
X69563186Y-79913004D01*
X69626004Y-79850186D01*
X69699871Y-79800829D01*
X69699873Y-79800828D01*
X69781948Y-79766831D01*
X69869079Y-79749500D01*
X69957921Y-79749500D01*
X70045052Y-79766831D01*
X70045052Y-79766831D01*
G37*
G36*
X98339000Y-79719500D02*
G01*
X96987000Y-79719500D01*
X96987000Y-78617500D01*
X98339000Y-78617500D01*
X98339000Y-79719500D01*
X98339000Y-79719500D01*
G37*
G36*
X98339000Y-77719500D02*
G01*
X96987000Y-77719500D01*
X96987000Y-76617500D01*
X98339000Y-76617500D01*
X98339000Y-77719500D01*
X98339000Y-77719500D01*
G37*
G36*
X65193272Y-74850118D02*
G01*
X65408479Y-74939259D01*
X65439139Y-74951959D01*
X65550528Y-75026387D01*
X65660411Y-75099809D01*
X65848591Y-75287989D01*
X65996442Y-75509263D01*
X66098282Y-75755128D01*
X66150200Y-76016137D01*
X66150200Y-76282263D01*
X66098282Y-76543272D01*
X66001702Y-76776439D01*
X65996441Y-76789139D01*
X65848590Y-77010412D01*
X65660412Y-77198590D01*
X65439139Y-77346441D01*
X65439138Y-77346442D01*
X65439137Y-77346442D01*
X65193272Y-77448282D01*
X64932263Y-77500200D01*
X64666137Y-77500200D01*
X64405128Y-77448282D01*
X64159263Y-77346442D01*
X64159262Y-77346442D01*
X64159261Y-77346441D01*
X63937988Y-77198590D01*
X63749810Y-77010412D01*
X63601959Y-76789139D01*
X63596699Y-76776439D01*
X63500118Y-76543272D01*
X63448200Y-76282263D01*
X63448200Y-76016137D01*
X63500118Y-75755128D01*
X63601958Y-75509263D01*
X63749809Y-75287989D01*
X63937989Y-75099809D01*
X64047872Y-75026387D01*
X64159261Y-74951959D01*
X64189922Y-74939259D01*
X64405128Y-74850118D01*
X64666137Y-74798200D01*
X64932263Y-74798200D01*
X65193272Y-74850118D01*
X65193272Y-74850118D01*
G37*
G36*
X71150200Y-77500200D02*
G01*
X68448200Y-77500200D01*
X68448200Y-74798200D01*
X71150200Y-74798200D01*
X71150200Y-77500200D01*
X71150200Y-77500200D01*
G37*
G36*
X60193272Y-74850118D02*
G01*
X60408479Y-74939259D01*
X60439139Y-74951959D01*
X60550528Y-75026387D01*
X60660411Y-75099809D01*
X60848591Y-75287989D01*
X60996442Y-75509263D01*
X61098282Y-75755128D01*
X61150200Y-76016137D01*
X61150200Y-76282263D01*
X61098282Y-76543272D01*
X61001702Y-76776439D01*
X60996441Y-76789139D01*
X60848590Y-77010412D01*
X60660412Y-77198590D01*
X60439139Y-77346441D01*
X60439138Y-77346442D01*
X60439137Y-77346442D01*
X60193272Y-77448282D01*
X59932263Y-77500200D01*
X59666137Y-77500200D01*
X59405128Y-77448282D01*
X59159263Y-77346442D01*
X59159262Y-77346442D01*
X59159261Y-77346441D01*
X58937988Y-77198590D01*
X58749810Y-77010412D01*
X58601959Y-76789139D01*
X58596699Y-76776439D01*
X58500118Y-76543272D01*
X58448200Y-76282263D01*
X58448200Y-76016137D01*
X58500118Y-75755128D01*
X58601958Y-75509263D01*
X58749809Y-75287989D01*
X58937989Y-75099809D01*
X59047872Y-75026387D01*
X59159261Y-74951959D01*
X59189922Y-74939259D01*
X59405128Y-74850118D01*
X59666137Y-74798200D01*
X59932263Y-74798200D01*
X60193272Y-74850118D01*
X60193272Y-74850118D01*
G37*
G36*
X82504000Y-77487500D02*
G01*
X79802000Y-77487500D01*
X79802000Y-74785500D01*
X82504000Y-74785500D01*
X82504000Y-77487500D01*
X82504000Y-77487500D01*
G37*
G36*
X76467072Y-74837418D02*
G01*
X76637232Y-74907900D01*
X76712939Y-74939259D01*
X76824328Y-75013687D01*
X76934211Y-75087109D01*
X77122391Y-75275289D01*
X77270242Y-75496563D01*
X77372082Y-75742428D01*
X77424000Y-76003437D01*
X77424000Y-76269563D01*
X77372082Y-76530572D01*
X77270242Y-76776437D01*
X77122391Y-76997711D01*
X76934211Y-77185891D01*
X76915204Y-77198591D01*
X76712939Y-77333741D01*
X76712938Y-77333742D01*
X76712937Y-77333742D01*
X76467072Y-77435582D01*
X76206063Y-77487500D01*
X75939937Y-77487500D01*
X75678928Y-77435582D01*
X75433063Y-77333742D01*
X75433062Y-77333742D01*
X75433061Y-77333741D01*
X75230796Y-77198591D01*
X75211789Y-77185891D01*
X75023609Y-76997711D01*
X74875758Y-76776437D01*
X74773918Y-76530572D01*
X74722000Y-76269563D01*
X74722000Y-76003437D01*
X74773918Y-75742428D01*
X74875758Y-75496563D01*
X75023609Y-75275289D01*
X75211789Y-75087109D01*
X75321672Y-75013687D01*
X75433061Y-74939259D01*
X75508769Y-74907900D01*
X75678928Y-74837418D01*
X75939937Y-74785500D01*
X76206063Y-74785500D01*
X76467072Y-74837418D01*
X76467072Y-74837418D01*
G37*
G36*
X98514000Y-76162000D02*
G01*
X96812000Y-76162000D01*
X96812000Y-74460000D01*
X98514000Y-74460000D01*
X98514000Y-76162000D01*
X98514000Y-76162000D01*
G37*
G36*
X91411228Y-74492703D02*
G01*
X91566100Y-74556853D01*
X91705481Y-74649985D01*
X91824015Y-74768519D01*
X91917147Y-74907900D01*
X91981297Y-75062772D01*
X92014000Y-75227184D01*
X92014000Y-75394816D01*
X91981297Y-75559228D01*
X91917147Y-75714100D01*
X91824015Y-75853481D01*
X91705481Y-75972015D01*
X91566100Y-76065147D01*
X91411228Y-76129297D01*
X91246816Y-76162000D01*
X91079184Y-76162000D01*
X90914772Y-76129297D01*
X90759900Y-76065147D01*
X90620519Y-75972015D01*
X90501985Y-75853481D01*
X90408853Y-75714100D01*
X90344703Y-75559228D01*
X90312000Y-75394816D01*
X90312000Y-75227184D01*
X90344703Y-75062772D01*
X90408853Y-74907900D01*
X90501985Y-74768519D01*
X90620519Y-74649985D01*
X90759900Y-74556853D01*
X90914772Y-74492703D01*
X91079184Y-74460000D01*
X91246816Y-74460000D01*
X91411228Y-74492703D01*
X91411228Y-74492703D01*
G37*
G36*
X110489239Y-69455467D02*
G01*
X110803282Y-69517934D01*
X111394926Y-69763001D01*
X111927392Y-70118784D01*
X112380216Y-70571608D01*
X112735999Y-71104074D01*
X112981066Y-71695718D01*
X113106000Y-72323804D01*
X113106000Y-72964196D01*
X112981066Y-73592282D01*
X112735999Y-74183926D01*
X112380216Y-74716392D01*
X111927392Y-75169216D01*
X111394926Y-75524999D01*
X110803282Y-75770066D01*
X110489239Y-75832533D01*
X110175197Y-75895000D01*
X109534803Y-75895000D01*
X109220761Y-75832533D01*
X108906718Y-75770066D01*
X108315074Y-75524999D01*
X107782608Y-75169216D01*
X107329784Y-74716392D01*
X106974001Y-74183926D01*
X106728934Y-73592282D01*
X106604000Y-72964196D01*
X106604000Y-72323804D01*
X106728934Y-71695718D01*
X106974001Y-71104074D01*
X107329784Y-70571608D01*
X107782608Y-70118784D01*
X108315074Y-69763001D01*
X108906718Y-69517934D01*
X109220761Y-69455467D01*
X109534803Y-69393000D01*
X110175197Y-69393000D01*
X110489239Y-69455467D01*
X110489239Y-69455467D01*
G37*
G36*
X52069239Y-69455467D02*
G01*
X52383282Y-69517934D01*
X52974926Y-69763001D01*
X53507392Y-70118784D01*
X53960216Y-70571608D01*
X54315999Y-71104074D01*
X54561066Y-71695718D01*
X54686000Y-72323804D01*
X54686000Y-72964196D01*
X54561066Y-73592282D01*
X54315999Y-74183926D01*
X53960216Y-74716392D01*
X53507392Y-75169216D01*
X52974926Y-75524999D01*
X52383282Y-75770066D01*
X52069239Y-75832533D01*
X51755197Y-75895000D01*
X51114803Y-75895000D01*
X50800761Y-75832533D01*
X50486718Y-75770066D01*
X49895074Y-75524999D01*
X49362608Y-75169216D01*
X48909784Y-74716392D01*
X48554001Y-74183926D01*
X48308934Y-73592282D01*
X48184000Y-72964196D01*
X48184000Y-72323804D01*
X48308934Y-71695718D01*
X48554001Y-71104074D01*
X48909784Y-70571608D01*
X49362608Y-70118784D01*
X49895074Y-69763001D01*
X50486718Y-69517934D01*
X50800761Y-69455467D01*
X51114803Y-69393000D01*
X51755197Y-69393000D01*
X52069239Y-69455467D01*
X52069239Y-69455467D01*
G37*
M02*
