M48
; DRILL file {KiCad (5.1.4)-1} date 2020-04-24 18:52:47
; FORMAT={-:-/ absolute / inch / decimal}
; #@! TF.CreationDate,2020-04-24T18:52:47+02:00
; #@! TF.GenerationSoftware,Kicad,Pcbnew,(5.1.4)-1
FMAT,2
INCH
T1C0.0157
T2C0.0315
T3C0.0354
T4C0.0394
T5C0.0400
T6C0.0512
T7C0.0866
T8C0.1260
%
G90
G05
T1
X2.24Y-4.46
X2.24Y-4.52
X2.27Y-4.37
X2.28Y-4.03
X2.28Y-4.64
X2.3225Y-3.575
X2.34Y-4.36
X2.38Y-4.78
X2.4Y-4.34
X2.425Y-4.495
X2.435Y-4.795
X2.46Y-4.34
X2.46Y-4.64
X2.47Y-4.6
X2.4775Y-3.66
X2.4831Y-4.8485
X2.5Y-3.8983
X2.54Y-4.36
X2.55Y-4.63
X2.56Y-4.46
X2.56Y-4.5
X2.61Y-3.495
X2.6255Y-4.8885
X2.66Y-4.24
X2.6875Y-3.1575
X2.6875Y-3.215
X2.6875Y-3.2725
X2.6875Y-3.3375
X2.69Y-4.21
X2.7Y-4.48
X2.7Y-4.54
X2.71Y-4.7406
X2.7191Y-4.8895
X2.7425Y-3.2725
X2.7425Y-3.3375
X2.7425Y-4.7125
X2.745Y-3.7775
X2.7475Y-4.67
X2.7525Y-3.1575
X2.7525Y-3.215
X2.7772Y-4.8661
X2.785Y-4.8275
X2.795Y-3.2725
X2.795Y-3.3375
X2.8Y-3.54
X2.8175Y-3.1575
X2.8175Y-3.215
X2.8202Y-4.774
X2.84Y-4.18
X2.9Y-4.08
X2.96Y-3.99
X3.0025Y-4.9775
X3.11Y-4.91
X3.12Y-3.16
X3.12Y-3.22
X3.1448Y-4.2152
X3.15Y-3.28
X3.15Y-3.34
X3.1925Y-3.16
X3.1925Y-3.22
X3.205Y-3.28
X3.205Y-3.34
X3.21Y-4.775
X3.22Y-3.79
X3.2425Y-4.5475
X3.26Y-3.16
X3.26Y-3.22
X3.26Y-3.28
X3.26Y-3.34
X3.29Y-3.99
X3.35Y-3.91
X3.35Y-4.28
X3.44Y-3.82
X3.45Y-3.76
X3.45Y-4.12
X3.52Y-4.54
X3.5478Y-4.7488
X3.6025Y-3.8225
X3.66Y-3.98
X3.7475Y-4.7488
X3.765Y-4.905
X3.7925Y-4.7488
X3.8085Y-3.91
X3.81Y-4.21
X3.81Y-4.69
X3.82Y-4.1
X3.84Y-3.82
X3.9Y-4.1
X3.9025Y-4.7525
X4.14Y-4.95
X4.44Y-4.75
T2
X1.96Y-4.4039
X1.96Y-4.5961
T3
X4.37Y-3.5431
X4.37Y-3.6416
X4.37Y-3.74
X4.37Y-3.9831
X4.37Y-4.0816
X4.37Y-4.18
X4.37Y-4.4231
X4.37Y-4.5216
X4.37Y-4.62
X2.28Y-4.95
X2.3784Y-4.95
X2.4769Y-4.95
X2.5753Y-4.95
T4
X3.353Y-3.483
X3.453Y-3.483
X3.553Y-3.483
X3.653Y-3.483
X3.5891Y-2.965
X3.845Y-2.965
X1.99Y-3.4316
X1.99Y-3.53
T5
X2.46Y-4.04
X2.46Y-4.14
X2.56Y-4.04
X2.56Y-4.14
X2.66Y-4.04
X2.66Y-4.14
T6
X2.995Y-2.9975
X3.195Y-2.9975
X2.3543Y-2.998
X2.5511Y-2.998
X2.748Y-2.998
T7
X2.9969Y-3.4987
X4.0091Y-3.4987
X4.0091Y-4.5932
X2.9969Y-4.5932
T8
X2.025Y-2.86
X4.325Y-2.86
X2.025Y-5.0
X4.325Y-5.0
T0
M30
